<?xml version="1.0" standalone="no"?>
<!DOCTYPE svg PUBLIC "-//W3C//DTD SVG 20010904//EN"
 "http://www.w3.org/TR/2001/REC-SVG-20010904/DTD/svg10.dtd">
<svg version="1.0" xmlns="http://www.w3.org/2000/svg"
 width="656.000000pt" height="300.000000pt" viewBox="0 0 656.000000 300.000000"
 preserveAspectRatio="xMidYMid meet">
<metadata>
Created by potrace 1.15, written by Peter Selinger 2001-2017
</metadata>
<g transform="translate(0.000000,300.000000) scale(0.100000,-0.100000)"
fill="#000000" stroke="none">
<path d="M7 2993 c-4 -3 -7 -678 -7 -1500 l0 -1493 843 2 842 3 -837 2 -838 3
0 1490 0 1490 838 3 837 2 -836 3 c-460 1 -839 -1 -842 -5z"/>
<path d="M4060 2605 l0 -395 -395 0 -395 0 0 140 0 140 -29 0 c-26 0 -30 4
-33 33 l-3 32 -537 3 c-296 1 -538 -1 -538 -5 0 -5 241 -7 535 -5 l535 2 0
-335 0 -335 -535 2 c-294 2 -535 0 -535 -4 0 -5 14 -8 30 -8 27 0 30 -3 30
-30 l0 -30 540 0 540 0 0 130 0 130 395 0 395 0 0 -630 c0 -594 1 -630 18
-629 10 0 12 3 5 6 -10 4 -13 139 -13 629 0 548 2 624 15 624 12 0 15 -13 15
-60 0 -33 3 -60 8 -60 4 0 45 38 92 85 47 47 88 85 92 85 5 0 8 -160 8 -355
l0 -355 703 2 702 3 3 723 2 722 -705 0 -705 0 0 -350 c0 -192 -3 -350 -8
-350 -4 0 -45 38 -92 85 -47 47 -88 85 -92 85 -5 0 -8 -27 -8 -60 0 -47 -3
-60 -15 -60 -13 0 -15 50 -15 390 l0 390 1248 3 1247 2 -1252 3 -1253 2 0
-395z m1638 -467 l-3 -713 -692 -3 -693 -2 0 715 0 715 695 0 695 0 -2 -712z
m-1488 87 l85 -85 -93 -93 -92 -92 0 63 0 62 -420 0 -420 0 0 60 0 60 420 0
420 0 0 55 c0 30 3 55 8 55 4 0 46 -38 92 -85z"/>
<path d="M4380 2705 l0 -105 325 0 325 0 0 105 0 105 -325 0 -325 0 0 -105z
m640 0 l0 -85 -185 0 -185 0 0 40 0 40 -90 0 -90 0 0 -40 0 -40 -40 0 -40 0 0
85 0 85 315 0 315 0 0 -85z"/>
<path d="M5377 2710 c-8 -22 -11 -40 -6 -40 5 0 9 5 9 10 0 14 38 12 43 -2 2
-7 7 -10 11 -7 8 7 -21 79 -33 79 -4 0 -15 -18 -24 -40z m33 4 c0 -8 -5 -12
-10 -9 -6 4 -8 11 -5 16 9 14 15 11 15 -7z"/>
<path d="M5451 2708 c1 -24 3 -35 6 -26 2 9 14 18 26 20 14 2 23 11 25 26 3
19 -1 22 -27 22 -30 0 -31 -1 -30 -42z m42 17 c1 -5 -6 -11 -15 -13 -11 -2
-18 3 -18 13 0 17 30 18 33 0z"/>
<path d="M5520 2710 c0 -22 5 -40 10 -40 6 0 10 18 10 40 0 22 -4 40 -10 40
-5 0 -10 -18 -10 -40z"/>
<path d="M5564 2739 c-3 -6 -2 -14 4 -18 5 -3 12 -17 15 -31 3 -16 5 -10 6 18
1 40 -10 54 -25 31z"/>
<path d="M4380 2480 l0 -100 325 0 325 0 0 100 0 100 -325 0 -325 0 0 -100z
m640 0 l0 -90 -184 0 -185 0 -3 43 -3 42 -87 3 -88 3 0 -46 0 -45 -40 0 -40 0
0 90 0 90 315 0 315 0 0 -90z"/>
<path d="M5158 2563 c18 -7 15 -50 -5 -62 -27 -16 -4 -13 44 5 24 9 43 21 43
26 0 9 -38 26 -73 31 -12 2 -16 2 -9 0z m57 -33 c-3 -5 -10 -10 -16 -10 -5 0
-9 5 -9 10 0 6 7 10 16 10 8 0 12 -4 9 -10z"/>
<path d="M5145 2470 c-3 -5 3 -10 14 -10 14 0 21 -6 21 -19 0 -24 25 -45 45
-37 9 3 15 18 15 41 0 35 0 35 -44 35 -25 0 -48 -4 -51 -10z m85 -28 c0 -26
-11 -34 -27 -21 -20 17 -16 39 7 39 13 0 20 -7 20 -18z"/>
<path d="M5145 2380 c-4 -6 13 -10 44 -10 28 0 51 5 51 10 0 6 -20 10 -44 10
-25 0 -48 -4 -51 -10z"/>
<path d="M4380 2255 l0 -105 325 0 325 0 0 105 0 105 -325 0 -325 0 0 -105z
m640 0 l0 -85 -185 0 -185 0 0 40 0 40 -90 0 -90 0 0 -40 0 -40 -40 0 -40 0 0
85 0 85 315 0 315 0 0 -85z"/>
<path d="M5140 2275 c0 -19 5 -35 10 -35 6 0 10 14 10 31 0 39 23 34 31 -7 l6
-29 4 28 c5 38 22 39 30 2 6 -29 7 -29 8 8 l1 37 -50 0 -50 0 0 -35z"/>
<path d="M5165 2211 c17 -3 30 -13 30 -21 0 -8 -13 -18 -30 -21 -29 -6 -29 -7
8 -8 20 0 38 2 38 7 9 50 7 52 -35 51 -38 -1 -38 -2 -11 -8z"/>
<path d="M5153 2138 c-6 -7 -10 -21 -10 -30 0 -15 9 -18 51 -17 28 1 43 3 33
6 -9 2 -15 9 -11 14 16 27 -43 52 -63 27z m52 -18 c8 -13 -20 -24 -41 -16 -20
8 -9 26 16 26 10 0 22 -5 25 -10z"/>
<path d="M4380 2030 l0 -100 325 0 325 0 0 100 0 100 -325 0 -325 0 0 -100z
m640 0 l0 -90 -184 0 -185 0 -3 43 -3 42 -87 3 -88 3 0 -46 0 -45 -40 0 -40 0
0 90 0 90 315 0 315 0 0 -90z"/>
<path d="M5126 2062 c7 -4 13 -16 15 -27 5 -26 63 -34 72 -11 13 32 -3 46 -52
46 -25 0 -41 -4 -35 -8z m73 -15 c13 -16 5 -27 -20 -27 -24 0 -35 20 -18 31
19 12 25 11 38 -4z"/>
<path d="M5149 1984 c-9 -11 -10 -20 -2 -32 14 -22 53 -22 67 1 9 15 7 21 -8
33 -25 18 -40 18 -57 -2z m55 -13 c9 -13 -19 -32 -38 -25 -17 6 -20 16 -9 27
9 10 41 9 47 -2z"/>
<path d="M5150 1910 c0 -5 14 -10 30 -10 17 0 30 5 30 10 0 6 -13 10 -30 10
-16 0 -30 -4 -30 -10z"/>
<path d="M4380 1805 l0 -105 325 0 325 0 0 105 0 105 -325 0 -325 0 0 -105z
m640 0 l0 -85 -185 0 -185 0 0 40 0 40 -90 0 -90 0 0 -40 0 -40 -40 0 -40 0 0
85 0 85 315 0 315 0 0 -85z"/>
<path d="M5150 1880 c0 -5 11 -10 25 -10 38 0 32 -28 -7 -33 l-33 -4 37 -1
c41 -2 50 5 41 36 -4 16 -13 22 -34 22 -16 0 -29 -4 -29 -10z"/>
<path d="M5146 1802 c-6 -10 70 -9 80 1 4 4 -11 7 -34 7 -22 0 -43 -4 -46 -8z"/>
<path d="M5144 1755 c-3 -8 -3 -19 1 -25 10 -17 33 -11 40 10 4 11 10 18 15
15 5 -3 7 -13 4 -23 -5 -15 -5 -15 6 1 6 9 8 22 5 27 -10 17 -33 11 -40 -10
-4 -11 -11 -18 -16 -14 -6 3 -8 12 -5 20 3 8 3 14 0 14 -2 0 -7 -7 -10 -15z"/>
<path d="M4380 1580 l0 -100 325 0 325 0 0 100 0 100 -325 0 -325 0 0 -100z
m640 0 l0 -90 -184 0 -185 0 -3 43 -3 42 -87 3 -88 3 0 -46 0 -45 -40 0 -40 0
0 90 0 90 315 0 315 0 0 -90z"/>
<path d="M230 2870 c0 -5 7 -10 15 -10 11 0 15 -12 15 -44 0 -25 5 -48 10 -51
6 -4 10 13 10 44 0 39 4 51 15 51 8 0 15 5 15 10 0 6 -18 10 -40 10 -22 0 -40
-4 -40 -10z"/>
<path d="M707 2830 c-13 -30 -22 -59 -19 -64 3 -5 9 0 13 12 11 30 54 30 64 0
3 -13 8 -18 11 -12 3 6 -6 36 -19 65 l-25 54 -25 -55z m43 -12 c0 -5 -7 -8
-15 -8 -15 0 -20 21 -8 33 7 7 23 -11 23 -25z"/>
<path d="M6204 2866 c-10 -25 0 -69 19 -80 19 -12 48 0 55 25 3 9 -2 8 -17 -5
-20 -18 -23 -18 -38 -4 -35 36 10 90 46 56 11 -11 13 -10 9 2 -6 21 -66 26
-74 6z"/>
<path d="M6300 2830 c0 -46 2 -50 24 -50 31 0 56 24 56 54 0 30 -18 46 -52 46
-27 0 -28 -2 -28 -50z m60 21 c14 -27 2 -51 -26 -51 -21 0 -24 5 -24 35 0 28
4 35 20 35 10 0 24 -9 30 -19z"/>
<path d="M6400 2860 c0 -14 9 -24 30 -31 17 -6 30 -15 30 -19 0 -13 -26 -19
-41 -9 -23 15 -34 10 -17 -7 22 -22 68 -11 68 17 0 11 -8 22 -17 25 -10 3 -24
8 -32 10 -11 4 -12 7 -2 17 9 9 16 9 32 -2 18 -10 20 -10 17 1 -3 7 -19 14
-36 16 -27 3 -32 0 -32 -18z"/>
<path d="M520 2854 c0 -8 -5 -12 -10 -9 -17 11 -40 -15 -40 -45 0 -30 17 -42
49 -33 18 4 21 13 21 54 0 27 -4 49 -10 49 -5 0 -10 -7 -10 -16z m-2 -51 c-2
-17 -9 -28 -18 -28 -9 0 -16 11 -18 28 -3 22 1 27 18 27 17 0 21 -5 18 -27z"/>
<path d="M970 2821 c0 -28 5 -53 10 -56 6 -4 10 15 10 49 0 31 -4 56 -10 56
-5 0 -10 -22 -10 -49z"/>
<path d="M1218 2858 c-6 -18 3 -98 11 -98 8 0 7 98 -1 106 -3 3 -8 -1 -10 -8z"/>
<path d="M343 2843 c-8 -3 -12 -21 -11 -46 1 -38 2 -39 5 -9 3 18 11 36 19 39
8 3 14 9 14 14 0 10 -8 10 -27 2z"/>
<path d="M389 2834 c-11 -13 -9 -14 14 -9 16 5 27 3 27 -3 0 -6 -10 -12 -22
-14 -15 -2 -23 -10 -23 -23 0 -16 7 -20 33 -20 30 -1 32 1 32 36 0 24 -5 39
-16 43 -23 9 -30 8 -45 -10z m41 -43 c0 -14 -18 -23 -30 -16 -6 4 -8 11 -5 16
8 12 35 12 35 0z"/>
<path d="M566 2831 c-21 -24 -14 -57 15 -66 19 -6 55 12 44 23 -2 3 -11 -1
-19 -7 -8 -7 -20 -10 -26 -6 -20 12 -10 25 20 25 35 0 41 23 11 40 -25 13 -25
13 -45 -9z m44 -11 c0 -5 -9 -10 -20 -10 -11 0 -20 5 -20 10 0 6 9 10 20 10
11 0 20 -4 20 -10z"/>
<path d="M813 2843 c-9 -3 -13 -24 -12 -61 1 -31 4 -47 6 -35 3 14 9 20 19 16
36 -13 58 42 28 71 -16 17 -21 18 -41 9z m35 -40 c-3 -30 -25 -42 -34 -19 -9
22 2 46 21 46 12 0 15 -8 13 -27z"/>
<path d="M903 2843 c-9 -3 -13 -24 -12 -61 1 -31 4 -47 6 -35 3 13 10 20 17
17 16 -6 46 21 46 41 0 14 -27 46 -38 44 -4 0 -13 -3 -19 -6z m35 -40 c-2 -17
-9 -28 -18 -28 -9 0 -16 11 -18 28 -3 22 1 27 18 27 17 0 21 -5 18 -27z"/>
<path d="M1056 2834 c-20 -19 -20 -48 -1 -64 16 -13 55 -5 55 12 0 7 -5 6 -15
-2 -19 -16 -35 -4 -35 27 0 22 4 25 25 21 28 -6 34 6 9 16 -21 8 -20 8 -38
-10z"/>
<path d="M1137 2843 c-13 -13 -7 -21 13 -16 11 3 20 1 20 -5 0 -6 -10 -12 -22
-14 -15 -2 -23 -10 -23 -23 0 -16 7 -20 33 -21 31 -1 32 1 32 36 0 25 -5 40
-16 44 -20 8 -29 8 -37 -1z m33 -52 c0 -14 -18 -23 -30 -16 -6 4 -8 11 -5 16
8 12 35 12 35 0z"/>
<path d="M1302 2838 c-30 -30 -2 -86 38 -73 34 11 22 85 -15 85 -6 0 -16 -5
-23 -12z m46 -32 c2 -10 -1 -23 -7 -29 -15 -15 -46 16 -37 38 8 21 40 15 44
-9z"/>
<path d="M1398 2843 c-13 -3 -18 -15 -18 -39 0 -19 5 -34 10 -34 6 0 10 14 10
30 0 20 5 30 15 30 10 0 15 -10 15 -30 0 -16 5 -30 10 -30 14 0 12 54 -2 68
-7 7 -14 11 -17 11 -4 -1 -14 -3 -23 -6z"/>
<path d="M1013 2800 c0 -25 2 -35 4 -22 2 12 2 32 0 45 -2 12 -4 2 -4 -23z"/>
<path d="M1263 2800 c0 -25 2 -35 4 -22 2 12 2 32 0 45 -2 12 -4 2 -4 -23z"/>
<path d="M2235 2414 c-17 -41 -20 -68 -4 -41 5 9 16 17 24 17 8 0 19 -8 24
-17 6 -10 11 -13 11 -7 0 15 -29 84 -35 84 -3 0 -12 -16 -20 -36z m25 -4 c0
-5 -5 -10 -11 -10 -5 0 -7 5 -4 10 3 6 8 10 11 10 2 0 4 -4 4 -10z"/>
<path d="M2301 2403 c0 -39 2 -44 9 -25 5 12 18 22 29 22 23 0 34 23 18 39 -6
6 -21 11 -34 11 -21 0 -23 -4 -22 -47z m49 17 c0 -5 -9 -10 -20 -10 -11 0 -20
5 -20 10 0 6 9 10 20 10 11 0 20 -4 20 -10z"/>
<path d="M2383 2405 c0 -27 2 -38 4 -22 2 15 2 37 0 50 -2 12 -4 0 -4 -28z"/>
<path d="M2420 2435 c-8 -9 -8 -15 -2 -15 6 0 13 -15 15 -32 3 -25 4 -22 5 15
2 51 1 54 -18 32z"/>
<path d="M2621 2407 c-1 -45 1 -48 22 -45 17 2 22 10 22 33 0 20 -5 30 -15 30
-8 0 -18 7 -22 15 -4 8 -7 -7 -7 -33z m37 -14 c-4 -22 -22 -20 -26 1 -2 10 3
16 13 16 10 0 15 -7 13 -17z"/>
<path d="M2950 2439 c0 -5 5 -7 10 -4 6 3 10 8 10 11 0 2 -4 4 -10 4 -5 0 -10
-5 -10 -11z"/>
<path d="M2929 2435 c-4 -5 -4 -25 -2 -42 4 -24 11 -33 24 -33 14 0 19 7 19
30 0 38 -19 40 -21 3 -1 -21 -3 -18 -8 12 -3 22 -9 36 -12 30z"/>
<path d="M2507 2423 c-13 -12 -7 -33 8 -33 8 0 15 -5 15 -11 0 -6 -7 -8 -17
-4 -14 5 -15 3 -6 -6 13 -13 43 -6 43 11 0 6 -10 15 -22 20 -19 7 -19 9 -5 9
10 1 15 6 12 11 -7 12 -19 13 -28 3z"/>
<path d="M2684 2418 c-4 -6 0 -16 9 -23 22 -16 22 -26 0 -18 -11 4 -14 3 -9
-5 4 -7 13 -12 21 -12 23 0 29 22 10 37 -18 13 -18 13 1 13 16 0 17 2 4 10
-20 13 -27 12 -36 -2z"/>
<path d="M2744 2416 c-10 -25 1 -51 20 -51 11 0 22 7 24 15 4 12 3 13 -10 3
-16 -14 -28 -8 -28 14 0 7 10 13 23 13 18 0 19 2 7 10 -21 13 -30 12 -36 -4z"/>
<path d="M2813 2423 c-7 -3 -12 -19 -12 -36 2 -31 2 -31 6 -4 5 31 23 37 23 8
0 -11 5 -23 10 -26 6 -4 10 6 10 23 0 30 -14 43 -37 35z"/>
<path d="M2873 2423 c-8 -3 -13 -22 -13 -46 0 -23 4 -37 8 -31 4 6 15 13 25
17 13 5 17 15 15 34 -3 27 -14 35 -35 26z m25 -30 c-4 -22 -22 -20 -26 1 -2
10 3 16 13 16 10 0 15 -7 13 -17z"/>
<path d="M2991 2420 c-7 -4 -11 -18 -9 -31 5 -35 42 -33 46 2 3 28 -16 43 -37
29z m27 -27 c-4 -22 -22 -20 -26 1 -2 10 3 16 13 16 10 0 15 -7 13 -17z"/>
<path d="M3053 2423 c-7 -2 -13 -19 -13 -35 0 -17 3 -28 7 -24 4 4 8 15 8 23
0 29 23 25 28 -4 4 -23 5 -21 3 6 -1 35 -10 44 -33 34z"/>
<path d="M2561 2393 c-1 -29 2 -33 24 -33 21 0 25 5 25 31 0 17 -4 28 -10 24
-5 -3 -10 -15 -10 -26 0 -29 -18 -23 -23 9 -4 25 -4 25 -6 -5z"/>
<path d="M2296 2282 c7 -4 14 -18 17 -32 l4 -25 2 27 c0 14 7 29 14 31 6 3 -1
6 -18 6 -16 0 -25 -3 -19 -7z"/>
<path d="M2741 2272 c-16 -30 -14 -37 14 -37 29 0 29 1 11 34 -13 24 -14 24
-25 3z"/>
<path d="M2387 2273 c-10 -16 19 -39 48 -40 17 0 22 1 12 4 -19 5 -17 30 2 26
6 -2 11 2 11 7 0 17 -18 11 -34 -12 -13 -18 -16 -19 -16 -6 0 19 -16 33 -23
21z"/>
<path d="M2486 2273 c-3 -4 -6 -15 -6 -25 0 -12 7 -18 23 -17 21 0 21 1 2 9
-17 7 -17 9 -2 9 9 1 17 5 17 10 0 11 -26 22 -34 14z"/>
<path d="M2564 2272 c-11 -8 -12 -36 -1 -39 18 -7 27 -1 27 16 0 23 -12 33
-26 23z"/>
<path d="M2613 2273 c-7 -3 -13 -18 -13 -34 0 -29 1 -29 24 -14 22 14 25 14
28 1 3 -13 7 -12 28 4 20 15 22 21 11 34 -9 11 -18 13 -31 6 -9 -5 -21 -5 -26
-1 -5 5 -15 6 -21 4z m13 -30 c-10 -10 -19 5 -10 18 6 11 8 11 12 0 2 -7 1
-15 -2 -18z m64 6 c0 -5 -4 -9 -10 -9 -5 0 -10 7 -10 16 0 8 5 12 10 9 6 -3
10 -10 10 -16z"/>
<path d="M2350 2250 c0 -11 2 -20 4 -20 2 0 6 9 9 20 3 11 1 20 -4 20 -5 0 -9
-9 -9 -20z"/>
<path d="M2228 2253 c7 -3 16 -2 19 1 4 3 -2 6 -13 5 -11 0 -14 -3 -6 -6z"/>
<path d="M2370 2240 c0 -5 5 -10 10 -10 6 0 10 5 10 10 0 6 -4 10 -10 10 -5 0
-10 -4 -10 -10z"/>
<path d="M1643 2145 c0 -38 2 -53 4 -32 2 20 2 52 0 70 -2 17 -4 1 -4 -38z"/>
<path d="M2285 2144 c-11 -12 -12 -20 -5 -35 11 -20 35 -25 44 -10 4 5 -3 7
-14 4 -15 -4 -20 0 -20 14 0 27 10 35 27 22 8 -7 13 -8 13 -1 0 18 -29 22 -45
6z"/>
<path d="M2392 2120 c0 -19 2 -27 5 -17 2 9 2 25 0 35 -3 9 -5 1 -5 -18z"/>
<path d="M2412 2120 c0 -19 2 -27 5 -17 2 9 2 25 0 35 -3 9 -5 1 -5 -18z"/>
<path d="M2430 2121 c0 -24 4 -31 19 -31 23 0 35 25 18 38 -32 24 -37 23 -37
-7z m26 -18 c-10 -10 -19 5 -10 18 6 11 8 11 12 0 2 -7 1 -15 -2 -18z"/>
<path d="M2581 2121 c-1 -33 0 -34 14 -15 16 21 20 38 6 30 -5 -4 -12 0 -14 6
-3 7 -6 -2 -6 -21z"/>
<path d="M2653 2125 c2 -23 7 -31 25 -33 19 -3 22 1 21 30 -2 31 -2 31 -6 5
-5 -33 -24 -31 -35 4 -6 22 -7 21 -5 -6z"/>
<path d="M2722 2120 c0 -19 2 -27 5 -17 4 17 6 17 22 3 16 -15 18 -14 18 14 0
16 -4 30 -9 30 -5 0 -6 -4 -3 -10 3 -5 0 -10 -9 -10 -8 0 -17 6 -19 13 -3 6
-5 -4 -5 -23z"/>
<path d="M2781 2123 c-1 -28 2 -33 22 -32 15 1 17 3 5 6 -9 2 -19 16 -21 31
-4 24 -4 24 -6 -5z"/>
<path d="M2881 2118 c1 -30 2 -31 8 -8 l7 24 17 -24 c9 -13 17 -19 17 -12 0
14 -31 52 -42 52 -5 0 -8 -15 -7 -32z"/>
<path d="M2953 2135 c-3 -9 -3 -18 -1 -21 3 -3 8 4 11 16 6 23 -1 27 -10 5z"/>
<path d="M2979 2124 c-5 -15 -7 -29 -4 -32 3 -3 5 0 5 6 0 7 7 12 15 12 8 0
15 -4 15 -10 0 -5 4 -10 9 -10 5 0 4 14 -2 30 -14 37 -24 38 -38 4z"/>
<path d="M2358 2131 c11 -7 11 -9 -2 -14 -23 -9 -20 -27 4 -27 15 0 20 7 20
25 0 17 -5 25 -17 25 -14 0 -15 -2 -5 -9z"/>
<path d="M2498 2131 c11 -7 11 -9 -2 -14 -23 -9 -20 -27 4 -27 15 0 20 7 20
25 0 17 -5 25 -17 25 -14 0 -15 -2 -5 -9z"/>
<path d="M2534 2125 c-3 -8 -3 -19 1 -25 8 -13 35 -13 35 0 0 5 -7 7 -16 3
-12 -4 -15 -2 -12 8 3 8 11 13 17 11 7 -1 10 2 6 8 -9 15 -25 12 -31 -5z"/>
<path d="M5830 1786 c-14 -18 -10 -58 8 -64 11 -3 11 0 1 16 -10 17 -10 23 0
36 8 9 21 16 31 16 10 0 23 -7 31 -16 10 -13 10 -19 0 -36 -10 -16 -10 -19 1
-16 18 6 22 46 8 64 -7 7 -25 14 -40 14 -15 0 -33 -7 -40 -14z"/>
<path d="M5820 1672 c0 -35 16 -52 50 -52 34 0 50 17 50 52 0 27 -2 28 -50 28
-48 0 -50 -1 -50 -28z m80 -12 c0 -40 -60 -36 -68 4 -3 12 4 16 32 16 30 0 36
-4 36 -20z"/>
<path d="M5831 1596 c-7 -8 -11 -25 -9 -38 4 -33 39 -30 56 5 10 21 17 26 25
18 8 -8 8 -14 -1 -23 -18 -18 -15 -33 3 -18 22 18 15 54 -10 58 -15 2 -24 -6
-33 -30 -9 -25 -14 -30 -24 -20 -10 10 -10 17 0 33 16 25 10 36 -7 15z"/>
<path d="M5833 1467 c21 -17 22 -46 2 -53 -8 -4 -15 -10 -15 -15 0 -4 23 1 50
13 28 11 50 24 50 27 0 4 -17 13 -37 20 -65 23 -70 24 -50 8z m57 -27 c0 -5
-7 -10 -15 -10 -8 0 -15 5 -15 10 0 6 7 10 15 10 8 0 15 -4 15 -10z"/>
<path d="M5837 1373 c15 -3 23 -13 25 -31 2 -21 8 -27 28 -27 21 0 26 5 28 33
l3 32 -53 -1 c-29 -1 -43 -4 -31 -6z m63 -29 c0 -31 -23 -28 -28 4 -2 15 2 22
12 22 11 0 16 -9 16 -26z"/>
<path d="M4300 1058 l0 -303 -95 95 c-103 103 -109 103 -102 9 l3 -54 2 58 c1
31 5 57 9 57 4 0 47 -39 95 -87 l88 -88 -87 -87 c-48 -49 -91 -88 -95 -88 -5
0 -9 21 -10 48 l-1 47 -4 -44 c-8 -84 1 -82 102 19 l95 95 0 -303 0 -302 705
0 705 0 0 615 0 615 -705 0 -705 0 0 -302z m1400 -313 l0 -605 -695 0 -695 0
0 605 0 605 695 0 695 0 0 -605z"/>
<path d="M4380 1200 l0 -100 325 0 325 0 0 100 0 100 -325 0 -325 0 0 -100z
m640 0 l0 -90 -184 0 -185 0 -3 43 -3 42 -87 0 -88 0 0 -43 0 -43 -37 3 -38 3
-3 88 -3 87 316 0 315 0 0 -90z"/>
<path d="M5377 1210 c-17 -44 -16 -46 13 -28 16 11 22 9 34 -7 9 -11 16 -17
16 -13 0 15 -32 88 -40 88 -4 0 -14 -18 -23 -40z m33 0 c0 -5 -5 -10 -11 -10
-5 0 -7 5 -4 10 3 6 8 10 11 10 2 0 4 -4 4 -10z"/>
<path d="M5451 1203 c1 -26 4 -38 6 -25 3 16 11 22 29 22 21 0 25 4 22 23 -2
16 -11 23 -30 25 -27 3 -28 2 -27 -45z m44 17 c-3 -5 -13 -10 -21 -10 -8 0
-14 5 -14 10 0 6 9 10 21 10 11 0 17 -4 14 -10z"/>
<path d="M5520 1204 c0 -27 4 -43 10 -39 6 3 10 24 10 46 0 21 -4 39 -10 39
-5 0 -10 -21 -10 -46z"/>
<path d="M5557 1243 c-13 -13 -7 -25 7 -14 24 20 30 -8 7 -33 -27 -29 -26 -36
4 -36 14 0 25 5 25 10 0 6 -5 10 -11 10 -6 0 -4 9 5 22 11 16 13 25 4 35 -11
14 -31 17 -41 6z"/>
<path d="M5153 1169 c9 -5 17 -19 17 -29 0 -10 -8 -24 -17 -29 -10 -6 -12 -11
-6 -11 20 0 93 31 93 40 0 9 -73 40 -93 40 -6 0 -4 -5 6 -11z m62 -29 c-3 -5
-10 -10 -16 -10 -5 0 -9 5 -9 10 0 6 7 10 16 10 8 0 12 -4 9 -10z"/>
<path d="M4380 975 l0 -105 325 0 325 0 0 105 0 105 -325 0 -325 0 0 -105z
m640 0 l0 -85 -185 0 -185 0 0 40 0 40 -90 0 -90 0 0 -40 0 -40 -40 0 -40 0 0
85 0 85 315 0 315 0 0 -85z"/>
<path d="M5156 1073 c15 -3 24 -14 28 -34 5 -25 10 -30 28 -27 18 2 24 11 26
36 l3 32 -53 -1 c-29 -1 -43 -4 -32 -6z m74 -21 c0 -26 -11 -34 -27 -21 -20
17 -16 39 7 39 13 0 20 -7 20 -18z"/>
<path d="M5163 983 c15 -2 39 -2 55 0 15 2 2 4 -28 4 -30 0 -43 -2 -27 -4z"/>
<path d="M5147 913 c-11 -10 -8 -63 3 -63 6 0 10 11 10 25 0 34 28 32 33 -2
l4 -28 2 28 c0 16 7 27 15 27 8 0 17 -12 19 -27 3 -23 4 -21 6 10 l1 37 -43 0
c-24 0 -47 -3 -50 -7z"/>
<path d="M4380 750 l0 -100 325 0 325 0 0 100 0 100 -325 0 -325 0 0 -100z
m640 0 l0 -90 -184 0 -185 0 -3 43 -3 42 -87 3 -88 3 0 -46 0 -45 -40 0 -40 0
0 90 0 90 315 0 315 0 0 -90z"/>
<path d="M5165 821 c43 -9 45 -39 3 -44 l-33 -4 37 -1 c41 -2 52 8 43 38 -5
16 -15 20 -43 19 -36 -1 -36 -2 -7 -8z"/>
<path d="M5150 745 c-24 -29 -8 -50 43 -53 28 -2 47 1 47 7 0 11 -18 15 -57
12 -11 -1 -24 3 -28 8 -10 17 25 26 46 12 11 -6 19 -7 19 -1 0 10 -32 30 -48
30 -5 0 -15 -7 -22 -15z"/>
<path d="M5120 670 c0 -5 5 -10 10 -10 6 0 10 -7 10 -15 0 -9 7 -18 15 -22 14
-5 14 -8 -2 -25 -13 -15 -15 -23 -6 -36 14 -22 53 -22 67 1 9 15 7 21 -8 32
-17 13 -17 15 -2 31 10 9 15 23 12 31 -3 8 -6 17 -6 19 0 2 -20 4 -45 4 -25 0
-45 -4 -45 -10z m80 -25 c0 -15 -43 -12 -48 3 -3 10 4 13 22 10 15 -2 26 -7
26 -13z m4 -64 c9 -13 -19 -32 -38 -25 -17 6 -20 16 -9 27 9 10 41 9 47 -2z"/>
<path d="M4380 525 l0 -105 325 0 325 0 0 105 0 105 -325 0 -325 0 0 -105z
m640 0 l0 -85 -185 0 -185 0 0 40 0 40 -90 0 -90 0 0 -40 0 -40 -40 0 -40 0 0
85 0 85 315 0 315 0 0 -85z"/>
<path d="M5150 520 c0 -5 14 -10 30 -10 17 0 30 5 30 10 0 6 -13 10 -30 10
-16 0 -30 -4 -30 -10z"/>
<path d="M5150 490 c0 -5 11 -10 25 -10 38 0 32 -28 -7 -33 l-33 -4 37 -1 c41
-2 50 5 41 36 -4 16 -13 22 -34 22 -16 0 -29 -4 -29 -10z"/>
<path d="M5147 413 c-15 -14 -5 -18 38 -15 25 2 45 8 45 13 0 10 -73 12 -83 2z"/>
<path d="M4380 300 l0 -100 325 0 325 0 0 100 0 100 -325 0 -325 0 0 -100z
m640 0 l0 -90 -184 0 -185 0 -3 43 -3 42 -87 3 -88 3 0 -46 0 -45 -40 0 -40 0
0 90 0 90 315 0 315 0 0 -90z"/>
<path d="M5179 367 c-13 -28 -35 -27 -24 2 5 12 3 13 -6 4 -15 -14 -5 -43 15
-43 8 0 18 9 21 20 4 11 10 18 15 15 5 -3 7 -13 4 -23 -5 -14 -4 -14 6 2 10
14 9 21 -3 34 -14 14 -17 13 -28 -11z"/>
<path d="M5843 1283 c15 -2 39 -2 55 0 15 2 2 4 -28 4 -30 0 -43 -2 -27 -4z"/>
<path d="M5827 1253 c-11 -10 -8 -41 4 -49 7 -4 20 4 31 17 14 16 18 18 14 7
-3 -10 -1 -18 5 -18 14 0 7 42 -8 47 -6 2 -14 -5 -18 -16 -3 -12 -11 -21 -16
-21 -6 0 -7 9 -4 20 6 20 4 25 -8 13z"/>
<path d="M2130 990 l0 -170 -245 0 -245 0 0 -70 c0 -66 1 -70 23 -70 12 -1
122 0 245 0 l222 1 0 -101 0 -100 30 0 c27 0 30 -3 30 -30 l0 -30 540 0 540 0
0 130 0 130 173 3 172 3 -173 2 -173 2 1 63 c1 34 1 126 1 205 l-1 142 -30 0
c-27 0 -30 3 -30 30 l0 30 -540 0 -540 0 0 -170z m1070 -170 l0 -330 -530 0
-530 0 0 330 0 330 530 0 530 0 0 -330z m-1070 -70 l0 -60 -240 0 -240 0 0 60
0 60 240 0 240 0 0 -60z"/>
<path d="M2232 1017 c-16 -45 -15 -49 7 -35 15 9 23 9 35 -1 20 -17 20 -10 2
34 -19 44 -29 44 -44 2z m25 -9 c-3 -8 -6 -5 -6 6 -1 11 2 17 5 13 3 -3 4 -12
1 -19z"/>
<path d="M2300 1009 c0 -25 4 -38 10 -34 6 4 8 11 5 16 -4 5 3 9 13 9 23 0 46
25 37 40 -3 5 -19 10 -36 10 -27 0 -29 -2 -29 -41z m50 22 c0 -14 -18 -23 -30
-16 -6 4 -8 11 -5 16 8 12 35 12 35 0z"/>
<path d="M2383 1010 c0 -25 2 -35 4 -22 2 12 2 32 0 45 -2 12 -4 2 -4 -23z"/>
<path d="M2410 1039 c0 -5 5 -7 10 -4 6 3 15 3 21 -1 7 -4 0 -17 -17 -35 l-28
-29 35 1 c19 1 26 3 16 6 -17 4 -18 6 -2 24 10 10 15 25 12 34 -7 17 -47 21
-47 4z"/>
<path d="M2621 1013 c-1 -38 2 -43 20 -43 12 0 27 7 34 16 10 14 15 15 31 5
18 -12 18 -12 -4 -8 -12 3 -20 1 -16 -4 8 -13 44 -11 44 2 0 7 -8 18 -17 26
-17 14 -17 14 2 8 16 -5 18 -4 7 7 -10 10 -16 10 -32 0 -12 -7 -20 -8 -20 -2
0 5 -9 10 -19 10 -11 0 -22 6 -24 13 -3 6 -6 -7 -6 -30z m39 -13 c0 -21 -15
-27 -25 -10 -7 12 2 30 16 30 5 0 9 -9 9 -20z"/>
<path d="M2928 1045 c-3 -6 -3 -25 -1 -42 4 -24 11 -33 24 -33 14 0 19 7 19
30 0 19 -5 30 -14 30 -8 0 -16 5 -18 12 -3 7 -7 8 -10 3z m19 -57 c-3 -7 -5
-2 -5 12 0 14 2 19 5 13 2 -7 2 -19 0 -25z"/>
<path d="M2500 1019 c0 -7 8 -18 18 -26 16 -14 16 -14 0 -9 -10 3 -18 1 -18
-5 0 -14 42 -7 47 7 2 6 -7 16 -19 23 -13 6 -15 9 -5 7 9 -3 17 -1 17 4 0 6
-9 10 -20 10 -11 0 -20 -5 -20 -11z"/>
<path d="M2561 1003 c-1 -29 2 -33 24 -33 22 0 25 4 24 33 -1 29 -2 29 -8 8
-9 -35 -29 -37 -34 -4 -4 27 -4 27 -6 -4z"/>
<path d="M2744 1015 c-11 -27 4 -44 36 -42 23 2 30 7 30 24 0 12 6 24 13 26 7
3 5 6 -5 6 -11 1 -18 -6 -18 -18 0 -19 -35 -39 -47 -27 -11 11 7 38 23 32 8
-3 12 -2 9 4 -9 15 -35 12 -41 -5z"/>
<path d="M2842 1000 c0 -19 2 -27 5 -17 2 9 2 25 0 35 -3 9 -5 1 -5 -18z"/>
<path d="M2861 983 c1 -26 3 -40 6 -30 2 9 13 17 24 17 31 0 22 54 -8 58 -21
3 -23 0 -22 -45z m39 17 c0 -21 -15 -27 -25 -10 -7 12 2 30 16 30 5 0 9 -9 9
-20z"/>
<path d="M2984 1015 c-4 -8 -4 -22 0 -30 7 -18 42 -20 49 -2 4 10 6 10 6 0 2
-24 21 -13 21 12 0 14 5 25 10 25 6 0 10 -11 10 -25 0 -14 5 -25 11 -25 6 0 9
12 7 28 -2 21 -9 28 -30 30 -21 3 -28 -1 -28 -15 -1 -17 -1 -17 -11 0 -12 21
-38 22 -45 2z m36 -15 c0 -11 -7 -20 -15 -20 -15 0 -21 21 -8 33 12 13 23 7
23 -13z"/>
<path d="M2298 888 c5 -7 12 -24 15 -38 4 -22 4 -21 6 7 0 17 7 34 14 36 6 3
-1 6 -17 6 -22 1 -26 -2 -18 -11z"/>
<path d="M2742 875 c-14 -31 -16 -57 -3 -36 5 8 16 11 25 8 19 -8 20 0 3 31
l-13 23 -12 -26z"/>
<path d="M2448 882 c-23 -4 -25 -52 -3 -52 17 0 29 21 23 42 -1 8 -11 12 -20
10z m12 -21 c0 -6 -4 -13 -10 -16 -5 -3 -10 1 -10 9 0 9 5 16 10 16 6 0 10 -4
10 -9z"/>
<path d="M2350 855 c0 -14 2 -25 4 -25 2 0 6 11 8 25 3 14 1 25 -3 25 -5 0 -9
-11 -9 -25z"/>
<path d="M2388 871 c11 -7 10 -9 -3 -15 -19 -7 -11 -26 11 -26 8 0 14 10 14
25 0 17 -5 25 -17 25 -14 0 -15 -2 -5 -9z"/>
<path d="M2480 855 c0 -20 4 -26 18 -23 9 2 17 12 17 23 0 11 -8 21 -17 23
-14 3 -18 -3 -18 -23z"/>
<path d="M2568 871 c11 -7 10 -9 -3 -15 -19 -7 -11 -26 11 -26 8 0 14 10 14
25 0 17 -5 25 -17 25 -14 0 -15 -2 -5 -9z"/>
<path d="M2605 872 c-3 -3 -5 -16 -5 -28 0 -21 3 -22 25 -14 16 6 25 6 25 0 0
-11 32 -1 42 13 13 21 -4 36 -42 35 -22 0 -41 -3 -45 -6z m29 -23 c-3 -5 -10
-7 -15 -3 -5 3 -7 10 -3 15 3 5 10 7 15 3 5 -3 7 -10 3 -15z m50 0 c-3 -5 -10
-7 -15 -3 -5 3 -7 10 -3 15 3 5 10 7 15 3 5 -3 7 -10 3 -15z"/>
<path d="M2228 863 c7 -3 16 -2 19 1 4 3 -2 6 -13 5 -11 0 -14 -3 -6 -6z"/>
<path d="M2287 773 c-12 -11 -8 -51 6 -56 16 -6 37 3 37 15 0 7 -5 6 -13 -1
-17 -13 -27 -5 -27 22 0 14 5 18 20 14 11 -3 20 -1 20 4 0 10 -33 12 -43 2z"/>
<path d="M2392 750 c0 -19 2 -27 5 -17 2 9 2 25 0 35 -3 9 -5 1 -5 -18z"/>
<path d="M2412 750 c0 -19 2 -27 5 -17 2 9 2 25 0 35 -3 9 -5 1 -5 -18z"/>
<path d="M2430 752 c0 -18 4 -32 8 -32 10 0 10 46 0 56 -5 4 -8 -7 -8 -24z"/>
<path d="M2581 755 c-1 -23 4 -31 18 -32 14 -1 17 3 14 18 -3 10 -9 17 -13 14
-5 -3 -11 3 -13 12 -3 10 -5 5 -6 -12z"/>
<path d="M2651 760 c0 -15 4 -31 10 -37 19 -19 39 -3 38 31 l-1 31 -7 -30 c-3
-16 -11 -30 -16 -30 -5 0 -13 14 -16 30 -6 28 -7 28 -8 5z"/>
<path d="M2720 748 c0 -24 3 -29 9 -19 7 11 13 12 23 4 10 -9 13 -5 15 18 2
25 -1 29 -22 29 -22 0 -25 -5 -25 -32z m35 12 c-3 -5 -10 -10 -16 -10 -5 0 -9
5 -9 10 0 6 7 10 16 10 8 0 12 -4 9 -10z"/>
<path d="M2780 750 c0 -16 4 -30 8 -30 5 0 7 14 4 30 -2 17 -6 30 -8 30 -2 0
-4 -13 -4 -30z"/>
<path d="M2350 759 c-13 -9 -12 -10 3 -5 12 4 17 0 18 -17 1 -18 2 -19 6 -3 6
24 -8 38 -27 25z"/>
<path d="M2495 759 c-5 -8 -4 -10 3 -5 8 5 12 -1 13 -16 1 -18 2 -19 6 -4 6
23 -12 43 -22 25z"/>
<path d="M2540 754 c-11 -12 -11 -18 2 -30 11 -11 18 -13 23 -5 4 7 1 10 -7 9
-7 -2 -13 4 -13 12 0 8 6 14 13 12 8 -1 11 2 7 8 -8 13 -10 13 -25 -6z"/>
<path d="M2463 742 c0 -10 9 -19 19 -19 24 -2 23 9 -1 24 -17 11 -20 10 -18
-5z"/>
<path d="M2225 740 c-3 -5 -1 -10 4 -10 6 0 11 5 11 10 0 6 -2 10 -4 10 -3 0
-8 -4 -11 -10z"/>
<path d="M2340 731 c0 -6 5 -13 10 -16 6 -3 10 1 10 9 0 9 -4 16 -10 16 -5 0
-10 -4 -10 -9z"/>
<path d="M2550 630 c0 -5 4 -10 9 -10 6 0 13 5 16 10 3 6 -1 10 -9 10 -9 0
-16 -4 -16 -10z"/>
<path d="M2737 633 c-5 -7 -5 -13 0 -13 4 0 1 -4 -7 -10 -9 -6 -17 -5 -21 2
-10 15 -80 12 -96 -5 -11 -11 -9 -13 12 -13 14 0 25 4 25 8 0 4 5 8 11 8 5 0
8 -4 5 -9 -6 -9 71 -7 81 2 2 3 3 14 1 24 -2 13 -6 15 -11 6z"/>
<path d="M2370 603 c0 -6 9 -11 20 -10 11 1 20 5 20 9 0 4 5 8 11 8 5 0 8 -4
4 -9 -3 -6 4 -9 15 -8 11 1 20 6 20 12 0 6 3 6 8 -1 9 -14 40 -14 45 1 3 7
-19 11 -69 11 -52 0 -74 -4 -74 -13z"/>
<path d="M2580 605 c0 -8 2 -15 4 -15 2 0 6 7 10 15 3 8 1 15 -4 15 -6 0 -10
-7 -10 -15z"/>
<path d="M2763 605 c-3 -9 -3 -19 1 -22 3 -4 6 1 6 10 0 10 5 17 11 17 5 0 7
-4 4 -10 -3 -5 1 -10 9 -10 9 0 16 6 16 13 0 8 4 7 10 -3 8 -13 10 -12 10 3 0
22 -58 24 -67 2z"/>
<path d="M2860 605 c0 -8 5 -15 11 -15 5 0 7 5 4 10 -3 6 -2 10 4 10 5 0 12
-6 14 -12 4 -10 6 -10 6 0 1 6 6 12 12 12 5 0 7 -4 4 -10 -3 -5 1 -10 9 -10 9
0 16 6 16 13 0 8 -15 14 -40 15 -30 2 -40 -1 -40 -13z"/>
<path d="M2951 603 c0 -13 2 -14 6 -4 5 11 7 11 14 0 7 -11 9 -10 9 4 0 9 -7
17 -15 17 -8 0 -15 -8 -14 -17z"/>
<path d="M4058 340 l3 -340 1252 2 1252 3 -1247 2 -1248 3 0 329 0 330 23 4
c17 3 16 5 -8 6 l-30 1 3 -340z"/>
</g>
</svg>
