<?xml version="1.0" standalone="no"?>
<!DOCTYPE svg PUBLIC "-//W3C//DTD SVG 20010904//EN"
 "http://www.w3.org/TR/2001/REC-SVG-20010904/DTD/svg10.dtd">
<svg version="1.0" xmlns="http://www.w3.org/2000/svg"
 width="675.000000pt" height="306.000000pt" viewBox="0 0 675.000000 306.000000"
 preserveAspectRatio="xMidYMid meet">
<metadata>
Created by potrace 1.15, written by Peter Selinger 2001-2017
</metadata>
<g transform="translate(0.000000,306.000000) scale(0.100000,-0.100000)"
fill="#000000" stroke="none">
<path d="M5 3048 c-3 -7 -4 -697 -3 -1533 l3 -1520 3 1528 2 1527 855 0 855 0
0 -400 c0 -393 0 -400 -20 -400 -18 0 -20 -7 -20 -70 0 -63 2 -70 20 -70 20 0
20 -7 20 -645 0 -638 0 -645 -20 -645 -18 0 -20 -7 -20 -70 0 -63 2 -70 20
-70 19 0 20 -8 23 -342 l2 -343 3 343 2 342 225 0 224 0 3 -102 3 -103 33 -3
c28 -3 32 -7 32 -33 l0 -29 675 0 675 0 0 130 0 130 48 2 47 1 -45 6 -45 6 -3
62 -3 62 58 4 58 3 -57 2 -58 2 0 145 0 145 -30 0 c-27 0 -30 3 -30 30 l0 30
-680 0 -680 0 0 -175 0 -175 -225 0 -225 0 0 645 0 645 225 0 224 0 3 -102 3
-103 33 -3 c28 -3 32 -7 32 -33 l0 -29 675 0 675 0 0 135 0 134 58 4 57 3 -57
2 -58 2 0 60 0 60 310 0 309 0 3 60 3 61 93 -93 92 -93 -95 -95 -95 -95 0 63
0 62 -30 0 -30 0 0 -650 0 -650 30 0 c29 0 29 1 32 60 l3 61 93 -93 92 -93
-95 -95 -95 -95 0 63 0 62 -262 -2 -263 -3 232 -2 233 -3 3 -338 2 -337 3 338
c2 330 2 337 22 337 18 0 20 -7 20 -67 l0 -68 100 100 100 100 0 -313 0 -312
723 2 722 3 0 630 0 630 -720 0 -720 0 -5 -308 -5 -307 -90 90 c-49 49 -93 90
-97 90 -5 0 -8 -27 -8 -60 0 -53 -2 -60 -20 -60 -20 0 -20 7 -20 640 0 633 0
640 20 640 18 0 20 -7 20 -60 0 -33 3 -60 7 -60 4 0 49 42 100 92 l93 93 0
-368 0 -367 723 2 722 3 0 740 0 740 -722 3 -723 2 0 -367 0 -368 -100 100
-100 100 0 -68 c0 -60 -2 -67 -20 -67 -20 0 -20 7 -20 400 l0 400 1285 0 1285
0 3 -1527 2 -1528 3 1533 2 1532 -1292 -2 -1293 -3 -3 -402 -2 -403 -280 0
-280 0 0 145 0 145 -29 0 c-26 0 -30 4 -34 33 -2 17 -5 -124 -5 -315 l-2 -348
-670 0 -670 0 -2 348 c-1 191 -4 267 -5 170 l-3 -178 -225 0 -225 0 0 405 0
405 -860 0 c-679 0 -862 -3 -865 -12z m5835 -873 l0 -735 -710 0 -710 0 0 735
0 735 710 0 710 0 0 -735z m-3660 5 l0 -60 -245 0 -245 0 0 60 0 60 245 0 245
0 0 -60z m3661 -814 c2 -2 3 -284 1 -625 l-2 -621 -710 0 -710 0 0 618 c0 340
3 622 7 625 7 7 1407 10 1414 3z m-2311 -546 l0 -340 -670 0 -670 0 0 340 0
340 670 0 670 0 0 -340z m-1350 -70 l0 -60 -245 0 -245 0 0 60 0 60 245 0 245
0 0 -60z"/>
<path d="M4492 2758 l3 -103 333 -3 332 -2 0 105 0 105 -335 0 -336 0 3 -102z
m658 2 l0 -90 -190 0 -190 0 0 40 0 40 -90 0 -90 0 0 -40 0 -40 -40 0 -40 0 0
90 0 90 320 0 320 0 0 -90z"/>
<path d="M5517 2765 c-9 -25 -12 -45 -6 -45 5 0 9 5 9 10 0 14 33 13 48 -2 7
-7 12 -9 12 -5 0 16 -33 87 -40 87 -5 0 -15 -20 -23 -45z m33 5 c0 -5 -5 -10
-11 -10 -5 0 -7 5 -4 10 3 6 8 10 11 10 2 0 4 -4 4 -10z"/>
<path d="M5591 2763 c1 -26 3 -40 6 -31 2 9 14 18 26 20 16 2 22 10 22 28 0
20 -6 26 -27 28 -27 3 -28 2 -27 -45z m49 17 c0 -5 -9 -10 -20 -10 -11 0 -20
5 -20 10 0 6 9 10 20 10 11 0 20 -4 20 -10z"/>
<path d="M5667 2803 c-11 -10 -8 -83 3 -83 6 0 10 20 10 45 0 46 -2 50 -13 38z"/>
<path d="M5713 2793 c-7 -2 -13 -9 -13 -14 0 -6 5 -7 10 -4 6 4 10 -7 10 -25
0 -18 4 -29 10 -25 12 7 14 75 3 74 -5 0 -14 -3 -20 -6z"/>
<path d="M4492 2528 l3 -103 333 -3 332 -2 0 105 0 105 -335 0 -336 0 3 -102z
m658 2 l0 -90 -190 0 -190 0 0 40 0 40 -90 0 -90 0 0 -40 0 -40 -40 0 -40 0 0
90 0 90 320 0 320 0 0 -90z"/>
<path d="M5293 2606 c21 -16 22 -45 2 -52 -8 -4 -15 -10 -15 -15 0 -4 23 1 50
13 28 11 50 24 50 28 0 8 -78 40 -95 40 -6 0 -2 -7 8 -14z m57 -26 c0 -5 -7
-10 -15 -10 -8 0 -15 5 -15 10 0 6 7 10 15 10 8 0 15 -4 15 -10z"/>
<path d="M5298 2510 c12 -5 22 -18 22 -28 0 -11 7 -25 15 -32 21 -18 45 4 45
41 0 28 -1 29 -52 28 -42 0 -48 -2 -30 -9z m62 -25 c0 -16 -6 -25 -15 -25 -9
0 -15 9 -15 25 0 16 6 25 15 25 9 0 15 -9 15 -25z"/>
<path d="M5280 2420 c0 -5 20 -10 44 -10 25 0 48 5 51 10 4 6 -13 10 -44 10
-28 0 -51 -4 -51 -10z"/>
<path d="M4497 2393 c-4 -3 -7 -51 -7 -105 l0 -98 335 0 335 0 0 105 0 105
-328 0 c-181 0 -332 -3 -335 -7z m653 -98 l0 -90 -190 3 -190 3 0 39 0 40 -90
0 -90 0 0 -39 c0 -38 -1 -39 -40 -43 l-40 -4 0 91 0 90 320 0 320 0 0 -90z"/>
<path d="M5282 2313 c1 -37 1 -37 5 -5 6 42 33 44 33 1 0 -17 4 -28 10 -24 6
3 10 17 10 31 0 13 5 24 10 24 6 0 10 -13 10 -30 0 -16 5 -30 10 -30 6 0 10
16 10 35 l0 35 -50 0 -50 0 2 -37z"/>
<path d="M5305 2251 c17 -3 30 -13 30 -21 0 -8 -13 -18 -30 -22 -29 -6 -29 -6
5 -5 30 2 35 6 38 30 3 25 1 27 -35 26 -36 -1 -37 -2 -8 -8z"/>
<path d="M5277 2168 c-11 -35 5 -48 57 -48 42 1 48 3 35 13 -8 7 -18 20 -22
30 -7 20 -63 24 -70 5z m61 -15 c2 -8 -6 -13 -22 -13 -17 0 -26 5 -26 16 0 19
41 16 48 -3z"/>
<path d="M4497 2163 c-4 -3 -7 -51 -7 -105 l0 -98 335 0 335 0 0 105 0 105
-328 0 c-181 0 -332 -3 -335 -7z m653 -98 l0 -95 -190 0 -190 0 0 45 0 45 -93
0 -92 0 3 -45 4 -45 -41 0 -41 0 0 90 0 90 318 3 c174 1 318 3 320 5 1 1 2
-41 2 -93z"/>
<path d="M5254 2098 c-3 -5 3 -8 12 -8 10 0 14 -3 11 -6 -3 -4 -2 -15 4 -26
16 -30 63 -21 67 13 3 25 0 27 -43 31 -26 2 -49 0 -51 -4z m82 -19 c7 -12 -15
-31 -31 -26 -5 2 -11 11 -13 20 -4 19 32 24 44 6z"/>
<path d="M5281 2011 c-16 -28 9 -56 42 -47 20 5 27 13 27 30 0 37 -52 50 -69
17z m57 -14 c4 -20 -25 -34 -40 -19 -15 15 -1 44 19 40 10 -2 19 -11 21 -21z"/>
<path d="M5298 1943 c12 -2 30 -2 40 0 9 3 -1 5 -23 4 -22 0 -30 -2 -17 -4z"/>
<path d="M4497 1933 c-4 -3 -7 -51 -7 -105 l0 -98 335 0 335 0 0 105 0 105
-328 0 c-181 0 -332 -3 -335 -7z m653 -103 l0 -90 -190 0 -190 0 0 45 0 45
-90 0 -90 0 0 -45 0 -45 -40 0 -40 0 0 90 0 90 320 0 320 0 0 -90z"/>
<path d="M5280 1910 c0 -5 14 -10 30 -10 42 0 40 -27 -2 -33 -32 -4 -32 -4 5
-5 35 -2 37 0 37 28 0 28 -3 30 -35 30 -19 0 -35 -4 -35 -10z"/>
<path d="M5316 1841 c-43 -9 -42 -26 1 -24 54 2 53 2 53 12 0 13 -21 18 -54
12z"/>
<path d="M5276 1784 c-7 -17 9 -44 25 -44 5 0 14 11 19 25 11 30 25 34 17 5
-3 -11 -1 -20 4 -20 13 0 11 38 -2 46 -7 4 -20 -4 -31 -17 l-20 -24 5 23 c6
25 -8 30 -17 6z"/>
<path d="M4497 1703 c-4 -3 -7 -51 -7 -105 l0 -98 335 0 335 0 0 105 0 105
-328 0 c-181 0 -332 -3 -335 -7z m653 -103 l0 -90 -190 0 -190 0 0 45 0 45
-93 0 -92 0 3 -45 4 -45 -41 0 -41 0 0 90 0 90 320 0 320 0 0 -90z"/>
<path d="M4497 1313 c-4 -3 -7 -51 -7 -105 l0 -98 335 0 335 0 0 105 0 105
-328 0 c-181 0 -332 -3 -335 -7z m653 -103 l0 -90 -190 0 -190 0 0 45 0 45
-93 0 -92 0 3 -45 4 -45 -41 0 -41 0 0 90 0 90 320 0 320 0 0 -90z"/>
<path d="M5517 1220 c-8 -22 -11 -40 -6 -40 5 0 9 5 9 10 0 16 32 11 46 -7 7
-10 14 -13 14 -7 0 19 -30 84 -39 84 -4 0 -15 -18 -24 -40z m33 0 c0 -5 -4
-10 -10 -10 -5 0 -10 5 -10 10 0 6 5 10 10 10 6 0 10 -4 10 -10z"/>
<path d="M5591 1213 c1 -27 4 -38 6 -25 3 15 11 22 29 22 19 0 24 5 24 25 0
21 -5 25 -30 25 -29 0 -30 -1 -29 -47z m42 22 c1 -5 -6 -11 -15 -13 -11 -2
-18 3 -18 13 0 17 30 18 33 0z"/>
<path d="M5660 1221 c0 -22 5 -43 10 -46 6 -4 10 12 10 39 0 25 -4 46 -10 46
-5 0 -10 -18 -10 -39z"/>
<path d="M5695 1251 c-3 -5 -1 -12 5 -16 5 -3 10 -1 10 4 0 6 5 11 10 11 17 0
11 -26 -10 -45 -11 -10 -17 -22 -14 -26 7 -12 54 -11 54 1 0 6 -7 10 -17 10
-15 0 -14 2 2 20 9 10 15 26 12 35 -7 16 -42 21 -52 6z"/>
<path d="M5293 1179 c22 -13 22 -45 1 -53 -9 -4 -14 -9 -11 -12 7 -7 97 28 97
37 0 8 -75 39 -93 39 -6 0 -4 -5 6 -11z m57 -29 c0 -5 -7 -10 -15 -10 -8 0
-15 5 -15 10 0 6 7 10 15 10 8 0 15 -4 15 -10z"/>
<path d="M4497 1083 c-4 -3 -7 -51 -7 -105 l0 -98 335 0 335 0 0 105 0 105
-328 0 c-181 0 -332 -3 -335 -7z m653 -103 l0 -90 -190 0 -190 0 0 45 0 45
-90 0 -90 0 0 -45 0 -45 -40 0 -40 0 0 90 0 90 320 0 320 0 0 -90z"/>
<path d="M5297 1083 c15 -3 23 -13 25 -31 2 -21 8 -27 28 -27 21 0 26 5 28 33
l3 32 -53 -1 c-29 -1 -43 -4 -31 -6z m63 -29 c0 -31 -23 -28 -28 4 -2 15 2 22
12 22 11 0 16 -9 16 -26z"/>
<path d="M5280 990 c0 -5 20 -10 44 -10 25 0 48 5 51 10 4 6 -13 10 -44 10
-28 0 -51 -4 -51 -10z"/>
<path d="M5282 883 c1 -37 1 -37 5 -5 6 42 33 44 33 1 0 -17 4 -28 10 -24 6 3
10 17 10 31 0 13 5 24 10 24 6 0 10 -13 10 -30 0 -16 5 -30 10 -30 6 0 10 16
10 35 l0 35 -50 0 -50 0 2 -37z"/>
<path d="M4494 847 c-3 -8 -3 -56 -2 -107 l3 -93 330 -1 330 -1 3 108 3 107
-331 0 c-265 0 -332 -3 -336 -13z m656 -97 l0 -90 -189 0 -190 0 -3 43 -3 42
-87 1 -88 1 0 -43 0 -44 -40 0 -40 0 0 90 0 90 320 0 320 0 0 -90z"/>
<path d="M5304 821 c41 -9 46 -31 7 -31 -17 0 -31 -5 -31 -11 0 -6 14 -9 33
-7 27 2 33 8 35 31 3 25 1 27 -35 26 -35 -1 -36 -2 -9 -8z"/>
<path d="M5287 746 c-8 -9 -13 -25 -10 -36 4 -17 13 -20 57 -20 42 1 48 3 36
13 -8 7 -20 21 -26 32 -14 26 -38 30 -57 11z m53 -21 c0 -9 -9 -15 -25 -15
-16 0 -25 6 -25 15 0 9 9 15 25 15 16 0 25 -6 25 -15z"/>
<path d="M5250 671 c0 -6 7 -11 16 -11 8 0 13 -4 9 -9 -6 -11 21 -41 38 -41
24 0 39 18 35 41 -3 21 -9 24 -50 27 -29 2 -48 -1 -48 -7z m90 -25 c0 -16 -27
-29 -41 -20 -19 11 -9 34 16 34 15 0 25 -6 25 -14z"/>
<path d="M4492 518 l3 -103 330 0 330 0 3 103 3 102 -336 0 -336 0 3 -102z
m658 2 l0 -90 -190 0 -190 0 0 43 0 44 -82 -2 c-46 -2 -86 -3 -90 -4 -5 0 -8
-19 -8 -41 l0 -40 -40 0 -40 0 0 90 0 90 320 0 320 0 0 -90z"/>
<path d="M5281 587 c-15 -18 -5 -44 20 -52 26 -9 51 13 47 39 -4 25 -49 34
-67 13z m54 -17 c0 -8 -10 -16 -22 -18 -22 -3 -32 16 -16 32 12 11 38 2 38
-14z"/>
<path d="M5298 513 c12 -2 30 -2 40 0 9 3 -1 5 -23 4 -22 0 -30 -2 -17 -4z"/>
<path d="M5308 479 c39 -12 37 -31 -4 -41 -27 -6 -27 -6 6 -5 30 2 35 6 38 30
3 25 1 27 -35 26 l-38 -1 33 -9z"/>
<path d="M5313 412 c-43 -4 -42 -19 1 -24 38 -4 56 0 56 12 0 12 -20 16 -57
12z"/>
<path d="M4492 288 l3 -103 333 -3 332 -2 0 105 0 105 -335 0 -336 0 3 -102z
m658 2 l0 -90 -190 0 -190 0 0 40 0 40 -90 0 -90 0 0 -40 0 -40 -40 0 -40 0 0
90 0 90 320 0 320 0 0 -90z"/>
<path d="M5281 366 c-14 -17 -4 -46 16 -46 8 0 17 9 20 20 3 11 10 20 15 20 5
0 6 -10 3 -21 -5 -15 -4 -19 4 -15 19 12 13 46 -9 46 -11 0 -20 -6 -20 -14 0
-8 -5 -18 -11 -22 -9 -5 -10 1 -5 20 7 29 4 33 -13 12z"/>
<path d="M2290 1025 c-6 -19 -9 -41 -7 -48 3 -7 6 -5 6 6 1 10 9 17 21 17 10
0 24 -8 29 -17 16 -27 13 0 -4 41 -19 45 -30 46 -45 1z m30 0 c0 -8 -4 -15
-10 -15 -5 0 -7 7 -4 15 4 8 8 15 10 15 2 0 4 -7 4 -15z"/>
<path d="M2360 1014 c0 -26 3 -44 8 -40 4 4 7 13 7 19 0 6 11 14 25 17 39 9
34 44 -7 48 l-33 3 0 -47z m50 21 c0 -8 -6 -15 -14 -15 -17 0 -28 14 -19 24
12 12 33 6 33 -9z"/>
<path d="M2443 1015 c0 -27 2 -38 4 -22 2 15 2 37 0 50 -2 12 -4 0 -4 -28z"/>
<path d="M2477 1053 c-4 -3 -7 -11 -7 -17 0 -6 5 -5 12 2 7 7 16 12 20 12 15
0 8 -20 -12 -37 -27 -24 -25 -43 5 -43 14 0 25 5 25 10 0 6 -7 10 -17 10 -15
0 -14 2 2 20 9 10 15 26 12 35 -7 15 -28 20 -40 8z"/>
<path d="M2691 1019 c-1 -40 2 -46 19 -45 12 0 25 8 30 15 11 18 -5 51 -25 51
-7 0 -16 6 -18 13 -3 6 -6 -9 -6 -34z m35 -25 c-5 -13 -10 -14 -18 -6 -6 6 -8
18 -4 28 5 13 10 14 18 6 6 -6 8 -18 4 -28z"/>
<path d="M3000 1017 c0 -20 4 -38 8 -41 11 -6 9 60 -1 70 -4 4 -7 -9 -7 -29z"/>
<path d="M2565 1030 c-8 -14 3 -30 21 -30 8 0 14 -5 14 -11 0 -6 -9 -8 -22 -4
-18 6 -20 5 -11 -5 6 -7 19 -10 27 -7 20 8 21 37 1 37 -8 0 -15 4 -15 10 0 5
7 6 17 3 11 -4 14 -3 9 5 -9 15 -33 16 -41 2z"/>
<path d="M2626 1032 c-11 -17 1 -62 17 -62 25 0 39 18 35 46 -4 31 -4 31 -26
-26 -3 -9 -8 -1 -11 20 -4 24 -9 31 -15 22z"/>
<path d="M2755 1030 c-8 -14 3 -30 21 -30 8 0 14 -5 14 -11 0 -6 -9 -8 -22 -4
-18 6 -20 5 -11 -5 6 -7 19 -10 27 -7 20 8 21 37 1 37 -8 0 -15 4 -15 10 0 5
7 6 17 3 11 -4 14 -3 9 5 -9 15 -33 16 -41 2z"/>
<path d="M2814 1026 c-10 -25 1 -51 20 -51 11 0 22 7 24 15 5 13 3 13 -11 1
-14 -11 -18 -11 -23 2 -8 22 4 37 23 30 11 -4 14 -3 9 5 -10 17 -36 15 -42 -2z"/>
<path d="M2871 1003 c2 -31 3 -33 6 -10 2 15 9 27 14 27 5 0 9 5 9 10 0 6 -7
10 -15 10 -11 0 -15 -10 -14 -37z"/>
<path d="M2913 1005 c0 -22 2 -30 4 -17 2 12 2 30 0 40 -3 9 -5 -1 -4 -23z"/>
<path d="M2937 1034 c-11 -11 -8 -84 3 -84 6 0 10 4 10 9 0 5 9 11 21 14 28 8
23 61 -6 65 -12 2 -24 0 -28 -4z m37 -13 c8 -13 -4 -42 -15 -35 -12 7 -12 44
0 44 6 0 12 -4 15 -9z"/>
<path d="M3031 1005 c0 -34 1 -38 12 -23 12 15 14 15 23 0 15 -23 44 -8 44 23
0 31 -28 45 -44 22 -11 -14 -13 -14 -23 1 -10 14 -12 10 -12 -23z m65 -11 c-5
-13 -10 -14 -18 -6 -6 6 -8 18 -4 28 5 13 10 14 18 6 6 -6 8 -18 4 -28z"/>
<path d="M3121 1003 l1 -38 9 33 c12 41 29 41 29 0 0 -23 3 -29 11 -21 6 6 9
21 7 34 -2 18 -10 25 -30 27 -26 3 -28 1 -27 -35z"/>
<path d="M2356 892 c7 -4 14 -18 17 -32 l4 -25 2 27 c0 14 7 29 14 31 6 3 -1
6 -18 6 -16 0 -25 -3 -19 -7z"/>
<path d="M2521 893 c0 -7 -8 -13 -16 -13 -17 0 -20 -35 -4 -46 17 -10 31 11
26 42 -2 16 -5 23 -6 17z m-1 -38 c0 -8 -4 -15 -10 -15 -5 0 -10 7 -10 15 0 8
5 15 10 15 6 0 10 -7 10 -15z"/>
<path d="M2811 877 c-6 -16 -11 -29 -11 -30 0 -1 11 -2 25 -2 28 0 32 12 11
41 -14 18 -15 18 -25 -9z"/>
<path d="M2862 868 c2 -25 8 -33 23 -33 15 0 21 8 23 33 3 29 1 32 -23 32 -24
0 -26 -3 -23 -32z m38 18 c0 -3 -4 -8 -10 -11 -5 -3 -10 -1 -10 4 0 6 5 11 10
11 6 0 10 -2 10 -4z m0 -36 c0 -5 -4 -10 -10 -10 -5 0 -10 5 -10 10 0 6 5 10
10 10 6 0 10 -4 10 -10z"/>
<path d="M2925 879 c-5 -13 -1 -27 8 -36 16 -17 47 -11 47 8 0 8 -4 9 -13 0
-17 -13 -27 -5 -27 22 0 14 5 18 20 14 11 -3 18 -1 14 4 -10 17 -43 9 -49 -12z"/>
<path d="M3030 885 c7 -8 10 -22 6 -30 -3 -8 -1 -15 4 -15 6 0 10 11 10 24 0
13 6 27 13 29 6 3 -1 6 -17 6 -24 1 -27 -1 -16 -14z"/>
<path d="M3189 891 c-2 -7 -17 -13 -32 -13 -21 0 -27 -5 -27 -22 0 -17 -2 -18
-10 -6 -8 13 -10 12 -10 -2 0 -11 8 -18 20 -18 11 0 20 5 20 11 0 8 5 7 15 -1
22 -18 37 0 33 36 -2 16 -6 23 -9 15z m1 -30 c0 -6 -4 -13 -10 -16 -5 -3 -10
1 -10 9 0 9 5 16 10 16 6 0 10 -4 10 -9z"/>
<path d="M2410 860 c0 -11 2 -20 4 -20 2 0 6 9 9 20 3 11 1 20 -4 20 -5 0 -9
-9 -9 -20z"/>
<path d="M2448 861 c-20 -19 -15 -31 14 -31 13 0 18 7 18 25 0 29 -8 31 -32 6z"/>
<path d="M2545 867 c-12 -28 13 -47 30 -23 8 10 11 24 7 30 -4 6 -9 1 -11 -14
l-4 -25 -7 25 c-6 22 -8 23 -15 7z"/>
<path d="M2645 870 c3 -5 -1 -10 -9 -10 -9 0 -16 -7 -16 -15 0 -8 9 -15 20
-15 15 0 20 7 20 25 0 14 -5 25 -11 25 -5 0 -7 -4 -4 -10z"/>
<path d="M2670 849 c0 -31 0 -31 24 -15 22 14 25 14 28 1 3 -14 6 -14 25 0 13
9 20 22 17 30 -7 18 -40 20 -47 3 -4 -10 -6 -10 -6 0 -1 6 -10 12 -21 12 -16
0 -20 -7 -20 -31z m30 5 c0 -8 -4 -12 -10 -9 -5 3 -10 10 -10 16 0 5 5 9 10 9
6 0 10 -7 10 -16z m51 3 c-1 -12 -15 -9 -19 4 -3 6 1 10 8 8 6 -3 11 -8 11
-12z"/>
<path d="M3077 873 c-10 -9 -8 -33 2 -33 5 0 11 9 14 20 5 20 -3 26 -16 13z"/>
<path d="M3212 855 c0 -16 2 -22 5 -12 2 9 2 23 0 30 -3 6 -5 -1 -5 -18z"/>
<path d="M3231 853 c2 -24 2 -25 6 -5 5 26 20 29 26 5 4 -14 5 -12 6 5 1 16
-5 22 -19 22 -15 0 -20 -6 -19 -27z"/>
<path d="M3283 848 c2 -20 9 -33 18 -33 9 0 15 12 17 33 3 27 0 32 -18 32 -18
0 -21 -5 -17 -32z m27 6 c0 -8 -4 -12 -10 -9 -5 3 -10 10 -10 16 0 5 5 9 10 9
6 0 10 -7 10 -16z"/>
<path d="M2288 863 c7 -3 16 -2 19 1 4 3 -2 6 -13 5 -11 0 -14 -3 -6 -6z"/>
<path d="M2340 751 c0 -17 6 -31 16 -35 18 -7 34 0 34 16 0 7 -4 7 -13 -1 -17
-13 -27 -5 -27 22 0 14 5 18 20 14 11 -3 20 -1 20 4 0 5 -11 9 -25 9 -21 0
-25 -5 -25 -29z"/>
<path d="M2482 750 c0 -19 2 -27 5 -17 2 9 2 25 0 35 -3 9 -5 1 -5 -18z"/>
<path d="M2502 750 c0 -19 2 -27 5 -17 2 9 2 25 0 35 -3 9 -5 1 -5 -18z"/>
<path d="M2651 754 c-1 -20 4 -31 13 -31 8 0 14 8 13 18 -1 10 -4 16 -8 13 -4
-2 -10 4 -12 13 -3 10 -5 4 -6 -13z"/>
<path d="M2721 754 c-1 -21 5 -34 15 -38 24 -9 34 2 33 37 l-1 32 -7 -30 c-3
-16 -11 -30 -16 -30 -5 0 -13 14 -16 30 l-7 30 -1 -31z"/>
<path d="M2790 748 c0 -24 3 -29 9 -19 7 12 13 12 24 3 11 -10 14 -7 15 18 1
25 -3 30 -24 30 -20 0 -24 -5 -24 -32z m40 12 c0 -5 -7 -10 -15 -10 -8 0 -15
5 -15 10 0 6 7 10 15 10 8 0 15 -4 15 -10z"/>
<path d="M2850 751 c0 -27 24 -50 38 -36 3 3 0 5 -6 5 -7 0 -12 14 -12 30 0
17 -4 30 -10 30 -5 0 -10 -13 -10 -29z"/>
<path d="M2410 759 c-13 -9 -12 -10 3 -5 12 4 17 0 18 -17 1 -18 2 -19 6 -3 6
24 -8 38 -27 25z"/>
<path d="M2455 745 c0 -14 3 -25 8 -25 4 0 7 11 7 25 0 14 -3 25 -7 25 -5 0
-8 -11 -8 -25z"/>
<path d="M2554 758 c-4 -7 -3 -8 4 -4 8 5 12 -1 12 -16 0 -18 -2 -20 -10 -8
-5 8 -10 10 -10 4 0 -16 10 -23 26 -17 8 3 14 13 14 23 0 21 -26 34 -36 18z"/>
<path d="M2613 763 c-16 -6 -17 -39 -2 -49 6 -3 16 -1 22 5 8 8 6 11 -6 11
-22 0 -22 18 1 22 9 2 13 6 7 9 -5 4 -16 4 -22 2z"/>
<path d="M2524 740 c0 -11 4 -20 8 -20 4 0 8 9 8 20 0 11 -4 20 -8 20 -4 0 -8
-9 -8 -20z"/>
<path d="M2400 731 c0 -6 5 -13 10 -16 6 -3 10 1 10 9 0 9 -4 16 -10 16 -5 0
-10 -4 -10 -9z"/>
<path d="M2612 610 c-16 -26 -15 -35 1 -21 8 6 17 8 20 4 4 -3 7 3 7 15 0 27
-11 28 -28 2z"/>
<path d="M2657 608 c-7 -27 -3 -32 18 -25 19 8 20 47 1 47 -7 0 -16 -10 -19
-22z"/>
<path d="M2703 614 c-8 -22 13 -42 30 -25 10 10 8 11 -7 5 -16 -6 -18 -4 -14
14 7 25 0 30 -9 6z"/>
<path d="M2775 610 c-4 -12 -5 -24 -2 -27 3 -2 8 5 12 17 4 12 5 24 2 27 -3 2
-8 -5 -12 -17z"/>
<path d="M2802 610 c-15 -25 -15 -27 3 -27 8 0 15 4 15 8 0 4 3 14 6 23 9 23
-9 20 -24 -4z"/>
<path d="M2910 616 c0 -9 8 -16 18 -16 14 0 15 2 2 10 -9 6 -10 10 -3 10 7 0
17 -8 22 -17 8 -14 11 -15 11 -3 1 13 2 13 10 -1 14 -23 103 -21 108 4 4 22
-17 22 -34 0 -7 -10 -16 -14 -20 -10 -5 4 -3 12 4 16 8 4 -3 8 -25 9 -21 0
-50 4 -65 8 -22 5 -28 3 -28 -10z m90 -16 c0 -5 -4 -10 -10 -10 -5 0 -10 5
-10 10 0 6 5 10 10 10 6 0 10 -4 10 -10z"/>
<path d="M2430 608 c0 -9 5 -20 10 -23 13 -8 13 5 0 25 -8 13 -10 13 -10 -2z"/>
<path d="M2454 607 c3 -10 6 -22 6 -25 0 -4 5 0 11 8 9 12 12 13 16 1 5 -11 7
-11 14 0 7 12 9 12 9 0 0 -11 4 -9 15 5 14 19 14 19 15 -1 0 -17 2 -17 10 -5
9 13 10 13 10 0 0 -13 1 -13 10 0 5 8 7 16 5 19 -9 9 -96 7 -102 -2 -3 -5 -10
-3 -15 4 -7 11 -8 9 -4 -4z"/>
<path d="M2844 603 c3 -7 0 -13 -6 -13 -6 0 -8 -3 -5 -6 4 -4 18 1 32 10 28
19 35 10 8 -10 -15 -11 -15 -13 -3 -14 25 0 41 16 35 33 -4 10 -18 15 -36 15
-21 -1 -28 -5 -25 -15z"/>
<path d="M3093 600 c1 -11 5 -20 9 -20 4 0 8 9 8 20 0 11 -4 20 -9 20 -6 0 -9
-9 -8 -20z"/>
<path d="M3134 604 c3 -7 0 -15 -7 -17 -7 -2 4 -4 23 -3 24 1 36 7 38 18 2 13
-4 16 -28 16 -21 -1 -29 -5 -26 -14z m46 -4 c0 -5 -4 -10 -10 -10 -5 0 -10 5
-10 10 0 6 5 10 10 10 6 0 10 -4 10 -10z"/>
<path d="M3200 609 c0 -5 5 -7 10 -4 6 3 10 8 10 11 0 2 -4 4 -10 4 -5 0 -10
-5 -10 -11z"/>
<path d="M3240 598 c0 -10 4 -18 10 -18 5 0 7 7 4 15 -4 8 -2 15 4 15 5 0 12
-7 16 -15 7 -19 21 -19 40 1 15 14 16 14 17 -3 0 -14 2 -15 6 -3 3 8 10 18 16
21 5 4 -18 6 -52 6 -52 0 -61 -3 -61 -19z m60 2 c0 -5 -4 -10 -10 -10 -5 0
-10 5 -10 10 0 6 5 10 10 10 6 0 10 -4 10 -10z"/>
<path d="M6372 2928 c-17 -17 -15 -63 4 -82 8 -9 18 -16 20 -16 13 0 44 22 44
30 0 6 -8 5 -19 -2 -23 -14 -51 3 -51 32 0 10 7 23 16 31 13 10 19 10 36 0 16
-10 19 -10 16 1 -6 17 -50 22 -66 6z"/>
<path d="M6460 2890 l0 -50 35 0 c35 0 55 20 55 54 0 24 -29 46 -61 46 -28 0
-29 -1 -29 -50z m64 18 c13 -21 -2 -51 -28 -56 -13 -3 -16 5 -16 38 0 33 3 41
16 38 9 -2 22 -11 28 -20z"/>
<path d="M6563 2924 c-7 -18 20 -44 44 -44 7 0 13 -7 13 -15 0 -18 -31 -20
-48 -3 -9 9 -12 9 -12 0 0 -20 38 -34 60 -22 29 16 24 40 -10 53 -16 6 -30 15
-30 19 0 14 22 20 33 9 17 -17 31 -13 17 4 -17 20 -59 19 -67 -1z"/>
<path d="M427 2879 c-28 -51 -32 -74 -7 -44 17 21 60 20 60 -2 0 -9 3 -14 6
-10 10 10 -7 107 -19 107 -7 0 -25 -23 -40 -51z m43 6 c0 -16 -6 -25 -15 -25
-18 0 -18 5 -5 31 14 26 20 24 20 -6z"/>
<path d="M523 2875 l-10 -55 37 0 c46 0 58 14 56 65 -1 38 -2 40 -37 43 l-35
3 -11 -56z m70 38 c11 -10 -13 -33 -34 -33 -21 0 -22 1 -13 24 6 16 35 22 47
9z m-5 -60 c-2 -11 -14 -19 -31 -21 -29 -4 -30 -2 -21 22 9 23 56 21 52 -1z"/>
<path d="M647 2912 c-44 -48 -3 -121 49 -87 13 8 24 21 24 27 0 6 -8 4 -18 -5
-42 -38 -79 1 -48 48 17 26 51 33 59 13 2 -7 8 -10 12 -6 13 12 -6 28 -34 28
-15 0 -35 -8 -44 -18z"/>
<path d="M813 2923 c19 -5 20 -12 8 -65 -5 -21 -5 -38 -1 -38 5 0 11 15 15 33
12 58 16 66 38 70 12 2 0 4 -28 4 -27 1 -42 -1 -32 -4z"/>
<path d="M1100 2915 c0 -9 -9 -15 -23 -15 -29 0 -47 -18 -47 -46 0 -29 20 -44
46 -34 15 6 24 22 31 59 6 28 6 51 2 51 -5 0 -9 -7 -9 -15z m-15 -35 c9 -15
-4 -50 -20 -50 -21 0 -27 17 -15 40 12 22 25 26 35 10z"/>
<path d="M896 2880 c-3 -8 -7 -25 -11 -37 -4 -14 -2 -23 4 -23 6 0 11 11 11
24 0 14 9 32 21 40 l22 15 -22 -2 c-11 -1 -23 -8 -25 -17z"/>
<path d="M955 2890 c-4 -7 2 -9 19 -4 15 3 26 2 26 -4 0 -5 -13 -12 -30 -15
-21 -5 -30 -12 -30 -26 0 -22 14 -29 47 -23 19 4 23 11 23 43 0 35 -3 39 -24
39 -14 0 -28 -5 -31 -10z m35 -45 c0 -8 -9 -15 -20 -15 -22 0 -27 15 -7 23 21
9 27 7 27 -8z"/>
<path d="M1126 2869 c-8 -42 -7 -57 3 -39 14 25 22 70 12 70 -4 0 -11 -14 -15
-31z"/>
<path d="M1166 2875 c-11 -41 -5 -61 8 -25 7 19 21 37 30 38 15 3 16 -2 10
-34 -5 -26 -4 -35 5 -30 6 4 11 23 11 42 0 32 -2 34 -29 32 -20 -1 -32 -9 -35
-23z"/>
<path d="M1261 2886 c-20 -24 -9 -59 19 -66 17 -4 21 -8 12 -14 -7 -4 -22 -5
-35 -1 -21 6 -21 5 -3 -9 26 -21 53 -5 61 36 4 18 8 40 11 48 5 21 -49 25 -65
6z m45 -11 c6 -16 -12 -45 -28 -45 -15 0 -21 30 -8 45 16 19 29 19 36 0z"/>
<path d="M520 2720 c0 -13 -5 -18 -15 -14 -21 8 -45 -14 -45 -41 0 -28 19 -45
48 -42 20 1 22 7 22 59 0 32 -2 58 -5 58 -3 0 -5 -9 -5 -20z m-5 -60 c0 -36
-29 -33 -33 3 -3 23 0 28 15 25 12 -2 18 -12 18 -28z"/>
<path d="M1250 2730 c0 -5 5 -10 10 -10 6 0 10 5 10 10 0 6 -4 10 -10 10 -5 0
-10 -4 -10 -10z"/>
<path d="M278 2718 c-10 -28 4 -98 19 -98 13 0 13 3 3 15 -7 9 -10 27 -7 43 6
31 -6 64 -15 40z"/>
<path d="M960 2675 c0 -30 5 -55 10 -55 6 0 10 25 10 55 0 30 -4 55 -10 55 -5
0 -10 -25 -10 -55z"/>
<path d="M1207 2717 c-7 -19 7 -90 18 -94 9 -3 10 18 6 95 -1 16 -17 16 -24
-1z"/>
<path d="M333 2703 c-8 -3 -13 -22 -12 -46 l1 -42 8 35 c5 19 13 36 19 38 12
4 15 22 4 21 -5 0 -14 -3 -20 -6z"/>
<path d="M380 2695 c-11 -13 -8 -14 19 -9 19 4 31 2 31 -4 0 -6 -12 -12 -27
-14 -20 -2 -28 -9 -28 -23 0 -16 7 -20 33 -21 31 -1 32 1 32 36 0 25 -5 40
-16 44 -23 9 -30 8 -44 -9z m44 -50 c-4 -8 -12 -15 -20 -15 -8 0 -14 7 -14 15
0 8 9 15 20 15 13 0 18 -5 14 -15z"/>
<path d="M568 2699 c-22 -12 -23 -52 -3 -69 18 -15 47 -10 53 10 4 13 3 13
-11 2 -9 -8 -21 -11 -27 -7 -20 12 -10 25 20 25 33 0 38 11 14 34 -18 19 -23
19 -46 5z m42 -19 c0 -5 -9 -10 -20 -10 -11 0 -20 5 -20 10 0 6 9 10 20 10 11
0 20 -4 20 -10z"/>
<path d="M699 2694 c-11 -13 -9 -14 14 -9 16 5 27 3 27 -3 0 -6 -10 -12 -22
-14 -15 -2 -23 -10 -23 -23 0 -16 7 -20 33 -21 31 -1 32 1 32 36 0 25 -5 40
-16 44 -23 9 -30 8 -45 -10z m41 -43 c0 -14 -18 -23 -30 -16 -6 4 -8 11 -5 16
8 12 35 12 35 0z"/>
<path d="M798 2703 c-14 -4 -18 -15 -18 -59 0 -30 5 -54 10 -54 6 0 10 6 10
14 0 8 10 16 23 18 17 2 23 11 25 37 3 30 -10 53 -28 50 -3 -1 -13 -3 -22 -6z
m37 -43 c0 -36 -29 -33 -33 3 -3 23 0 28 15 25 12 -2 18 -12 18 -28z"/>
<path d="M888 2703 c-14 -4 -18 -15 -18 -59 0 -30 5 -54 10 -54 6 0 10 7 10
15 0 8 9 15 20 15 18 0 40 26 40 49 0 11 -29 41 -38 40 -4 -1 -15 -3 -24 -6z
m40 -40 c-2 -17 -9 -28 -18 -28 -9 0 -16 11 -18 28 -3 22 1 27 18 27 17 0 21
-5 18 -27z"/>
<path d="M1046 2694 c-19 -19 -20 -35 -3 -58 15 -21 48 -18 55 4 4 13 3 13
-11 2 -21 -18 -37 -7 -37 25 0 22 4 25 25 21 28 -6 34 6 9 16 -21 8 -20 8 -38
-10z"/>
<path d="M1133 2703 c-23 -9 -14 -20 12 -15 15 2 25 0 25 -7 0 -6 -8 -11 -19
-11 -23 0 -42 -22 -32 -38 4 -6 21 -11 39 -9 28 2 32 5 32 33 0 44 -22 62 -57
47z m37 -53 c0 -12 -28 -25 -36 -17 -9 9 6 27 22 27 8 0 14 -5 14 -10z"/>
<path d="M1304 2702 c-37 -25 -19 -85 24 -80 21 2 28 9 30 31 5 43 -24 70 -54
49z m43 -28 c7 -19 -20 -49 -36 -40 -12 8 -15 39 -4 49 12 12 33 7 40 -9z"/>
<path d="M1381 2660 c1 -46 3 -46 13 3 9 37 36 36 36 -2 0 -17 5 -33 10 -36 6
-4 10 8 10 29 0 38 -12 51 -47 51 -21 1 -23 -4 -22 -45z"/>
<path d="M1000 2659 c0 -22 4 -38 8 -35 8 5 4 76 -4 76 -2 0 -4 -18 -4 -41z"/>
<path d="M1250 2660 c0 -22 5 -40 10 -40 6 0 10 18 10 40 0 22 -4 40 -10 40
-5 0 -10 -18 -10 -40z"/>
<path d="M2287 2450 c-8 -22 -11 -40 -6 -40 5 0 9 5 9 10 0 14 33 13 48 -2 16
-16 15 -5 -2 37 -8 19 -19 35 -24 35 -5 0 -16 -18 -25 -40z m29 -7 c-10 -10
-19 5 -10 18 6 11 8 11 12 0 2 -7 1 -15 -2 -18z"/>
<path d="M2361 2448 c1 -24 3 -35 6 -25 3 10 14 17 28 17 12 0 25 6 27 13 9
23 -4 37 -33 37 -28 0 -29 -2 -28 -42z m47 20 c-7 -19 -38 -22 -38 -4 0 10 9
16 21 16 12 0 19 -5 17 -12z"/>
<path d="M2443 2450 c0 -25 2 -35 4 -22 2 12 2 32 0 45 -2 12 -4 2 -4 -23z"/>
<path d="M2480 2475 c-9 -10 -9 -15 -1 -15 6 0 11 -11 11 -25 0 -14 5 -25 10
-25 6 0 10 17 8 40 -2 43 -8 49 -28 25z"/>
<path d="M2690 2453 c0 -41 12 -55 38 -45 18 7 15 52 -5 59 -10 4 -21 11 -25
17 -4 6 -8 -8 -8 -31z m40 -19 c0 -8 -7 -14 -15 -14 -15 0 -21 21 -9 33 10 9
24 -2 24 -19z"/>
<path d="M3000 2452 c0 -22 4 -43 8 -46 10 -6 10 70 0 80 -5 4 -8 -11 -8 -34z"/>
<path d="M2565 2459 c-8 -12 -8 -11 20 -28 19 -12 19 -12 -3 -7 -19 4 -21 2
-11 -10 15 -18 28 -18 36 1 3 9 -3 23 -13 31 -18 14 -18 15 -1 10 11 -3 16 -2
12 4 -8 13 -32 13 -40 -1z"/>
<path d="M2620 2441 c0 -32 16 -43 43 -29 18 9 23 43 7 53 -6 4 -10 -5 -10
-19 0 -14 -4 -26 -10 -26 -5 0 -10 9 -10 19 0 11 -4 23 -10 26 -6 4 -10 -6
-10 -24z"/>
<path d="M2757 2463 c-13 -12 -7 -24 16 -34 l22 -10 -22 5 c-24 4 -32 -9 -10
-17 16 -6 37 3 37 15 0 6 -8 17 -17 24 -17 13 -17 14 1 7 13 -4 17 -3 12 5 -8
13 -29 16 -39 5z"/>
<path d="M2817 2463 c-12 -11 -8 -51 6 -56 15 -5 37 2 37 13 0 5 -9 6 -21 3
-17 -5 -20 -2 -17 13 2 12 11 18 22 16 11 -2 15 1 11 7 -7 12 -28 14 -38 4z"/>
<path d="M2871 2438 c1 -22 3 -26 6 -13 3 11 10 26 15 33 8 9 6 12 -6 12 -12
0 -16 -9 -15 -32z"/>
<path d="M2912 2440 c0 -19 2 -27 5 -17 2 9 2 25 0 35 -3 9 -5 1 -5 -18z"/>
<path d="M2937 2463 c-11 -10 -8 -83 3 -83 6 0 10 7 10 15 0 8 5 14 11 13 16
-4 33 27 26 46 -6 16 -38 22 -50 9z m38 -23 c0 -7 -6 -15 -12 -17 -8 -3 -13 4
-13 17 0 13 5 20 13 18 6 -3 12 -11 12 -18z"/>
<path d="M3032 2440 c0 -19 2 -27 5 -17 2 9 2 25 0 35 -3 9 -5 1 -5 -18z"/>
<path d="M3062 2458 c-16 -16 -15 -33 2 -47 22 -18 48 -2 44 28 -3 28 -27 38
-46 19z m35 -13 c7 -20 -2 -29 -21 -22 -9 4 -13 13 -10 22 8 19 23 19 31 0z"/>
<path d="M3121 2438 c1 -30 2 -30 8 -9 9 35 29 37 34 4 4 -27 4 -27 6 5 1 28
-2 32 -24 32 -22 0 -25 -4 -24 -32z"/>
<path d="M2358 2300 c5 -36 22 -40 22 -6 0 13 6 27 13 29 6 3 0 6 -14 6 -23 1
-25 -2 -21 -29z"/>
<path d="M2508 2319 c-18 -10 -24 -44 -10 -53 16 -10 34 12 30 37 -2 21 -6 24
-20 16z m12 -30 c0 -5 -4 -9 -10 -9 -5 0 -10 7 -10 16 0 8 5 12 10 9 6 -3 10
-10 10 -16z"/>
<path d="M2811 2312 c-16 -30 -14 -37 14 -37 28 0 32 12 11 40 -13 18 -14 18
-25 -3z"/>
<path d="M2860 2300 c0 -25 4 -30 25 -30 21 0 25 5 25 30 0 25 -4 30 -25 30
-21 0 -25 -5 -25 -30z m35 -10 c3 -5 1 -10 -4 -10 -6 0 -11 5 -11 10 0 6 2 10
4 10 3 0 8 -4 11 -10z"/>
<path d="M2927 2323 c-23 -22 10 -67 41 -56 20 8 14 20 -10 19 -14 -1 -23 5
-23 14 0 9 9 15 22 14 12 0 20 3 17 8 -6 10 -38 11 -47 1z"/>
<path d="M3029 2321 c8 -5 12 -18 8 -30 -3 -12 -1 -21 4 -21 5 0 9 11 9 24 0
13 6 27 13 29 6 3 -1 6 -18 6 -21 1 -26 -2 -16 -8z"/>
<path d="M3191 2321 c0 -8 -4 -11 -8 -8 -3 4 -13 2 -20 -5 -11 -9 -16 -9 -23
1 -4 8 -13 11 -19 7 -14 -9 9 -48 25 -42 6 2 16 0 20 -4 17 -17 36 6 31 36 -2
16 -5 23 -6 15z m-1 -32 c0 -5 -4 -9 -10 -9 -5 0 -10 7 -10 16 0 8 5 12 10 9
6 -3 10 -10 10 -16z"/>
<path d="M2417 2313 c-4 -3 -7 -16 -6 -27 0 -19 1 -19 10 3 10 24 8 36 -4 24z"/>
<path d="M2449 2316 c-1 -3 -2 -9 -3 -13 -1 -5 -5 -13 -9 -19 -9 -15 15 -25
32 -14 16 9 11 42 -6 48 -7 2 -14 1 -14 -2z m21 -30 c0 -3 -4 -8 -10 -11 -5
-3 -10 -1 -10 4 0 6 5 11 10 11 6 0 10 -2 10 -4z"/>
<path d="M2547 2313 c-13 -12 -7 -41 8 -47 18 -6 30 16 21 39 -6 16 -18 19
-29 8z"/>
<path d="M2628 2313 c-7 -13 -4 -38 5 -40 20 -7 28 -1 25 19 -3 22 -23 36 -30
21z m22 -27 c0 -3 -4 -8 -10 -11 -5 -3 -10 -1 -10 4 0 6 5 11 10 11 6 0 10 -2
10 -4z"/>
<path d="M2683 2313 c-7 -3 -13 -19 -13 -36 0 -22 3 -28 9 -19 4 8 12 13 17
11 12 -3 18 31 7 41 -4 4 -14 5 -20 3z m13 -30 c-10 -10 -19 5 -10 18 6 11 8
11 12 0 2 -7 1 -15 -2 -18z"/>
<path d="M2732 2311 c-8 -5 -12 -20 -10 -36 l3 -27 25 20 c22 18 23 22 10 36
-9 9 -20 12 -28 7z m19 -24 c-13 -13 -26 -3 -16 12 3 6 11 8 17 5 6 -4 6 -10
-1 -17z"/>
<path d="M3074 2305 c-10 -26 1 -35 13 -10 6 14 7 25 2 25 -5 0 -12 -7 -15
-15z"/>
<path d="M3243 2313 c-7 -3 -12 -14 -12 -26 1 -17 2 -18 6 -4 2 9 8 17 13 17
5 0 11 -8 13 -17 4 -14 5 -13 6 4 1 24 -8 33 -26 26z"/>
<path d="M3287 2314 c-14 -14 -7 -44 11 -45 14 0 14 -2 -3 -9 -19 -8 -19 -9 3
-9 20 -1 23 3 20 31 -3 31 -17 45 -31 32z m19 -31 c-10 -10 -19 5 -10 18 6 11
8 11 12 0 2 -7 1 -15 -2 -18z"/>
<path d="M3212 2290 c0 -14 2 -19 5 -12 2 6 2 18 0 25 -3 6 -5 1 -5 -13z"/>
<path d="M2288 2293 c7 -3 16 -2 19 1 4 3 -2 6 -13 5 -11 0 -14 -3 -6 -6z"/>
<path d="M3105 2280 c-3 -5 -1 -10 4 -10 6 0 11 5 11 10 0 6 -2 10 -4 10 -3 0
-8 -4 -11 -10z"/>
<path d="M2345 2204 c-8 -9 -15 -19 -15 -24 0 -16 31 -39 45 -34 23 9 18 21
-7 20 -14 -1 -23 5 -23 14 0 9 9 15 23 14 25 -1 30 11 7 20 -8 3 -21 -2 -30
-10z"/>
<path d="M2452 2180 c0 -19 2 -27 5 -17 2 9 2 25 0 35 -3 9 -5 1 -5 -18z"/>
<path d="M2472 2180 c0 -19 2 -27 5 -17 2 9 2 25 0 35 -3 9 -5 1 -5 -18z"/>
<path d="M2496 2195 c3 -8 11 -13 16 -12 6 1 13 -4 15 -12 4 -9 0 -11 -16 -6
-12 4 -21 2 -21 -4 0 -6 9 -11 20 -11 29 0 38 30 15 46 -24 18 -36 18 -29 -1z"/>
<path d="M2640 2201 c0 -5 -8 -8 -17 -7 -12 0 -19 -7 -21 -22 -3 -21 0 -23 36
-21 34 2 40 6 40 26 0 12 -4 20 -9 17 -5 -3 -9 0 -9 5 0 6 -4 11 -10 11 -5 0
-10 -4 -10 -9z m0 -32 c0 -5 -7 -9 -15 -9 -8 0 -15 7 -15 15 0 9 6 12 15 9 8
-4 15 -10 15 -15z"/>
<path d="M2721 2190 c0 -15 4 -31 10 -37 19 -19 39 -3 38 31 -2 30 -2 30 -6 4
-2 -16 -10 -28 -18 -28 -8 0 -16 12 -18 28 -4 27 -4 27 -6 2z"/>
<path d="M2790 2178 c0 -24 3 -29 9 -19 7 11 13 12 23 4 10 -9 13 -5 15 18 2
25 -1 29 -22 29 -22 0 -25 -5 -25 -32z m40 18 c0 -11 -19 -15 -25 -6 -3 5 1
10 9 10 9 0 16 -2 16 -4z"/>
<path d="M2850 2180 c0 -25 4 -30 23 -29 12 0 16 3 10 6 -7 2 -13 16 -13 29 0
13 -4 24 -10 24 -5 0 -10 -13 -10 -30z"/>
<path d="M2409 2198 c-9 -42 -8 -48 12 -48 15 0 20 5 17 22 -2 17 -26 39 -29
26z"/>
<path d="M2559 2198 c-5 -21 -7 -50 -3 -40 3 6 10 12 15 12 6 0 7 -4 4 -10 -3
-5 -1 -10 5 -10 15 0 8 42 -7 48 -7 2 -13 2 -14 0z"/>
<path d="M2280 2170 c0 -5 5 -10 10 -10 6 0 10 5 10 10 0 6 -4 10 -10 10 -5 0
-10 -4 -10 -10z"/>
<path d="M2656 2054 c-11 -30 -5 -39 10 -14 l15 25 -4 -27 c-2 -15 0 -25 4
-22 5 3 9 16 9 30 0 27 -24 33 -34 8z"/>
<path d="M2707 2063 c-4 -3 -7 -16 -6 -27 0 -20 1 -20 10 2 5 13 13 20 19 17
5 -3 10 -1 10 4 0 12 -23 15 -33 4z"/>
<path d="M2782 2058 c-18 -18 -15 -35 8 -41 11 -3 20 -2 20 2 0 4 23 7 50 6
28 -1 50 3 50 7 0 4 -3 9 -7 9 -34 6 -53 5 -53 -2 0 -5 -5 -9 -11 -9 -5 0 -7
5 -3 12 4 6 3 8 -3 5 -6 -4 -13 0 -17 8 -7 18 -18 19 -34 3z m28 -13 c0 -8 -7
-15 -15 -15 -16 0 -20 12 -8 23 11 12 23 8 23 -8z"/>
<path d="M3015 2050 c-4 -12 -5 -24 -2 -27 3 -2 8 5 12 17 4 12 5 24 2 27 -3
2 -8 -5 -12 -17z"/>
<path d="M2611 2042 c-7 -14 -6 -18 10 -18 12 0 19 7 19 18 0 10 -4 18 -10 18
-5 0 -14 -8 -19 -18z"/>
<path d="M3137 2053 c-4 -3 -20 -6 -37 -5 -22 0 -30 -4 -30 -16 0 -15 2 -15
10 -2 5 8 10 10 10 4 0 -14 30 -14 30 0 0 8 3 8 8 0 9 -14 80 -13 86 1 2 7 -7
11 -25 10 -16 -1 -29 2 -29 7 0 10 -14 11 -23 1z"/>
<path d="M2430 2033 c0 -13 26 -13 48 0 6 5 12 4 12 0 0 -12 83 -9 87 2 2 6
-28 10 -72 10 -53 0 -75 -4 -75 -12z"/>
<path d="M2936 2035 c5 -13 57 -12 61 1 2 5 -12 9 -31 10 -21 0 -32 -4 -30
-11z"/>
<path d="M3037 2037 c-3 -8 1 -14 9 -14 8 0 14 6 14 14 0 7 -4 13 -9 13 -5 0
-11 -6 -14 -13z"/>
<path d="M3245 2039 c-11 -16 -1 -19 13 -3 7 8 8 14 3 14 -5 0 -13 -5 -16 -11z"/>
<path d="M3281 2031 c0 -10 2 -11 6 -3 2 6 9 12 14 12 6 0 7 -4 4 -10 -3 -5
-2 -10 4 -10 5 0 13 5 17 11 4 8 9 7 15 -2 7 -11 9 -11 9 1 0 13 1 13 10 0 8
-13 10 -13 10 2 0 14 -9 17 -45 16 -35 0 -45 -4 -44 -17z"/>
<path d="M5988 1819 c-22 -12 -23 -52 -3 -69 17 -14 21 0 4 17 -19 19 -2 43
31 43 33 0 50 -24 31 -43 -17 -17 -13 -31 4 -17 18 15 20 51 3 68 -15 15 -47
15 -70 1z"/>
<path d="M5970 1690 c0 -39 37 -59 75 -42 19 9 25 19 25 42 0 29 -1 30 -50 30
-49 0 -50 -1 -50 -30z m88 -2 c-6 -43 -77 -34 -78 10 0 7 15 12 41 12 36 0 40
-2 37 -22z"/>
<path d="M5981 1616 c-19 -23 -10 -60 15 -64 16 -2 24 4 32 27 6 17 16 31 21
31 15 0 14 -37 -1 -43 -7 -2 -10 -8 -6 -12 13 -13 28 6 28 36 0 24 -4 29 -23
29 -16 0 -26 -9 -35 -32 -9 -26 -14 -30 -24 -20 -10 10 -10 17 0 33 16 25 10
36 -7 15z"/>
<path d="M5983 1486 c21 -16 23 -56 2 -56 -8 0 -15 -4 -15 -10 0 -13 92 22 97
36 2 7 -17 19 -43 28 -57 19 -65 20 -41 2z m57 -26 c12 -8 11 -10 -7 -10 -13
0 -23 5 -23 10 0 13 11 13 30 0z"/>
<path d="M5988 1390 c12 -5 22 -18 22 -28 0 -25 25 -46 45 -38 9 3 15 18 15
41 l0 35 -52 -1 c-42 0 -48 -2 -30 -9z m70 -28 c2 -14 -2 -22 -12 -22 -19 0
-29 17 -22 36 8 22 30 12 34 -14z"/>
<path d="M5993 1293 c15 -2 39 -2 55 0 15 2 2 4 -28 4 -30 0 -43 -2 -27 -4z"/>
<path d="M5974 1255 c-8 -19 2 -45 16 -45 6 0 15 11 22 25 6 13 15 22 19 19 5
-3 9 0 9 5 0 19 -28 12 -35 -9 -3 -11 -11 -20 -16 -20 -6 0 -7 9 -4 20 7 23
-3 27 -11 5z"/>
<path d="M6025 1230 c-3 -5 -1 -10 4 -10 6 0 11 5 11 10 0 6 -2 10 -4 10 -3 0
-8 -4 -11 -10z"/>
</g>
</svg>
