<?xml version="1.0" standalone="no"?>
<!DOCTYPE svg PUBLIC "-//W3C//DTD SVG 20010904//EN"
 "http://www.w3.org/TR/2001/REC-SVG-20010904/DTD/svg10.dtd">
<svg version="1.0" xmlns="http://www.w3.org/2000/svg"
 width="675.000000pt" height="312.000000pt" viewBox="0 0 675.000000 312.000000"
 preserveAspectRatio="xMidYMid meet">
<metadata>
Created by potrace 1.15, written by Peter Selinger 2001-2017
</metadata>
<g transform="translate(0.000000,312.000000) scale(0.100000,-0.100000)"
fill="#000000" stroke="none">
<path d="M2179 2938 c0 -101 0 -211 1 -245 l1 -63 -246 0 -247 0 4 65 c1 36 0
65 -4 65 -5 0 -8 -31 -8 -70 0 -63 2 -70 20 -70 19 0 20 -7 20 -135 l0 -135
-850 0 -850 0 0 350 0 350 850 0 849 0 4 -147 3 -148 2 153 2 152 -860 0 -860
0 0 -360 0 -360 858 2 857 3 3 138 3 137 224 0 225 0 0 -99 0 -100 33 -3 c28
-3 32 -7 35 -35 l3 -33 624 0 624 0 3 133 3 132 350 0 350 0 6 -65 6 -65 -1
70 -1 70 -352 3 -353 2 0 60 0 60 355 0 355 0 0 62 0 63 90 -90 c50 -49 90
-94 90 -99 0 -5 -8 -19 -17 -30 -18 -21 -18 -21 5 -2 l22 19 0 -421 c0 -232
-3 -422 -8 -422 -4 0 -48 41 -97 90 l-90 91 -5 -63 -5 -63 -150 -3 c-82 -1
-159 -4 -170 -6 -11 -2 59 -3 155 -2 l175 1 5 58 5 58 90 -91 90 -90 -93 -93
-92 -92 0 63 0 62 -354 0 -354 0 -7 143 c-4 78 -5 172 -4 209 l4 67 -30 3
c-26 3 -30 8 -33 36 l-3 32 -630 0 -629 0 0 -175 0 -175 -225 0 -225 0 0 145
0 145 -862 -2 -863 -3 -3 -352 -2 -353 865 0 865 0 0 140 0 140 223 -2 222 -3
3 -102 3 -103 34 0 c32 0 35 -2 35 -30 l0 -30 628 0 627 0 -3 130 -3 130 355
0 356 0 0 -67 0 -68 100 100 100 100 0 -188 0 -187 723 2 722 3 0 740 0 740
-722 3 -723 2 0 -112 0 -113 -100 100 -100 100 0 -67 0 -67 -352 2 -353 2 -3
143 -3 142 -29 0 c-28 0 -30 3 -30 35 l0 35 -630 0 -630 0 -1 -182z m1251
-168 l0 -340 -620 0 -620 0 0 340 0 340 620 0 620 0 0 -340z m2415 -595 l0
-730 -712 -3 -713 -2 0 735 0 735 713 -2 712 -3 0 -730z m-2415 -285 l0 -340
-620 0 -620 0 0 340 0 340 620 0 620 0 0 -340z m-1710 140 c0 -133 -1 -140
-20 -140 -18 0 -20 -7 -20 -70 0 -63 2 -70 20 -70 19 0 20 -7 20 -135 l0 -135
-855 0 -855 0 0 345 0 345 855 0 855 0 0 -140z m460 -210 l0 -60 -245 0 -245
0 0 60 0 60 245 0 245 0 0 -60z"/>
<path d="M2367 3003 c-4 -3 -6 -25 -6 -47 1 -23 3 -33 6 -23 2 9 13 17 23 17
9 0 24 7 31 16 11 14 10 18 -6 30 -20 15 -38 18 -48 7z m41 -25 c-3 -7 -11
-13 -18 -13 -7 0 -15 6 -17 13 -3 7 4 12 17 12 13 0 20 -5 18 -12z"/>
<path d="M2287 2960 c-8 -22 -11 -40 -6 -40 5 0 9 5 9 10 0 14 33 13 48 -2 16
-16 15 -5 -2 37 -8 19 -19 35 -24 35 -5 0 -16 -18 -25 -40z m29 -7 c-10 -10
-19 5 -10 18 6 11 8 11 12 0 2 -7 1 -15 -2 -18z"/>
<path d="M2443 2960 c0 -25 2 -35 4 -22 2 12 2 32 0 45 -2 12 -4 2 -4 -23z"/>
<path d="M2479 2983 c-10 -11 -10 -14 -1 -9 8 5 12 -2 12 -23 0 -17 5 -31 10
-31 6 0 10 17 8 40 -2 44 -8 49 -29 23z"/>
<path d="M2690 2963 c0 -41 12 -55 38 -45 18 7 15 52 -5 59 -10 4 -21 11 -25
17 -4 6 -8 -8 -8 -31z m40 -19 c0 -8 -7 -14 -15 -14 -15 0 -21 21 -9 33 10 9
24 -2 24 -19z"/>
<path d="M2998 2989 c-6 -17 3 -69 11 -69 7 0 6 69 -2 76 -3 3 -7 0 -9 -7z"/>
<path d="M2565 2971 c-3 -5 5 -17 17 -26 l23 -17 -22 5 c-24 5 -32 -8 -10 -16
16 -6 37 3 37 15 0 6 -8 17 -17 25 -17 14 -17 14 0 9 9 -3 17 -1 17 4 0 13
-37 13 -45 1z"/>
<path d="M2620 2957 c0 -32 18 -49 42 -36 19 10 25 44 8 54 -6 4 -10 -5 -10
-19 0 -14 -4 -26 -10 -26 -5 0 -10 11 -10 25 0 14 -4 25 -10 25 -5 0 -10 -10
-10 -23z"/>
<path d="M2755 2969 c-8 -12 -8 -11 20 -28 19 -12 19 -12 -2 -8 -24 5 -32 -8
-10 -16 37 -13 50 23 15 42 l-23 12 23 -5 c12 -2 20 0 16 5 -7 12 -31 11 -39
-2z"/>
<path d="M2817 2973 c-12 -11 -8 -51 6 -56 15 -5 37 2 37 13 0 5 -9 6 -21 3
-17 -5 -20 -2 -17 13 2 10 11 18 21 18 9 -1 14 2 11 7 -6 11 -28 12 -37 2z"/>
<path d="M2871 2948 c1 -30 2 -30 8 -9 9 35 29 37 34 4 4 -27 4 -27 6 5 1 28
-2 32 -24 32 -22 0 -25 -4 -24 -32z"/>
<path d="M2930 2933 c1 -40 3 -45 13 -32 7 8 20 18 30 22 30 11 18 51 -15 55
-27 3 -28 2 -28 -45z m40 17 c0 -11 -4 -20 -10 -20 -5 0 -10 9 -10 20 0 11 5
20 10 20 6 0 10 -9 10 -20z"/>
<path d="M3032 2950 c0 -19 2 -27 5 -17 2 9 2 25 0 35 -3 9 -5 1 -5 -18z"/>
<path d="M3057 2966 c-13 -32 16 -63 42 -46 7 4 11 18 9 31 -4 28 -42 39 -51
15z m41 -19 c2 -10 -3 -17 -12 -17 -10 0 -16 9 -16 21 0 24 23 21 28 -4z"/>
<path d="M3121 2948 c1 -30 2 -30 8 -9 9 35 29 37 34 4 4 -27 4 -27 6 5 1 28
-2 32 -24 32 -22 0 -25 -4 -24 -32z"/>
<path d="M2935 2836 c-26 -18 -15 -50 18 -54 15 -2 27 1 27 6 0 6 -8 8 -19 5
-10 -3 -22 0 -26 7 -9 15 13 40 31 33 8 -3 14 -3 14 0 0 12 -30 14 -45 3z"/>
<path d="M2358 2810 c2 -16 8 -30 12 -30 4 0 10 14 12 30 4 23 1 30 -12 30
-13 0 -16 -7 -12 -30z"/>
<path d="M2508 2829 c-25 -14 -23 -49 2 -49 16 0 20 7 20 30 0 17 -1 30 -2 30
-2 0 -11 -5 -20 -11z m12 -30 c0 -5 -4 -9 -10 -9 -5 0 -10 7 -10 16 0 8 5 12
10 9 6 -3 10 -10 10 -16z"/>
<path d="M2811 2821 c-7 -12 -10 -27 -7 -34 2 -7 8 -1 12 12 l7 23 13 -23 c9
-16 13 -19 14 -8 0 8 -6 24 -14 34 -13 18 -14 18 -25 -4z"/>
<path d="M2860 2810 c0 -25 4 -30 25 -30 21 0 25 5 25 30 0 25 -4 30 -25 30
-21 0 -25 -5 -25 -30z m35 -10 c3 -5 1 -10 -4 -10 -6 0 -11 5 -11 10 0 6 2 10
4 10 3 0 8 -4 11 -10z"/>
<path d="M3029 2808 c5 -30 6 -31 9 -8 2 14 9 28 16 32 7 5 3 8 -10 8 -18 0
-20 -5 -15 -32z"/>
<path d="M3180 2833 c-8 -3 -19 -11 -23 -17 -6 -8 -10 -7 -14 2 -6 15 -33 16
-33 1 0 -5 5 -7 10 -4 6 4 10 3 9 -2 -4 -22 3 -32 21 -30 11 1 19 6 17 12 -1
6 3 10 8 10 6 0 9 -6 9 -12 -1 -7 2 -13 7 -13 5 0 9 14 9 30 0 17 -1 30 -2 29
-2 0 -10 -3 -18 -6z"/>
<path d="M2410 2805 c0 -14 2 -25 4 -25 2 0 6 11 8 25 3 14 1 25 -3 25 -5 0
-9 -11 -9 -25z"/>
<path d="M2449 2828 c-8 -37 -8 -51 1 -38 6 10 10 11 10 3 0 -7 5 -13 11 -13
14 0 7 42 -8 48 -7 2 -13 2 -14 0z"/>
<path d="M2547 2824 c-16 -16 -7 -44 14 -44 15 0 20 5 17 22 -3 22 -19 33 -31
22z"/>
<path d="M2629 2828 c-8 -37 -8 -51 1 -38 6 10 10 11 10 3 0 -7 5 -13 11 -13
14 0 7 42 -8 48 -7 2 -13 2 -14 0z"/>
<path d="M2671 2793 c0 -21 3 -32 6 -25 2 6 11 12 20 12 21 0 13 44 -9 48 -15
3 -18 -4 -17 -35z m25 0 c-10 -10 -19 5 -10 18 6 11 8 11 12 0 2 -7 1 -15 -2
-18z"/>
<path d="M2720 2793 c0 -20 3 -33 8 -29 4 4 7 16 7 27 0 10 4 18 10 16 5 -1 9
-9 7 -17 -2 -13 -2 -13 7 0 11 17 -3 40 -25 40 -9 0 -14 -12 -14 -37z"/>
<path d="M3074 2815 c-10 -26 1 -35 13 -10 6 14 7 25 2 25 -5 0 -12 -7 -15
-15z"/>
<path d="M3231 2803 c1 -23 2 -24 6 -5 2 12 8 22 13 22 5 0 11 -10 13 -22 5
-20 5 -20 4 2 -1 15 -9 26 -19 28 -14 3 -18 -3 -17 -25z"/>
<path d="M3287 2823 c-14 -13 -7 -43 11 -44 14 0 14 -2 -3 -9 -19 -8 -19 -9 3
-9 19 -1 22 4 22 34 0 33 -16 46 -33 28z m23 -18 c0 -8 -4 -15 -10 -15 -5 0
-10 7 -10 15 0 8 5 15 10 15 6 0 10 -7 10 -15z"/>
<path d="M2280 2810 c0 -5 7 -10 15 -10 8 0 15 5 15 10 0 6 -7 10 -15 10 -8 0
-15 -4 -15 -10z"/>
<path d="M3212 2800 c0 -14 2 -19 5 -12 2 6 2 18 0 25 -3 6 -5 1 -5 -13z"/>
<path d="M3100 2790 c0 -5 5 -10 10 -10 6 0 10 5 10 10 0 6 -4 10 -10 10 -5 0
-10 -4 -10 -10z"/>
<path d="M2345 2693 c-9 -8 -14 -22 -11 -30 3 -8 6 -17 6 -19 0 -2 11 -4 25
-4 14 0 25 4 25 9 0 5 -8 7 -19 4 -10 -3 -22 0 -26 7 -9 15 13 40 31 33 8 -3
14 -3 14 0 0 14 -31 14 -45 0z"/>
<path d="M2452 2670 c0 -19 2 -27 5 -17 2 9 2 25 0 35 -3 9 -5 1 -5 -18z"/>
<path d="M2472 2670 c0 -19 2 -27 5 -17 2 9 2 25 0 35 -3 9 -5 1 -5 -18z"/>
<path d="M2640 2691 c0 -5 -8 -8 -17 -7 -12 0 -19 -7 -21 -22 -3 -21 0 -23 36
-21 34 2 40 6 40 26 0 12 -4 20 -9 17 -5 -3 -9 0 -9 5 0 6 -4 11 -10 11 -5 0
-10 -4 -10 -9z m0 -32 c0 -5 -7 -9 -15 -9 -8 0 -15 7 -15 15 0 9 6 12 15 9 8
-4 15 -10 15 -15z"/>
<path d="M2721 2673 c-1 -29 2 -33 24 -33 22 0 25 4 24 33 -2 30 -2 30 -6 5
-2 -16 -10 -28 -18 -28 -8 0 -16 12 -18 28 -4 25 -4 25 -6 -5z"/>
<path d="M2790 2668 c0 -24 3 -29 9 -19 7 12 13 12 24 3 11 -10 14 -7 15 18 1
25 -3 30 -24 30 -20 0 -24 -5 -24 -32z m37 16 c-3 -3 -12 -4 -19 -1 -8 3 -5 6
6 6 11 1 17 -2 13 -5z"/>
<path d="M2851 2673 c-1 -28 2 -33 22 -32 15 1 17 3 5 6 -9 2 -19 16 -21 31
-4 24 -4 24 -6 -5z"/>
<path d="M2961 2669 c0 -28 2 -30 9 -14 7 18 8 19 15 3 12 -29 25 -20 24 15
-1 18 -3 24 -6 14 -5 -18 -6 -18 -24 -1 -18 17 -19 16 -18 -17z"/>
<path d="M3031 2684 c0 -11 3 -14 6 -6 3 7 2 16 -1 19 -3 4 -6 -2 -5 -13z"/>
<path d="M3056 2678 c-9 -37 -6 -45 8 -19 l13 23 7 -23 c4 -13 10 -19 12 -12
6 14 -13 53 -25 53 -5 0 -11 -10 -15 -22z"/>
<path d="M2405 2680 c-4 -6 1 -7 11 -3 10 4 15 2 11 -3 -3 -6 -2 -16 4 -24 6
-11 9 -8 9 13 0 27 -22 38 -35 17z"/>
<path d="M2493 2674 c-3 -8 -1 -20 6 -27 8 -8 11 -5 11 12 0 13 4 20 11 16 6
-4 8 -14 4 -24 -5 -12 -3 -13 6 -4 15 15 5 43 -16 43 -9 0 -18 -7 -22 -16z"/>
<path d="M2559 2688 c-8 -37 -8 -51 1 -38 6 10 10 11 10 3 0 -7 5 -13 11 -13
14 0 7 42 -8 48 -7 2 -13 2 -14 0z"/>
<path d="M2400 2650 c0 -5 5 -10 10 -10 6 0 10 5 10 10 0 6 -4 10 -10 10 -5 0
-10 -4 -10 -10z"/>
<path d="M4494 2847 c-3 -8 -4 -54 -2 -103 l3 -89 333 -3 332 -2 0 105 0 105
-330 0 c-266 0 -332 -3 -336 -13z m656 -87 l0 -90 -190 0 -190 0 0 40 0 40
-90 0 -90 0 0 -40 0 -40 -40 0 -40 0 0 90 0 90 320 0 320 0 0 -90z"/>
<path d="M5591 2763 c1 -27 3 -40 6 -31 2 9 14 18 26 20 43 6 30 57 -15 58
-15 0 -18 -8 -17 -47z m49 17 c0 -5 -9 -10 -20 -10 -11 0 -20 5 -20 10 0 6 9
10 20 10 11 0 20 -4 20 -10z"/>
<path d="M5519 2773 c-5 -16 -12 -34 -14 -40 -2 -7 0 -13 5 -13 6 0 10 5 10
10 0 14 38 12 43 -2 2 -7 7 -10 11 -7 10 9 -20 79 -34 79 -6 0 -15 -12 -21
-27z m31 -3 c0 -5 -5 -10 -11 -10 -5 0 -7 5 -4 10 3 6 8 10 11 10 2 0 4 -4 4
-10z"/>
<path d="M5673 2760 c0 -25 2 -35 4 -22 2 12 2 32 0 45 -2 12 -4 2 -4 -23z"/>
<path d="M5713 2793 c-7 -2 -13 -9 -13 -14 0 -6 5 -7 10 -4 6 4 10 -7 10 -24
0 -17 5 -31 10 -31 6 0 10 18 10 40 0 40 -3 43 -27 33z"/>
<path d="M4494 2617 c-3 -8 -4 -54 -2 -103 l3 -89 333 -3 332 -2 0 105 0 105
-330 0 c-266 0 -332 -3 -336 -13z m656 -92 l0 -95 -190 0 -190 0 0 45 0 45
-93 0 -92 0 3 -45 4 -45 -41 0 -41 0 0 95 0 95 320 0 320 0 0 -95z"/>
<path d="M5293 2607 c21 -17 22 -46 2 -53 -8 -4 -15 -10 -15 -15 0 -4 23 1 50
13 28 11 50 24 50 27 0 4 -17 13 -37 20 -65 23 -70 24 -50 8z m57 -27 c0 -5
-7 -10 -15 -10 -8 0 -15 5 -15 10 0 6 7 10 15 10 8 0 15 -4 15 -10z"/>
<path d="M5280 2510 c0 -5 9 -10 20 -10 14 0 20 -7 20 -24 0 -28 26 -42 46
-25 8 6 14 24 14 40 0 28 -2 29 -50 29 -27 0 -50 -4 -50 -10z m80 -30 c0 -11
-7 -20 -15 -20 -8 0 -15 9 -15 20 0 11 7 20 15 20 8 0 15 -9 15 -20z"/>
<path d="M5280 2420 c0 -5 23 -10 51 -10 31 0 48 4 44 10 -3 6 -26 10 -51 10
-24 0 -44 -4 -44 -10z"/>
<path d="M4497 2393 c-4 -3 -7 -51 -7 -105 l0 -98 335 0 335 0 0 105 0 105
-328 0 c-181 0 -332 -3 -335 -7z m653 -100 l0 -93 -190 0 -190 0 0 45 0 45
-89 0 -90 0 -3 -42 c-3 -42 -4 -43 -40 -46 l-38 -3 0 93 0 93 320 0 320 0 0
-92z"/>
<path d="M5282 2313 c1 -37 1 -37 5 -5 6 42 33 44 33 2 0 -16 5 -30 10 -30 6
0 10 14 10 30 0 17 5 30 10 30 6 0 10 -13 10 -30 0 -16 5 -30 10 -30 6 0 10
16 10 35 l0 35 -50 0 -50 0 2 -37z"/>
<path d="M5308 2249 c39 -12 37 -31 -4 -41 -27 -6 -27 -6 6 -5 30 2 35 6 38
30 3 25 1 27 -35 26 l-38 -1 33 -9z"/>
<path d="M5278 2168 c-12 -35 3 -48 56 -47 28 1 43 3 34 6 -9 2 -18 14 -20 26
-2 17 -11 23 -34 25 -20 2 -34 -2 -36 -10z m57 -18 c0 -22 -39 -19 -43 3 -3
15 1 18 20 15 12 -2 23 -10 23 -18z"/>
<path d="M4497 2163 c-4 -3 -7 -51 -7 -105 l0 -98 335 0 335 0 0 105 0 105
-328 0 c-181 0 -332 -3 -335 -7z m653 -103 l0 -90 -190 0 -190 0 0 45 0 45
-93 0 -92 0 3 -45 4 -45 -41 0 -41 0 0 90 0 90 320 0 320 0 0 -90z"/>
<path d="M5262 2093 c9 -2 15 -10 12 -17 -7 -18 21 -38 48 -34 17 2 24 11 26
31 3 27 2 27 -50 26 -29 -1 -45 -3 -36 -6z m73 -23 c0 -22 -39 -19 -43 3 -3
15 1 18 20 15 12 -2 23 -10 23 -18z"/>
<path d="M5281 2011 c-13 -24 8 -55 34 -50 28 6 42 34 26 53 -18 22 -48 20
-60 -3z m59 -15 c0 -16 -19 -25 -37 -18 -23 8 -14 32 12 32 15 0 25 -6 25 -14z"/>
<path d="M5298 1943 c12 -2 30 -2 40 0 9 3 -1 5 -23 4 -22 0 -30 -2 -17 -4z"/>
<path d="M4497 1933 c-4 -3 -7 -51 -7 -105 l0 -98 335 0 335 0 0 105 0 105
-328 0 c-181 0 -332 -3 -335 -7z m653 -103 l0 -90 -190 0 -190 0 0 45 0 45
-89 0 -90 0 -3 -42 c-3 -42 -4 -43 -40 -46 l-38 -3 0 90 0 91 320 0 320 0 0
-90z"/>
<path d="M5280 1910 c0 -5 14 -10 30 -10 42 0 40 -27 -2 -33 -32 -4 -32 -4 5
-5 35 -2 37 0 37 28 0 28 -3 30 -35 30 -19 0 -35 -4 -35 -10z"/>
<path d="M5286 1832 c-13 -12 -4 -17 31 -15 55 2 55 2 49 12 -6 10 -71 13 -80
3z"/>
<path d="M5276 1784 c-7 -17 9 -44 25 -44 5 0 14 11 19 25 11 30 25 34 17 5
-3 -11 -1 -20 4 -20 5 0 9 11 9 25 0 31 -22 33 -44 3 l-17 -23 5 23 c5 25 -9
30 -18 6z"/>
<path d="M4497 1703 c-4 -3 -7 -51 -7 -105 l0 -98 335 0 335 0 0 105 0 105
-328 0 c-181 0 -332 -3 -335 -7z m653 -103 l0 -90 -190 0 -190 0 0 45 0 45
-93 0 -92 0 3 -45 4 -45 -41 0 -41 0 0 90 0 90 320 0 320 0 0 -90z"/>
<path d="M2287 2088 c-9 -23 -15 -44 -12 -46 2 -3 7 3 11 12 3 9 14 16 24 16
10 0 21 -7 24 -16 4 -9 9 -15 11 -12 6 6 -26 88 -35 88 -4 0 -14 -19 -23 -42z
m33 2 c0 -5 -4 -10 -10 -10 -5 0 -10 5 -10 10 0 6 5 10 10 10 6 0 10 -4 10
-10z"/>
<path d="M2361 2083 c1 -26 4 -38 6 -25 3 16 11 22 29 22 21 0 25 4 22 23 -2
16 -11 23 -30 25 -27 3 -28 2 -27 -45z m47 20 c2 -8 -5 -13 -17 -13 -12 0 -21
6 -21 16 0 18 31 15 38 -3z"/>
<path d="M2437 2123 c-11 -10 -8 -71 3 -78 6 -4 10 12 10 39 0 47 -2 51 -13
39z"/>
<path d="M2480 2115 c-8 -9 -8 -15 -2 -15 6 0 13 -15 15 -32 3 -25 4 -22 5 15
2 51 1 54 -18 32z"/>
<path d="M2682 2088 c3 -38 6 -43 28 -43 35 0 38 32 6 61 -14 13 -28 24 -31
24 -3 0 -5 -19 -3 -42z m43 -18 c0 -7 -6 -15 -12 -17 -8 -3 -13 4 -13 17 0 13
5 20 13 18 6 -3 12 -11 12 -18z"/>
<path d="M3033 2085 c0 -27 2 -38 4 -22 2 15 2 37 0 50 -2 12 -4 0 -4 -28z"/>
<path d="M2999 2115 c-7 -6 2 -75 10 -75 3 0 6 16 5 35 -1 35 -6 49 -15 40z"/>
<path d="M2564 2099 c-4 -7 4 -20 17 -31 l24 -20 -23 5 c-12 3 -20 1 -16 -4 7
-13 31 -11 40 3 4 6 0 16 -9 23 -22 16 -22 26 0 18 11 -4 14 -3 9 5 -9 15 -33
15 -42 1z"/>
<path d="M2623 2080 c2 -28 6 -36 25 -38 20 -3 22 1 21 35 -1 36 -2 37 -8 8
-3 -16 -11 -30 -16 -30 -5 0 -13 14 -17 30 -6 29 -6 29 -5 -5z"/>
<path d="M2757 2103 c-13 -12 -7 -33 8 -33 8 0 15 -5 15 -11 0 -6 -7 -9 -15
-5 -8 3 -15 1 -15 -5 0 -14 42 -7 48 9 2 6 -7 16 -20 21 -18 8 -19 10 -5 10
10 1 15 6 12 11 -7 12 -19 13 -28 3z"/>
<path d="M2814 2096 c-12 -32 0 -51 34 -51 27 -1 32 3 32 22 0 13 5 23 10 23
6 0 10 -11 10 -25 0 -14 5 -25 10 -25 6 0 10 13 10 29 0 21 -6 32 -21 36 -13
4 -25 2 -29 -5 -5 -9 -9 -9 -14 -1 -10 16 -36 14 -42 -3z m36 -36 c-22 -14
-30 -12 -30 8 0 28 12 34 29 17 14 -14 14 -17 1 -25z"/>
<path d="M2943 2103 c-8 -3 -13 -22 -13 -46 0 -23 4 -37 8 -31 4 6 15 13 25
17 24 9 32 34 17 52 -13 16 -17 17 -37 8z m27 -34 c0 -20 -15 -26 -24 -10 -8
13 4 42 15 35 5 -3 9 -14 9 -25z"/>
<path d="M3060 2095 c-19 -23 -8 -50 20 -50 16 0 26 6 28 18 4 18 -14 47 -28
47 -4 0 -13 -7 -20 -15z m34 -13 c8 -13 -11 -35 -23 -28 -16 10 -14 36 3 36 8
0 17 -4 20 -8z"/>
<path d="M3133 2103 c-7 -2 -12 -19 -12 -36 2 -31 2 -31 6 -4 2 15 10 27 18
27 8 0 16 -12 18 -27 4 -22 4 -20 3 6 -1 35 -10 44 -33 34z"/>
<path d="M2359 1933 c4 -31 6 -33 9 -13 2 14 9 31 14 38 8 9 5 12 -9 12 -16 0
-18 -5 -14 -37z"/>
<path d="M2521 1963 c0 -7 -7 -13 -15 -13 -19 0 -28 -14 -20 -34 7 -19 44 -22
44 -3 0 8 3 8 9 -2 11 -17 41 -7 41 14 0 21 -30 32 -40 15 -6 -9 -9 -6 -13 11
-2 13 -5 18 -6 12z m-1 -32 c0 -6 -4 -13 -10 -16 -5 -3 -10 1 -10 9 0 9 5 16
10 16 6 0 10 -4 10 -9z"/>
<path d="M2804 1935 c0 -19 3 -29 7 -23 6 9 11 8 23 -1 10 -8 16 -9 16 -3 0 6
-5 14 -10 17 -7 4 -6 14 2 28 10 19 9 20 -4 10 -9 -8 -18 -9 -24 -3 -7 7 -10
-2 -10 -25z"/>
<path d="M2860 1969 c0 -4 7 -22 15 -40 10 -25 14 -29 15 -13 0 11 5 25 12 32
6 6 9 15 5 18 -4 4 -9 -1 -13 -10 -6 -15 -7 -15 -20 1 -7 10 -14 15 -14 12z"/>
<path d="M2933 1963 c21 -6 22 -17 2 -33 -23 -19 -18 -30 13 -29 16 1 20 3 10
6 -22 6 -23 17 -3 33 23 19 18 30 -12 29 -17 -1 -21 -3 -10 -6z"/>
<path d="M3013 1935 c0 -22 2 -30 4 -17 2 12 2 30 0 40 -3 9 -5 -1 -4 -23z"/>
<path d="M3228 1953 c-12 -3 -18 -13 -17 -31 2 -24 2 -24 6 -4 5 24 23 31 23
8 0 -29 15 -24 16 5 1 16 -2 28 -5 28 -3 -1 -14 -3 -23 -6z"/>
<path d="M2401 1923 c0 -16 3 -22 6 -13 3 8 10 21 16 28 7 8 5 12 -7 12 -11 0
-16 -8 -15 -27z"/>
<path d="M2448 1941 c11 -6 10 -10 -4 -15 -13 -5 -14 -10 -6 -18 6 -6 17 -8
26 -5 19 8 9 47 -13 47 -12 0 -13 -2 -3 -9z"/>
<path d="M2628 1942 c11 -7 10 -10 -3 -16 -21 -8 -10 -26 16 -26 28 0 22 44
-6 48 -15 2 -16 1 -7 -6z"/>
<path d="M2670 1920 c0 -28 2 -30 21 -20 24 13 22 43 -4 48 -13 3 -17 -3 -17
-28z m30 5 c0 -8 -4 -15 -10 -15 -5 0 -10 7 -10 15 0 8 5 15 10 15 6 0 10 -7
10 -15z"/>
<path d="M2720 1920 c0 -28 2 -30 20 -20 11 6 20 20 20 30 0 13 -7 20 -20 20
-16 0 -20 -7 -20 -30z m30 5 c0 -8 -4 -15 -10 -15 -5 0 -10 7 -10 15 0 8 5 15
10 15 6 0 10 -7 10 -15z"/>
<path d="M3031 1923 c2 -23 2 -24 6 -5 2 12 9 22 14 22 5 0 9 -10 10 -22 1
-22 1 -22 9 2 5 17 8 19 9 8 1 -10 6 -18 12 -18 6 0 9 8 7 18 -2 11 -14 18
-36 20 -29 3 -32 1 -31 -25z"/>
<path d="M3110 1919 c0 -31 1 -31 24 -16 16 11 26 13 34 5 14 -14 32 -1 32 23
0 12 -7 19 -20 19 -11 0 -20 -5 -20 -12 0 -9 -3 -9 -12 0 -22 22 -38 13 -38
-19z m30 6 c0 -8 -4 -15 -10 -15 -5 0 -10 7 -10 15 0 8 5 15 10 15 6 0 10 -7
10 -15z m50 0 c0 -8 -4 -15 -10 -15 -5 0 -10 7 -10 15 0 8 5 15 10 15 6 0 10
-7 10 -15z"/>
<path d="M3273 1925 c0 -14 5 -25 13 -25 20 0 27 19 9 26 -13 6 -14 8 -3 15
10 7 9 9 -3 9 -11 0 -16 -9 -16 -25z"/>
<path d="M2278 1933 c6 -2 18 -2 25 0 6 3 1 5 -13 5 -14 0 -19 -2 -12 -5z"/>
<path d="M2335 1829 c-5 -13 -1 -27 8 -36 16 -17 47 -11 47 8 0 8 -4 8 -15 -1
-12 -10 -19 -10 -27 -2 -17 17 -1 45 22 39 11 -3 18 -1 14 4 -10 17 -43 9 -49
-12z"/>
<path d="M2453 1815 c0 -22 2 -30 4 -17 2 12 2 30 0 40 -3 9 -5 -1 -4 -23z"/>
<path d="M2473 1815 c0 -22 2 -30 4 -17 2 12 2 30 0 40 -3 9 -5 -1 -4 -23z"/>
<path d="M2491 1818 c-1 -39 14 -49 36 -27 8 8 13 8 17 0 13 -21 36 -12 36 14
0 17 -5 25 -17 24 -11 0 -13 -3 -5 -6 6 -2 12 -12 11 -21 0 -11 -2 -12 -6 -4
-2 6 -11 12 -19 12 -8 0 -14 5 -14 10 0 6 -6 10 -14 10 -8 0 -17 6 -19 13 -3
6 -6 -5 -6 -25z m29 -14 c0 -8 -4 -12 -10 -9 -5 3 -10 10 -10 16 0 5 5 9 10 9
6 0 10 -7 10 -16z"/>
<path d="M2641 1829 c-1 -27 -31 -50 -31 -25 0 8 6 17 13 19 7 4 6 6 -4 6 -19
1 -31 -20 -20 -37 8 -13 51 -12 51 1 0 5 6 4 14 -2 11 -10 14 -7 12 14 0 15
-6 23 -13 21 -6 -3 -14 3 -16 12 -3 10 -5 6 -6 -9z"/>
<path d="M2723 1818 c1 -25 7 -33 22 -33 16 0 20 7 22 35 1 33 1 33 -5 6 -10
-40 -29 -44 -36 -7 l-6 31 3 -32z"/>
<path d="M2781 1818 c0 -18 3 -27 6 -20 7 17 24 15 38 -5 11 -15 13 -13 11 17
-1 30 -5 35 -29 38 -25 3 -27 1 -26 -30z m39 12 c0 -5 -4 -10 -9 -10 -6 0 -13
5 -16 10 -3 6 1 10 9 10 9 0 16 -4 16 -10z"/>
<path d="M2852 1818 c-2 -34 1 -38 21 -37 15 1 17 3 5 6 -10 2 -18 17 -21 36
-4 31 -4 31 -5 -5z"/>
<path d="M2415 1820 c17 -7 17 -9 3 -9 -25 -1 -23 -31 2 -31 15 0 20 7 20 25
0 19 -5 25 -22 24 -22 0 -22 -1 -3 -9z"/>
<path d="M2781 1723 c0 -12 -4 -30 -7 -40 -5 -17 -5 -17 6 0 6 10 9 28 7 40
-4 22 -4 22 -6 0z"/>
<path d="M3003 1720 c-15 -6 -23 -17 -22 -32 0 -23 0 -23 11 2 11 25 11 25 15
3 6 -33 18 -28 20 7 1 17 1 30 0 29 -1 0 -12 -4 -24 -9z"/>
<path d="M2410 1696 c0 -23 3 -26 14 -17 11 9 15 9 19 -1 3 -9 7 -6 13 7 4 11
12 23 18 27 8 5 7 8 -1 8 -6 0 -15 -5 -19 -11 -4 -8 -9 -7 -15 2 -7 11 -9 11
-9 -1 0 -13 -1 -13 -10 0 -7 12 -10 8 -10 -14z"/>
<path d="M2492 1704 c-7 -8 -11 -20 -9 -27 4 -8 6 -8 6 2 1 10 4 11 15 2 12
-10 16 -8 22 11 l7 23 9 -25 c7 -20 11 -22 18 -10 9 13 10 13 10 0 1 -11 4
-10 15 4 8 11 15 25 15 30 0 6 -5 4 -10 -4 -8 -12 -10 -12 -10 -1 0 10 -3 11
-14 2 -11 -9 -15 -9 -18 1 -4 11 -8 11 -20 0 -9 -7 -18 -9 -20 -3 -1 5 -9 3
-16 -5z"/>
<path d="M2638 1695 c-3 -14 1 -21 11 -21 9 0 17 9 17 21 1 12 -4 22 -11 22
-7 0 -15 -10 -17 -22z"/>
<path d="M2685 1702 c4 -13 1 -29 -5 -37 -9 -10 -9 -15 -1 -15 6 0 17 13 26
30 17 32 20 53 5 30 -9 -13 -11 -13 -21 0 -8 12 -9 10 -4 -8z"/>
<path d="M2738 1713 c10 -4 9 -9 -4 -24 -16 -18 -16 -19 7 -18 13 0 18 3 11 6
-10 4 -9 9 4 24 16 18 16 19 -7 18 -13 0 -18 -3 -11 -6z"/>
<path d="M2801 1693 c2 -24 2 -25 6 -5 2 12 9 22 15 22 5 0 8 -7 4 -15 -3 -8
-1 -15 4 -15 6 0 10 7 10 15 0 8 4 15 9 15 5 0 7 -10 4 -22 -4 -19 -3 -20 6
-8 20 28 12 40 -24 40 -32 0 -35 -2 -34 -27z"/>
<path d="M2877 1693 c-7 -35 -7 -35 25 -18 19 9 28 10 31 2 6 -18 37 1 37 23
0 22 -20 26 -38 8 -9 -9 -12 -9 -12 0 0 7 -8 12 -19 12 -12 0 -20 -9 -24 -27z
m33 2 c0 -8 -4 -15 -10 -15 -5 0 -10 7 -10 15 0 8 5 15 10 15 6 0 10 -7 10
-15z m50 0 c0 -8 -4 -15 -10 -15 -5 0 -10 7 -10 15 0 8 5 15 10 15 6 0 10 -7
10 -15z"/>
<path d="M3040 1711 c0 -6 5 -13 11 -17 8 -4 7 -9 -2 -15 -11 -7 -10 -9 4 -9
9 0 17 7 17 15 0 8 -6 15 -12 15 -9 0 -8 4 2 10 13 8 12 10 -2 10 -10 0 -18
-4 -18 -9z"/>
<path d="M3116 1712 c-3 -3 -6 -13 -6 -23 0 -25 103 -22 108 4 2 9 8 17 13 17
6 0 7 -9 4 -21 -5 -15 -4 -19 4 -15 6 4 11 14 11 22 0 8 4 14 9 14 5 0 7 -10
5 -22 -4 -21 -4 -21 5 -3 12 27 5 35 -30 35 -23 0 -29 -4 -30 -22 l0 -23 -9
22 c-7 16 -17 21 -44 21 -19 0 -37 -3 -40 -6z m32 -14 c-6 -18 -28 -21 -28 -4
0 9 7 16 16 16 9 0 14 -5 12 -12z m42 4 c0 -13 -12 -22 -22 -16 -10 6 -1 24
13 24 5 0 9 -4 9 -8z"/>
<path d="M430 2054 c0 -5 6 -19 14 -29 12 -17 11 -23 -11 -52 -28 -36 -18 -46
12 -12 l19 20 18 -23 c20 -26 25 -8 6 22 -11 17 -8 24 17 50 33 34 23 41 -12
9 l-22 -22 -20 24 c-11 13 -20 19 -21 13z"/>
<path d="M540 2057 c0 -4 7 -22 16 -39 9 -17 13 -40 10 -54 -4 -14 -2 -24 4
-24 5 0 10 8 10 18 0 10 14 37 31 60 34 47 28 57 -9 15 -13 -16 -25 -23 -28
-17 -8 19 -33 50 -34 41z"/>
<path d="M650 2051 c0 -5 12 -11 27 -13 l28 -3 -38 -41 c-20 -23 -37 -44 -37
-48 0 -3 21 -6 46 -6 27 0 43 4 39 10 -3 6 -17 10 -31 10 l-25 0 35 44 c20 23
36 46 36 50 0 3 -18 6 -40 6 -22 0 -40 -4 -40 -9z"/>
<path d="M807 2053 c-2 -4 -8 -24 -12 -43 -3 -19 -9 -43 -11 -52 -3 -10 -1
-18 4 -18 5 0 14 26 21 57 10 52 10 76 -2 56z"/>
<path d="M1215 2038 c-4 -9 -12 -15 -19 -12 -19 7 -44 -19 -51 -55 -5 -21 -3
-31 3 -27 5 3 12 19 15 36 5 20 12 30 25 30 15 0 17 -6 14 -35 -4 -29 -1 -35
14 -34 11 0 14 3 7 6 -13 5 -7 53 7 63 4 3 4 14 0 25 -7 18 -9 18 -15 3z"/>
<path d="M852 2019 c-12 -5 -22 -17 -22 -28 0 -11 -3 -26 -6 -35 -3 -9 -2 -16
4 -16 5 0 13 16 16 35 5 23 13 35 23 35 12 0 14 -7 10 -35 -7 -43 8 -38 16 5
4 19 13 30 23 30 13 0 15 -7 9 -37 -4 -26 -3 -35 4 -28 6 6 12 26 13 45 3 34
2 35 -32 36 -20 1 -46 -3 -58 -7z"/>
<path d="M989 2023 c-10 -2 -20 -19 -24 -41 -3 -20 -8 -45 -11 -54 -3 -10 -1
-18 5 -18 6 0 11 8 11 19 0 14 6 17 25 14 19 -4 27 0 37 22 18 40 -4 69 -43
58z m29 -40 c-3 -30 -25 -42 -34 -19 -9 22 2 46 21 46 12 0 15 -8 13 -27z"/>
<path d="M1067 2012 c-20 -22 -22 -43 -5 -60 20 -20 48 -14 60 14 21 46 -22
83 -55 46z m46 -9 c8 -14 -12 -53 -28 -53 -15 0 -22 40 -8 53 9 9 31 9 36 0z"/>
<path d="M1259 2014 c-12 -15 -11 -19 9 -32 12 -8 22 -18 22 -23 0 -14 -28
-11 -33 4 -2 6 -8 9 -12 4 -14 -12 11 -29 36 -25 30 4 37 34 10 43 -27 8 -27
29 -1 22 24 -6 27 8 4 17 -21 8 -20 8 -35 -10z"/>
<path d="M520 1845 c0 -8 -8 -15 -18 -15 -24 0 -42 -19 -42 -46 0 -28 24 -47
50 -39 17 5 20 15 20 61 0 30 -2 54 -5 54 -3 0 -5 -7 -5 -15z m-5 -56 c0 -15
-7 -25 -17 -27 -13 -3 -18 3 -18 21 0 13 3 27 7 31 13 12 28 -1 28 -25z"/>
<path d="M960 1805 c0 -30 5 -55 10 -55 6 0 10 25 10 55 0 30 -4 55 -10 55 -5
0 -10 -25 -10 -55z"/>
<path d="M277 1838 c-5 -16 3 -80 12 -90 4 -5 6 15 5 43 -3 53 -9 70 -17 47z"/>
<path d="M1208 1839 c-7 -20 7 -92 17 -96 9 -3 11 23 6 100 -1 11 -19 8 -23
-4z"/>
<path d="M321 1785 c1 -27 3 -32 6 -15 3 14 12 33 20 42 14 15 13 17 -6 15
-18 -1 -21 -7 -20 -42z"/>
<path d="M375 1820 c-4 -7 1 -9 18 -5 36 9 42 -11 7 -24 -50 -17 -32 -57 20
-44 17 5 21 12 18 42 -3 31 -7 36 -30 39 -14 2 -29 -2 -33 -8z m50 -50 c-3 -5
-13 -10 -21 -10 -8 0 -14 5 -14 10 0 6 9 10 21 10 11 0 17 -4 14 -10z"/>
<path d="M562 1818 c-34 -34 6 -90 48 -68 29 15 25 20 -10 14 -19 -4 -30 -2
-30 5 0 6 11 11 24 11 30 0 42 16 26 35 -15 18 -42 19 -58 3z m42 -7 c3 -5 -3
-11 -14 -14 -20 -5 -26 3 -13 16 9 10 21 9 27 -2z"/>
<path d="M695 1820 c-4 -7 2 -9 19 -4 33 8 34 -9 1 -24 -45 -21 -28 -58 20
-46 23 6 26 11 23 43 -3 31 -7 36 -30 39 -14 2 -29 -2 -33 -8z m45 -50 c0 -5
-9 -10 -21 -10 -11 0 -17 5 -14 10 3 6 13 10 21 10 8 0 14 -4 14 -10z"/>
<path d="M780 1774 c0 -30 5 -54 10 -54 6 0 10 7 10 15 0 8 6 12 13 9 20 -7
39 21 35 53 -3 24 -8 28 -35 29 l-33 1 0 -53z m58 18 c4 -26 -26 -42 -38 -21
-11 16 7 52 23 46 7 -2 13 -13 15 -25z"/>
<path d="M870 1774 c0 -30 5 -54 10 -54 6 0 10 7 10 15 0 8 6 12 14 9 21 -8
46 34 37 60 -6 15 -17 21 -40 22 l-31 1 0 -53z m58 18 c4 -26 -26 -42 -38 -21
-11 16 7 52 23 46 7 -2 13 -13 15 -25z"/>
<path d="M1000 1791 c0 -23 2 -41 4 -41 8 0 12 71 4 76 -4 3 -8 -13 -8 -35z"/>
<path d="M1041 1816 c-16 -19 -7 -62 14 -70 22 -8 45 4 44 23 0 10 -2 11 -6 4
-2 -7 -13 -13 -24 -13 -13 0 -19 7 -19 24 0 31 16 42 37 24 14 -11 16 -11 11
2 -6 21 -42 24 -57 6z"/>
<path d="M1124 1819 c-4 -7 0 -9 14 -5 33 11 35 -11 2 -23 -17 -5 -30 -14 -30
-19 0 -18 25 -30 50 -25 23 4 25 8 22 44 -4 33 -8 39 -27 39 -13 0 -27 -5 -31
-11z m46 -49 c0 -5 -9 -10 -20 -10 -11 0 -20 5 -20 10 0 6 9 10 20 10 11 0 20
-4 20 -10z"/>
<path d="M1250 1790 c0 -22 5 -40 10 -40 6 0 10 18 10 40 0 22 -4 40 -10 40
-5 0 -10 -18 -10 -40z"/>
<path d="M1290 1810 c-9 -17 -8 -26 5 -46 27 -42 69 -21 63 33 -4 37 -50 46
-68 13z m55 -10 c8 -24 -1 -40 -21 -40 -17 0 -28 24 -20 45 8 22 34 18 41 -5z"/>
<path d="M1381 1786 c1 -28 3 -33 6 -16 11 56 43 67 43 15 0 -19 5 -35 11 -35
6 0 9 16 7 38 -3 34 -5 37 -35 38 -32 1 -33 0 -32 -40z"/>
<path d="M4170 3053 c0 -5 577 -8 1282 -8 l1283 0 5 -1525 5 -1525 0 1530 0
1530 -1287 3 c-709 1 -1288 -1 -1288 -5z"/>
<path d="M6372 2928 c-20 -20 -15 -76 8 -88 22 -12 60 2 60 22 0 9 -3 9 -12 0
-21 -21 -47 -14 -54 14 -9 37 15 60 46 44 18 -10 21 -9 18 2 -6 17 -50 22 -66
6z"/>
<path d="M6460 2890 l0 -50 35 0 c28 0 38 5 47 25 16 35 -12 75 -52 75 -29 0
-30 -1 -30 -50z m65 -5 c0 -23 -5 -31 -22 -33 -20 -3 -23 1 -23 33 0 32 3 36
23 33 17 -2 22 -10 22 -33z"/>
<path d="M6569 2924 c-11 -14 -10 -18 6 -30 10 -8 25 -14 32 -14 7 0 13 -7 13
-15 0 -18 -31 -20 -48 -3 -9 9 -12 9 -12 0 0 -20 38 -34 60 -22 29 16 24 40
-10 53 -17 6 -28 16 -26 22 4 11 10 11 41 -1 18 -7 18 -6 6 9 -17 21 -45 22
-62 1z"/>
<path d="M431 2878 c-17 -29 -28 -55 -25 -58 3 -2 10 3 15 13 12 21 59 23 59
2 0 -8 4 -15 9 -15 4 0 5 19 0 43 -4 23 -8 48 -9 55 0 26 -21 10 -49 -40z m39
7 c0 -16 -6 -25 -15 -25 -18 0 -19 4 -3 30 16 26 18 25 18 -5z"/>
<path d="M537 2923 c-3 -4 -8 -29 -12 -55 l-7 -48 35 0 c43 0 55 14 53 65 -1
37 -3 40 -33 43 -17 2 -33 -1 -36 -5z m59 -14 c7 -12 -12 -29 -33 -29 -7 0
-13 9 -13 20 0 22 34 28 46 9z m-8 -56 c-2 -11 -14 -19 -31 -21 -29 -4 -30 -2
-21 22 9 23 56 21 52 -1z"/>
<path d="M646 2908 c-17 -24 -20 -56 -8 -74 21 -31 82 -21 82 14 -1 16 -1 16
-11 0 -12 -22 -42 -23 -59 -4 -9 12 -9 21 2 43 15 31 46 42 59 22 4 -7 11 -10
14 -7 13 13 -6 28 -35 28 -18 0 -34 -8 -44 -22z"/>
<path d="M814 2923 c16 -4 18 -11 12 -56 -7 -60 9 -47 19 15 5 27 12 38 28 41
12 2 0 4 -28 4 -27 1 -42 -1 -31 -4z"/>
<path d="M1100 2911 c0 -14 -6 -17 -25 -14 -19 4 -27 0 -37 -22 -16 -35 0 -61
33 -57 13 2 25 5 26 5 7 7 18 107 12 107 -5 0 -9 -8 -9 -19z m-12 -49 c4 -25
-23 -41 -40 -24 -7 7 -6 17 2 32 14 26 34 22 38 -8z"/>
<path d="M896 2875 c-11 -40 -5 -61 7 -27 7 18 19 37 27 42 11 7 10 9 -7 7
-13 0 -24 -10 -27 -22z"/>
<path d="M955 2890 c-4 -7 2 -9 19 -4 16 4 26 2 26 -5 0 -6 -6 -11 -13 -11 -7
0 -22 -6 -32 -14 -16 -11 -17 -17 -7 -29 20 -24 59 -10 66 25 3 17 3 34 0 39
-7 12 -51 11 -59 -1z m40 -49 c-8 -13 -35 -15 -35 -2 0 5 8 11 18 13 21 5 26
2 17 -11z"/>
<path d="M1130 2883 c0 -10 -3 -29 -6 -43 -5 -17 -3 -22 3 -15 15 14 25 75 13
75 -6 0 -10 -8 -10 -17z"/>
<path d="M1166 2878 c-3 -13 -5 -32 -5 -43 0 -14 5 -10 15 14 9 21 12 37 6 43
-6 6 -12 0 -16 -14z"/>
<path d="M1209 2891 c9 -6 11 -18 6 -40 -4 -20 -3 -31 4 -31 6 0 11 18 11 40
0 31 -4 40 -17 40 -14 0 -15 -2 -4 -9z"/>
<path d="M1261 2886 c-20 -24 -9 -59 19 -67 21 -5 22 -7 8 -14 -9 -4 -22 -4
-28 0 -5 3 -10 2 -10 -4 0 -15 18 -23 39 -16 14 4 23 21 30 56 6 27 11 51 11
52 0 11 -60 4 -69 -7z m44 -6 c9 -15 -4 -50 -20 -50 -21 0 -27 17 -15 40 12
22 25 26 35 10z"/>
<path d="M278 2713 c-6 -26 5 -86 17 -90 9 -3 10 18 6 95 -1 18 -18 15 -23 -5z"/>
<path d="M520 2715 c0 -8 -6 -12 -14 -9 -17 6 -46 -22 -46 -45 0 -25 20 -41
52 -41 27 0 28 1 28 55 0 30 -4 55 -10 55 -5 0 -10 -7 -10 -15z m-2 -52 c-2
-17 -9 -28 -18 -28 -9 0 -16 11 -18 28 -3 22 1 27 18 27 17 0 21 -5 18 -27z"/>
<path d="M973 2675 c0 -33 2 -45 4 -27 2 18 2 45 0 60 -2 15 -4 0 -4 -33z"/>
<path d="M1215 2717 c-9 -22 -2 -90 10 -94 6 -2 10 18 9 47 -1 52 -9 74 -19
47z"/>
<path d="M338 2703 c-14 -3 -18 -15 -18 -44 0 -21 5 -39 10 -39 6 0 10 15 10
34 0 25 5 36 18 38 9 2 13 6 7 9 -5 3 -18 4 -27 2z"/>
<path d="M393 2703 c-23 -9 -14 -20 12 -15 15 2 25 0 25 -7 0 -6 -8 -11 -19
-11 -22 0 -45 -25 -36 -39 3 -6 21 -10 40 -9 32 1 35 4 35 33 0 45 -22 63 -57
48z m37 -53 c0 -12 -28 -25 -36 -17 -9 9 6 27 22 27 8 0 14 -5 14 -10z"/>
<path d="M566 2694 c-19 -18 -21 -45 -4 -62 15 -15 45 -16 53 -2 4 6 -3 9 -16
7 -12 -1 -24 4 -26 11 -3 8 6 12 26 12 17 0 31 4 31 9 0 12 -29 41 -40 41 -5
0 -16 -7 -24 -16z m44 -14 c0 -5 -9 -10 -20 -10 -11 0 -20 5 -20 10 0 6 9 10
20 10 11 0 20 -4 20 -10z"/>
<path d="M700 2695 c-11 -13 -8 -14 19 -9 18 4 31 2 31 -3 0 -6 -14 -13 -31
-17 -43 -8 -37 -41 9 -42 31 -1 32 1 32 36 0 25 -5 40 -16 44 -23 9 -30 8 -44
-9z m44 -50 c-4 -8 -12 -15 -20 -15 -8 0 -14 7 -14 15 0 8 9 15 20 15 13 0 18
-5 14 -15z"/>
<path d="M798 2703 c-14 -4 -18 -15 -18 -59 0 -30 5 -54 10 -54 6 0 10 7 10
15 0 8 9 15 20 15 18 0 40 26 40 49 0 11 -29 41 -38 40 -4 -1 -15 -3 -24 -6z
m40 -40 c-2 -17 -9 -28 -18 -28 -9 0 -16 11 -18 28 -3 22 1 27 18 27 17 0 21
-5 18 -27z"/>
<path d="M893 2703 c-9 -3 -13 -24 -12 -61 1 -31 3 -49 6 -39 2 9 12 17 22 17
38 0 54 46 25 74 -16 17 -21 18 -41 9z m35 -40 c-2 -17 -9 -28 -18 -28 -9 0
-16 11 -18 28 -3 22 1 27 18 27 17 0 21 -5 18 -27z"/>
<path d="M1054 2702 c-18 -12 -24 -42 -14 -63 13 -23 43 -25 60 -4 14 17 0 21
-17 4 -16 -16 -33 -2 -33 28 0 22 4 25 25 21 28 -6 34 6 9 16 -19 7 -17 7 -30
-2z"/>
<path d="M1133 2703 c-23 -9 -14 -20 12 -15 14 2 25 0 25 -6 0 -6 -10 -12 -22
-14 -15 -2 -24 -11 -26 -26 -3 -20 0 -22 32 -20 33 2 36 5 36 33 0 45 -22 63
-57 48z m37 -53 c0 -12 -28 -25 -36 -17 -9 9 6 27 22 27 8 0 14 -5 14 -10z"/>
<path d="M1301 2696 c-7 -8 -11 -27 -9 -43 3 -24 8 -28 33 -28 25 0 30 4 33
28 4 30 -12 57 -33 57 -7 0 -18 -6 -24 -14z m44 -36 c0 -16 -6 -26 -18 -28
-19 -4 -32 20 -23 44 9 25 41 13 41 -16z"/>
<path d="M1398 2703 c-13 -3 -18 -15 -18 -44 0 -21 5 -39 10 -39 6 0 10 16 10
36 0 49 32 44 41 -6 l6 -35 2 41 c1 30 -4 44 -15 48 -9 3 -16 5 -17 5 -1 -1
-10 -3 -19 -6z"/>
<path d="M1000 2659 c0 -24 4 -38 10 -34 6 3 10 22 10 41 0 19 -4 34 -10 34
-5 0 -10 -18 -10 -41z"/>
<path d="M1263 2660 c0 -25 2 -35 4 -22 2 12 2 32 0 45 -2 12 -4 2 -4 -23z"/>
<path d="M4289 2569 l-44 -41 48 38 c26 21 47 40 47 41 0 8 -11 0 -51 -38z"/>
<path d="M5982 1818 c-17 -17 -15 -53 3 -68 17 -14 21 0 4 17 -19 19 -2 43 31
43 33 0 50 -24 31 -43 -17 -17 -13 -31 4 -17 18 15 20 51 3 68 -7 7 -24 12
-38 12 -14 0 -31 -5 -38 -12z"/>
<path d="M5977 1724 c-4 -4 -7 -20 -7 -36 0 -37 37 -57 76 -40 21 10 25 18 22
45 -3 30 -6 32 -43 35 -23 2 -44 0 -48 -4z m81 -36 c-6 -43 -77 -34 -78 10 0
7 15 12 41 12 36 0 40 -2 37 -22z"/>
<path d="M5981 1616 c-19 -23 -10 -60 15 -64 16 -2 24 4 32 27 6 17 16 31 21
31 15 0 14 -33 -1 -49 -11 -11 -10 -13 2 -9 22 7 20 62 -3 66 -13 3 -22 -6
-30 -27 -6 -17 -15 -31 -20 -31 -15 0 -19 30 -7 45 7 9 11 18 8 20 -3 3 -11
-1 -17 -9z"/>
<path d="M5983 1486 c21 -16 23 -56 2 -56 -8 0 -15 -4 -15 -10 0 -13 1 -13 54
10 25 10 46 24 46 29 0 5 -21 16 -47 25 -56 19 -64 20 -40 2z m57 -26 c12 -8
11 -10 -7 -10 -13 0 -23 5 -23 10 0 13 11 13 30 0z"/>
<path d="M5975 1390 c3 -5 13 -10 21 -10 8 0 14 -8 14 -19 0 -24 25 -45 45
-37 9 3 15 18 15 41 l0 35 -51 0 c-31 0 -48 -4 -44 -10z m85 -31 c0 -25 -33
-22 -38 4 -2 12 3 17 17 17 15 0 21 -6 21 -21z"/>
<path d="M4410 740 l0 -630 723 2 722 3 3 628 2 627 -725 0 -725 0 0 -630z
m1438 3 l-3 -618 -712 -3 -713 -2 0 620 0 620 715 0 715 0 -2 -617z"/>
<path d="M4497 1313 c-4 -3 -7 -51 -7 -105 l0 -98 335 0 335 0 0 105 0 105
-328 0 c-181 0 -332 -3 -335 -7z m653 -98 l0 -95 -190 0 -190 0 0 45 0 45 -90
0 -90 0 0 -45 0 -45 -40 0 -40 0 0 90 0 90 318 3 c174 1 318 3 320 5 1 1 2
-41 2 -93z"/>
<path d="M5517 1220 c-8 -22 -11 -40 -6 -40 5 0 9 5 9 10 0 14 38 12 43 -2 2
-7 7 -10 11 -7 8 7 -21 79 -33 79 -4 0 -15 -18 -24 -40z m33 0 c0 -5 -4 -10
-10 -10 -5 0 -10 5 -10 10 0 6 5 10 10 10 6 0 10 -4 10 -10z"/>
<path d="M5591 1218 c1 -24 3 -35 6 -26 2 9 14 18 26 20 14 2 23 11 25 26 3
19 -1 22 -27 22 -30 0 -31 -1 -30 -42z m47 20 c-3 -7 -11 -13 -18 -13 -7 0
-15 6 -17 13 -3 7 4 12 17 12 13 0 20 -5 18 -12z"/>
<path d="M5673 1220 c0 -25 2 -35 4 -22 2 12 2 32 0 45 -2 12 -4 2 -4 -23z"/>
<path d="M5694 1249 c-4 -8 0 -9 15 -4 28 8 28 -12 0 -42 -20 -20 -20 -23 -5
-29 9 -3 24 -3 34 1 16 8 16 8 -1 12 -17 5 -18 6 -2 24 10 10 15 25 12 34 -7
17 -43 20 -53 4z"/>
<path d="M5280 1191 c0 -5 7 -11 15 -15 20 -7 19 -42 -1 -50 -9 -4 -14 -9 -11
-12 7 -8 97 26 97 36 0 4 -22 17 -50 28 -27 12 -50 17 -50 13z m70 -41 c-19
-13 -30 -13 -30 0 0 6 10 10 23 10 18 0 19 -2 7 -10z"/>
<path d="M4497 1083 c-4 -3 -7 -51 -7 -105 l0 -98 335 0 335 0 0 105 0 105
-328 0 c-181 0 -332 -3 -335 -7z m653 -103 l0 -90 -190 0 -190 0 0 45 0 45
-89 0 -90 0 -3 -42 c-3 -42 -4 -43 -40 -46 l-38 -3 0 90 0 91 320 0 320 0 0
-90z"/>
<path d="M5297 1083 c15 -3 23 -13 25 -31 6 -51 57 -38 58 16 0 20 -4 22 -52
21 -29 -1 -43 -4 -31 -6z m63 -29 c0 -31 -23 -28 -28 4 -2 15 2 22 12 22 11 0
16 -9 16 -26z"/>
<path d="M5303 993 c15 -2 39 -2 55 0 15 2 2 4 -28 4 -30 0 -43 -2 -27 -4z"/>
<path d="M5282 883 c1 -37 1 -37 5 -5 6 42 33 44 33 1 0 -17 4 -28 10 -24 6 3
10 17 10 31 0 13 5 24 10 24 6 0 10 -13 10 -30 0 -16 5 -30 10 -30 6 0 10 16
10 35 l0 35 -50 0 -50 0 2 -37z"/>
<path d="M4497 853 c-4 -3 -7 -51 -7 -105 l0 -98 335 0 335 0 0 105 0 105
-328 0 c-181 0 -332 -3 -335 -7z m653 -103 l0 -90 -190 0 -190 0 0 45 0 45
-90 0 -90 0 0 -45 0 -45 -40 0 -40 0 0 90 0 90 320 0 320 0 0 -90z"/>
<path d="M5305 821 c17 -3 30 -13 30 -21 0 -8 -13 -18 -30 -22 -29 -6 -29 -6
5 -5 30 2 35 6 38 30 3 25 1 27 -35 26 -36 -1 -37 -2 -8 -8z"/>
<path d="M5287 746 c-8 -9 -13 -25 -10 -36 4 -16 14 -20 49 -20 23 0 46 5 49
10 3 6 0 10 -7 10 -7 0 -18 10 -23 22 -12 28 -38 34 -58 14z m51 -18 c-7 -20
-48 -23 -48 -4 0 11 9 16 26 16 16 0 24 -5 22 -12z"/>
<path d="M5250 670 c0 -5 7 -10 15 -10 8 0 14 -3 14 -7 -3 -21 3 -32 21 -38
27 -9 50 11 50 41 0 22 -4 24 -50 24 -27 0 -50 -4 -50 -10z m90 -25 c0 -9 -9
-15 -25 -15 -16 0 -25 6 -25 15 0 9 9 15 25 15 16 0 25 -6 25 -15z"/>
<path d="M4494 617 c-7 -21 0 -202 9 -199 4 1 153 2 332 2 l326 0 -3 103 -3
102 -328 3 c-266 2 -328 0 -333 -11z m656 -97 l0 -90 -190 0 -190 0 0 43 0 44
-82 -2 c-46 -2 -86 -3 -90 -4 -5 0 -8 -19 -8 -41 l0 -40 -40 0 -40 0 0 90 0
90 320 0 320 0 0 -90z"/>
<path d="M5281 587 c-15 -18 -5 -44 20 -52 26 -9 51 13 47 39 -4 25 -49 34
-67 13z m54 -17 c0 -8 -10 -16 -22 -18 -22 -3 -32 16 -16 32 12 11 38 2 38
-14z"/>
<path d="M5298 513 c12 -2 30 -2 40 0 9 3 -1 5 -23 4 -22 0 -30 -2 -17 -4z"/>
<path d="M5305 481 c17 -3 30 -13 30 -21 0 -8 -13 -18 -30 -22 -29 -6 -29 -6
5 -5 30 2 35 6 38 30 3 25 1 27 -35 26 -36 -1 -37 -2 -8 -8z"/>
<path d="M5315 412 c-49 -6 -49 -19 0 -17 25 1 48 5 51 7 8 9 -19 14 -51 10z"/>
<path d="M4492 288 l3 -103 330 0 330 0 3 103 3 102 -336 0 -336 0 3 -102z
m658 2 l0 -90 -190 0 -190 0 0 40 0 40 -90 0 -90 0 0 -40 0 -40 -40 0 -40 0 0
90 0 90 320 0 320 0 0 -90z"/>
<path d="M5281 366 c-14 -17 -4 -46 16 -46 8 0 17 9 20 20 3 11 10 20 15 20 5
0 6 -10 3 -22 -6 -18 -4 -20 5 -12 14 14 10 46 -7 51 -7 3 -17 -7 -23 -21 -12
-33 -24 -34 -18 -1 6 29 5 30 -11 11z"/>
<path d="M5993 1293 c15 -2 39 -2 55 0 15 2 2 4 -28 4 -30 0 -43 -2 -27 -4z"/>
<path d="M5974 1255 c-8 -19 2 -45 16 -45 6 0 15 12 20 26 6 14 14 22 20 19 5
-3 10 -1 10 4 0 20 -32 11 -37 -9 -3 -11 -10 -20 -15 -20 -6 0 -8 9 -5 20 6
23 -1 27 -9 5z"/>
<path d="M6025 1230 c-3 -5 -1 -10 4 -10 6 0 11 5 11 10 0 6 -2 10 -4 10 -3 0
-8 -4 -11 -10z"/>
</g>
</svg>
