<?xml version="1.0" standalone="no"?>
<!DOCTYPE svg PUBLIC "-//W3C//DTD SVG 20010904//EN"
 "http://www.w3.org/TR/2001/REC-SVG-20010904/DTD/svg10.dtd">
<svg version="1.0" xmlns="http://www.w3.org/2000/svg"
 width="612.000000pt" height="239.000000pt" viewBox="0 0 612.000000 239.000000"
 preserveAspectRatio="xMidYMid meet">
<metadata>
Created by potrace 1.15, written by Peter Selinger 2001-2017
</metadata>
<g transform="translate(0.000000,239.000000) scale(0.100000,-0.100000)"
fill="#000000" stroke="none">
<path d="M1627 2307 c-15 -24 -12 -127 4 -127 5 0 9 20 9 45 0 28 4 45 12 45
9 0 9 3 0 12 -17 17 -15 26 6 30 16 3 16 4 0 10 -13 5 -22 1 -31 -15z"/>
<path d="M910 2251 c0 -41 4 -71 10 -71 6 0 10 14 10 30 0 27 3 30 34 30 39 0
59 19 54 52 -3 20 -9 23 -55 26 l-53 3 0 -70z m88 35 c4 -20 -13 -36 -41 -36
-20 0 -32 23 -23 46 8 22 60 15 64 -10z"/>
<path d="M1158 2268 c5 -89 9 -97 11 -20 0 39 -2 72 -6 72 -5 0 -7 -24 -5 -52z"/>
<path d="M1203 2250 c0 -41 2 -58 4 -37 2 20 2 54 0 75 -2 20 -4 3 -4 -38z"/>
<path d="M1524 2302 c-6 -13 -7 -44 -4 -70 4 -37 9 -48 25 -50 16 -3 18 -1 8
9 -7 7 -13 28 -13 46 0 20 5 33 13 33 8 0 9 2 1 8 -7 4 -14 16 -16 27 -5 19
-5 19 -14 -3z"/>
<path d="M1575 2310 c3 -5 8 -10 11 -10 2 0 4 5 4 10 0 6 -5 10 -11 10 -5 0
-7 -4 -4 -10z"/>
<path d="M1980 2310 c0 -5 5 -10 10 -10 6 0 10 5 10 10 0 6 -4 10 -10 10 -5 0
-10 -4 -10 -10z"/>
<path d="M1928 2298 c-8 -21 6 -111 17 -115 6 -2 10 17 8 49 -1 29 -2 59 -3
66 0 6 -4 12 -9 12 -5 0 -11 -6 -13 -12z"/>
<path d="M1318 2283 c-14 -3 -18 -15 -18 -54 0 -31 4 -48 10 -44 6 3 10 22 10
41 0 22 6 37 15 41 22 8 28 -1 36 -50 l6 -42 2 46 c1 60 -13 75 -61 62z"/>
<path d="M1420 2270 c-23 -23 -24 -29 -10 -64 7 -18 17 -26 34 -26 53 0 76 65
34 94 -29 20 -34 20 -58 -4z m58 -31 c4 -34 -22 -57 -43 -39 -16 13 -20 51 -8
64 16 16 48 1 51 -25z"/>
<path d="M1729 2269 c-15 -15 -19 -28 -14 -47 10 -41 47 -56 73 -30 20 20 13
32 -8 13 -16 -15 -22 -16 -35 -5 -22 18 -15 64 9 68 10 2 22 -2 27 -9 4 -7 12
-10 16 -5 8 7 -23 36 -39 36 -4 0 -17 -9 -29 -21z"/>
<path d="M1833 2283 c-7 -2 -13 -12 -13 -21 0 -12 3 -13 12 -4 16 16 51 16 46
0 -3 -7 -14 -14 -26 -16 -27 -4 -44 -25 -36 -46 5 -12 17 -16 45 -14 39 3 39
3 39 45 0 51 -27 73 -67 56z m47 -62 c0 -5 -7 -14 -15 -21 -12 -10 -19 -10
-28 -1 -9 9 -9 14 3 21 19 12 40 13 40 1z"/>
<path d="M2036 2274 c-19 -18 -21 -65 -4 -82 7 -7 21 -12 33 -12 30 0 45 19
45 57 0 47 -43 69 -74 37z m52 -16 c15 -15 15 -30 -1 -52 -18 -25 -47 -11 -47
23 0 41 22 55 48 29z"/>
<path d="M2153 2283 c-20 -4 -23 -11 -23 -48 0 -57 18 -68 22 -13 2 36 7 44
26 46 20 3 22 -1 22 -42 0 -25 5 -46 10 -46 16 0 12 77 -6 94 -8 9 -18 15 -22
15 -4 -1 -17 -4 -29 -6z"/>
<path d="M2258 2279 c-27 -15 -21 -39 12 -50 17 -6 30 -15 30 -19 0 -16 -21
-22 -36 -9 -17 14 -33 4 -17 -12 6 -6 23 -9 39 -7 21 2 30 9 32 26 3 18 -3 25
-27 33 -42 15 -40 33 2 25 30 -5 31 -5 13 9 -23 17 -25 18 -48 4z"/>
<path d="M1040 2249 c0 -50 16 -69 55 -67 35 1 35 1 35 50 0 26 -4 48 -10 48
-5 0 -10 -15 -10 -33 0 -37 -15 -58 -36 -50 -9 3 -14 20 -14 44 0 21 -4 39
-10 39 -5 0 -10 -14 -10 -31z"/>
<path d="M1570 2236 c0 -25 5 -48 10 -51 6 -4 10 13 10 44 0 28 -4 51 -10 51
-5 0 -10 -20 -10 -44z"/>
<path d="M1670 2236 c0 -25 5 -48 10 -51 6 -4 10 13 10 44 0 28 -4 51 -10 51
-5 0 -10 -20 -10 -44z"/>
<path d="M1980 2230 c0 -27 5 -50 10 -50 6 0 10 23 10 50 0 28 -4 50 -10 50
-5 0 -10 -22 -10 -50z"/>
<path d="M5383 2016 c-4 -8 -30 -37 -56 -65 l-48 -52 -19 23 c-26 31 -25 13 1
-23 17 -24 20 -39 15 -82 -5 -50 -5 -50 5 -14 12 41 24 47 34 17 7 -22 -20
-116 -36 -125 -5 -4 -9 8 -9 24 0 17 -4 31 -9 31 -12 0 -41 81 -41 117 0 18 5
44 10 59 19 48 -4 43 -52 -10 -38 -43 -47 -61 -52 -101 l-5 -50 10 43 c10 41
22 50 46 34 12 -8 -32 -143 -77 -238 -11 -23 -20 -49 -20 -58 0 -9 -15 -30
-32 -47 -18 -16 -27 -29 -21 -29 31 0 64 54 119 193 32 81 61 147 64 147 4 0
14 -28 23 -62 25 -99 30 -128 19 -128 -6 0 -13 -18 -17 -40 -5 -28 -15 -46
-36 -61 -38 -27 -38 -43 1 -21 19 11 38 36 51 67 12 28 23 46 25 40 2 -5 24
-75 48 -155 25 -80 58 -178 75 -217 22 -55 26 -73 16 -73 -8 0 -16 -4 -19 -9
-8 -13 4 -41 18 -41 28 0 43 -36 38 -93 l-4 -57 -109 0 -109 0 0 -210 c0 -115
4 -210 8 -210 5 0 24 7 42 17 31 15 37 15 85 -2 37 -12 65 -15 96 -10 24 3 65
6 92 6 60 -1 164 -1 225 0 26 0 66 -3 90 -6 30 -5 60 -2 97 9 48 16 56 16 90
2 68 -29 65 -38 65 194 l0 210 -182 2 c-181 3 -183 3 -186 25 -3 19 3 23 37
29 l41 7 0 48 c0 46 -11 62 -25 39 -3 -5 -20 -10 -37 -10 -24 0 -29 3 -24 18
53 143 103 261 111 259 5 -2 11 -16 12 -31 3 -36 7 -40 32 -26 25 13 27 33 6
54 -9 9 -22 37 -30 63 -21 69 -30 80 -50 63 -10 -8 -19 -10 -25 -4 -9 9 -220
295 -339 459 -30 41 -58 75 -62 75 -5 0 -12 -6 -16 -14z m127 -156 c29 -41 97
-134 151 -206 149 -201 141 -174 64 -224 -37 -24 -69 -39 -74 -34 -4 5 -14 28
-21 52 -13 42 -23 51 -35 32 -3 -5 -1 -10 4 -10 17 0 13 -46 -4 -60 -18 -15
-20 -13 -29 18 -9 26 2 29 20 5 7 -10 14 -13 14 -7 0 5 -20 39 -45 74 -25 35
-45 69 -45 75 0 6 -27 82 -60 168 -50 129 -60 163 -55 194 11 65 14 68 38 32
13 -19 47 -68 77 -109z m-138 82 c-4 -18 -10 -33 -14 -32 -5 0 -15 0 -23 0
-22 0 -19 13 11 45 30 33 35 30 26 -13z m-168 -49 c-9 -37 -17 -45 -37 -37
-15 5 -14 9 6 34 28 37 39 37 31 3z m139 1 c12 -4 13 -11 5 -35 -12 -34 -16
-35 -34 -11 -28 37 -12 62 29 46z m78 -141 c15 -46 26 -83 24 -83 -2 0 -25 29
-50 64 l-46 65 17 33 c12 23 19 28 22 18 3 -8 18 -52 33 -97z m-9 -69 c38 -54
64 -107 82 -163 14 -45 26 -84 26 -86 0 -7 -108 -85 -117 -85 -4 0 -32 68 -62
150 l-53 150 28 65 c15 36 30 62 34 58 4 -4 32 -44 62 -89z m428 -208 c0 -8 3
-23 6 -33 4 -14 1 -13 -15 6 -12 12 -18 27 -15 32 8 14 24 11 24 -5z m-17 -63
c-4 -9 -16 -11 -43 -7 -31 5 -38 3 -42 -14 -3 -11 -17 -21 -34 -25 -53 -10
-45 9 23 55 68 46 68 46 84 25 10 -11 15 -27 12 -34z m-297 -9 c-3 -9 -6 -20
-6 -24 0 -9 -79 -34 -86 -27 -4 4 77 65 90 66 4 1 5 -6 2 -15z m104 -28 c0 -3
-4 -8 -10 -11 -5 -3 -10 -1 -10 4 0 6 5 11 10 11 6 0 10 -2 10 -4z m-110 -31
c0 -8 7 -15 15 -15 8 0 15 -3 14 -7 -1 -19 -75 -157 -85 -160 -10 -3 -62 163
-53 171 3 2 79 21 102 25 4 0 7 -6 7 -14z m220 0 c0 -8 7 -15 15 -15 8 0 15
-4 15 -9 0 -20 -93 -182 -103 -178 -9 3 -21 41 -58 176 -2 7 2 16 9 18 6 3 12
-2 12 -11 0 -23 15 -20 46 9 30 28 64 33 64 10z m-135 -141 l24 -58 -37 -13
c-37 -13 -72 -17 -72 -9 0 14 53 146 57 142 2 -2 15 -30 28 -62z m44 -133 c15
-15 18 -28 14 -65 l-6 -47 -61 3 -61 3 -3 38 c-3 36 -3 37 32 37 32 0 36 3 36
25 0 30 22 33 49 6z"/>
<path d="M660 1804 c-30 -7 -162 -39 -293 -69 -131 -31 -245 -59 -253 -62 -12
-4 -14 -95 -16 -602 l-3 -596 -40 -5 -40 -5 35 -12 c36 -12 132 -42 514 -158
l218 -66 209 83 c188 75 234 98 197 98 -10 0 -14 37 -15 148 -1 81 -5 239 -7
352 -3 113 -8 341 -12 507 -4 205 -10 306 -18 312 -15 12 -116 32 -127 25 -5
-3 -23 2 -41 10 -39 20 -190 56 -226 55 -15 -1 -52 -7 -82 -15z m360 -1399 c0
-43 -1 -44 -20 -33 -23 15 -23 18 -10 52 15 40 30 31 30 -19z"/>
<path d="M5112 1740 c0 -14 2 -19 5 -12 2 6 2 18 0 25 -3 6 -5 1 -5 -13z"/>
<path d="M5102 1680 c0 -14 2 -19 5 -12 2 6 2 18 0 25 -3 6 -5 1 -5 -13z"/>
<path d="M4700 1415 l0 -45 -55 0 -55 0 0 -35 c0 -33 -2 -35 -35 -35 l-35 0 0
-60 c0 -56 -2 -60 -30 -75 -18 -10 -30 -23 -30 -36 0 -11 14 -52 30 -91 27
-63 30 -81 30 -175 0 -96 -1 -105 -17 -98 -37 16 -77 17 -129 5 l-54 -13 0
-44 c0 -23 3 -43 7 -43 4 0 27 8 52 17 41 16 47 16 91 0 60 -21 80 -21 139 0
45 15 50 15 90 0 52 -21 74 -21 129 0 42 16 47 15 99 -2 47 -16 60 -17 96 -6
74 22 94 23 125 7 52 -27 64 -22 60 25 -3 40 -5 41 -58 60 -51 18 -58 18 -99
4 -25 -8 -46 -15 -48 -15 -2 0 -3 45 -3 100 0 92 3 105 36 181 40 90 38 104
-9 127 -25 12 -27 18 -27 73 l0 59 -35 0 c-33 0 -35 2 -35 35 l0 35 -50 0 -50
0 0 45 0 45 -65 0 -65 0 0 -45z m180 -130 c0 -33 2 -35 35 -35 30 0 35 -3 35
-24 l0 -25 -94 38 -93 39 -91 -38 c-50 -20 -93 -35 -96 -33 -2 2 -2 13 1 24 4
14 14 19 39 19 32 0 34 2 34 35 l0 35 115 0 115 0 0 -35z"/>
<path d="M1913 1333 c13 -3 17 -16 19 -51 l1 -47 4 40 c2 22 11 46 20 53 14
10 11 12 -23 11 -21 -1 -31 -3 -21 -6z"/>
<path d="M2152 1328 c-1 -9 -12 -18 -24 -20 -17 -2 -24 -11 -26 -30 -3 -22 2
-29 23 -34 14 -3 28 -4 31 -1 3 3 3 27 1 53 -2 27 -4 41 -5 32z m-7 -53 c0
-28 -29 -25 -33 3 -3 19 0 23 15 20 10 -2 18 -12 18 -23z"/>
<path d="M3502 1323 c-4 -10 -5 -34 -1 -53 l6 -35 3 33 c2 17 3 38 4 45 1 6
10 15 21 19 19 6 19 6 -2 7 -12 1 -26 -7 -31 -16z"/>
<path d="M2488 1320 c-5 -17 3 -80 11 -80 7 0 6 79 -2 86 -3 3 -7 0 -9 -6z"/>
<path d="M3147 1323 c-6 -11 4 -83 12 -83 7 0 6 79 -2 86 -3 3 -7 2 -10 -3z"/>
<path d="M3432 1289 c2 -27 9 -44 18 -47 13 -5 13 -3 1 11 -8 10 -11 27 -7 41
3 14 1 28 -5 31 -7 5 -9 -7 -7 -36z"/>
<path d="M3707 1323 c-6 -11 4 -83 12 -83 7 0 6 79 -2 86 -3 3 -7 2 -10 -3z"/>
<path d="M1986 1294 c-9 -24 -7 -44 4 -44 6 0 10 11 10 24 0 13 6 27 13 29 7
4 6 6 -4 6 -9 1 -20 -6 -23 -15z"/>
<path d="M2030 1301 c0 -5 9 -7 20 -4 15 4 20 0 20 -15 0 -22 -17 -38 -28 -27
-3 3 0 10 8 15 13 8 12 10 -2 10 -21 0 -29 -12 -19 -29 5 -7 17 -10 33 -6 20
5 24 11 20 36 -3 23 -9 29 -28 29 -13 0 -24 -4 -24 -9z"/>
<path d="M2175 1290 c-11 -34 32 -68 50 -40 3 5 0 7 -8 4 -8 -3 -18 -1 -22 5
-3 6 2 11 13 11 24 0 32 8 25 26 -8 22 -51 17 -58 -6z m45 0 c0 -5 -7 -10 -15
-10 -8 0 -15 5 -15 10 0 6 7 10 15 10 8 0 15 -4 15 -10z"/>
<path d="M2287 1303 c-9 -9 12 -33 30 -33 8 0 11 -5 8 -10 -4 -6 -16 -8 -28
-4 -17 5 -19 3 -11 -6 14 -14 46 -10 51 7 2 6 -8 19 -24 28 -24 14 -24 15 -5
12 12 -3 22 -1 22 4 0 10 -33 12 -43 2z"/>
<path d="M2356 1290 c5 -14 8 -37 8 -52 -1 -38 11 -26 29 27 17 49 13 62 -5
18 -10 -25 -12 -26 -16 -8 -2 11 -9 25 -14 30 -7 7 -8 2 -2 -15z"/>
<path d="M2420 1294 c0 -9 9 -18 20 -21 11 -3 20 -10 20 -15 0 -6 -10 -8 -21
-5 -16 4 -19 3 -11 -5 6 -6 18 -8 26 -5 20 8 21 37 2 37 -8 0 -18 5 -22 12 -5
8 0 9 14 6 12 -4 22 -2 22 3 0 5 -11 9 -25 9 -16 0 -25 -6 -25 -16z"/>
<path d="M2524 1296 c-15 -39 23 -74 50 -45 8 9 7 10 -7 5 -11 -3 -24 -3 -30
1 -7 4 -2 9 13 13 14 3 25 12 25 20 0 20 -44 25 -51 6z m46 -6 c0 -5 -6 -10
-14 -10 -8 0 -18 5 -21 10 -3 6 3 10 14 10 12 0 21 -4 21 -10z"/>
<path d="M2602 1273 c1 -37 1 -37 5 -5 3 18 10 32 18 32 8 0 15 -14 18 -32 l4
-33 1 33 c1 20 7 32 16 32 9 0 16 -13 19 -32 4 -32 4 -32 5 5 l2 37 -45 0 -45
0 2 -37z"/>
<path d="M2742 1279 c3 -40 18 -49 18 -10 0 16 6 32 13 34 6 3 2 6 -11 6 -19
1 -22 -4 -20 -30z"/>
<path d="M2785 1290 c-11 -33 32 -69 49 -41 3 5 -2 8 -12 7 -11 0 -18 7 -20
22 -2 15 2 22 12 22 9 0 16 -4 16 -10 0 -5 -5 -10 -12 -10 -6 0 -9 -3 -5 -6
12 -12 37 5 31 21 -9 23 -51 19 -59 -5z"/>
<path d="M2864 1296 c-10 -26 1 -51 24 -54 12 -2 20 -8 17 -13 -4 -5 -1 -9 4
-9 6 0 11 20 11 45 0 41 -2 45 -25 45 -14 0 -28 -6 -31 -14z m41 -21 c0 -28
-29 -25 -33 3 -3 19 0 23 15 20 10 -2 18 -12 18 -23z"/>
<path d="M2938 1304 c-13 -12 -9 -41 6 -53 23 -19 46 -2 45 33 l-1 31 -7 -29
c-9 -41 -29 -44 -33 -6 -2 18 -6 28 -10 24z"/>
<path d="M3010 1280 c0 -34 24 -50 43 -31 9 9 8 11 -4 6 -10 -4 -20 -2 -24 4
-3 7 2 11 14 11 14 0 21 6 21 20 0 15 -7 20 -25 20 -21 0 -25 -5 -25 -30z m40
10 c0 -5 -7 -10 -15 -10 -8 0 -15 5 -15 10 0 6 7 10 15 10 8 0 15 -4 15 -10z"/>
<path d="M3077 1303 c-9 -9 12 -33 30 -33 8 0 11 -5 8 -11 -4 -6 -14 -8 -24
-4 -12 5 -13 3 -4 -6 14 -14 43 -5 43 15 0 7 -10 17 -22 20 -22 7 -22 7 -3 16
20 8 20 9 -1 9 -11 1 -24 -2 -27 -6z"/>
<path d="M3180 1296 c0 -8 9 -18 20 -21 11 -3 20 -11 20 -16 0 -6 -10 -7 -22
-4 -18 6 -20 5 -11 -5 14 -15 43 -6 43 13 0 8 -10 19 -22 26 l-23 12 23 -5
c12 -2 22 0 22 5 0 5 -11 9 -25 9 -15 0 -25 -6 -25 -14z"/>
<path d="M3280 1280 c0 -16 5 -30 10 -30 6 0 10 11 10 25 0 38 28 32 33 -7 4
-32 4 -32 5 5 2 35 0 37 -28 37 -27 0 -30 -3 -30 -30z"/>
<path d="M3355 1289 c-10 -30 18 -58 43 -43 9 6 17 22 17 35 0 34 -50 41 -60
8z m52 -4 c1 -5 -1 -16 -6 -24 -8 -12 -12 -12 -25 -2 -8 7 -12 19 -9 27 6 16
34 15 40 -1z"/>
<path d="M3473 1275 c0 -22 2 -30 4 -17 2 12 2 30 0 40 -3 9 -5 -1 -4 -23z"/>
<path d="M3534 1281 c2 -44 16 -50 16 -8 0 21 -4 37 -9 37 -4 0 -8 -13 -7 -29z"/>
<path d="M3563 1294 c-3 -9 -2 -24 4 -33 13 -20 45 -21 51 -1 5 13 3 13 -12 1
-12 -10 -20 -11 -28 -3 -17 17 -1 45 22 39 11 -3 18 -1 14 4 -9 15 -44 10 -51
-7z"/>
<path d="M3630 1302 c0 -6 9 -8 20 -5 16 4 20 0 20 -20 0 -14 5 -29 11 -32 7
-5 9 5 7 26 -2 29 -7 35 -30 37 -16 2 -28 -1 -28 -6z"/>
<path d="M3743 1275 c0 -22 2 -30 4 -17 2 12 2 30 0 40 -3 9 -5 -1 -4 -23z"/>
<path d="M3777 1304 c-11 -11 -8 -52 3 -59 6 -3 19 -3 31 0 28 9 23 59 -6 63
-12 2 -24 0 -28 -4z m41 -26 c-2 -13 -10 -23 -18 -23 -8 0 -16 10 -18 23 -3
17 2 22 18 22 16 0 21 -5 18 -22z"/>
<path d="M3840 1281 c0 -17 5 -33 10 -36 6 -4 10 7 10 24 0 43 27 41 33 -1 4
-32 4 -32 5 5 2 35 0 37 -28 37 -27 0 -30 -3 -30 -29z"/>
<path d="M3632 1263 c2 -9 10 -18 18 -20 13 -4 13 -3 0 6 -13 10 -13 12 0 21
13 8 12 10 -3 10 -12 0 -17 -6 -15 -17z"/>
<path d="M1470 1186 l-65 -23 70 -23 c39 -12 76 -25 83 -28 7 -2 12 5 12 22
l0 26 1328 3 1327 2 -1327 3 c-1321 2 -1328 2 -1328 22 0 25 -15 24 -100 -4z"/>
<path d="M1950 801 c-12 -24 1 -66 25 -75 14 -5 55 8 55 18 0 2 -15 3 -32 2
-30 -1 -33 2 -33 29 0 26 4 30 28 30 15 -1 27 3 27 7 0 17 -59 8 -70 -11z"/>
<path d="M2040 775 l0 -46 38 3 c36 3 37 4 37 43 0 39 -1 40 -37 43 l-38 3 0
-46z m65 0 c0 -23 -5 -31 -22 -33 -20 -3 -23 1 -23 33 0 32 3 36 23 33 17 -2
22 -10 22 -33z"/>
<path d="M2147 813 c-15 -14 -5 -32 23 -42 17 -5 30 -15 30 -20 0 -15 -47 -14
-53 2 -4 9 -6 9 -6 0 -2 -20 38 -36 55 -22 23 19 16 39 -16 50 -40 14 -39 33
0 25 19 -3 29 -2 25 4 -7 11 -48 14 -58 3z"/>
<path d="M2452 775 c1 -25 6 -45 10 -45 4 0 8 20 8 45 0 25 -4 45 -10 45 -5 0
-9 -20 -8 -45z"/>
<path d="M2850 775 c0 -48 16 -63 22 -20 4 35 22 35 29 -1 l7 -29 1 33 c1 29
-7 37 -31 33 -5 0 -8 6 -8 14 0 8 -4 15 -10 15 -5 0 -10 -20 -10 -45z"/>
<path d="M3175 808 c-5 -17 -1 -66 7 -73 3 -3 8 14 10 39 3 42 -7 63 -17 34z"/>
<path d="M2817 803 c-6 -11 4 -73 12 -73 4 0 5 18 3 40 -4 40 -7 46 -15 33z"/>
<path d="M3110 772 c0 -23 3 -42 8 -42 9 0 9 66 -1 76 -4 4 -7 -11 -7 -34z"/>
<path d="M3380 772 c0 -22 4 -43 8 -46 10 -6 9 70 -1 80 -4 4 -7 -11 -7 -34z"/>
<path d="M2278 792 c-19 -4 -26 -62 -8 -62 6 0 10 11 10 24 0 13 6 26 13 29
17 6 5 14 -15 9z"/>
<path d="M2520 785 c-19 -23 -8 -50 23 -53 15 -2 27 1 27 6 0 6 -8 8 -19 5
-10 -3 -22 0 -25 6 -5 7 3 11 18 11 16 0 26 6 26 15 0 8 -5 15 -11 15 -5 0 -7
-4 -4 -10 3 -5 -1 -10 -9 -10 -10 0 -13 6 -10 15 8 19 0 19 -16 0z"/>
<path d="M2597 793 c-13 -13 -7 -30 16 -42 l22 -12 -22 5 c-13 2 -23 0 -23 -5
0 -5 11 -9 25 -9 31 0 34 29 4 37 -12 3 -18 11 -15 19 6 15 3 18 -7 7z"/>
<path d="M2978 793 c-12 -3 -18 -14 -18 -34 0 -37 18 -38 22 -1 4 36 21 34 30
-4 6 -28 6 -28 5 5 -2 36 -9 42 -39 34z"/>
<path d="M3045 784 c-8 -9 -15 -19 -15 -24 0 -16 31 -39 45 -34 8 4 15 19 15
34 0 33 -23 45 -45 24z m35 -24 c0 -25 -18 -36 -26 -16 -8 21 3 49 16 41 5 -3
10 -15 10 -25z"/>
<path d="M3270 790 c0 -5 5 -10 11 -10 5 0 7 5 4 10 -3 6 -8 10 -11 10 -2 0
-4 -4 -4 -10z"/>
<path d="M3343 787 c4 -11 1 -17 -7 -17 -18 0 -40 -27 -28 -34 6 -3 12 1 16 9
3 8 10 15 17 15 6 0 9 -7 5 -15 -3 -8 -1 -15 4 -15 14 0 12 57 -2 66 -8 5 -9
2 -5 -9z"/>
<path d="M3553 787 c4 -10 7 -27 7 -38 0 -10 5 -19 10 -19 16 0 11 47 -7 61
-15 12 -16 12 -10 -4z"/>
<path d="M2306 775 c-9 -25 4 -45 30 -45 13 0 24 4 24 9 0 5 -9 7 -20 4 -11
-3 -20 0 -20 6 0 6 12 11 26 11 26 0 30 20 4 28 -7 3 -10 0 -6 -7 4 -6 0 -11
-9 -11 -9 0 -13 5 -10 10 3 6 2 10 -3 10 -6 0 -12 -7 -16 -15z"/>
<path d="M2380 743 c0 -43 1 -45 15 -27 8 10 15 15 15 10 0 -5 7 -3 15 4 16
13 21 60 6 60 -4 0 -6 -11 -3 -25 3 -18 0 -25 -11 -25 -22 0 -31 18 -17 35 10
12 9 15 -4 15 -12 0 -16 -10 -16 -47z"/>
<path d="M2480 760 c0 -16 5 -30 10 -30 6 0 10 14 10 30 0 17 -4 30 -10 30 -5
0 -10 -13 -10 -30z"/>
<path d="M2691 760 c11 -31 29 -41 29 -15 0 8 -4 15 -10 15 -5 0 -10 7 -10 15
0 8 -4 15 -9 15 -6 0 -6 -12 0 -30z"/>
<path d="M2720 775 c0 -8 5 -15 10 -15 6 0 10 -7 10 -15 0 -8 4 -15 10 -15 11
0 25 48 16 57 -3 4 -6 -1 -6 -10 0 -9 -4 -17 -10 -17 -5 0 -10 7 -10 15 0 8
-4 15 -10 15 -5 0 -10 -7 -10 -15z"/>
<path d="M2792 760 c0 -19 2 -27 5 -17 2 9 2 25 0 35 -3 9 -5 1 -5 -18z"/>
<path d="M3140 760 c0 -16 5 -30 10 -30 6 0 10 14 10 30 0 17 -4 30 -10 30 -5
0 -10 -13 -10 -30z"/>
<path d="M3212 760 c0 -19 2 -27 5 -17 2 9 2 25 0 35 -3 9 -5 1 -5 -18z"/>
<path d="M3240 761 c0 -29 14 -42 38 -33 6 2 12 9 12 14 0 6 -6 5 -15 -2 -12
-10 -16 -9 -21 4 -3 9 -4 23 0 31 3 8 1 15 -4 15 -6 0 -10 -13 -10 -29z"/>
<path d="M3422 760 c0 -19 2 -27 5 -17 2 9 2 25 0 35 -3 9 -5 1 -5 -18z"/>
<path d="M3447 783 c-14 -13 -7 -43 12 -53 23 -12 56 14 47 37 -3 8 -6 17 -6
19 0 2 -4 4 -9 4 -4 0 -6 -11 -4 -24 6 -29 -10 -41 -27 -21 -10 12 -10 18 0
30 12 14 0 22 -13 8z"/>
<path d="M3520 760 c0 -16 2 -30 4 -30 2 0 6 14 8 30 3 17 1 30 -4 30 -4 0 -8
-13 -8 -30z"/>
<path d="M4058 677 l-3 -22 -1325 -5 -1325 -5 1327 -3 1327 -2 3 -22 3 -23 74
26 75 26 -77 26 -76 25 -3 -21z"/>
<path d="M4375 640 c-3 -5 -17 -10 -31 -10 -22 0 -24 -4 -24 -46 0 -51 4 -53
77 -23 28 11 39 11 80 -4 59 -21 85 -21 125 -1 31 16 51 15 125 -7 36 -11 49
-10 96 6 52 17 57 18 99 2 55 -21 77 -21 129 0 40 15 45 15 90 0 67 -24 71
-23 67 24 -3 38 -6 42 -43 55 -52 18 -94 18 -140 -2 -34 -14 -42 -14 -86 0
-59 20 -74 20 -131 1 -41 -14 -50 -14 -89 -1 -56 20 -83 20 -136 0 -40 -16
-46 -16 -86 0 -48 18 -113 21 -122 6z"/>
<path d="M4360 515 c-31 -11 -36 -18 -41 -54 -3 -23 -2 -44 2 -47 5 -2 25 2
45 11 47 19 78 19 133 -2 41 -16 47 -16 91 0 59 21 83 21 139 1 40 -14 49 -14
92 0 60 20 83 20 136 0 39 -15 46 -15 92 0 62 20 70 20 131 0 46 -15 53 -15
100 2 48 17 52 17 100 0 52 -19 82 -18 137 5 27 11 40 10 92 -6 59 -18 63 -18
122 0 52 16 65 17 92 6 55 -23 85 -24 137 -5 47 17 52 17 98 1 26 -9 50 -17
55 -17 4 0 7 20 7 44 0 42 -1 44 -43 60 -52 20 -84 20 -117 1 -33 -19 -75 -19
-128 2 -42 16 -47 15 -99 -2 -49 -17 -59 -17 -101 -5 -57 17 -94 17 -149 -1
-37 -11 -49 -11 -90 4 -59 21 -85 21 -125 1 -27 -14 -34 -14 -78 0 -62 20 -89
20 -141 0 -38 -16 -45 -16 -93 0 -66 20 -77 20 -136 -1 -44 -16 -50 -16 -91 0
-25 9 -55 17 -68 17 -13 0 -45 -8 -71 -17 -44 -16 -50 -16 -91 0 -51 19 -89
20 -139 2z"/>
<path d="M4380 395 c-14 -8 -33 -14 -42 -15 -15 0 -18 -9 -18 -45 0 -51 4 -53
67 -29 40 16 46 16 86 0 54 -20 90 -20 144 0 40 16 46 16 86 0 54 -20 81 -20
141 0 43 15 51 15 89 0 53 -20 81 -20 140 0 44 15 49 15 99 -4 48 -18 57 -19
93 -6 51 18 80 17 134 -2 41 -14 49 -14 88 1 31 12 57 15 86 10 66 -11 149
-10 183 2 25 9 42 7 85 -8 50 -18 57 -18 101 -4 59 19 96 19 142 0 l36 -15 0
47 0 48 -51 17 c-47 15 -55 16 -97 2 -30 -11 -60 -14 -91 -9 -25 3 -70 6 -98
6 -29 -1 -79 -1 -110 -2 -32 0 -80 3 -106 6 -31 5 -53 3 -60 -4 -16 -16 -87
-14 -138 4 -40 14 -48 14 -87 -1 -45 -17 -75 -15 -130 7 -28 12 -39 11 -81 -4
-61 -21 -90 -21 -141 -1 -38 15 -44 15 -83 0 -54 -20 -90 -20 -144 0 -40 16
-46 16 -86 0 -53 -20 -94 -20 -140 -1 -45 18 -65 18 -97 0z"/>
<path d="M590 140 c-24 -24 -25 -48 -4 -78 17 -24 53 -29 72 -10 21 21 13 32
-9 12 -27 -24 -53 -9 -57 34 -4 40 28 61 53 36 9 -9 19 -13 23 -9 8 8 -26 35
-45 35 -7 0 -22 -9 -33 -20z"/>
<path d="M697 153 c-4 -3 -7 -30 -7 -60 l0 -53 40 0 c42 0 60 18 60 59 0 41
-68 80 -93 54z m71 -52 c4 -35 -9 -51 -40 -51 -15 0 -18 9 -18 46 0 44 1 45
28 42 23 -3 28 -8 30 -37z"/>
<path d="M826 147 c-26 -19 -16 -38 25 -52 19 -7 34 -18 34 -26 0 -21 -34 -23
-56 -3 -10 9 -19 12 -19 7 0 -39 83 -44 88 -5 3 18 -4 26 -32 37 -20 9 -36 20
-36 25 0 15 48 12 53 -2 2 -7 8 -9 13 -5 9 9 -22 37 -41 37 -6 0 -19 -6 -29
-13z"/>
<path d="M4580 150 c0 -5 9 -10 19 -10 17 0 21 -8 24 -52 l3 -53 2 53 c2 45 5
52 22 52 11 0 20 5 20 10 0 6 -20 10 -45 10 -25 0 -45 -4 -45 -10z"/>
<path d="M4890 139 c0 -14 -5 -19 -14 -16 -24 10 -48 -16 -44 -48 3 -26 8 -30
36 -33 l32 -3 0 60 c0 34 -2 61 -5 61 -3 0 -5 -9 -5 -21z m-5 -59 c0 -16 -6
-26 -18 -28 -19 -4 -32 20 -23 44 9 25 41 13 41 -16z"/>
<path d="M5313 133 c-11 -22 -2 -85 12 -90 6 -2 9 18 8 48 -2 58 -7 69 -20 42z"/>
<path d="M4754 116 c-17 -13 -16 -14 9 -9 34 7 36 -13 2 -21 -16 -4 -25 -13
-25 -26 0 -16 7 -20 35 -20 33 0 35 2 35 35 0 42 -27 62 -56 41z m36 -51 c0
-8 -9 -15 -20 -15 -22 0 -27 15 -7 23 21 9 27 7 27 -8z"/>
<path d="M5078 122 c-26 -5 -22 -31 7 -44 14 -6 25 -15 25 -20 0 -12 -24 -10
-39 4 -11 11 -13 10 -9 -2 6 -20 63 -20 63 0 0 8 -10 19 -23 26 -35 17 -40 27
-9 22 15 -3 27 -2 27 2 0 11 -22 17 -42 12z"/>
<path d="M5237 119 c-25 -15 -21 -29 13 -40 35 -13 29 -33 -7 -24 -16 4 -22 2
-18 -5 10 -16 55 -12 62 7 4 9 2 18 -4 20 -5 2 -19 11 -29 19 -18 15 -18 15 9
9 31 -6 35 0 9 14 -11 6 -24 6 -35 0z"/>
<path d="M5493 122 l-43 -3 1 -42 c1 -43 3 -42 13 6 10 42 36 35 37 -10 l2
-38 6 35 c4 22 12 35 21 35 9 0 17 -13 21 -35 l6 -35 2 41 c1 47 -4 51 -66 46z"/>
<path d="M4691 78 c2 -34 3 -37 6 -13 2 17 12 36 21 43 14 11 13 12 -6 12 -19
0 -22 -5 -21 -42z"/>
<path d="M4925 100 c-11 -35 3 -60 36 -60 16 0 29 4 29 9 0 4 -11 6 -25 3 -18
-3 -25 0 -25 12 0 11 9 16 30 16 32 0 37 9 18 28 -19 19 -56 14 -63 -8z m55 0
c0 -5 -9 -10 -20 -10 -11 0 -20 5 -20 10 0 6 9 10 20 10 11 0 20 -4 20 -10z"/>
<path d="M5140 116 c0 -2 7 -20 16 -41 11 -27 12 -41 5 -48 -16 -16 -13 -31 3
-18 16 14 50 100 42 108 -3 3 -11 -7 -17 -23 l-12 -29 -10 28 c-9 22 -27 38
-27 23z"/>
<path d="M5362 108 c-15 -15 -16 -40 0 -56 14 -14 54 -16 63 -3 3 6 -7 9 -21
8 -15 -1 -29 4 -31 11 -3 8 6 12 27 12 25 0 31 4 28 18 -4 21 -48 28 -66 10z
m48 -8 c0 -5 -9 -10 -20 -10 -11 0 -20 5 -20 10 0 6 9 10 20 10 11 0 20 -4 20
-10z"/>
</g>
</svg>
