<?xml version="1.0" standalone="no"?>
<!DOCTYPE svg PUBLIC "-//W3C//DTD SVG 20010904//EN"
 "http://www.w3.org/TR/2001/REC-SVG-20010904/DTD/svg10.dtd">
<svg version="1.0" xmlns="http://www.w3.org/2000/svg"
 width="606.000000pt" height="237.000000pt" viewBox="0 0 606.000000 237.000000"
 preserveAspectRatio="xMidYMid meet">
<metadata>
Created by potrace 1.15, written by Peter Selinger 2001-2017
</metadata>
<g transform="translate(0.000000,237.000000) scale(0.100000,-0.100000)"
fill="#000000" stroke="none">
<path d="M1190 2307 c-3 -3 -3 -38 -1 -79 5 -67 5 -69 10 -28 5 36 10 45 26
45 16 0 21 -8 23 -43 4 -52 22 -46 22 7 0 43 -19 66 -49 56 -16 -5 -20 -1 -23
21 -2 14 -5 24 -8 21z"/>
<path d="M1685 2302 c-17 -12 -36 -52 -25 -52 5 0 11 -21 12 -47 l1 -48 4 45
c3 24 10 48 16 52 9 6 8 10 -3 17 -12 9 -12 11 3 17 9 3 17 10 17 15 0 11 -11
11 -25 1z"/>
<path d="M850 2230 c0 -45 4 -69 10 -65 6 3 10 17 10 31 0 20 5 24 29 24 34 0
54 20 49 52 -3 20 -10 23 -50 26 l-48 3 0 -71z m78 33 c3 -20 -1 -23 -27 -23
-27 0 -31 4 -31 26 0 22 4 25 28 22 19 -2 28 -9 30 -25z"/>
<path d="M1620 2289 c0 -5 5 -7 10 -4 6 3 10 8 10 11 0 2 -4 4 -10 4 -5 0 -10
-5 -10 -11z"/>
<path d="M1720 2289 c0 -5 5 -7 10 -4 6 3 10 8 10 11 0 2 -4 4 -10 4 -5 0 -10
-5 -10 -11z"/>
<path d="M1973 2274 c-6 -13 -7 -24 -2 -24 5 0 9 -20 9 -45 0 -33 4 -45 15
-45 8 0 15 5 15 10 0 6 -4 10 -10 10 -12 0 -14 67 -2 72 4 2 3 13 -3 24 l-11
22 -11 -24z"/>
<path d="M1569 2278 c-4 -33 4 -104 12 -112 15 -16 18 -3 10 41 -5 24 -4 44 1
45 11 4 -1 38 -13 38 -5 0 -10 -6 -10 -12z"/>
<path d="M1098 2259 c-27 -15 -22 -35 12 -49 17 -7 29 -18 27 -24 -5 -12 -11
-12 -42 0 -18 7 -19 6 -6 -10 21 -25 65 -17 69 12 3 18 -3 25 -27 33 -41 14
-41 33 0 25 27 -5 30 -4 19 9 -14 17 -28 18 -52 4z"/>
<path d="M1368 2263 c-14 -3 -18 -15 -18 -54 0 -31 4 -48 10 -44 6 3 10 24 10
46 0 32 3 39 20 39 17 0 20 -7 20 -39 0 -22 5 -43 10 -46 6 -4 10 13 10 43 0
36 -4 52 -16 56 -17 6 -19 6 -46 -1z"/>
<path d="M1467 2252 c-22 -24 -21 -55 1 -75 37 -34 72 -14 72 40 0 22 -6 36
-19 43 -27 14 -35 13 -54 -8z m58 -21 c9 -29 -5 -52 -29 -49 -37 5 -34 68 3
68 11 0 22 -8 26 -19z"/>
<path d="M1720 2215 c0 -35 4 -54 10 -50 6 3 10 26 10 50 0 24 -4 47 -10 50
-6 4 -10 -15 -10 -50z"/>
<path d="M1778 2259 c-22 -13 -24 -72 -3 -89 19 -16 65 -4 65 17 0 14 -2 15
-17 1 -25 -21 -43 -12 -43 23 0 33 22 48 45 29 12 -10 15 -10 15 3 0 24 -33
33 -62 16z"/>
<path d="M1878 2259 c-10 -5 -18 -14 -18 -20 0 -5 8 -4 19 2 20 13 60 4 45
-10 -5 -5 -20 -11 -34 -13 -19 -2 -25 -9 -25 -28 0 -22 4 -25 41 -26 l41 -1
-5 46 c-6 59 -25 73 -64 50z m52 -58 c0 -16 -27 -31 -44 -25 -30 12 -14 31 27
33 9 1 17 -3 17 -8z"/>
<path d="M2033 2215 c0 -33 2 -45 4 -27 2 18 2 45 0 60 -2 15 -4 0 -4 -33z"/>
<path d="M2080 2250 c-24 -24 -25 -38 -4 -68 29 -41 77 -20 77 35 0 24 -25 53
-45 53 -4 0 -17 -9 -28 -20z m55 -19 c9 -29 -5 -52 -29 -49 -37 5 -34 68 3 68
11 0 22 -8 26 -19z"/>
<path d="M2198 2263 c-15 -4 -18 -15 -16 -56 l1 -52 6 45 c5 37 10 46 29 48
20 3 22 -1 22 -42 0 -25 5 -46 10 -46 14 0 12 84 -2 98 -12 12 -20 13 -50 5z"/>
<path d="M2295 2256 c-16 -11 -17 -17 -7 -29 7 -8 24 -18 38 -21 21 -6 24 -9
14 -21 -9 -11 -17 -12 -30 -5 -27 14 -34 12 -20 -6 20 -23 64 -14 68 14 3 18
-3 25 -27 33 -41 14 -41 33 0 25 27 -5 30 -4 19 9 -16 19 -31 19 -55 1z"/>
<path d="M970 2227 c0 -47 19 -69 55 -64 28 3 30 7 33 50 2 27 -1 47 -7 47 -5
0 -11 -17 -13 -37 -2 -31 -7 -39 -25 -41 -21 -3 -23 1 -23 37 0 23 -4 41 -10
41 -5 0 -10 -15 -10 -33z"/>
<path d="M1620 2209 c0 -31 4 -48 10 -44 6 3 10 26 10 51 0 24 -4 44 -10 44
-5 0 -10 -23 -10 -51z"/>
<path d="M5295 1951 l-60 -69 -24 34 c-13 19 -27 34 -30 33 -3 -1 -25 -22 -48
-48 -33 -37 -42 -56 -47 -96 l-5 -50 10 43 c9 38 13 42 32 36 12 -3 23 -7 24
-8 3 -3 -75 -210 -91 -241 -9 -16 -16 -40 -16 -52 0 -12 -14 -32 -32 -47 -35
-28 -33 -33 5 -15 18 8 38 46 88 170 l64 159 28 -85 c24 -77 26 -89 13 -113
-7 -15 -16 -39 -20 -54 -3 -15 -17 -35 -31 -44 -34 -22 -32 -38 3 -20 19 10
35 31 46 61 19 49 30 51 40 8 14 -55 84 -270 110 -332 31 -76 30 -71 11 -71
-9 0 -15 -9 -15 -25 0 -18 5 -25 18 -25 27 0 44 -39 40 -96 l-3 -49 -112 -3
-113 -3 0 -203 c0 -111 3 -205 6 -208 3 -3 23 1 45 10 36 14 44 14 93 -1 65
-21 81 -21 138 -2 41 14 50 14 89 1 56 -20 79 -20 140 0 45 15 52 15 89 0 51
-20 74 -20 133 1 48 17 49 17 135 -14 9 -4 12 41 12 206 l0 211 -175 0 -175 0
0 30 c0 28 3 30 35 30 l35 0 0 50 c0 47 -11 63 -25 40 -9 -14 -55 -12 -54 3 1
25 95 262 105 262 5 0 10 -15 12 -32 3 -35 21 -43 42 -18 12 15 5 55 -11 55
-5 0 -9 4 -9 10 0 22 -42 120 -50 115 -5 -3 -4 -19 2 -36 14 -39 2 -50 -14
-13 -7 16 -20 36 -29 44 -9 8 -97 125 -195 260 -99 134 -183 250 -189 256 -7
10 -25 -5 -70 -55z m264 -234 c99 -136 181 -249 181 -252 0 -6 -117 -85 -127
-85 -4 0 -15 21 -23 46 -8 25 -19 44 -25 42 -5 -1 -8 -7 -6 -13 2 -5 5 -19 8
-30 l4 -20 -15 20 c-64 85 -82 117 -122 222 -95 246 -92 233 -79 302 4 18 10
30 14 25 5 -5 90 -120 190 -257z m-233 208 c-7 -35 -19 -42 -46 -25 -12 8 -10
14 14 39 16 17 32 29 34 26 2 -2 1 -20 -2 -40z m-110 -39 c19 -30 21 -40 12
-86 -5 -29 -7 -54 -4 -57 2 -3 8 16 11 41 8 51 14 56 33 26 11 -18 9 -30 -9
-80 -20 -56 -39 -71 -39 -31 0 9 -9 37 -21 60 -21 45 -24 60 -21 124 2 45 11
46 38 3z m-64 -38 c-6 -6 -18 -8 -28 -4 -15 6 -15 9 7 32 24 26 24 26 27 4 2
-12 -1 -27 -6 -32z m147 33 c12 -8 12 -14 1 -40 l-12 -31 -20 25 c-30 39 -8
71 31 46z m71 -127 c17 -53 30 -98 28 -99 -2 -2 -23 25 -47 60 -41 61 -43 65
-31 99 6 20 13 36 15 36 2 0 18 -43 35 -96z m-7 -80 c66 -97 124 -243 104
-264 -7 -6 -7 -10 -2 -8 6 2 11 0 13 -4 8 -25 -2 -38 -35 -47 -58 -16 -61 -13
-23 20 l35 31 -48 -33 c-28 -19 -51 -29 -56 -23 -10 11 -104 273 -104 290 0
16 46 124 53 123 3 0 31 -38 63 -85z m407 -244 c16 -29 5 -40 -34 -33 -27 4
-34 2 -38 -14 -5 -20 -61 -39 -80 -27 -10 7 109 92 129 93 7 1 17 -8 23 -19z
m-225 -37 c-7 -17 -8 -17 -15 2 -5 11 -9 27 -9 35 -1 12 2 11 15 -2 11 -11 14
-23 9 -35z m27 -45 c-7 -7 -12 -8 -12 -2 0 14 12 26 19 19 2 -3 -1 -11 -7 -17z
m-92 -12 c0 -8 6 -16 13 -19 8 -3 0 -28 -28 -86 -21 -45 -44 -80 -49 -78 -12
4 -58 159 -50 167 5 4 79 25 107 29 4 0 7 -5 7 -13z m220 -1 c0 -8 7 -15 15
-15 8 0 15 -3 15 -7 -1 -18 -96 -177 -105 -176 -12 2 -69 183 -60 192 4 3 13
-3 21 -14 14 -19 15 -19 40 8 27 29 74 37 74 12z m-120 -192 c0 -7 -9 -13 -19
-13 -11 0 -23 -4 -26 -10 -8 -12 -55 -13 -55 -1 0 8 17 58 40 116 l12 30 23
-55 c13 -30 24 -61 25 -67z m23 -83 c13 -15 15 -30 10 -65 l-6 -45 -58 0 -59
0 0 39 c0 37 2 40 33 43 24 2 33 8 35 26 4 27 22 28 45 2z"/>
<path d="M485 1749 c-132 -32 -271 -67 -310 -76 l-70 -18 -3 -591 -2 -591 -41
-9 c-45 -10 -66 -3 617 -206 l100 -30 120 47 c231 90 296 119 283 124 -11 5
-14 41 -15 171 -1 212 -24 1122 -29 1136 -4 12 -120 38 -133 30 -5 -3 -26 3
-48 14 -40 19 -192 61 -216 59 -7 -1 -121 -28 -253 -60z m525 -1349 c0 -31 -3
-38 -15 -34 -15 6 -21 55 -8 67 15 16 23 5 23 -33z"/>
<path d="M5072 1730 c0 -14 2 -19 5 -12 2 6 2 18 0 25 -3 6 -5 1 -5 -13z"/>
<path d="M4660 1405 l0 -45 -50 0 -50 0 0 -35 c0 -33 -2 -35 -35 -35 l-35 0 0
-60 c0 -54 -3 -61 -23 -69 -51 -20 -53 -34 -13 -129 33 -79 36 -95 36 -181 0
-92 0 -93 -22 -87 -62 18 -83 18 -134 0 -53 -18 -54 -19 -54 -56 0 -44 14 -48
73 -23 33 13 41 13 83 -1 31 -10 61 -14 88 -9 23 4 65 6 94 6 66 -1 148 -1
215 0 28 0 70 -2 93 -6 26 -4 56 -2 84 8 32 11 52 12 74 5 76 -24 76 -24 76
19 0 39 -2 41 -46 58 -43 16 -73 16 -131 -1 -23 -6 -23 -5 -23 87 0 86 3 102
36 181 40 95 38 109 -13 129 -20 8 -23 15 -23 69 l0 60 -35 0 c-33 0 -35 2
-35 35 l0 35 -49 0 -50 0 -3 43 -3 42 -62 3 -63 3 0 -46z m178 -132 c3 -30 6
-33 38 -33 30 0 34 -3 34 -25 0 -28 10 -29 -116 23 l-71 30 -92 -38 -91 -39 0
25 c0 21 5 24 35 24 33 0 35 2 35 35 l0 36 113 -3 112 -3 3 -32z"/>
<path d="M2103 1178 c-19 -25 -21 -46 -6 -67 16 -24 53 -25 61 -3 3 11 1 11
-17 0 -18 -11 -23 -11 -31 2 -23 36 5 85 35 60 9 -7 15 -8 15 -2 0 9 -22 22
-40 22 -4 0 -12 -6 -17 -12z"/>
<path d="M2187 1183 c-4 -3 -7 -26 -7 -50 0 -40 2 -43 28 -43 35 0 52 16 52
52 0 35 -51 64 -73 41z m61 -39 c4 -25 -22 -49 -43 -40 -9 3 -15 18 -15 36 0
28 3 31 28 28 18 -2 28 -9 30 -24z"/>
<path d="M2282 1178 c-14 -17 -4 -33 26 -42 27 -9 29 -36 2 -36 -11 0 -20 5
-20 10 0 6 -5 10 -11 10 -8 0 -8 -5 1 -15 16 -20 44 -19 61 1 11 14 10 18 -6
30 -10 8 -25 14 -32 14 -7 0 -13 4 -13 9 0 18 21 23 37 9 14 -11 16 -11 11 2
-6 20 -42 25 -56 8z"/>
<path d="M3002 1173 c-4 -10 -5 -34 -1 -53 l6 -35 3 35 c1 19 1 41 0 49 -1 9
4 12 15 7 9 -3 13 -2 10 4 -9 15 -23 12 -33 -7z"/>
<path d="M2655 1171 c3 -5 -5 -11 -17 -13 -18 -2 -23 -9 -23 -33 0 -25 4 -30
25 -30 22 0 25 5 28 43 2 26 -1 42 -8 42 -6 0 -9 -4 -5 -9z m2 -36 c5 -16 -14
-38 -26 -31 -18 12 -13 48 6 44 9 -2 18 -7 20 -13z"/>
<path d="M2930 1142 c0 -22 3 -43 8 -45 8 -6 7 71 -2 80 -3 4 -6 -12 -6 -35z"/>
<path d="M3202 1138 c2 -24 9 -43 17 -46 9 -3 11 0 6 7 -4 7 -7 28 -7 47 0 19
-4 34 -10 34 -5 0 -8 -19 -6 -42z"/>
<path d="M2400 1144 c0 -9 9 -18 20 -21 11 -3 20 -10 20 -15 0 -6 -11 -7 -26
-4 -17 5 -23 3 -19 -4 8 -14 42 -13 51 1 4 7 -4 20 -17 31 l-24 19 24 -6 c16
-5 21 -4 17 4 -11 17 -46 13 -46 -5z"/>
<path d="M2465 1150 c-12 -20 4 -60 25 -60 10 0 21 4 24 9 4 5 -2 7 -13 4 -10
-3 -22 0 -25 6 -5 7 3 11 19 11 20 0 26 4 23 18 -4 20 -43 29 -53 12z m45 -10
c0 -5 -9 -10 -21 -10 -11 0 -17 5 -14 10 3 6 13 10 21 10 8 0 14 -4 14 -10z"/>
<path d="M2542 1123 c1 -37 1 -37 5 -5 3 18 10 32 18 32 8 0 15 -14 18 -32 4
-32 4 -32 5 5 2 33 0 37 -23 37 -23 0 -25 -4 -23 -37z"/>
<path d="M2685 1150 c-8 -14 3 -30 21 -30 8 0 14 -5 14 -11 0 -6 -9 -8 -22 -4
-18 6 -20 4 -12 -5 14 -14 46 -10 51 7 3 7 -7 17 -21 23 -31 11 -35 25 -6 17
11 -3 20 -1 20 4 0 12 -37 11 -45 -1z"/>
<path d="M2780 1125 c0 -23 4 -34 10 -30 6 4 10 16 8 28 -5 34 26 27 34 -8 6
-29 6 -29 5 5 -2 30 -6 35 -29 38 -26 3 -28 1 -28 -33z"/>
<path d="M2860 1145 c-26 -31 18 -71 47 -42 19 19 8 57 -16 57 -10 0 -24 -7
-31 -15z m40 -20 c0 -15 -6 -25 -14 -25 -16 0 -25 19 -18 38 8 22 32 13 32
-13z"/>
<path d="M2973 1125 c0 -22 2 -30 4 -17 2 12 2 30 0 40 -3 9 -5 -1 -4 -23z"/>
<path d="M3030 1123 c0 -20 3 -33 6 -30 11 10 13 67 3 67 -5 0 -9 -16 -9 -37z"/>
<path d="M3064 1146 c-15 -39 22 -74 49 -47 9 9 5 11 -13 9 -19 -2 -25 2 -25
17 0 13 6 20 18 19 9 -1 17 2 17 7 0 15 -40 10 -46 -5z"/>
<path d="M3130 1151 c0 -5 9 -7 20 -4 11 3 20 0 20 -6 0 -6 -9 -11 -20 -11
-13 0 -20 -7 -20 -20 0 -15 7 -20 25 -20 22 0 25 4 25 35 0 31 -3 35 -25 35
-14 0 -25 -4 -25 -9z m40 -41 c0 -5 -7 -10 -15 -10 -8 0 -15 5 -15 10 0 6 7
10 15 10 8 0 15 -4 15 -10z"/>
<path d="M3243 1125 c0 -22 2 -30 4 -17 2 12 2 30 0 40 -3 9 -5 -1 -4 -23z"/>
<path d="M3265 1139 c-14 -43 45 -66 61 -24 8 19 -13 45 -37 45 -10 0 -21 -10
-24 -21z m45 -14 c0 -15 -6 -25 -14 -25 -16 0 -25 19 -18 38 8 22 32 13 32
-13z"/>
<path d="M3342 1123 c1 -37 1 -37 5 -5 3 18 10 32 18 32 8 0 15 -14 18 -32 4
-32 4 -32 5 5 2 33 0 37 -23 37 -23 0 -25 -4 -23 -37z"/>
<path d="M4020 1040 c0 -20 -7 -20 -1310 -20 -867 0 -1310 -3 -1310 -10 0 -7
443 -10 1310 -10 l1310 0 0 -21 c0 -13 5 -19 13 -17 6 3 37 13 67 23 30 9 59
21 63 25 7 6 -113 50 -136 50 -4 0 -7 -9 -7 -20z"/>
<path d="M4323 632 c-40 -15 -43 -19 -43 -54 0 -20 3 -39 8 -41 4 -3 25 1 47
9 52 18 70 17 124 -3 41 -16 47 -16 91 0 59 21 69 21 129 1 43 -14 52 -14 92
0 56 20 73 20 126 0 39 -15 46 -15 92 0 61 20 79 20 124 1 20 -8 39 -15 42
-15 3 0 5 20 5 44 0 42 -1 44 -43 60 -52 20 -84 20 -117 1 -33 -19 -71 -19
-121 2 -39 15 -45 15 -96 -2 -47 -16 -60 -17 -96 -6 -74 22 -94 23 -125 7 -39
-20 -69 -20 -115 -1 -44 18 -69 18 -124 -3z"/>
<path d="M4328 511 c-47 -16 -48 -17 -48 -58 0 -49 12 -54 75 -27 34 14 41 14
83 0 58 -20 90 -20 137 0 34 14 42 14 86 0 61 -20 93 -20 146 0 40 16 46 16
86 0 53 -20 81 -20 138 -1 41 14 48 14 98 -4 42 -15 61 -17 85 -9 59 19 95 20
140 3 44 -17 48 -17 92 0 31 12 57 15 82 10 50 -10 138 -10 189 0 30 5 53 3
87 -10 44 -17 48 -17 92 0 43 16 70 16 137 0 26 -7 27 -6 27 37 0 44 -1 45
-41 58 -50 17 -67 16 -124 -6 -41 -15 -47 -15 -91 0 -59 20 -77 20 -133 0 -40
-14 -49 -14 -92 0 -60 20 -83 20 -135 0 -40 -15 -46 -15 -103 5 -57 20 -64 20
-97 6 -46 -19 -65 -19 -125 2 -45 16 -50 16 -84 0 -45 -21 -101 -22 -150 -1
-35 14 -42 14 -79 0 -53 -20 -89 -20 -144 1 -40 15 -46 15 -78 0 -43 -21 -94
-22 -141 -2 -43 18 -54 18 -115 -4z"/>
<path d="M4320 385 c-32 -11 -35 -17 -38 -55 l-3 -42 38 7 c21 4 57 6 81 6 23
-1 71 -1 107 -1 36 0 88 0 115 0 28 0 79 0 115 0 36 0 88 0 115 0 28 0 78 -1
113 -1 34 -1 76 2 93 6 20 4 48 1 79 -9 44 -15 51 -15 97 0 46 15 54 15 110
-1 56 -15 63 -15 114 1 48 15 60 15 96 3 51 -17 95 -17 146 0 36 12 48 12 96
-3 52 -17 59 -17 112 -1 32 9 64 14 73 12 9 -3 31 -10 49 -15 l32 -11 0 43 c0
41 -2 44 -41 61 -35 16 -46 17 -82 6 -74 -22 -104 -24 -151 -6 -42 16 -48 16
-92 1 -59 -20 -79 -20 -138 0 -43 15 -51 15 -89 0 -54 -20 -78 -20 -138 1 -46
16 -50 16 -97 0 -46 -17 -53 -17 -87 -3 -48 20 -79 20 -138 -1 -45 -16 -50
-16 -102 2 -53 18 -57 18 -113 1 -56 -17 -61 -17 -116 0 -55 17 -59 17 -112
-1 -52 -18 -57 -18 -102 -2 -54 20 -92 20 -142 2z"/>
<path d="M587 142 c-20 -22 -22 -73 -5 -90 17 -17 63 -15 78 3 7 9 10 19 6 23
-4 4 -12 -1 -17 -11 -21 -36 -74 -10 -67 34 4 32 33 47 58 31 22 -13 27 -3 8
16 -17 17 -42 15 -61 -6z"/>
<path d="M690 101 l0 -61 34 0 c40 0 59 20 59 61 0 37 -8 46 -55 54 l-38 7 0
-61z m76 12 c9 -34 -7 -58 -37 -58 -19 0 -25 6 -27 28 -5 41 4 57 32 57 19 0
27 -7 32 -27z"/>
<path d="M822 148 c-21 -21 -13 -39 24 -54 19 -8 34 -20 31 -27 -6 -20 -40
-20 -55 -1 -13 18 -14 18 -10 -1 4 -25 59 -33 77 -11 17 20 6 35 -36 52 -18 8
-31 19 -28 24 8 14 39 12 53 -2 7 -7 12 -8 12 -2 0 15 -22 34 -40 34 -9 0 -21
-5 -28 -12z"/>
<path d="M4545 150 c-3 -5 3 -10 14 -10 17 0 21 -8 24 -52 l3 -53 2 53 c2 45
5 52 22 52 11 0 20 5 20 10 0 6 -18 10 -39 10 -22 0 -43 -4 -46 -10z"/>
<path d="M4850 141 c0 -14 -8 -21 -27 -23 -25 -3 -28 -7 -28 -38 0 -32 3 -35
33 -38 l32 -3 0 60 c0 34 -2 61 -5 61 -3 0 -5 -9 -5 -19z m-5 -61 c0 -16 -6
-26 -18 -28 -19 -4 -32 20 -23 44 9 25 41 13 41 -16z"/>
<path d="M5268 134 c-8 -41 4 -94 21 -94 12 0 13 2 3 8 -7 5 -11 26 -10 50 1
43 -8 67 -14 36z"/>
<path d="M4651 78 c2 -34 3 -37 6 -13 2 17 12 36 21 43 14 11 13 12 -6 12 -19
0 -22 -5 -21 -42z"/>
<path d="M4705 110 c-4 -7 2 -9 19 -4 15 3 26 2 26 -4 0 -5 -11 -13 -25 -16
-16 -4 -25 -13 -25 -26 0 -16 7 -20 36 -20 35 0 35 1 32 38 -3 32 -7 37 -30
40 -14 2 -29 -2 -33 -8z m45 -45 c0 -8 -9 -15 -20 -15 -25 0 -26 17 -2 23 9 3
18 5 20 6 1 0 2 -6 2 -14z"/>
<path d="M4885 100 c-11 -35 3 -60 36 -60 16 0 29 4 29 9 0 4 -11 6 -25 3 -18
-3 -25 0 -25 12 0 11 9 16 30 16 32 0 37 9 18 28 -19 19 -56 14 -63 -8z m55 0
c0 -5 -9 -10 -20 -10 -11 0 -20 5 -20 10 0 6 9 10 20 10 11 0 20 -4 20 -10z"/>
<path d="M5020 105 c0 -9 11 -21 25 -27 32 -14 32 -32 0 -26 -13 3 -22 1 -19
-3 8 -14 51 -10 57 5 6 15 -11 36 -29 36 -7 0 -16 5 -20 11 -5 8 1 10 20 7 14
-3 26 -1 26 3 0 5 -13 9 -30 9 -20 0 -30 -5 -30 -15z"/>
<path d="M5100 115 c0 -3 7 -22 15 -43 14 -33 14 -38 0 -48 -9 -7 -12 -15 -7
-18 15 -9 32 18 52 87 5 15 7 27 4 27 -2 0 -9 -12 -15 -27 l-11 -28 -14 28
c-14 25 -24 35 -24 22z"/>
<path d="M5187 113 c-13 -12 -7 -23 18 -35 34 -15 32 -32 -2 -23 -21 5 -25 4
-17 -5 16 -16 59 -9 59 10 0 8 -10 19 -23 26 -35 17 -40 27 -9 22 15 -3 27 -1
27 3 0 10 -44 12 -53 2z"/>
<path d="M5314 106 c-11 -30 0 -61 25 -64 13 -2 28 1 34 7 7 7 2 10 -16 8 -34
-3 -36 17 -2 21 18 2 25 9 23 20 -4 22 -56 29 -64 8z m51 -6 c4 -6 -5 -10 -20
-10 -15 0 -24 4 -20 10 3 6 12 10 20 10 8 0 17 -4 20 -10z"/>
<path d="M5400 80 c0 -22 5 -40 10 -40 6 0 10 16 10 35 0 24 5 35 15 35 10 0
15 -11 15 -35 0 -19 5 -35 10 -35 6 0 10 16 10 35 0 24 5 35 15 35 10 0 15
-11 15 -35 0 -19 5 -35 11 -35 6 0 9 16 7 38 l-3 37 -57 3 -58 2 0 -40z"/>
</g>
</svg>
