<?xml version="1.0" standalone="no"?>
<!DOCTYPE svg PUBLIC "-//W3C//DTD SVG 20010904//EN"
 "http://www.w3.org/TR/2001/REC-SVG-20010904/DTD/svg10.dtd">
<svg version="1.0" xmlns="http://www.w3.org/2000/svg"
 width="660.000000pt" height="300.000000pt" viewBox="0 0 660.000000 300.000000"
 preserveAspectRatio="xMidYMid meet">
<metadata>
Created by potrace 1.15, written by Peter Selinger 2001-2017
</metadata>
<g transform="translate(0.000000,300.000000) scale(0.100000,-0.100000)"
fill="#000000" stroke="none">
<path d="M5 2988 c-3 -7 -4 -683 -3 -1503 l3 -1490 3 1497 2 1498 843 3 842 2
-843 3 c-667 1 -844 -1 -847 -10z"/>
<path d="M4080 2605 l0 -395 -395 0 -394 0 -3 138 -3 137 -32 3 c-27 3 -32 8
-36 35 -2 18 -5 -120 -5 -305 l-2 -338 -537 -2 c-296 0 -523 -3 -505 -5 28 -4
32 -8 32 -34 l0 -29 545 0 545 0 0 130 0 130 395 0 395 0 -2 -635 -3 -635 28
0 c26 0 27 2 27 55 0 30 3 55 8 55 4 0 46 -38 92 -85 l85 -85 3 -310 3 -310
704 0 705 0 0 615 0 615 -705 0 -705 0 0 -295 c0 -162 -3 -295 -8 -295 -4 0
-45 38 -92 85 -47 47 -88 85 -92 85 -5 0 -8 -27 -8 -60 0 -47 -3 -60 -15 -60
-13 0 -15 77 -15 630 0 553 2 630 15 630 12 0 15 -14 15 -65 0 -41 4 -65 11
-65 6 0 8 7 5 16 -3 9 -6 40 -6 70 l0 54 -420 0 -420 0 0 60 0 60 420 0 420 0
0 55 c0 30 3 55 8 55 4 0 46 -38 92 -85 l85 -85 3 -365 3 -365 704 0 705 0 0
725 0 725 -705 0 -705 0 0 -357 0 -358 -93 93 c-51 50 -96 92 -100 92 -4 0 -7
-27 -7 -60 0 -47 -3 -60 -15 -60 -13 0 -15 50 -15 390 l0 390 1258 3 1257 2
-1262 3 -1263 2 0 -395z m1640 -470 l0 -715 -695 0 -695 0 0 715 0 715 695 0
695 0 0 -715z m0 -1400 l0 -605 -695 0 -695 0 0 605 0 605 695 0 695 0 0 -605z"/>
<path d="M4407 2803 c-4 -3 -7 -51 -7 -105 l0 -98 328 2 327 3 0 100 0 100
-321 3 c-176 1 -323 -1 -327 -5z m633 -98 l0 -85 -185 0 -185 0 0 40 0 40 -90
0 -90 0 0 -40 0 -40 -40 0 -40 0 0 85 0 85 315 0 315 0 0 -85z"/>
<path d="M5404 2715 c-18 -45 -18 -48 6 -33 15 10 22 10 32 0 17 -17 48 -15
48 3 0 8 9 15 19 15 20 0 35 25 25 41 -3 5 -18 9 -35 9 -27 0 -29 -3 -30 -37
l-1 -38 -16 37 c-10 21 -21 38 -25 38 -4 0 -15 -16 -23 -35z m116 10 c0 -8 -7
-15 -15 -15 -8 0 -15 7 -15 15 0 8 7 15 15 15 8 0 15 -7 15 -15z m-93 -17 c-3
-8 -6 -5 -6 6 -1 11 2 17 5 13 3 -3 4 -12 1 -19z"/>
<path d="M5553 2705 c0 -27 2 -38 4 -22 2 15 2 37 0 50 -2 12 -4 0 -4 -28z"/>
<path d="M5590 2735 c-9 -10 -9 -15 -1 -15 6 0 11 -11 11 -25 0 -14 5 -25 10
-25 6 0 10 18 10 40 0 42 -9 50 -30 25z"/>
<path d="M4400 2480 l0 -100 330 0 331 0 -3 98 -3 97 -327 3 -328 2 0 -100z
m640 0 l0 -90 -185 0 -185 0 0 39 0 40 -90 3 -90 3 0 -42 0 -43 -40 0 -40 0 0
83 c0 46 3 87 7 90 3 4 145 7 315 7 l308 0 0 -90z"/>
<path d="M5183 2556 c9 -7 17 -19 17 -26 0 -7 -8 -19 -17 -26 -10 -7 -13 -14
-7 -14 20 0 84 30 84 40 0 10 -64 40 -84 40 -6 0 -3 -7 7 -14z m57 -26 c0 -5
-7 -10 -15 -10 -8 0 -15 5 -15 10 0 6 7 10 15 10 8 0 15 -4 15 -10z"/>
<path d="M5180 2464 c9 -3 21 -18 27 -34 19 -51 63 -36 63 21 0 16 -7 19 -52
18 -29 -1 -46 -3 -38 -5z m68 -26 c-2 -13 -7 -23 -13 -23 -5 0 -11 10 -13 23
-2 15 2 22 13 22 11 0 15 -7 13 -22z"/>
<path d="M5193 2373 c15 -2 39 -2 55 0 15 2 2 4 -28 4 -30 0 -43 -2 -27 -4z"/>
<path d="M4407 2353 c-4 -3 -7 -51 -7 -105 l0 -98 328 2 327 3 0 100 0 100
-321 3 c-176 1 -323 -1 -327 -5z m633 -103 l0 -90 -185 0 -185 0 0 45 0 46
-87 -3 -88 -3 -3 -43 c-3 -43 -3 -43 -40 -40 l-37 3 -3 88 -3 87 316 0 315 0
0 -90z"/>
<path d="M5172 2268 c1 -37 2 -38 5 -10 5 39 33 45 33 7 0 -14 5 -25 10 -25 6
0 10 11 10 25 0 14 5 25 10 25 6 0 10 -11 10 -25 0 -14 5 -25 11 -25 6 0 9 14
7 33 -3 31 -5 32 -50 35 l-48 3 2 -43z"/>
<path d="M5198 2209 c39 -12 37 -31 -4 -41 -27 -6 -27 -6 6 -5 30 2 35 6 38
30 3 25 1 27 -35 26 l-38 -1 33 -9z"/>
<path d="M5167 2128 c-10 -33 5 -48 49 -48 24 0 44 5 44 10 0 6 -4 10 -9 10
-5 0 -11 9 -14 20 -4 14 -14 20 -35 20 -17 0 -32 -6 -35 -12z m61 -15 c2 -8
-6 -13 -22 -13 -17 0 -26 5 -26 16 0 19 41 16 48 -3z"/>
<path d="M4400 2025 l0 -105 328 2 327 3 0 100 0 100 -327 3 -328 2 0 -105z
m640 5 l0 -90 -185 0 -185 0 0 40 0 40 -90 0 -90 0 0 -40 0 -40 -40 0 -40 0 0
85 0 85 313 3 c171 1 313 3 315 5 1 1 2 -38 2 -88z"/>
<path d="M5140 2060 c0 -5 7 -10 15 -10 8 0 14 -3 14 -7 -3 -21 3 -32 21 -38
27 -9 50 11 50 41 0 22 -4 24 -50 24 -27 0 -50 -4 -50 -10z m90 -25 c0 -9 -9
-15 -25 -15 -16 0 -25 6 -25 15 0 9 9 15 25 15 16 0 25 -6 25 -15z"/>
<path d="M5170 1976 c-18 -22 5 -48 39 -44 20 2 26 9 26 28 0 19 -6 26 -26 28
-14 2 -31 -4 -39 -12z m55 -16 c0 -8 -10 -16 -22 -18 -22 -3 -32 16 -16 32 12
11 38 2 38 -14z"/>
<path d="M5188 1903 c12 -2 30 -2 40 0 9 3 -1 5 -23 4 -22 0 -30 -2 -17 -4z"/>
<path d="M4400 1800 l0 -100 330 0 330 0 0 100 0 100 -330 0 -330 0 0 -100z
m640 0 l0 -90 -185 0 -185 0 0 45 0 46 -87 -3 -88 -3 -3 -42 c-3 -43 -3 -43
-43 -43 l-39 0 0 90 0 90 315 0 315 0 0 -90z"/>
<path d="M5194 1871 c41 -9 46 -31 7 -31 -17 0 -31 -4 -31 -10 0 -11 30 -13
54 -4 9 3 16 17 16 30 0 21 -4 24 -37 23 -36 -1 -36 -2 -9 -8z"/>
<path d="M5198 1803 c-41 -6 -34 -18 9 -16 58 3 59 3 43 13 -8 5 -17 9 -20 8
-3 0 -17 -3 -32 -5z"/>
<path d="M5166 1753 c-4 -10 0 -23 10 -32 11 -11 18 -12 21 -5 2 6 11 20 19
30 15 18 15 18 11 -3 -3 -13 -1 -23 4 -23 13 0 11 38 -2 46 -7 4 -20 -4 -31
-17 l-20 -24 5 23 c6 26 -8 30 -17 5z"/>
<path d="M4400 1575 l0 -105 328 2 327 3 0 100 0 100 -327 3 -328 2 0 -105z
m640 0 l0 -85 -185 0 -185 0 0 40 0 40 -90 0 -90 0 0 -40 0 -40 -40 0 -40 0 0
85 0 85 315 0 315 0 0 -85z"/>
<path d="M4400 1195 l0 -105 328 2 327 3 0 100 0 100 -327 3 -328 2 0 -105z
m640 0 l0 -85 -185 0 -185 0 0 40 0 40 -90 0 -90 0 0 -40 0 -40 -40 0 -40 0 0
85 0 85 315 0 315 0 0 -85z"/>
<path d="M5404 1205 c-18 -45 -18 -48 6 -33 15 10 22 10 32 0 17 -17 48 -15
48 3 0 8 9 15 19 15 20 0 35 25 25 41 -3 5 -18 9 -35 9 -27 0 -29 -3 -30 -37
l-1 -38 -16 37 c-10 21 -21 38 -25 38 -4 0 -15 -16 -23 -35z m114 13 c-6 -18
-28 -21 -28 -4 0 9 7 16 16 16 9 0 14 -5 12 -12z m-91 -20 c-3 -8 -6 -5 -6 6
-1 11 2 17 5 13 3 -3 4 -12 1 -19z"/>
<path d="M5553 1200 c0 -25 2 -35 4 -22 2 12 2 32 0 45 -2 12 -4 2 -4 -23z"/>
<path d="M5580 1229 c0 -5 5 -7 10 -4 6 3 15 3 21 -1 7 -4 0 -17 -17 -35 l-28
-29 35 1 c25 0 29 2 16 8 -17 6 -17 8 -3 20 26 21 20 51 -9 51 -14 0 -25 -5
-25 -11z"/>
<path d="M5170 1170 c0 -4 7 -10 15 -14 20 -7 19 -33 -2 -45 -36 -20 -4 -21
42 -1 26 11 45 24 41 27 -12 13 -96 41 -96 33z m70 -35 c0 -2 -7 -5 -15 -9 -9
-3 -15 0 -15 9 0 9 6 12 15 9 8 -4 15 -7 15 -9z"/>
<path d="M5170 1071 c0 -6 8 -11 18 -11 11 0 18 -8 19 -21 4 -54 58 -47 58 7
0 27 -2 29 -47 32 -29 2 -48 -1 -48 -7z m80 -31 c0 -11 -7 -20 -15 -20 -8 0
-15 9 -15 20 0 11 7 20 15 20 8 0 15 -9 15 -20z"/>
<path d="M4400 970 l0 -100 330 0 331 0 -3 98 -3 97 -327 3 -328 2 0 -100z
m640 0 l0 -90 -185 0 -185 0 0 40 0 40 -90 0 -90 0 0 -40 0 -40 -40 0 -40 0 0
90 0 90 315 0 315 0 0 -90z"/>
<path d="M5170 980 c0 -5 20 -10 45 -10 25 0 45 5 45 10 0 6 -20 10 -45 10
-25 0 -45 -4 -45 -10z"/>
<path d="M5172 873 c1 -37 1 -37 5 -5 6 42 33 44 33 1 0 -17 4 -28 10 -24 6 3
10 17 10 31 0 13 5 24 10 24 6 0 10 -13 10 -30 0 -16 5 -30 10 -30 6 0 10 16
10 35 l0 35 -50 0 -50 0 2 -37z"/>
<path d="M4400 745 l0 -105 328 2 327 3 0 100 0 100 -327 3 -328 2 0 -105z
m640 -5 l0 -90 -182 2 -183 3 -3 43 -3 42 -90 0 -89 0 0 -46 0 -45 -37 3 -38
3 -3 88 -3 87 316 0 315 0 0 -90z"/>
<path d="M5194 811 c41 -9 46 -31 7 -31 -17 0 -31 -5 -31 -11 0 -6 14 -9 33
-7 27 2 33 8 35 31 3 25 1 27 -35 26 -35 -1 -36 -2 -9 -8z"/>
<path d="M5172 733 c-17 -32 -3 -43 51 -42 29 1 44 3 35 6 -10 2 -18 13 -18
23 0 31 -53 41 -68 13z m47 -2 c18 -11 5 -31 -20 -31 -18 0 -26 20 -12 33 8 9
15 9 32 -2z"/>
<path d="M5153 663 c10 -3 16 -11 13 -18 -7 -19 18 -37 46 -33 17 2 24 11 26
31 3 27 2 27 -50 26 -29 -1 -45 -3 -35 -6z m75 -20 c5 -17 -26 -29 -40 -15 -6
6 -7 15 -3 22 9 14 37 9 43 -7z"/>
<path d="M4402 518 l3 -103 325 0 325 0 0 100 0 100 -328 3 -328 2 3 -102z
m638 -3 l0 -85 -185 0 -185 0 0 40 0 40 -90 0 -90 0 0 -40 0 -40 -40 0 -40 0
0 85 0 85 315 0 315 0 0 -85z"/>
<path d="M5171 581 c-13 -24 8 -55 34 -50 28 6 42 34 26 53 -18 22 -48 20 -60
-3z m43 3 c25 -10 19 -34 -9 -34 -24 0 -34 18 -18 33 8 8 8 8 27 1z"/>
<path d="M5170 510 c0 -5 13 -10 29 -10 17 0 33 5 36 10 4 6 -8 10 -29 10 -20
0 -36 -4 -36 -10z"/>
<path d="M5170 480 c0 -5 14 -10 31 -10 39 0 34 -22 -7 -32 -27 -6 -27 -6 6
-5 30 2 35 6 38 30 3 25 1 27 -32 27 -20 0 -36 -4 -36 -10z"/>
<path d="M5203 412 c-48 -5 -40 -18 12 -21 25 -1 45 2 45 7 0 13 -19 18 -57
14z"/>
<path d="M4400 290 l0 -100 330 0 330 0 0 100 0 100 -330 0 -330 0 0 -100z
m640 0 l0 -90 -182 2 -183 3 -3 43 -3 42 -90 0 -89 0 0 -45 0 -45 -40 0 -40 0
0 90 0 90 315 0 315 0 0 -90z"/>
<path d="M5170 364 c-11 -12 -11 -18 2 -31 18 -17 38 -10 38 13 0 8 5 14 11
14 6 0 8 -9 4 -22 -6 -18 -4 -20 5 -12 14 14 10 46 -7 51 -7 3 -17 -7 -23 -21
-12 -33 -24 -34 -16 -1 7 29 4 31 -14 9z"/>
<path d="M230 2870 c0 -5 7 -10 15 -10 11 0 15 -12 15 -44 0 -25 5 -48 10 -51
6 -4 10 13 10 44 0 45 3 51 21 51 11 0 17 5 14 10 -3 6 -24 10 -46 10 -21 0
-39 -4 -39 -10z"/>
<path d="M715 2844 c-8 -21 -18 -49 -21 -63 l-6 -26 16 23 c21 27 53 29 61 2
3 -11 10 -20 16 -20 9 0 -26 98 -41 114 -5 5 -16 -8 -25 -30z m35 -20 c0 -8
-7 -14 -15 -14 -17 0 -18 2 -9 24 7 18 24 12 24 -10z"/>
<path d="M983 2820 c0 -36 2 -50 4 -32 2 17 2 47 0 65 -2 17 -4 3 -4 -33z"/>
<path d="M1015 2870 c-3 -5 -1 -10 4 -10 6 0 11 5 11 10 0 6 -2 10 -4 10 -3 0
-8 -4 -11 -10z"/>
<path d="M6228 2855 c-21 -46 36 -97 70 -63 20 20 13 32 -8 13 -16 -15 -22
-16 -35 -5 -22 18 -15 64 9 68 10 2 22 -2 27 -9 4 -7 11 -10 14 -7 13 13 -7
28 -36 28 -22 0 -32 -7 -41 -25z"/>
<path d="M6330 2830 c0 -46 2 -50 24 -50 31 0 56 24 56 54 0 30 -18 46 -52 46
-27 0 -28 -2 -28 -50z m58 24 c15 -27 3 -54 -24 -54 -21 0 -24 5 -24 35 0 28
4 35 20 35 10 0 23 -7 28 -16z"/>
<path d="M6427 2866 c-7 -16 7 -30 41 -40 12 -4 22 -11 22 -16 0 -13 -33 -21
-44 -10 -16 16 -30 12 -16 -6 20 -23 64 -14 68 14 3 21 0 24 -47 38 -11 4 -12
7 -2 17 9 9 16 9 32 -2 18 -10 20 -10 17 1 -7 19 -64 23 -71 4z"/>
<path d="M520 2854 c0 -8 -5 -12 -10 -9 -16 10 -40 -14 -40 -40 0 -28 19 -45
48 -42 20 1 22 7 22 54 0 29 -4 53 -10 53 -5 0 -10 -7 -10 -16z m-2 -51 c-4
-33 -24 -41 -33 -14 -8 25 1 41 21 41 11 0 14 -8 12 -27z"/>
<path d="M1218 2853 c-6 -26 5 -86 17 -90 13 -4 10 86 -3 99 -6 6 -11 3 -14
-9z"/>
<path d="M348 2842 c-14 -2 -18 -14 -18 -43 0 -24 4 -38 10 -34 6 3 10 19 10
35 0 15 6 30 13 33 17 6 5 14 -15 9z"/>
<path d="M394 2835 c-18 -14 -17 -14 14 -9 20 4 32 2 32 -4 0 -6 -12 -12 -27
-14 -20 -2 -28 -9 -28 -23 0 -16 7 -20 33 -21 31 -1 32 1 32 36 0 25 -5 40
-16 44 -20 8 -17 8 -40 -9z m40 -50 c-4 -8 -12 -15 -20 -15 -8 0 -14 7 -14 15
0 8 9 15 20 15 13 0 18 -5 14 -15z"/>
<path d="M572 2838 c-19 -19 -15 -66 7 -73 21 -6 51 3 51 16 0 5 -9 4 -20 -3
-17 -11 -22 -10 -30 2 -8 12 -3 16 20 18 17 2 30 9 30 16 0 15 -20 36 -35 36
-6 0 -16 -5 -23 -12z m43 -18 c4 -6 -5 -10 -20 -10 -15 0 -24 4 -20 10 3 6 12
10 20 10 8 0 17 -4 20 -10z"/>
<path d="M818 2843 c-15 -4 -18 -15 -18 -61 1 -47 3 -54 13 -42 7 8 21 20 32
26 24 13 31 49 15 70 -7 7 -15 13 -19 13 -3 -1 -14 -3 -23 -6z m38 -28 c4 -8
0 -22 -7 -31 -10 -13 -14 -13 -26 -1 -16 16 -7 47 13 47 8 0 17 -7 20 -15z"/>
<path d="M908 2843 c-14 -4 -18 -15 -18 -59 0 -35 4 -53 10 -49 6 4 8 11 5 16
-4 5 2 9 12 9 25 0 43 19 43 45 0 20 -18 46 -29 44 -4 -1 -14 -3 -23 -6z m38
-28 c4 -8 0 -22 -7 -31 -10 -13 -14 -13 -26 -1 -16 16 -7 47 13 47 8 0 17 -7
20 -15z"/>
<path d="M1062 2838 c-7 -7 -12 -24 -12 -39 0 -32 32 -48 55 -29 11 9 19 9 28
2 6 -6 24 -10 39 -9 24 2 28 6 28 33 0 37 -21 58 -50 49 -29 -9 -25 -23 5 -17
15 2 25 0 25 -7 0 -6 -7 -11 -15 -11 -8 0 -31 -9 -51 -21 -39 -22 -59 -15 -52
17 2 12 12 19 26 18 25 -1 29 11 6 20 -20 8 -18 8 -32 -6z m118 -48 c0 -12
-28 -25 -36 -17 -9 9 6 27 22 27 8 0 14 -5 14 -10z"/>
<path d="M1305 2826 c-29 -43 18 -89 53 -54 18 18 14 56 -7 68 -27 14 -28 13
-46 -14z m49 -13 c8 -19 -17 -48 -33 -39 -6 4 -11 18 -11 32 0 28 34 34 44 7z"/>
<path d="M1408 2843 c-14 -3 -18 -14 -17 -46 l2 -42 6 35 c9 51 38 53 44 3 4
-35 4 -34 3 6 -1 45 -7 52 -38 44z"/>
<path d="M1010 2806 c0 -19 5 -38 10 -41 6 -4 10 10 10 34 0 23 -4 41 -10 41
-5 0 -10 -15 -10 -34z"/>
<path d="M1260 2799 c0 -24 4 -38 10 -34 6 3 10 22 10 41 0 19 -4 34 -10 34
-5 0 -10 -18 -10 -41z"/>
<path d="M2317 2443 c-4 -3 -6 -25 -6 -47 1 -23 3 -33 6 -23 2 9 13 17 23 17
9 0 24 7 31 16 11 14 10 18 -6 30 -20 15 -38 18 -48 7z m43 -23 c0 -5 -9 -10
-20 -10 -11 0 -20 5 -20 10 0 6 9 10 20 10 11 0 20 -4 20 -10z"/>
<path d="M2242 2407 c-14 -39 -15 -58 -3 -38 13 21 39 22 51 3 13 -24 12 -5
-2 35 -7 18 -17 33 -23 33 -6 0 -16 -15 -23 -33z m28 3 c0 -5 -5 -10 -11 -10
-5 0 -7 5 -4 10 3 6 8 10 11 10 2 0 4 -4 4 -10z"/>
<path d="M2393 2400 c0 -25 2 -35 4 -22 2 12 2 32 0 45 -2 12 -4 2 -4 -23z"/>
<path d="M2430 2430 c-9 -6 -10 -10 -3 -10 6 0 14 -15 16 -32 3 -29 4 -27 5
10 1 23 1 42 0 42 -2 0 -10 -5 -18 -10z"/>
<path d="M2630 2403 c0 -38 3 -43 23 -43 14 0 28 8 33 20 8 19 11 20 29 5 20
-16 19 -16 -4 -9 -16 4 -21 3 -17 -5 4 -6 16 -11 26 -11 14 0 18 7 18 29 -1
28 -3 29 -45 28 -28 0 -48 5 -54 14 -6 9 -9 0 -9 -28z m40 -13 c0 -11 -4 -20
-9 -20 -14 0 -23 18 -16 30 10 17 25 11 25 -10z"/>
<path d="M2938 2429 c-6 -17 3 -69 11 -69 7 0 6 69 -2 76 -3 3 -7 0 -9 -7z"/>
<path d="M2510 2407 c0 -8 10 -19 23 -26 l22 -12 -22 5 c-13 2 -23 0 -23 -6 0
-14 43 -5 48 10 2 8 -6 16 -19 20 l-24 6 25 7 25 7 -27 1 c-17 1 -28 -4 -28
-12z"/>
<path d="M2571 2393 c-1 -29 2 -33 24 -33 22 0 25 4 24 33 -1 29 -2 29 -8 8
-9 -35 -29 -37 -34 -4 -4 27 -4 27 -6 -4z"/>
<path d="M2754 2405 c-12 -32 23 -63 40 -36 3 5 -2 8 -11 7 -10 0 -19 8 -21
18 -3 15 0 18 17 13 12 -3 21 -1 21 4 0 15 -40 10 -46 -6z"/>
<path d="M2811 2388 c1 -30 2 -30 8 -9 9 35 29 37 34 4 4 -27 4 -27 6 5 1 28
-2 32 -24 32 -22 0 -25 -4 -24 -32z"/>
<path d="M2870 2378 c0 -24 4 -38 8 -32 4 7 16 13 27 15 14 3 20 12 20 29 0
20 -6 26 -27 28 -27 3 -28 1 -28 -40z m40 12 c0 -11 -4 -20 -9 -20 -11 0 -22
26 -14 34 12 12 23 5 23 -14z"/>
<path d="M2972 2390 c0 -19 2 -27 5 -17 2 9 2 25 0 35 -3 9 -5 1 -5 -18z"/>
<path d="M2994 2406 c-10 -26 4 -48 28 -44 17 2 23 10 23 28 0 18 -6 26 -23
28 -13 2 -25 -3 -28 -12z m36 -16 c0 -11 -4 -20 -9 -20 -14 0 -23 18 -16 30
10 17 25 11 25 -10z"/>
<path d="M3061 2388 c2 -31 2 -31 6 -5 5 33 24 31 35 -4 6 -22 7 -21 5 6 -2
23 -7 31 -24 33 -20 3 -23 -1 -22 -30z"/>
<path d="M2306 2282 c7 -4 14 -18 17 -32 l4 -25 2 27 c0 14 7 29 14 31 6 3 -1
6 -18 6 -16 0 -25 -3 -19 -7z"/>
<path d="M2751 2267 c-6 -16 -11 -29 -11 -30 0 -1 11 -2 25 -2 28 0 32 12 11
41 -14 18 -15 18 -25 -9z"/>
<path d="M2447 2269 c-10 -6 -21 -9 -24 -6 -2 3 -13 -2 -23 -11 -19 -15 -18
-32 1 -32 6 0 8 4 5 8 -6 10 25 9 42 -2 18 -11 32 2 32 30 0 26 -6 29 -33 13z
m23 -18 c0 -6 -4 -13 -10 -16 -5 -3 -10 1 -10 9 0 9 5 16 10 16 6 0 10 -4 10
-9z"/>
<path d="M2360 2250 c0 -11 2 -20 4 -20 2 0 6 9 9 20 3 11 1 20 -4 20 -5 0 -9
-9 -9 -20z"/>
<path d="M2492 2248 c2 -12 10 -23 18 -23 22 0 19 39 -3 43 -15 3 -18 -1 -15
-20z"/>
<path d="M2577 2250 c-13 -13 -15 -20 -7 -25 15 -9 33 8 28 27 -2 13 -6 12
-21 -2z"/>
<path d="M2610 2239 c0 -27 2 -29 20 -19 19 10 28 23 13 18 -5 -2 -9 0 -10 5
-6 17 13 8 22 -12 11 -25 15 -25 40 -7 31 23 12 44 -39 44 -44 0 -46 -1 -46
-29z m90 12 c0 -6 -4 -13 -10 -16 -5 -3 -10 1 -10 9 0 9 5 16 10 16 6 0 10 -4
10 -9z"/>
<path d="M2238 2253 c7 -3 16 -2 19 1 4 3 -2 6 -13 5 -11 0 -14 -3 -6 -6z"/>
<path d="M1667 2212 c-14 -3 -17 -14 -15 -60 l2 -57 3 53 4 52 234 0 234 0 4
-52 3 -53 2 60 2 60 -228 0 c-126 0 -236 -1 -245 -3z"/>
<path d="M4220 2035 c-41 -41 -72 -75 -69 -75 2 0 38 34 79 75 41 41 72 75 69
75 -2 0 -38 -34 -79 -75z"/>
<path d="M1650 2078 c0 -5 110 -8 245 -8 135 0 245 3 245 8 0 4 -110 7 -245 7
-135 0 -245 -3 -245 -7z"/>
<path d="M5855 1776 c-8 -13 -13 -30 -9 -39 6 -18 34 -31 34 -17 0 6 -5 10
-11 10 -6 0 -9 10 -7 23 2 17 10 22 33 22 27 0 30 -3 29 -32 -2 -38 1 -41 16
-12 9 16 8 26 -5 45 -20 31 -59 32 -80 0z"/>
<path d="M5850 1665 c0 -43 29 -63 66 -46 19 8 24 18 24 46 0 35 0 35 -45 35
-45 0 -45 0 -45 -35z m78 -7 c-2 -18 -10 -23 -33 -23 -23 0 -31 5 -33 23 -3
19 1 22 33 22 32 0 36 -3 33 -22z"/>
<path d="M5850 1580 c-8 -14 -8 -26 0 -40 16 -31 42 -22 54 18 10 30 30 28 24
-3 -6 -30 8 -33 17 -4 10 30 -18 57 -39 39 -9 -7 -16 -21 -16 -31 0 -11 -7
-19 -15 -19 -18 0 -20 31 -3 48 9 9 9 12 0 12 -6 0 -16 -9 -22 -20z"/>
<path d="M5850 1471 c0 -5 7 -11 15 -15 20 -7 19 -33 -2 -45 -10 -5 -15 -12
-12 -15 9 -9 90 26 86 37 -4 14 -87 49 -87 38z m64 -42 c-8 -14 -24 -10 -24 6
0 9 6 12 15 9 8 -4 12 -10 9 -15z"/>
<path d="M5850 1370 c0 -5 9 -10 19 -10 14 0 21 -8 23 -27 2 -20 9 -28 23 -28
16 0 21 8 23 38 l3 37 -45 0 c-25 0 -46 -4 -46 -10z m80 -30 c0 -11 -7 -20
-15 -20 -8 0 -15 9 -15 20 0 11 7 20 15 20 8 0 15 -9 15 -20z"/>
<path d="M5873 1273 c15 -2 37 -2 50 0 12 2 0 4 -28 4 -27 0 -38 -2 -22 -4z"/>
<path d="M5847 1238 c-2 -7 0 -22 6 -32 9 -19 11 -18 34 10 24 28 25 28 20 5
-4 -17 -3 -21 5 -13 6 6 8 18 5 26 -8 20 -37 21 -37 2 0 -8 -5 -18 -12 -22 -8
-5 -9 0 -6 14 6 23 -7 31 -15 10z"/>
<path d="M2140 985 l0 -176 -227 1 c-126 0 -236 1 -245 0 -15 0 -18 -10 -18
-70 l0 -70 245 0 245 0 0 -100 0 -100 30 0 c27 0 30 -3 30 -30 l0 -30 545 0
545 0 0 130 0 130 395 0 395 0 3 -337 2 -338 3 338 c2 292 4 337 17 337 12 0
15 -14 15 -65 0 -41 4 -65 11 -65 6 0 8 7 5 16 -3 9 -6 40 -6 70 l0 54 -420 0
-420 0 0 60 0 60 388 3 387 2 -387 3 -388 2 0 140 0 140 -35 0 c-33 0 -35 2
-35 35 l0 35 -540 0 -540 0 0 -175z m1070 -170 l0 -335 -530 0 -530 0 0 335 0
335 530 0 530 0 0 -335z m-1072 -72 l-3 -58 -237 -3 -238 -2 0 60 0 60 240 0
241 0 -3 -57z"/>
<path d="M2246 1016 c-18 -43 -21 -71 -5 -43 5 9 16 17 24 17 8 0 19 -8 24
-17 19 -33 11 10 -8 47 l-19 35 -16 -39z m24 -6 c0 -5 -5 -10 -11 -10 -5 0 -7
5 -4 10 3 6 8 10 11 10 2 0 4 -4 4 -10z"/>
<path d="M2314 1036 c-3 -8 -4 -29 -1 -48 4 -30 5 -31 12 -10 4 12 16 22 26
22 24 0 33 18 19 35 -16 19 -49 19 -56 1z m46 -16 c0 -5 -7 -10 -15 -10 -8 0
-15 5 -15 10 0 6 7 10 15 10 8 0 15 -4 15 -10z"/>
<path d="M2393 1005 c0 -27 2 -38 4 -22 2 15 2 37 0 50 -2 12 -4 0 -4 -28z"/>
<path d="M2433 1043 c-7 -3 -13 -9 -13 -15 0 -7 5 -6 14 1 24 20 30 -8 7 -33
-28 -29 -27 -36 7 -35 16 1 20 3 10 6 -22 5 -22 10 -3 29 27 27 12 59 -22 47z"/>
<path d="M2630 1001 l0 -39 55 0 c47 1 55 3 55 19 0 11 -7 19 -17 20 -15 0
-15 2 2 9 15 6 8 8 -24 7 -27 -1 -46 3 -49 11 -8 26 -22 10 -22 -27z m44 1 c2
-4 0 -14 -5 -22 -8 -13 -10 -13 -18 0 -10 15 -6 30 9 30 5 0 11 -4 14 -8z m53
-28 c-7 -7 -37 7 -37 17 0 6 9 5 21 -1 11 -7 19 -14 16 -16z"/>
<path d="M2938 1029 c-5 -16 3 -69 11 -69 8 0 8 67 -1 75 -3 3 -8 1 -10 -6z"/>
<path d="M2510 1005 c0 -8 6 -15 14 -15 8 0 18 -5 22 -12 5 -8 0 -9 -14 -6
-12 4 -20 2 -16 -3 7 -13 31 -11 40 3 4 6 -1 17 -10 24 -16 12 -16 13 1 17 12
3 9 5 -9 6 -19 1 -28 -4 -28 -14z"/>
<path d="M2573 995 c2 -23 7 -31 25 -33 19 -3 22 1 21 30 -1 28 -2 29 -7 10
-4 -13 -11 -23 -17 -23 -5 0 -13 10 -17 23 -6 19 -7 18 -5 -7z"/>
<path d="M2754 1005 c-12 -32 23 -63 40 -36 3 5 -2 8 -12 7 -9 0 -17 6 -17 14
0 8 8 14 18 14 9 -1 17 2 17 7 0 15 -40 10 -46 -6z"/>
<path d="M2811 988 c2 -28 2 -29 6 -8 3 14 10 28 17 32 7 5 5 8 -6 8 -14 0
-18 -8 -17 -32z"/>
<path d="M2852 990 c0 -19 2 -27 5 -17 2 9 2 25 0 35 -3 9 -5 1 -5 -18z"/>
<path d="M2871 978 c0 -24 3 -37 6 -30 2 6 13 12 23 12 20 0 36 33 25 50 -3 5
-17 10 -31 10 -22 0 -24 -4 -23 -42z m39 12 c0 -11 -4 -20 -9 -20 -11 0 -22
26 -14 34 12 12 23 5 23 -14z"/>
<path d="M2972 990 c0 -19 2 -27 5 -17 2 9 2 25 0 35 -3 9 -5 1 -5 -18z"/>
<path d="M2994 1006 c-10 -26 4 -48 28 -44 17 2 23 10 23 28 0 18 -6 26 -23
28 -13 2 -25 -3 -28 -12z m42 -7 c3 -6 1 -16 -5 -22 -9 -9 -14 -8 -21 3 -9 15
-4 30 10 30 5 0 12 -5 16 -11z"/>
<path d="M3061 988 c2 -31 2 -31 6 -5 2 15 10 27 18 27 8 0 16 -12 18 -27 4
-26 4 -26 6 5 1 28 -2 32 -24 32 -22 0 -25 -4 -24 -32z"/>
<path d="M2306 882 c7 -4 14 -18 17 -32 l4 -25 2 27 c0 14 7 29 14 31 6 3 -1
6 -18 6 -16 0 -25 -3 -19 -7z"/>
<path d="M2471 883 c0 -7 -8 -13 -16 -13 -16 0 -21 -35 -7 -44 17 -10 33 12
29 40 -2 16 -5 23 -6 17z m-1 -32 c0 -6 -4 -13 -10 -16 -5 -3 -10 1 -10 9 0 9
5 16 10 16 6 0 10 -4 10 -9z"/>
<path d="M2752 865 c-7 -14 -12 -27 -12 -28 0 -1 13 -2 30 -3 29 -1 29 -1 14
27 -8 16 -16 29 -18 29 -1 0 -8 -11 -14 -25z"/>
<path d="M2360 850 c0 -11 2 -20 4 -20 2 0 6 9 9 20 3 11 1 20 -4 20 -5 0 -9
-9 -9 -20z"/>
<path d="M2410 848 c0 -17 -3 -19 -9 -9 -5 8 -11 9 -15 3 -8 -14 8 -24 28 -16
17 7 22 44 6 44 -5 0 -10 -10 -10 -22z"/>
<path d="M2492 848 c2 -13 10 -23 18 -23 8 0 16 10 18 23 3 17 -2 22 -18 22
-16 0 -21 -5 -18 -22z m28 -3 c0 -8 -4 -15 -8 -15 -5 0 -9 7 -9 15 0 8 4 15 9
15 4 0 8 -7 8 -15z"/>
<path d="M2591 850 c-1 -18 -4 -21 -10 -11 -5 8 -11 9 -15 3 -9 -15 13 -27 26
-14 5 5 8 18 5 28 -3 14 -5 13 -6 -6z"/>
<path d="M2620 839 c0 -34 3 -35 21 -12 10 11 10 14 2 9 -8 -4 -13 -1 -13 8 0
25 19 18 26 -9 7 -29 12 -30 38 -10 30 22 13 44 -33 43 -38 0 -41 -2 -41 -29z
m80 12 c0 -6 -4 -13 -10 -16 -5 -3 -10 1 -10 9 0 9 5 16 10 16 6 0 10 -4 10
-9z"/>
<path d="M2238 853 c7 -3 16 -2 19 1 4 3 -2 6 -13 5 -11 0 -14 -3 -6 -6z"/>
<path d="M4220 635 c-41 -41 -72 -75 -69 -75 2 0 38 34 79 75 41 41 72 75 69
75 -2 0 -38 -34 -79 -75z"/>
</g>
</svg>
