<?xml version="1.0" standalone="no"?>
<!DOCTYPE svg PUBLIC "-//W3C//DTD SVG 20010904//EN"
 "http://www.w3.org/TR/2001/REC-SVG-20010904/DTD/svg10.dtd">
<svg version="1.0" xmlns="http://www.w3.org/2000/svg"
 width="660.000000pt" height="300.000000pt" viewBox="0 0 660.000000 300.000000"
 preserveAspectRatio="xMidYMid meet">
<metadata>
Created by potrace 1.15, written by Peter Selinger 2001-2017
</metadata>
<g transform="translate(0.000000,300.000000) scale(0.100000,-0.100000)"
fill="#000000" stroke="none">
<path d="M5 2988 c-3 -7 -4 -683 -3 -1503 l3 -1490 3 1498 2 1497 840 0 840 0
0 -390 c0 -383 0 -390 -20 -390 -18 0 -20 -7 -20 -70 0 -63 2 -70 20 -70 20 0
20 -8 23 -1037 l2 -1038 3 1038 2 1037 220 0 220 0 0 -100 0 -100 29 0 c26 0
30 -4 33 -32 l3 -33 543 -3 542 -2 0 132 c1 73 1 165 1 203 1 39 0 134 0 213
l-1 142 -30 0 c-27 0 -30 3 -30 30 0 17 -3 30 -7 30 -5 0 -7 -151 -5 -335 l3
-335 -536 0 -535 0 -2 338 c-1 185 -4 259 -5 165 l-3 -173 -220 0 -220 0 -2
393 -3 392 -843 3 c-669 2 -844 0 -847 -10z m2135 -848 l0 -60 -240 0 -240 0
0 60 0 60 240 0 240 0 0 -60z"/>
<path d="M4087 2993 c-4 -3 -7 -183 -7 -399 l0 -394 -217 -3 -218 -3 245 1
245 0 5 58 5 58 87 -88 88 -88 2 -365 3 -365 708 -3 707 -2 0 730 0 730 -710
0 -710 0 0 -357 0 -358 -94 94 -95 95 -3 -65 c-2 -49 -7 -64 -18 -64 -13 0
-15 51 -18 392 l-2 393 1257 3 1258 2 -1256 3 c-691 1 -1259 -1 -1262 -5z
m1643 -863 l0 -720 -697 2 -698 3 -2 718 -3 717 700 0 700 0 0 -720z"/>
<path d="M4410 2705 l0 -105 325 0 325 0 0 105 0 105 -325 0 -325 0 0 -105z
m640 -5 l0 -90 -185 0 -185 0 0 45 0 45 -89 0 -90 0 -3 -42 c-3 -42 -4 -43
-40 -46 l-38 -3 0 90 0 91 315 0 315 0 0 -90z"/>
<path d="M5415 2720 c-8 -16 -15 -37 -15 -47 1 -17 1 -17 11 0 5 9 16 17 24
17 8 0 19 -8 24 -17 6 -11 11 -13 11 -5 0 16 -27 82 -34 82 -3 0 -12 -13 -21
-30z m22 -12 c-3 -8 -6 -5 -6 6 -1 11 2 17 5 13 3 -3 4 -12 1 -19z"/>
<path d="M5481 2703 c0 -39 2 -44 9 -25 5 12 18 22 29 22 10 0 21 6 23 13 9
23 -4 37 -33 37 -28 0 -29 -2 -28 -47z m49 22 c0 -8 -6 -15 -14 -15 -17 0 -28
14 -19 24 12 12 33 6 33 -9z"/>
<path d="M5555 2714 c-4 -22 -2 -41 4 -47 8 -8 11 3 11 36 0 56 -5 60 -15 11z"/>
<path d="M5601 2737 c-8 -10 -9 -17 -3 -17 6 0 12 -15 14 -32 2 -18 5 -28 8
-23 3 6 3 28 0 49 -4 35 -6 37 -19 23z"/>
<path d="M4410 2475 l0 -105 325 0 325 0 0 105 0 105 -325 0 -325 0 0 -105z
m640 5 l0 -90 -185 0 -185 0 0 40 0 40 -90 0 -90 0 0 -40 0 -40 -40 0 -40 0 0
85 0 85 313 3 c171 1 313 3 315 5 1 1 2 -38 2 -88z"/>
<path d="M5183 2559 c18 -11 24 -59 7 -59 -5 0 -10 -4 -10 -10 0 -11 83 25 88
38 1 5 -17 16 -40 26 -49 18 -72 21 -45 5z m62 -29 c3 -5 -1 -10 -9 -10 -9 0
-16 5 -16 10 0 6 4 10 9 10 6 0 13 -4 16 -10z"/>
<path d="M5186 2463 c14 -3 24 -14 28 -34 4 -23 11 -29 31 -29 22 0 25 4 25
35 l0 35 -52 -1 c-29 -1 -43 -4 -32 -6z m72 -25 c-5 -32 -28 -35 -28 -4 0 17
5 26 16 26 10 0 14 -7 12 -22z"/>
<path d="M5193 2373 c15 -2 39 -2 55 0 15 2 2 4 -28 4 -30 0 -43 -2 -27 -4z"/>
<path d="M4410 2250 l0 -100 325 0 325 0 0 100 0 100 -325 0 -325 0 0 -100z
m640 0 l0 -90 -185 0 -185 0 0 45 0 46 -87 -3 -88 -3 -3 -42 c-3 -43 -3 -43
-43 -43 l-39 0 0 90 0 90 315 0 315 0 0 -90z"/>
<path d="M5177 2303 c-11 -10 -8 -73 3 -73 6 0 10 14 10 30 0 39 27 41 33 3
l4 -28 2 28 c2 39 29 35 34 -5 3 -29 4 -27 5 10 l2 42 -43 0 c-24 0 -47 -3
-50 -7z"/>
<path d="M5180 2211 c0 -5 11 -11 25 -13 35 -4 35 -22 -1 -30 -28 -6 -27 -6 6
-5 30 2 35 5 35 27 0 21 -5 26 -33 28 -17 2 -32 -1 -32 -7z"/>
<path d="M5183 2128 c-6 -7 -10 -21 -10 -30 0 -15 9 -18 51 -18 28 0 46 4 40
8 -7 4 -13 16 -15 27 -5 24 -50 33 -66 13z m52 -18 c0 -8 -10 -16 -22 -18 -18
-3 -23 2 -23 18 0 16 5 21 23 18 12 -2 22 -10 22 -18z"/>
<path d="M4410 2025 l0 -105 325 0 325 0 0 105 0 105 -325 0 -325 0 0 -105z
m640 -5 l0 -90 -185 0 -185 0 0 45 0 45 -90 0 -90 0 0 -45 0 -45 -40 0 -40 0
0 90 0 90 315 0 315 0 0 -90z"/>
<path d="M5160 2052 c8 -4 15 -13 15 -21 0 -8 8 -19 18 -25 22 -14 52 3 53 33
1 19 -4 21 -50 20 -28 0 -44 -3 -36 -7z m76 -13 c7 -12 -15 -31 -31 -26 -5 2
-11 11 -13 20 -4 19 32 24 44 6z"/>
<path d="M5179 1974 c-17 -21 0 -49 31 -49 31 0 48 28 31 49 -8 9 -21 16 -31
16 -10 0 -23 -7 -31 -16z m50 -7 c13 -16 5 -27 -21 -27 -18 0 -25 20 -11 33
10 10 19 8 32 -6z"/>
<path d="M5198 1903 c12 -2 30 -2 40 0 9 3 -1 5 -23 4 -22 0 -30 -2 -17 -4z"/>
<path d="M4410 1795 l0 -105 325 0 325 0 0 105 0 105 -325 0 -325 0 0 -105z
m640 5 l0 -90 -185 0 -185 0 0 40 0 40 -90 0 -90 0 0 -40 0 -40 -40 0 -40 0 0
90 0 90 315 0 315 0 0 -90z"/>
<path d="M5192 1873 c14 -2 32 -11 38 -18 13 -16 8 -20 -40 -29 -14 -2 -7 -3
15 -3 36 2 40 5 41 30 1 25 -1 27 -40 26 -29 -2 -33 -3 -14 -6z"/>
<path d="M5215 1802 c-49 -6 -49 -19 0 -17 25 1 48 5 51 7 8 9 -19 14 -51 10z"/>
<path d="M5181 1756 c-14 -16 -4 -46 14 -46 8 0 17 9 20 20 3 11 11 20 16 20
6 0 7 -9 4 -21 -5 -15 -4 -19 4 -15 16 10 13 43 -4 50 -9 3 -21 -5 -30 -22
l-16 -27 4 28 c5 31 4 32 -12 13z"/>
<path d="M4410 1570 l0 -100 325 0 325 0 0 100 0 100 -325 0 -325 0 0 -100z
m640 0 l0 -90 -184 0 -185 0 -3 43 -3 42 -87 3 -88 3 0 -46 0 -45 -40 0 -40 0
0 90 0 90 315 0 315 0 0 -90z"/>
<path d="M230 2870 c0 -5 9 -10 19 -10 17 0 21 -8 24 -52 l3 -53 2 53 c2 45 5
52 23 52 11 0 17 5 14 10 -3 6 -24 10 -46 10 -21 0 -39 -4 -39 -10z"/>
<path d="M719 2853 c-5 -16 -15 -41 -21 -56 -13 -33 -4 -47 12 -18 14 27 47
27 55 1 5 -17 25 -29 25 -15 0 11 -49 115 -55 115 -3 0 -10 -12 -16 -27z m31
-29 c0 -8 -7 -14 -15 -14 -17 0 -18 2 -9 24 7 18 24 12 24 -10z"/>
<path d="M6238 2854 c-13 -28 -5 -49 25 -68 19 -12 48 1 55 25 3 9 -2 8 -16
-5 -18 -16 -24 -17 -37 -6 -22 18 -15 64 9 68 10 2 22 -2 27 -9 4 -7 11 -10
14 -7 13 13 -7 28 -36 28 -22 0 -32 -7 -41 -26z"/>
<path d="M6340 2830 c0 -46 2 -50 24 -50 31 0 56 24 56 54 0 30 -18 46 -52 46
-27 0 -28 -2 -28 -50z m58 24 c15 -27 3 -54 -24 -54 -21 0 -24 5 -24 35 0 28
4 35 20 35 10 0 23 -7 28 -16z"/>
<path d="M6437 2866 c-7 -16 7 -30 41 -40 12 -4 22 -11 22 -16 0 -13 -33 -21
-44 -10 -16 16 -30 12 -16 -6 19 -22 64 -14 68 12 2 17 -5 24 -29 33 -26 9
-30 14 -21 23 10 10 17 10 33 -1 18 -10 20 -10 17 1 -7 19 -64 23 -71 4z"/>
<path d="M520 2854 c0 -8 -5 -12 -10 -9 -16 10 -40 -14 -40 -40 0 -28 19 -45
48 -42 20 1 22 7 22 54 0 29 -4 53 -10 53 -5 0 -10 -7 -10 -16z m4 -39 c7 -20
-3 -45 -19 -45 -16 0 -29 35 -20 50 9 15 32 12 39 -5z"/>
<path d="M980 2814 c0 -34 4 -53 10 -49 6 3 10 28 10 56 0 27 -4 49 -10 49 -5
0 -10 -25 -10 -56z"/>
<path d="M1225 2857 c-9 -22 -2 -90 10 -94 6 -2 9 18 8 48 -2 54 -9 72 -18 46z"/>
<path d="M348 2842 c-14 -2 -18 -14 -18 -43 0 -24 4 -38 10 -34 6 3 10 19 10
35 0 15 6 30 13 33 17 6 5 14 -15 9z"/>
<path d="M403 2843 c-23 -9 -14 -20 12 -15 15 2 25 0 25 -7 0 -6 -8 -11 -19
-11 -22 0 -45 -25 -36 -40 3 -5 20 -9 36 -8 26 2 29 6 29 39 0 24 -5 39 -16
43 -9 3 -16 6 -17 5 -1 0 -8 -3 -14 -6z m37 -53 c0 -12 -28 -25 -36 -17 -9 9
6 27 22 27 8 0 14 -5 14 -10z"/>
<path d="M578 2839 c-22 -12 -23 -52 -3 -69 15 -12 55 -5 55 11 0 5 -9 4 -20
-3 -17 -11 -22 -10 -30 2 -8 12 -3 16 20 18 31 3 38 20 18 40 -14 14 -18 14
-40 1z m37 -19 c4 -6 -5 -10 -20 -10 -15 0 -24 4 -20 10 3 6 12 10 20 10 8 0
17 -4 20 -10z"/>
<path d="M818 2843 c-14 -4 -18 -15 -18 -59 0 -30 5 -54 10 -54 6 0 10 6 10
14 0 8 11 17 25 20 19 5 25 13 25 34 0 26 -16 54 -29 51 -4 -1 -14 -3 -23 -6z
m37 -43 c0 -36 -29 -33 -33 3 -3 23 0 28 15 25 12 -2 18 -12 18 -28z"/>
<path d="M908 2843 c-15 -4 -18 -15 -18 -61 1 -47 3 -54 13 -42 7 8 21 20 32
26 24 13 31 49 15 70 -7 7 -15 13 -19 13 -3 -1 -14 -3 -23 -6z m39 -33 c2 -8
-2 -22 -7 -30 -9 -13 -12 -13 -25 3 -7 11 -11 25 -8 33 7 19 37 14 40 -6z"/>
<path d="M1065 2837 c-21 -16 -17 -56 7 -71 14 -8 22 -7 35 7 11 10 13 17 5
17 -7 0 -12 -4 -12 -10 0 -18 -29 -10 -35 10 -9 28 3 43 31 36 29 -8 31 -1 5
13 -13 7 -23 6 -36 -2z"/>
<path d="M1139 2834 c-11 -13 -9 -14 14 -9 16 5 27 3 27 -3 0 -6 -10 -12 -22
-14 -15 -2 -23 -10 -23 -23 0 -16 7 -20 33 -20 29 -1 32 2 32 30 0 49 -34 71
-61 39z m41 -43 c0 -14 -18 -23 -30 -16 -6 4 -8 11 -5 16 8 12 35 12 35 0z"/>
<path d="M1312 2838 c-19 -19 -15 -66 7 -73 30 -9 51 5 51 34 0 28 -16 51 -35
51 -6 0 -16 -5 -23 -12z m43 -18 c10 -16 -5 -50 -21 -50 -17 0 -28 24 -20 45
6 17 32 20 41 5z"/>
<path d="M1408 2843 c-14 -3 -18 -14 -17 -46 1 -43 3 -42 13 6 9 41 36 35 36
-8 0 -19 5 -35 10 -35 14 0 12 64 -2 78 -7 7 -14 11 -17 11 -4 -1 -14 -3 -23
-6z"/>
<path d="M1023 2800 c0 -25 2 -35 4 -22 2 12 2 32 0 45 -2 12 -4 2 -4 -23z"/>
<path d="M1260 2806 c0 -19 5 -38 10 -41 6 -4 10 10 10 34 0 23 -4 41 -10 41
-5 0 -10 -15 -10 -34z"/>
<path d="M2245 2404 c-18 -44 -19 -52 -3 -36 15 15 48 16 48 2 0 -5 9 -10 20
-10 11 0 20 6 20 14 0 8 12 17 26 20 37 10 28 40 -14 44 -31 3 -32 2 -33 -35
l-1 -38 -15 38 c-9 20 -20 37 -24 37 -5 0 -16 -16 -24 -36z m119 17 c3 -5 -3
-11 -14 -14 -13 -3 -20 0 -20 9 0 15 26 19 34 5z m-89 -11 c3 -5 1 -10 -4 -10
-6 0 -11 5 -11 10 0 6 2 10 4 10 3 0 8 -4 11 -10z"/>
<path d="M2390 2400 c0 -22 5 -40 10 -40 6 0 10 18 10 40 0 22 -4 40 -10 40
-5 0 -10 -18 -10 -40z"/>
<path d="M2439 2435 c-8 -8 3 -75 12 -75 5 0 9 18 9 40 0 36 -8 49 -21 35z"/>
<path d="M2630 2399 c0 -38 1 -40 28 -37 35 4 45 46 13 55 -12 3 -21 9 -21 14
0 5 -4 9 -10 9 -5 0 -10 -18 -10 -41z m45 -9 c0 -7 -6 -15 -12 -17 -8 -3 -13
4 -13 17 0 13 5 20 13 18 6 -3 12 -11 12 -18z"/>
<path d="M2947 2433 c-11 -10 -8 -73 3 -73 6 0 10 18 10 40 0 41 -2 45 -13 33z"/>
<path d="M2515 2411 c-3 -5 5 -17 17 -26 l23 -17 -23 5 c-12 3 -20 1 -16 -4 9
-15 44 -10 44 6 0 7 -8 19 -17 25 -17 11 -17 11 0 6 9 -3 17 -1 17 4 0 13 -37
13 -45 1z"/>
<path d="M2572 2394 c2 -21 9 -30 26 -32 19 -3 22 1 21 30 -2 30 -2 31 -6 6
-5 -32 -23 -38 -23 -9 0 11 -5 23 -11 26 -7 5 -9 -3 -7 -21z"/>
<path d="M2700 2409 c0 -7 8 -18 18 -26 16 -14 16 -14 0 -9 -10 3 -18 2 -18
-3 0 -5 29 -9 65 -8 61 0 65 2 65 24 0 12 5 23 10 23 6 0 10 -11 10 -25 0 -14
5 -25 10 -25 6 0 10 13 10 30 0 29 -1 29 -55 29 -44 -1 -55 -5 -60 -20 -4 -11
-10 -17 -15 -14 -5 3 -7 12 -3 20 3 10 -2 15 -16 15 -12 0 -21 -5 -21 -11z
m100 -9 c13 -9 13 -11 0 -20 -22 -15 -30 -12 -30 10 0 22 8 25 30 10z"/>
<path d="M2881 2373 c1 -26 3 -41 6 -32 2 10 13 19 24 22 29 8 22 51 -8 55
-21 3 -23 0 -22 -45z m39 17 c0 -11 -7 -20 -15 -20 -15 0 -21 21 -8 33 12 13
23 7 23 -13z"/>
<path d="M2972 2390 c0 -19 2 -27 5 -17 2 9 2 25 0 35 -3 9 -5 1 -5 -18z"/>
<path d="M2997 2406 c-10 -26 4 -47 27 -44 15 2 21 10 21 28 0 29 -38 41 -48
16z m41 -19 c2 -10 -3 -17 -12 -17 -10 0 -16 9 -16 21 0 24 23 21 28 -4z"/>
<path d="M3061 2388 c1 -30 2 -30 8 -9 9 35 29 37 34 4 4 -27 4 -27 6 5 1 28
-2 32 -24 32 -22 0 -25 -4 -24 -32z"/>
<path d="M2307 2282 c6 -4 13 -21 16 -37 l4 -30 2 32 c0 17 7 34 14 36 6 3 -1
6 -18 6 -16 0 -25 -3 -18 -7z"/>
<path d="M2756 2262 c-20 -39 -20 -48 -1 -32 12 10 18 10 30 0 19 -15 19 -11
1 31 l-14 33 -16 -32z"/>
<path d="M2455 2266 c-21 -15 -14 -46 10 -46 10 0 15 10 15 30 0 34 0 34 -25
16z m15 -21 c0 -8 -4 -15 -10 -15 -5 0 -10 7 -10 15 0 8 5 15 10 15 6 0 10 -7
10 -15z"/>
<path d="M2360 2245 c0 -14 2 -25 4 -25 2 0 6 11 8 25 3 14 1 25 -3 25 -5 0
-9 -11 -9 -25z"/>
<path d="M2397 2263 c-15 -15 -7 -43 13 -43 15 0 20 7 20 25 0 24 -18 34 -33
18z"/>
<path d="M2494 2256 c-7 -19 3 -36 22 -36 10 0 14 8 12 22 -4 26 -26 36 -34
14z"/>
<path d="M2570 2246 c0 -20 5 -26 21 -26 15 0 20 5 17 22 -5 34 -38 37 -38 4z"/>
<path d="M2620 2235 l0 -36 21 20 c23 21 20 51 -6 51 -11 0 -15 -10 -15 -35z
m30 10 c0 -8 -4 -15 -10 -15 -5 0 -10 7 -10 15 0 8 5 15 10 15 6 0 10 -7 10
-15z"/>
<path d="M2670 2235 l0 -36 21 20 c23 21 20 51 -6 51 -11 0 -15 -10 -15 -35z
m30 10 c0 -8 -4 -15 -10 -15 -5 0 -10 7 -10 15 0 8 5 15 10 15 6 0 10 -7 10
-15z"/>
<path d="M2238 2253 c7 -3 16 -2 19 1 4 3 -2 6 -13 5 -11 0 -14 -3 -6 -6z"/>
<path d="M4082 1033 l3 -1038 2 1033 c3 1015 3 1032 23 1032 16 0 20 -8 23
-62 l3 -63 2 68 2 67 -30 0 -30 0 2 -1037z"/>
<path d="M4219 2023 c-13 -16 -12 -17 4 -4 16 13 21 21 13 21 -2 0 -10 -8 -17
-17z"/>
<path d="M5858 1765 c-8 -19 -8 -28 2 -40 18 -21 32 -19 19 4 -18 28 -4 53 28
49 25 -3 28 -7 27 -35 -2 -38 1 -41 16 -13 17 32 -4 60 -46 60 -27 0 -37 -5
-46 -25z"/>
<path d="M5860 1655 c0 -28 4 -36 24 -41 44 -11 66 3 66 42 0 34 0 34 -45 34
-45 0 -45 0 -45 -35z m80 1 c0 -26 -23 -40 -51 -31 -12 4 -19 16 -19 31 0 21
5 24 35 24 30 0 35 -3 35 -24z"/>
<path d="M5855 1570 c-7 -23 10 -50 32 -50 8 0 19 14 24 30 6 17 16 30 21 30
6 0 8 -12 5 -30 -7 -34 -2 -39 13 -11 13 25 3 51 -20 51 -11 0 -22 -12 -29
-30 -5 -16 -15 -30 -22 -30 -7 0 -10 11 -7 30 5 34 -7 41 -17 10z"/>
<path d="M5868 1458 c16 -16 15 -55 0 -61 -10 -4 -10 -6 0 -6 20 -1 82 27 82
37 0 6 -18 17 -40 26 -48 19 -58 20 -42 4z m56 -27 c3 -5 -1 -11 -9 -15 -9 -3
-15 0 -15 9 0 16 16 20 24 6z"/>
<path d="M5872 1363 c9 -2 20 -17 23 -34 5 -22 12 -29 31 -29 21 0 24 5 24 35
l0 35 -47 -1 c-27 -1 -40 -3 -31 -6z m68 -28 c0 -16 -6 -25 -15 -25 -9 0 -15
9 -15 25 0 16 6 25 15 25 9 0 15 -9 15 -25z"/>
<path d="M4327 1343 c-4 -3 -7 -282 -7 -620 l0 -613 710 0 710 0 0 620 0 620
-703 0 c-387 0 -707 -3 -710 -7z m1403 -613 l0 -610 -697 2 -698 3 -3 595 c-1
327 0 601 3 608 3 9 153 12 700 12 l695 0 0 -610z"/>
<path d="M4410 1190 l0 -100 325 0 325 0 0 100 0 100 -325 0 -325 0 0 -100z
m640 0 l0 -90 -185 0 -185 0 0 40 0 40 -90 0 -90 0 0 -40 0 -40 -40 0 -40 0 0
90 0 90 315 0 315 0 0 -90z"/>
<path d="M5414 1205 c-16 -39 -19 -69 -3 -42 5 9 15 17 21 17 6 0 17 -8 24
-17 7 -10 14 -13 14 -7 0 15 -29 84 -36 84 -3 0 -12 -16 -20 -35z"/>
<path d="M5481 1193 c1 -27 3 -40 6 -30 2 9 11 17 18 17 7 0 21 7 30 16 20 20
3 44 -31 44 -22 0 -24 -4 -23 -47z m49 17 c0 -5 -9 -10 -20 -10 -11 0 -20 5
-20 10 0 6 9 10 20 10 11 0 20 -4 20 -10z"/>
<path d="M5559 1238 c-6 -30 -6 -79 2 -83 5 -4 9 13 9 39 0 25 -2 46 -5 46 -3
0 -5 -1 -6 -2z"/>
<path d="M5590 1225 c-15 -18 1 -20 18 -3 9 9 12 9 12 -3 0 -9 -9 -24 -20 -34
-28 -26 -25 -35 13 -34 17 1 24 3 15 6 -22 6 -22 12 -2 34 18 20 12 49 -9 49
-8 0 -20 -7 -27 -15z"/>
<path d="M5183 1156 c20 -15 23 -52 5 -59 -8 -4 -9 -6 -2 -6 18 -1 84 28 84
38 0 8 -77 41 -95 41 -6 0 -2 -7 8 -14z m62 -26 c3 -5 -1 -10 -9 -10 -9 0 -16
5 -16 10 0 6 4 10 9 10 6 0 13 -4 16 -10z"/>
<path d="M4417 1063 c-4 -3 -7 -51 -7 -105 l0 -98 325 0 325 0 0 105 0 105
-318 0 c-175 0 -322 -3 -325 -7z m633 -103 l0 -90 -185 0 -185 0 0 45 0 45
-90 0 -90 0 0 -45 0 -45 -40 0 -40 0 0 90 0 90 315 0 315 0 0 -90z"/>
<path d="M5186 1063 c14 -3 24 -14 28 -34 4 -23 11 -29 31 -29 22 0 25 4 25
35 l0 35 -52 -1 c-29 -1 -43 -4 -32 -6z m74 -28 c0 -16 -6 -25 -15 -25 -9 0
-15 9 -15 25 0 16 6 25 15 25 9 0 15 -9 15 -25z"/>
<path d="M5180 970 c0 -5 20 -10 45 -10 25 0 45 5 45 10 0 6 -20 10 -45 10
-25 0 -45 -4 -45 -10z"/>
<path d="M5170 865 c0 -19 5 -35 10 -35 6 0 10 14 10 30 0 42 27 40 33 -2 l4
-33 1 33 c1 20 7 32 16 32 9 0 16 -13 19 -32 4 -32 4 -32 5 5 l2 37 -50 0 -50
0 0 -35z"/>
<path d="M4410 735 l0 -105 325 0 325 0 0 105 0 105 -325 0 -325 0 0 -105z
m640 3 l0 -88 -185 0 -185 0 0 40 0 40 -90 0 -90 0 0 -40 0 -40 -40 0 -40 0 0
88 0 87 315 0 315 0 0 -87z"/>
<path d="M5180 811 c0 -5 11 -11 25 -13 35 -4 35 -22 -1 -30 -28 -6 -27 -6 6
-5 30 2 35 5 35 27 0 21 -5 26 -33 28 -17 2 -32 -1 -32 -7z"/>
<path d="M5181 726 c-22 -26 -2 -46 48 -46 25 0 41 4 35 8 -6 4 -14 17 -18 30
-8 25 -47 30 -65 8z m54 -16 c0 -8 -10 -16 -22 -18 -22 -3 -32 16 -16 32 12
11 38 2 38 -14z"/>
<path d="M5160 652 c8 -4 15 -13 15 -21 0 -8 8 -19 18 -25 22 -14 52 3 53 33
1 19 -4 21 -50 20 -28 0 -44 -3 -36 -7z m75 -22 c0 -22 -39 -19 -43 3 -3 15 1
18 20 15 12 -2 23 -10 23 -18z"/>
<path d="M4410 510 l0 -100 325 0 325 0 0 100 0 100 -325 0 -325 0 0 -100z
m640 0 l0 -90 -185 0 -185 0 0 43 0 42 -82 -1 c-46 -1 -86 -2 -90 -3 -5 0 -8
-19 -8 -41 l0 -40 -40 0 -40 0 0 90 0 90 315 0 315 0 0 -90z"/>
<path d="M5181 577 c-27 -33 27 -74 57 -43 13 13 14 20 6 34 -14 22 -47 27
-63 9z m54 -17 c0 -8 -10 -16 -22 -18 -22 -3 -32 16 -16 32 12 11 38 2 38 -14z"/>
<path d="M5198 503 c12 -2 30 -2 40 0 9 3 -1 5 -23 4 -22 0 -30 -2 -17 -4z"/>
<path d="M5197 473 c12 -2 27 -11 33 -18 13 -16 10 -18 -35 -29 -11 -2 -4 -4
15 -3 31 2 35 5 36 30 1 25 -2 27 -35 26 -22 -1 -27 -3 -14 -6z"/>
<path d="M5215 402 c-49 -6 -49 -19 0 -17 25 1 48 5 51 7 8 9 -19 14 -51 10z"/>
<path d="M4410 285 l0 -105 325 0 325 0 0 105 0 105 -325 0 -325 0 0 -105z
m640 -5 l0 -90 -185 0 -185 0 0 45 0 45 -90 0 -90 0 0 -45 0 -45 -40 0 -40 0
0 90 0 90 315 0 315 0 0 -90z"/>
<path d="M5176 355 c-7 -20 3 -45 19 -45 8 0 17 9 20 20 3 11 11 20 17 20 5 0
8 -7 4 -15 -3 -8 -1 -15 5 -15 14 0 7 42 -8 47 -6 2 -19 -8 -28 -24 l-16 -28
4 28 c4 29 -7 37 -17 12z"/>
<path d="M5860 1270 c0 -5 20 -10 45 -10 25 0 45 5 45 10 0 6 -20 10 -45 10
-25 0 -45 -4 -45 -10z"/>
<path d="M5861 1236 c-14 -17 -4 -46 16 -46 8 0 17 9 20 20 3 11 10 20 15 20
5 0 6 -10 3 -21 -5 -15 -4 -19 4 -15 16 10 13 43 -4 50 -10 4 -20 -3 -27 -19
-6 -13 -15 -22 -19 -19 -5 3 -4 14 1 25 12 22 8 25 -9 5z"/>
</g>
</svg>
