<?xml version="1.0" standalone="no"?>
<!DOCTYPE svg PUBLIC "-//W3C//DTD SVG 20010904//EN"
 "http://www.w3.org/TR/2001/REC-SVG-20010904/DTD/svg10.dtd">
<svg version="1.0" xmlns="http://www.w3.org/2000/svg"
 width="768.000000pt" height="572.000000pt" viewBox="0 0 768.000000 572.000000"
 preserveAspectRatio="xMidYMid meet">
<metadata>
Created by potrace 1.15, written by Peter Selinger 2001-2017
</metadata>
<g transform="translate(0.000000,572.000000) scale(0.100000,-0.100000)"
fill="#000000" stroke="none">
<path d="M90 5637 c-28 -14 -39 -57 -18 -74 7 -6 29 -15 48 -20 20 -5 35 -16
35 -24 0 -20 -43 -24 -64 -5 -25 23 -45 6 -25 -22 21 -30 93 -31 120 -1 17 19
17 23 3 47 -8 15 -24 29 -34 31 -11 2 -31 8 -45 13 -24 9 -24 10 -6 24 17 12
23 12 42 -1 29 -19 44 -19 44 -1 0 32 -62 53 -100 33z"/>
<path d="M380 5554 c0 -72 3 -93 12 -88 7 4 27 7 46 6 45 -4 62 13 62 59 0 44
-29 72 -67 63 -20 -5 -23 -3 -23 25 0 21 -5 31 -15 31 -12 0 -15 -17 -15 -96z
m85 -4 c3 -11 3 -29 0 -40 -13 -42 -62 -9 -51 35 8 31 42 34 51 5z"/>
<path d="M757 5644 c-9 -10 2 -24 19 -24 8 0 14 7 14 15 0 15 -21 21 -33 9z"/>
<path d="M990 5635 c0 -8 7 -15 15 -15 8 0 15 7 15 15 0 8 -7 15 -15 15 -8 0
-15 -7 -15 -15z"/>
<path d="M1644 5637 c-3 -8 -4 -49 -2 -93 2 -62 6 -79 18 -79 9 0 16 11 18 31
3 28 7 32 42 38 63 10 82 77 30 103 -33 17 -99 17 -106 0z m74 -23 c13 -4 22
-14 22 -25 0 -14 -7 -19 -30 -19 -25 0 -30 4 -30 25 0 27 3 28 38 19z"/>
<path d="M2130 5560 c0 -73 3 -90 15 -90 12 0 15 17 15 90 0 73 -3 90 -15 90
-12 0 -15 -17 -15 -90z"/>
<path d="M2437 5644 c-4 -4 -7 -18 -7 -31 0 -20 -4 -22 -24 -17 -51 13 -89
-72 -48 -109 15 -13 59 -21 100 -18 10 1 12 23 10 88 -3 79 -12 106 -31 87z
m-12 -114 c0 -28 -4 -35 -20 -35 -13 0 -21 8 -23 23 -5 34 5 54 25 50 13 -2
18 -13 18 -38z"/>
<path d="M2880 5619 c0 -28 -3 -30 -23 -25 -38 9 -67 -19 -67 -63 0 -49 15
-61 73 -59 l47 1 0 88 c0 72 -3 89 -15 89 -10 0 -15 -10 -15 -31z m-4 -74 c7
-27 -10 -55 -32 -55 -16 0 -29 43 -20 65 9 25 45 18 52 -10z"/>
<path d="M3020 5561 l0 -91 53 0 c69 0 87 18 87 87 0 63 -21 84 -90 91 l-50 5
0 -92z m98 31 c29 -37 6 -92 -38 -92 -30 0 -30 1 -30 53 0 30 3 57 7 60 10 10
46 -2 61 -21z"/>
<path d="M3477 5644 c-10 -10 -9 -172 1 -178 4 -2 14 -1 20 3 9 5 12 33 10 91
-3 76 -12 102 -31 84z"/>
<path d="M4005 5639 c-10 -15 1 -23 20 -15 9 3 13 10 10 16 -8 13 -22 13 -30
-1z"/>
<path d="M832 5620 c-15 -16 -21 -33 -18 -50 3 -14 7 -42 11 -62 5 -32 10 -38
30 -38 14 0 25 5 25 10 0 6 -4 10 -10 10 -5 0 -10 18 -10 40 0 22 5 40 10 40
6 0 10 7 10 15 0 8 -4 15 -9 15 -5 0 -11 10 -13 22 l-3 23 -23 -25z"/>
<path d="M911 5611 c-15 -21 -20 -35 -13 -40 6 -3 12 -27 14 -51 3 -41 6 -45
31 -48 29 -4 37 12 12 22 -9 3 -15 19 -15 41 0 24 4 35 15 35 19 0 20 16 1 27
-8 4 -15 17 -18 28 -3 17 -6 16 -27 -14z"/>
<path d="M3921 5612 c-12 -17 -16 -33 -11 -38 5 -5 10 -29 12 -54 3 -41 6 -45
31 -48 15 -2 27 1 27 7 0 6 -4 11 -10 11 -5 0 -10 18 -10 40 0 22 5 40 10 40
6 0 10 7 10 15 0 8 -4 15 -10 15 -5 0 -10 6 -10 14 0 28 -18 26 -39 -2z"/>
<path d="M232 5538 l3 -63 53 -2 52 -1 0 64 c0 50 -3 64 -15 64 -11 0 -15 -11
-15 -42 0 -51 -12 -73 -34 -65 -12 5 -16 20 -16 57 0 38 -4 50 -15 50 -13 0
-15 -11 -13 -62z"/>
<path d="M530 5535 c0 -47 4 -64 15 -69 12 -4 15 3 15 37 0 50 12 72 34 64 11
-5 16 -19 16 -52 0 -33 4 -45 14 -45 11 0 16 14 18 47 2 36 7 49 21 51 14 3
17 -4 17 -47 0 -44 3 -51 20 -51 17 0 20 7 20 49 0 32 -6 55 -16 65 -18 18
-40 21 -49 5 -4 -6 -14 -7 -24 -4 -9 4 -35 9 -58 10 l-43 4 0 -64z"/>
<path d="M757 5593 c-4 -3 -7 -33 -7 -65 0 -51 2 -58 20 -58 18 0 20 7 20 65
0 48 -4 65 -13 65 -8 0 -17 -3 -20 -7z"/>
<path d="M990 5535 c0 -51 3 -65 15 -65 12 0 15 14 15 65 0 51 -3 65 -15 65
-12 0 -15 -14 -15 -65z"/>
<path d="M1060 5535 c0 -51 3 -65 15 -65 11 0 15 11 15 38 0 45 13 67 34 59
11 -5 16 -19 16 -51 0 -41 17 -66 34 -49 14 14 5 92 -13 114 -16 21 -22 22
-45 11 -15 -7 -26 -8 -26 -2 0 6 -7 10 -15 10 -12 0 -15 -14 -15 -65z"/>
<path d="M1225 5575 c-29 -28 -31 -51 -9 -84 12 -17 24 -22 45 -19 23 4 29 1
29 -15 0 -17 -5 -18 -41 -12 -33 6 -40 4 -37 -6 6 -18 85 -24 104 -8 21 17 20
169 -1 169 -8 0 -15 -5 -15 -10 0 -7 -6 -7 -19 0 -27 14 -29 13 -56 -15z m60
-45 c0 -28 -4 -35 -20 -35 -13 0 -21 8 -23 23 -5 34 5 54 25 50 13 -2 18 -13
18 -38z"/>
<path d="M1453 5590 c-13 -5 -23 -14 -23 -19 0 -15 23 -26 28 -13 5 17 42 15
42 -3 0 -9 -9 -15 -24 -15 -23 0 -56 -23 -56 -38 1 -23 21 -32 68 -31 l52 2 0
48 c0 38 -4 51 -22 63 -25 18 -33 19 -65 6z m44 -85 c-4 -8 -13 -15 -22 -15
-21 0 -19 28 3 32 22 5 26 2 19 -17z"/>
<path d="M1810 5529 c0 -57 3 -67 15 -63 10 4 15 20 15 45 0 30 5 42 25 55 31
20 25 28 -21 30 l-34 1 0 -68z"/>
<path d="M1922 5584 c-26 -18 -31 -84 -8 -103 19 -16 88 -10 94 7 3 10 -6 12
-33 10 -23 -2 -40 2 -42 9 -3 8 11 13 39 15 37 3 43 6 40 23 -3 22 -37 55 -56
55 -6 0 -22 -7 -34 -16z m56 -31 c2 -8 -6 -13 -22 -13 -25 0 -33 10 -19 24 10
10 36 3 41 -11z"/>
<path d="M2225 5588 c-27 -15 -35 -28 -35 -60 0 -36 24 -58 64 -58 38 0 66 26
66 61 0 30 -9 43 -37 58 -26 14 -33 13 -58 -1z m55 -33 c15 -19 -1 -65 -23
-65 -18 0 -37 21 -37 40 0 36 38 51 60 25z"/>
<path d="M2519 5582 c-25 -21 -30 -71 -9 -96 7 -9 28 -16 46 -16 26 0 32 -3
27 -16 -4 -12 -14 -14 -46 -9 -31 6 -38 4 -35 -6 6 -18 85 -24 104 -8 21 17
20 169 -1 169 -8 0 -15 -5 -15 -10 0 -7 -6 -7 -19 0 -25 13 -25 13 -52 -8z
m61 -27 c10 -12 10 -21 1 -41 -14 -31 -45 -29 -49 4 -7 48 21 69 48 37z"/>
<path d="M2669 5582 c-25 -21 -30 -71 -9 -97 16 -19 91 -17 98 3 3 10 -6 12
-33 10 -24 -2 -40 2 -42 10 -3 8 8 12 36 12 37 0 41 3 41 24 0 24 -32 56 -56
56 -7 0 -22 -8 -35 -18z m59 -29 c2 -8 -6 -13 -22 -13 -25 0 -33 10 -19 24 10
10 36 3 41 -11z"/>
<path d="M3212 5584 c-26 -18 -31 -84 -8 -103 19 -16 88 -10 94 7 3 10 -6 12
-33 10 -24 -2 -40 2 -42 10 -3 8 8 12 36 12 37 0 41 3 41 24 0 24 -32 56 -55
56 -6 0 -21 -7 -33 -16z m56 -31 c2 -8 -6 -13 -22 -13 -25 0 -33 10 -19 24 10
10 36 3 41 -11z"/>
<path d="M3353 5585 c-26 -18 -32 -82 -11 -103 20 -20 86 -15 98 8 9 16 8 20
-5 20 -8 0 -24 -6 -35 -12 -17 -11 -22 -10 -30 2 -25 38 2 88 33 62 16 -14 47
3 32 17 -20 19 -60 22 -82 6z"/>
<path d="M3563 5590 c-26 -11 -30 -25 -8 -34 8 -3 15 -1 15 4 0 6 9 10 20 10
11 0 20 -7 20 -15 0 -9 -9 -15 -24 -15 -23 0 -56 -23 -56 -38 1 -23 21 -32 68
-31 l52 2 0 46 c0 25 -4 51 -8 58 -10 17 -53 24 -79 13z m44 -85 c-4 -8 -13
-15 -22 -15 -21 0 -19 28 3 32 22 5 26 2 19 -17z"/>
<path d="M3680 5534 c0 -57 2 -64 20 -64 17 0 20 7 20 44 0 36 4 45 21 49 33
9 17 31 -24 34 l-37 2 0 -65z"/>
<path d="M3795 5587 c-25 -19 -11 -41 15 -25 15 10 22 10 31 1 10 -10 8 -14
-7 -18 -56 -18 -65 -26 -62 -48 3 -19 9 -22 58 -24 l55 -2 -3 52 c-5 71 -41
97 -87 64z m55 -76 c0 -6 -5 -13 -10 -16 -15 -9 -43 3 -35 15 8 13 45 13 45 1z"/>
<path d="M4007 5594 c-4 -4 -7 -33 -7 -65 0 -42 4 -58 15 -63 21 -8 27 11 23
74 -3 50 -15 70 -31 54z"/>
<path d="M4086 5576 c-30 -29 -33 -52 -10 -84 18 -27 84 -31 104 -6 18 20 17
72 -1 89 -29 28 -66 29 -93 1z m70 -21 c4 -8 3 -27 0 -41 -5 -19 -12 -25 -29
-22 -22 3 -34 35 -23 64 7 19 45 18 52 -1z"/>
<path d="M4225 5592 c-3 -3 -5 -32 -5 -64 0 -51 2 -58 20 -58 17 0 20 7 20 45
0 33 5 47 16 52 21 8 34 -14 34 -59 0 -27 4 -38 15 -38 11 0 15 13 15 54 0 30
-5 58 -11 62 -14 8 -97 13 -104 6z"/>
<path d="M2040 5536 c0 -15 58 -28 66 -14 10 15 -7 28 -37 28 -18 0 -29 -5
-29 -14z"/>
<path d="M4034 4885 c0 -143 2 -200 3 -127 2 73 2 190 0 260 -1 70 -3 10 -3
-133z"/>
<path d="M5515 5127 c-3 -7 -4 -123 -3 -257 l3 -245 5 258 c3 141 4 257 2 257
-1 0 -5 -6 -7 -13z"/>
<path d="M2514 4880 c0 -140 2 -198 3 -127 2 70 2 184 0 255 -1 70 -3 12 -3
-128z"/>
<path d="M3524 4880 c0 -140 2 -198 3 -127 2 70 2 184 0 255 -1 70 -3 12 -3
-128z"/>
<path d="M5044 4880 c0 -140 2 -198 3 -127 2 70 2 184 0 255 -1 70 -3 12 -3
-128z"/>
<path d="M6524 4880 c0 -140 2 -198 3 -127 2 70 2 184 0 255 -1 70 -3 12 -3
-128z"/>
<path d="M2785 5013 c-24 -56 -30 -87 -16 -79 6 4 11 14 11 22 0 9 10 14 29
14 21 0 30 -6 34 -22 4 -12 9 -19 13 -15 8 8 -35 117 -47 117 -5 0 -16 -17
-24 -37z m35 -14 c0 -12 -5 -19 -11 -17 -6 2 -10 7 -10 11 1 4 1 14 1 23 0 8
5 12 10 9 6 -3 10 -15 10 -26z"/>
<path d="M3152 5034 c-5 -9 -8 -24 -6 -33 10 -56 15 -71 22 -71 8 0 6 109 -2
117 -2 3 -8 -3 -14 -13z"/>
<path d="M3260 5044 c0 -5 -7 -31 -15 -57 -8 -26 -10 -45 -6 -43 11 7 34 97
26 104 -3 3 -5 1 -5 -4z"/>
<path d="M2882 5008 c-7 -7 -12 -20 -12 -29 0 -23 29 -51 46 -45 8 3 14 0 14
-5 0 -7 -11 -9 -25 -6 -16 3 -24 0 -22 -7 5 -15 28 -18 46 -7 7 5 16 32 19 60
5 51 4 51 -25 51 -16 0 -34 -5 -41 -12z m46 -31 c3 -22 -1 -27 -17 -27 -15 0
-21 6 -21 23 0 46 33 49 38 4z"/>
<path d="M2968 4995 c-9 -21 -8 -28 7 -45 22 -24 26 -24 51 -5 18 14 17 14
-13 9 -22 -4 -33 -3 -33 5 0 6 14 11 30 11 31 0 39 17 18 38 -20 20 -48 14
-60 -13z m52 0 c0 -8 -9 -15 -20 -15 -20 0 -26 11 -13 23 12 13 33 7 33 -8z"/>
<path d="M3060 4974 c0 -28 4 -43 10 -39 6 4 8 11 4 16 -10 17 5 59 21 59 10
0 15 -11 15 -35 0 -19 5 -35 10 -35 11 0 13 39 4 64 -4 10 -18 16 -35 16 -28
0 -29 -2 -29 -46z"/>
<path d="M4394 4935 c-26 -26 -26 -52 -1 -83 16 -20 71 -11 75 13 4 19 3 19
-10 1 -29 -37 -77 -2 -64 47 7 29 42 37 64 15 9 -9 12 -9 12 0 0 10 -30 32
-45 32 -3 0 -17 -11 -31 -25z"/>
<path d="M4518 4953 c-11 -3 -18 -14 -18 -28 0 -19 7 -26 33 -33 17 -4 32 -15
32 -22 0 -22 -37 -25 -52 -4 -7 10 -16 15 -19 11 -14 -14 20 -38 50 -35 23 2
32 9 34 26 3 18 -4 26 -32 37 -20 9 -36 20 -36 25 0 14 44 12 58 -2 9 -9 12
-9 12 0 0 10 -33 34 -42 31 -2 -1 -11 -3 -20 -6z"/>
<path d="M4611 4898 c1 -35 4 -51 6 -35 4 22 10 27 32 27 26 0 51 15 51 31 0
18 -34 39 -61 39 l-29 0 1 -62z m67 25 c-2 -11 -14 -19 -31 -21 -22 -3 -27 1
-27 17 0 17 6 21 31 21 24 0 30 -4 27 -17z"/>
<path d="M5874 4935 c-26 -26 -26 -52 -1 -83 16 -20 71 -11 75 13 4 19 3 19
-10 1 -29 -37 -77 -2 -64 47 7 29 42 37 64 15 9 -9 12 -9 12 0 0 10 -30 32
-45 32 -3 0 -17 -11 -31 -25z"/>
<path d="M5980 4900 l0 -60 33 0 c42 0 57 15 57 56 0 37 -29 64 -67 64 -21 0
-23 -4 -23 -60z m76 16 c8 -34 -12 -66 -41 -66 -23 0 -25 4 -25 45 0 43 1 45
30 45 23 0 31 -5 36 -24z"/>
<path d="M6106 4945 c-20 -21 -10 -44 23 -51 37 -9 41 -13 34 -29 -7 -20 -32
-19 -55 2 -10 9 -18 11 -18 6 0 -19 28 -34 57 -31 22 2 28 8 28 28 0 19 -7 26
-32 34 -18 5 -33 15 -33 22 0 18 47 18 53 2 2 -7 8 -10 12 -5 11 9 -3 23 -31
31 -14 4 -28 1 -38 -9z"/>
<path d="M2680 4800 l0 -60 34 0 c41 0 59 20 58 63 -1 37 -24 57 -64 57 -28 0
-28 -1 -28 -60z m64 37 c22 -16 18 -65 -5 -80 -29 -18 -49 -1 -49 41 0 54 17
66 54 39z"/>
<path d="M2973 4800 c0 -36 2 -50 4 -32 2 17 2 47 0 65 -2 17 -4 3 -4 -33z"/>
<path d="M3337 4843 c-9 -8 -9 -66 -1 -87 12 -30 19 -16 18 34 -1 51 -5 65
-17 53z"/>
<path d="M2806 4814 c-19 -18 -21 -45 -4 -62 14 -14 44 -16 52 -4 3 5 -4 8
-16 8 -12 -1 -23 5 -25 12 -3 8 6 12 26 12 17 0 31 4 31 9 0 12 -29 41 -40 41
-5 0 -16 -7 -24 -16z m44 -14 c0 -5 -9 -10 -20 -10 -11 0 -20 5 -20 10 0 6 9
10 20 10 11 0 20 -4 20 -10z"/>
<path d="M2896 4814 c-19 -19 -20 -35 -3 -58 15 -21 48 -18 55 4 4 13 3 13
-11 2 -21 -18 -37 -7 -37 25 0 22 4 25 25 21 20 -4 23 -3 14 8 -15 18 -24 18
-43 -2z"/>
<path d="M3023 4823 c-24 -9 -13 -20 13 -15 19 3 25 1 20 -7 -4 -6 -15 -11
-26 -11 -19 0 -34 -25 -24 -41 3 -5 19 -8 35 -7 26 2 29 6 29 39 0 24 -5 39
-16 43 -9 3 -16 6 -17 5 -1 0 -8 -3 -14 -6z m35 -55 c-7 -19 -38 -22 -38 -4 0
10 9 16 21 16 12 0 19 -5 17 -12z"/>
<path d="M3113 4823 c-8 -3 -12 -21 -11 -46 1 -41 1 -41 5 -7 3 19 10 38 16
42 14 9 6 17 -10 11z"/>
<path d="M3161 4816 c-9 -11 -6 -12 14 -8 14 2 25 0 25 -6 0 -6 -10 -12 -22
-14 -15 -2 -23 -10 -23 -23 0 -16 7 -20 33 -22 30 -1 32 1 32 31 0 49 -34 73
-59 42z m39 -45 c0 -14 -18 -23 -30 -16 -6 4 -8 11 -5 16 8 12 35 12 35 0z"/>
<path d="M3258 4823 c-13 -3 -18 -15 -18 -44 0 -21 5 -39 10 -39 6 0 10 16 10
35 0 24 5 35 15 35 10 0 15 -11 15 -35 0 -19 5 -35 10 -35 14 0 12 64 -2 78
-7 7 -14 11 -17 11 -4 -1 -14 -3 -23 -6z"/>
<path d="M4533 4585 c0 -27 2 -38 4 -22 2 15 2 37 0 50 -2 12 -4 0 -4 -28z"/>
<path d="M3190 4495 c-8 -9 -8 -15 -2 -15 6 0 13 -15 15 -32 3 -25 4 -22 5 15
2 51 1 54 -18 32z"/>
<path d="M3511 4468 c-1 -45 1 -48 24 -48 21 0 25 5 25 30 0 23 -5 30 -19 30
-11 0 -22 8 -24 18 -3 9 -5 -4 -6 -30z m39 -18 c0 -11 -7 -20 -15 -20 -8 0
-15 9 -15 20 0 11 7 20 15 20 8 0 15 -9 15 -20z"/>
<path d="M3740 4465 c0 -43 1 -45 30 -45 23 0 33 6 39 23 15 39 -5 67 -46 67
-21 0 -23 -5 -23 -45z m55 0 c0 -23 -5 -31 -22 -33 -19 -3 -23 1 -23 26 0 33
8 44 30 40 9 -2 15 -14 15 -33z"/>
<path d="M3963 4465 c0 -27 2 -38 4 -22 2 15 2 37 0 50 -2 12 -4 0 -4 -28z"/>
<path d="M3707 4493 c-6 -11 4 -73 12 -73 7 0 6 69 -2 76 -3 3 -7 2 -10 -3z"/>
<path d="M4160 4466 c0 -19 5 -38 10 -41 6 -4 10 10 10 34 0 23 -4 41 -10 41
-5 0 -10 -15 -10 -34z"/>
<path d="M3260 4471 l25 -7 -22 -8 c-31 -10 -30 -36 2 -36 21 0 25 5 25 30 0
26 -3 30 -27 29 l-28 -1 25 -7z m20 -31 c0 -5 -8 -10 -17 -10 -15 0 -16 2 -3
10 19 12 20 12 20 0z"/>
<path d="M3380 4466 c0 -8 8 -17 18 -21 16 -7 15 -8 -3 -15 -19 -8 -19 -9 2
-9 31 -1 37 15 12 32 -19 14 -20 15 -2 20 15 4 14 5 -4 6 -14 1 -23 -5 -23
-13z"/>
<path d="M3441 4453 c-1 -29 2 -33 24 -33 22 0 25 4 24 33 -2 30 -2 30 -6 5
-2 -16 -10 -28 -18 -28 -8 0 -16 12 -18 28 -4 25 -4 25 -6 -5z"/>
<path d="M3574 4450 c-1 -17 3 -30 7 -30 5 0 9 11 9 25 0 34 20 32 21 -2 l1
-28 10 28 c5 15 13 27 18 27 5 0 11 -12 13 -27 4 -27 4 -27 6 3 1 30 0 31 -41
32 -41 1 -43 0 -44 -28z"/>
<path d="M3682 4450 c0 -19 2 -27 5 -17 2 9 2 25 0 35 -3 9 -5 1 -5 -18z"/>
<path d="M3830 4451 c0 -27 3 -31 28 -30 23 2 24 2 5 6 -29 6 -30 23 -2 23 27
0 19 24 -9 28 -19 3 -22 -1 -22 -27z m37 13 c-3 -3 -12 -4 -19 -1 -8 3 -5 6 6
6 11 1 17 -2 13 -5z"/>
<path d="M3894 4465 c-4 -8 -4 -22 0 -30 6 -17 42 -20 51 -5 4 6 -4 9 -17 7
-15 -1 -23 3 -23 13 0 8 8 14 18 14 9 -1 17 2 17 7 0 15 -40 10 -46 -6z"/>
<path d="M4000 4472 c18 -8 26 -42 10 -42 -6 0 -8 5 -4 11 4 7 2 10 -5 8 -23
-8 -16 -24 12 -27 26 -3 28 -1 25 25 -2 22 -9 29 -28 30 -16 2 -20 0 -10 -5z"/>
<path d="M4050 4450 c0 -16 4 -30 9 -30 5 0 11 14 13 30 3 20 0 30 -9 30 -8 0
-13 -12 -13 -30z"/>
<path d="M4115 4470 c19 -9 19 -9 -2 -16 -34 -10 -29 -34 8 -34 27 0 30 3 27
28 -2 21 -9 28 -28 29 -23 2 -23 2 -5 -7z m15 -30 c0 -5 -8 -10 -17 -10 -15 0
-16 2 -3 10 19 12 20 12 20 0z"/>
<path d="M4202 4450 c0 -19 2 -27 5 -17 2 9 2 25 0 35 -3 9 -5 1 -5 -18z"/>
<path d="M4224 4466 c-10 -26 4 -48 28 -44 17 2 23 10 23 28 0 18 -6 26 -23
28 -13 2 -25 -3 -28 -12z m42 -7 c10 -17 -13 -36 -27 -22 -12 12 -4 33 11 33
5 0 12 -5 16 -11z"/>
<path d="M4291 4448 c1 -30 2 -30 8 -9 9 35 29 37 34 4 4 -27 4 -27 6 5 1 28
-2 32 -24 32 -22 0 -25 -4 -24 -32z"/>
<path d="M4533 4435 c0 -27 2 -38 4 -22 2 15 2 37 0 50 -2 12 -4 0 -4 -28z"/>
<path d="M4530 4300 c0 -22 -4 -28 -15 -24 -9 4 -15 0 -15 -8 0 -7 9 -14 20
-14 16 0 20 7 20 38 0 21 -2 38 -5 38 -3 0 -5 -13 -5 -30z"/>
<path d="M4694 4200 c-12 -12 -6 -80 7 -80 5 0 9 20 9 45 0 48 -1 50 -16 35z"/>
<path d="M4741 4167 c-1 -45 1 -48 22 -45 30 4 39 58 8 58 -11 0 -22 8 -24 18
-3 9 -5 -5 -6 -31z m39 -17 c0 -11 -7 -20 -15 -20 -8 0 -15 9 -15 20 0 11 7
20 15 20 8 0 15 -9 15 -20z"/>
<path d="M5001 4167 c-1 -47 0 -48 27 -45 21 2 27 8 27 28 0 18 -6 26 -22 28
-12 2 -24 11 -26 20 -3 9 -5 -5 -6 -31z m45 -8 c10 -17 -13 -36 -27 -22 -12
12 -4 33 11 33 5 0 12 -5 16 -11z"/>
<path d="M5240 4166 c0 -44 1 -46 30 -46 24 0 31 5 36 27 9 34 -6 57 -40 61
-25 3 -26 1 -26 -42z m53 13 c14 -22 2 -49 -23 -49 -16 0 -20 6 -20 36 0 28 4
35 16 32 9 -2 21 -10 27 -19z"/>
<path d="M5450 4165 c0 -25 5 -45 10 -45 6 0 10 20 10 45 0 25 -4 45 -10 45
-5 0 -10 -20 -10 -45z"/>
<path d="M5200 4162 c0 -23 3 -42 8 -42 9 0 9 66 -1 76 -4 4 -7 -11 -7 -34z"/>
<path d="M5658 4189 c-5 -16 3 -69 11 -69 8 0 8 67 -1 75 -3 3 -8 1 -10 -6z"/>
<path d="M4533 4140 c0 -25 2 -35 4 -22 2 12 2 32 0 45 -2 12 -4 2 -4 -23z"/>
<path d="M4870 4166 c0 -8 10 -18 23 -22 l22 -8 -25 -7 -25 -7 28 -1 c33 -1
37 24 5 35 -22 7 -22 7 -3 15 19 7 19 8 -2 8 -14 1 -23 -5 -23 -13z"/>
<path d="M4930 4166 c0 -30 13 -46 36 -46 21 0 24 5 23 33 -1 29 -2 29 -8 8
-9 -34 -31 -39 -31 -7 0 14 -4 26 -10 26 -5 0 -10 -6 -10 -14z"/>
<path d="M5071 4148 c1 -30 2 -30 8 -9 9 35 29 37 34 4 l4 -28 2 28 c0 16 7
27 15 27 8 0 17 -12 19 -27 4 -26 4 -26 6 5 1 32 0 32 -44 32 -44 0 -45 -1
-44 -32z"/>
<path d="M5170 4150 c0 -16 5 -30 10 -30 6 0 10 14 10 30 0 17 -4 30 -10 30
-5 0 -10 -13 -10 -30z"/>
<path d="M5324 4166 c-10 -25 3 -46 28 -45 17 1 18 2 6 6 -25 6 -22 23 3 23
27 0 19 24 -9 28 -13 2 -25 -3 -28 -12z"/>
<path d="M5394 4165 c-9 -23 3 -45 26 -45 11 0 20 4 20 9 0 5 -9 7 -20 4 -16
-4 -20 0 -20 17 0 17 4 21 20 17 11 -3 20 -1 20 4 0 15 -40 10 -46 -6z"/>
<path d="M5500 4171 l25 -7 -22 -8 c-31 -10 -30 -36 2 -36 21 0 25 5 25 30 0
26 -3 30 -27 29 l-28 -1 25 -7z m20 -31 c0 -5 -8 -10 -17 -10 -15 0 -16 2 -3
10 19 12 20 12 20 0z"/>
<path d="M5551 4148 c2 -28 2 -29 6 -8 3 14 10 28 17 32 7 5 5 8 -6 8 -14 0
-18 -8 -17 -32z"/>
<path d="M5610 4171 l25 -7 -22 -8 c-31 -10 -30 -36 2 -36 21 0 25 5 25 30 0
26 -3 30 -27 29 l-28 -1 25 -7z m17 -37 c-3 -3 -12 -4 -19 -1 -8 3 -5 6 6 6
11 1 17 -2 13 -5z"/>
<path d="M5692 4150 c0 -19 2 -27 5 -17 2 9 2 25 0 35 -3 9 -5 1 -5 -18z"/>
<path d="M5720 4150 c0 -25 4 -30 25 -30 21 0 25 5 25 30 0 25 -4 30 -25 30
-21 0 -25 -5 -25 -30z m40 0 c0 -11 -7 -20 -15 -20 -8 0 -15 9 -15 20 0 11 7
20 15 20 8 0 15 -9 15 -20z"/>
<path d="M5791 4148 c2 -31 2 -31 6 -5 2 15 10 27 18 27 8 0 16 -12 18 -27 4
-26 4 -26 6 5 1 28 -2 32 -24 32 -22 0 -25 -4 -24 -32z"/>
<path d="M4530 3991 c0 -23 2 -41 4 -41 8 0 12 71 4 76 -4 3 -8 -13 -8 -35z"/>
<path d="M5970 4010 c0 -5 6 -10 14 -10 8 0 18 5 21 10 3 6 -3 10 -14 10 -12
0 -21 -4 -21 -10z"/>
<path d="M4288 3903 c6 -2 18 -2 25 0 6 3 1 5 -13 5 -14 0 -19 -2 -12 -5z"/>
<path d="M4358 3903 c6 -2 18 -2 25 0 6 3 1 5 -13 5 -14 0 -19 -2 -12 -5z"/>
<path d="M4438 3903 c6 -2 18 -2 25 0 6 3 1 5 -13 5 -14 0 -19 -2 -12 -5z"/>
<path d="M4508 3903 c6 -2 18 -2 25 0 6 3 1 5 -13 5 -14 0 -19 -2 -12 -5z"/>
<path d="M4588 3903 c6 -2 18 -2 25 0 6 3 1 5 -13 5 -14 0 -19 -2 -12 -5z"/>
<path d="M4658 3903 c6 -2 18 -2 25 0 6 3 1 5 -13 5 -14 0 -19 -2 -12 -5z"/>
<path d="M4738 3903 c6 -2 18 -2 25 0 6 3 1 5 -13 5 -14 0 -19 -2 -12 -5z"/>
<path d="M4808 3903 c6 -2 18 -2 25 0 6 3 1 5 -13 5 -14 0 -19 -2 -12 -5z"/>
<path d="M4888 3903 c6 -2 18 -2 25 0 6 3 1 5 -13 5 -14 0 -19 -2 -12 -5z"/>
<path d="M4958 3903 c6 -2 18 -2 25 0 6 3 1 5 -13 5 -14 0 -19 -2 -12 -5z"/>
<path d="M5038 3903 c6 -2 18 -2 25 0 6 3 1 5 -13 5 -14 0 -19 -2 -12 -5z"/>
<path d="M5108 3903 c6 -2 18 -2 25 0 6 3 1 5 -13 5 -14 0 -19 -2 -12 -5z"/>
<path d="M5188 3903 c6 -2 18 -2 25 0 6 3 1 5 -13 5 -14 0 -19 -2 -12 -5z"/>
<path d="M5258 3903 c6 -2 18 -2 25 0 6 3 1 5 -13 5 -14 0 -19 -2 -12 -5z"/>
<path d="M5338 3903 c6 -2 18 -2 25 0 6 3 1 5 -13 5 -14 0 -19 -2 -12 -5z"/>
<path d="M5408 3903 c6 -2 18 -2 25 0 6 3 1 5 -13 5 -14 0 -19 -2 -12 -5z"/>
<path d="M5488 3903 c6 -2 18 -2 25 0 6 3 1 5 -13 5 -14 0 -19 -2 -12 -5z"/>
<path d="M5558 3903 c6 -2 18 -2 25 0 6 3 1 5 -13 5 -14 0 -19 -2 -12 -5z"/>
<path d="M5638 3903 c6 -2 18 -2 25 0 6 3 1 5 -13 5 -14 0 -19 -2 -12 -5z"/>
<path d="M5708 3903 c6 -2 18 -2 25 0 6 3 1 5 -13 5 -14 0 -19 -2 -12 -5z"/>
<path d="M5788 3903 c6 -2 18 -2 25 0 6 3 1 5 -13 5 -14 0 -19 -2 -12 -5z"/>
<path d="M5858 3903 c6 -2 18 -2 25 0 6 3 1 5 -13 5 -14 0 -19 -2 -12 -5z"/>
<path d="M5938 3903 c7 -3 16 -2 19 1 4 3 -2 6 -13 5 -11 0 -14 -3 -6 -6z"/>
<path d="M6008 3903 c6 -2 18 -2 25 0 6 3 1 5 -13 5 -14 0 -19 -2 -12 -5z"/>
<path d="M6088 3903 c7 -3 16 -2 19 1 4 3 -2 6 -13 5 -11 0 -14 -3 -6 -6z"/>
<path d="M6158 3903 c6 -2 18 -2 25 0 6 3 1 5 -13 5 -14 0 -19 -2 -12 -5z"/>
<path d="M6238 3903 c7 -3 16 -2 19 1 4 3 -2 6 -13 5 -11 0 -14 -3 -6 -6z"/>
<path d="M4262 3880 c0 -14 2 -19 5 -12 2 6 2 18 0 25 -3 6 -5 1 -5 -13z"/>
<path d="M6282 3870 c0 -14 2 -19 5 -12 2 6 2 18 0 25 -3 6 -5 1 -5 -13z"/>
<path d="M4527 3813 c-3 -37 -2 -90 2 -118 5 -29 9 -40 11 -25 3 37 0 203 -4
207 -2 2 -6 -27 -9 -64z"/>
<path d="M6024 3833 c1 -32 -3 -43 -16 -47 -22 -5 -24 -49 -4 -66 8 -6 17 -26
19 -43 4 -31 4 -31 5 5 1 20 7 40 12 43 13 8 13 85 1 85 -6 0 -12 15 -14 33
-3 23 -4 21 -3 -10z m4 -80 c-4 -22 -22 -20 -26 1 -2 10 3 16 13 16 10 0 15
-7 13 -17z"/>
<path d="M4261 3804 c0 -11 3 -14 6 -6 3 7 2 16 -1 19 -3 4 -6 -2 -5 -13z"/>
<path d="M6282 3800 c0 -14 2 -19 5 -12 2 6 2 18 0 25 -3 6 -5 1 -5 -13z"/>
<path d="M4356 3770 c-20 -51 -20 -53 4 -38 16 10 24 10 41 -1 20 -12 21 -11
14 6 -4 10 -12 30 -17 46 -14 37 -23 34 -42 -13z m34 0 c0 -5 -4 -10 -10 -10
-5 0 -10 5 -10 10 0 6 5 10 10 10 6 0 10 -4 10 -10z"/>
<path d="M4433 3765 c0 -27 2 -38 4 -22 2 15 2 37 0 50 -2 12 -4 0 -4 -28z"/>
<path d="M4458 3798 c-7 -16 2 -78 11 -78 7 0 7 78 -1 85 -3 3 -8 0 -10 -7z"/>
<path d="M4560 3765 c0 -43 1 -45 30 -45 17 0 33 7 39 18 9 16 10 16 16 0 8
-20 40 -24 51 -6 5 8 2 9 -9 5 -9 -3 -19 -2 -22 3 -4 6 3 10 14 10 25 0 28 28
5 37 -10 4 -22 0 -29 -10 -11 -15 -13 -14 -23 8 -9 19 -19 25 -42 25 -29 0
-30 -2 -30 -45z m55 0 c0 -23 -4 -30 -20 -30 -21 0 -31 25 -21 51 11 28 41 12
41 -21z"/>
<path d="M4783 3765 c0 -27 2 -38 4 -22 2 15 2 37 0 50 -2 12 -4 0 -4 -28z"/>
<path d="M4984 3797 c-8 -22 -1 -70 11 -74 6 -2 9 14 8 38 -1 45 -9 60 -19 36z"/>
<path d="M5406 3802 c-7 -11 4 -82 13 -82 7 0 5 79 -2 86 -3 3 -8 1 -11 -4z"/>
<path d="M5738 3800 c-6 -18 3 -80 12 -80 4 0 6 18 5 40 -2 42 -10 60 -17 40z"/>
<path d="M5943 3765 c0 -27 2 -38 4 -22 2 15 2 37 0 50 -2 12 -4 0 -4 -28z"/>
<path d="M6065 3750 c0 -33 3 -60 8 -60 4 0 7 27 7 60 0 33 -3 60 -7 60 -5 0
-8 -27 -8 -60z"/>
<path d="M4721 3776 c-7 -8 -10 -24 -6 -36 7 -21 39 -27 51 -9 4 8 0 9 -15 4
-17 -5 -21 -2 -21 15 0 18 4 21 21 17 13 -3 19 -1 16 6 -6 18 -32 20 -46 3z"/>
<path d="M4810 3781 c0 -6 8 -11 18 -12 12 0 11 -3 -6 -10 -30 -12 -23 -33 12
-37 26 -3 27 -1 24 30 -2 25 -8 34 -25 36 -13 2 -23 -1 -23 -7z m30 -41 c0 -5
-4 -10 -10 -10 -5 0 -10 5 -10 10 0 6 5 10 10 10 6 0 10 -4 10 -10z"/>
<path d="M4870 3755 c0 -19 5 -35 10 -35 6 0 10 9 10 19 0 11 3 26 6 35 4 11
1 16 -10 16 -12 0 -16 -10 -16 -35z"/>
<path d="M4920 3781 c0 -6 8 -11 18 -12 12 0 11 -3 -6 -10 -30 -12 -23 -33 12
-37 26 -3 27 -1 24 30 -2 25 -8 34 -25 36 -13 2 -23 -1 -23 -7z m30 -41 c0 -5
-4 -10 -10 -10 -5 0 -10 5 -10 10 0 6 5 10 10 10 6 0 10 -4 10 -10z"/>
<path d="M5017 3783 c-11 -10 -8 -51 3 -58 6 -4 10 8 10 29 0 37 -2 41 -13 29z"/>
<path d="M5051 3776 c-20 -24 -9 -51 19 -51 21 0 25 5 25 30 0 34 -24 45 -44
21z m35 -17 c10 -17 -13 -36 -27 -22 -12 12 -4 33 11 33 5 0 12 -5 16 -11z"/>
<path d="M5110 3755 c0 -19 5 -35 10 -35 6 0 10 11 10 25 0 14 5 25 10 25 6 0
10 -11 10 -25 0 -14 5 -25 10 -25 11 0 13 30 4 54 -3 9 -17 16 -30 16 -21 0
-24 -5 -24 -35z"/>
<path d="M5214 3779 c-4 -7 4 -20 17 -31 l24 -19 -24 6 c-16 5 -21 4 -17 -4 4
-6 16 -11 27 -11 24 0 26 37 2 43 -17 4 -17 5 0 6 10 0 15 6 12 11 -8 13 -32
13 -41 -1z"/>
<path d="M5276 3769 c5 -13 8 -36 8 -51 -1 -16 0 -28 2 -28 7 0 34 60 34 76 0
16 -1 16 -15 -2 -13 -17 -14 -17 -15 -2 0 9 -5 20 -11 24 -8 4 -9 -1 -3 -17z"/>
<path d="M5341 3753 c2 -30 3 -32 6 -10 2 15 10 27 18 27 8 0 16 -12 18 -27 4
-21 4 -19 3 7 -1 28 -5 36 -23 38 -21 3 -23 -1 -22 -35z"/>
<path d="M5444 3779 c-5 -9 -2 -10 9 -6 9 3 19 2 22 -2 2 -5 -4 -11 -15 -14
-30 -8 -25 -37 6 -37 23 0 25 3 22 32 -3 34 -29 50 -44 27z m31 -39 c-3 -5
-11 -10 -16 -10 -6 0 -7 5 -4 10 3 6 11 10 16 10 6 0 7 -4 4 -10z"/>
<path d="M5515 3772 c4 -13 1 -29 -5 -37 -8 -9 -8 -15 -2 -15 6 0 13 6 16 13
5 10 7 10 12 0 3 -7 10 -13 16 -13 7 0 7 4 0 13 -6 7 -9 24 -6 38 5 19 4 21
-5 9 -10 -13 -12 -13 -22 0 -8 12 -9 10 -4 -8z"/>
<path d="M5600 3755 c0 -19 5 -35 10 -35 6 0 10 11 10 25 0 14 5 25 10 25 6 0
10 -11 10 -25 0 -14 5 -25 10 -25 11 0 13 30 4 54 -3 9 -17 16 -30 16 -21 0
-24 -5 -24 -35z"/>
<path d="M5674 3776 c-3 -8 -4 -23 -2 -33 5 -25 51 -25 56 0 7 36 -42 65 -54
33z m40 -14 c8 -13 -11 -35 -23 -28 -16 10 -14 36 3 36 8 0 17 -4 20 -8z"/>
<path d="M5800 3787 c0 -15 23 -67 30 -67 10 0 32 61 25 69 -3 3 -8 -5 -12
-17 -6 -25 -23 -30 -23 -8 0 8 -4 18 -10 21 -5 3 -10 4 -10 2z"/>
<path d="M5875 3781 c-3 -7 3 -11 17 -12 20 -1 21 -2 3 -6 -42 -11 -41 -43 1
-43 22 0 25 4 22 32 -3 33 -29 50 -43 29z m30 -41 c-3 -5 -10 -10 -16 -10 -5
0 -9 5 -9 10 0 6 7 10 16 10 8 0 12 -4 9 -10z"/>
<path d="M5967 3783 c-11 -10 -8 -63 3 -63 6 0 10 16 10 35 0 36 -2 40 -13 28z"/>
<path d="M4262 3730 c0 -14 2 -19 5 -12 2 6 2 18 0 25 -3 6 -5 1 -5 -13z"/>
<path d="M6282 3720 c0 -14 2 -19 5 -12 2 6 2 18 0 25 -3 6 -5 1 -5 -13z"/>
<path d="M4261 3654 c0 -11 3 -14 6 -6 3 7 2 16 -1 19 -3 4 -6 -2 -5 -13z"/>
<path d="M6282 3650 c0 -14 2 -19 5 -12 2 6 2 18 0 25 -3 6 -5 1 -5 -13z"/>
<path d="M5120 3601 c0 -5 9 -7 20 -4 13 4 20 0 20 -9 0 -8 -9 -23 -20 -33
-27 -25 -25 -35 8 -34 16 1 20 3 10 6 -22 6 -23 17 -3 33 25 21 19 50 -10 50
-14 0 -25 -4 -25 -9z"/>
<path d="M5222 3568 c3 -42 4 -43 38 -44 26 -1 28 -1 8 3 -32 5 -38 33 -8 33
11 0 20 5 20 10 0 6 -9 10 -20 10 -30 0 -24 18 8 23 21 3 19 4 -11 6 l-38 1 3
-42z"/>
<path d="M4262 3580 c0 -14 2 -19 5 -12 2 6 2 18 0 25 -3 6 -5 1 -5 -13z"/>
<path d="M4533 3545 c0 -27 2 -38 4 -22 2 15 2 37 0 50 -2 12 -4 0 -4 -28z"/>
<path d="M5307 3583 c-10 -9 -8 -51 2 -57 5 -3 11 10 13 29 4 34 -1 43 -15 28z"/>
<path d="M5351 3553 c2 -35 2 -35 6 -8 3 16 10 33 16 37 8 5 6 8 -5 8 -14 0
-18 -8 -17 -37z"/>
<path d="M5390 3575 c-17 -21 -2 -50 26 -50 14 0 19 7 19 30 0 34 -24 45 -45
20z m35 -18 c0 -26 -20 -25 -23 2 -3 16 1 22 10 19 7 -3 13 -12 13 -21z"/>
<path d="M5457 3583 c-11 -10 -8 -51 3 -58 6 -4 10 6 10 24 0 16 6 32 13 34 8
4 6 6 -4 6 -9 1 -19 -2 -22 -6z"/>
<path d="M6282 3570 c0 -14 2 -19 5 -12 2 6 2 18 0 25 -3 6 -5 1 -5 -13z"/>
<path d="M6023 3540 c0 -25 2 -35 4 -22 2 12 2 32 0 45 -2 12 -4 2 -4 -23z"/>
<path d="M4261 3504 c0 -11 3 -14 6 -6 3 7 2 16 -1 19 -3 4 -6 -2 -5 -13z"/>
<path d="M6282 3500 c0 -14 2 -19 5 -12 2 6 2 18 0 25 -3 6 -5 1 -5 -13z"/>
<path d="M4552 3469 c-14 -6 -12 -9 12 -18 16 -6 31 -9 34 -6 3 3 -1 6 -9 7
-8 2 310 5 706 8 l720 5 -723 5 c-397 3 -730 2 -740 -1z"/>
<path d="M4262 3430 c0 -14 2 -19 5 -12 2 6 2 18 0 25 -3 6 -5 1 -5 -13z"/>
<path d="M4533 3395 c0 -27 2 -38 4 -22 2 15 2 37 0 50 -2 12 -4 0 -4 -28z"/>
<path d="M6282 3420 c0 -14 2 -19 5 -12 2 6 2 18 0 25 -3 6 -5 1 -5 -13z"/>
<path d="M6023 3390 c0 -25 2 -35 4 -22 2 12 2 32 0 45 -2 12 -4 2 -4 -23z"/>
<path d="M4261 3354 c0 -11 3 -14 6 -6 3 7 2 16 -1 19 -3 4 -6 -2 -5 -13z"/>
<path d="M6282 3350 c0 -14 2 -19 5 -12 2 6 2 18 0 25 -3 6 -5 1 -5 -13z"/>
<path d="M4530 3245 c0 -27 2 -46 4 -44 8 8 10 78 3 85 -4 4 -7 -14 -7 -41z"/>
<path d="M4533 3095 c0 -27 2 -38 4 -22 2 15 2 37 0 50 -2 12 -4 0 -4 -28z"/>
<path d="M6942 3115 c0 -16 2 -22 5 -12 2 9 2 23 0 30 -3 6 -5 -1 -5 -18z"/>
<path d="M6334 3066 c-3 -8 -4 -29 -2 -48 2 -26 8 -34 27 -36 27 -4 51 20 51
49 0 38 -64 67 -76 35z m63 -22 c8 -20 -8 -48 -31 -52 -12 -3 -16 4 -16 32 0
30 4 36 20 36 11 0 23 -7 27 -16z"/>
<path d="M6553 3025 c0 -27 2 -38 4 -22 2 15 2 37 0 50 -2 12 -4 0 -4 -28z"/>
<path d="M6758 3058 c-7 -16 2 -78 11 -78 7 0 6 79 -2 86 -2 3 -7 -1 -9 -8z"/>
<path d="M6996 3033 c22 -54 30 -58 42 -26 5 15 13 37 18 47 5 13 4 17 -4 13
-6 -4 -13 -21 -17 -37 -8 -36 -21 -31 -30 10 -4 17 -11 30 -15 30 -5 0 -2 -17
6 -37z"/>
<path d="M7143 3025 c0 -27 2 -38 4 -22 2 15 2 37 0 50 -2 12 -4 0 -4 -28z"/>
<path d="M7232 3064 c-1 -7 -11 -14 -23 -17 -16 -4 -20 -12 -17 -33 3 -30 16
-38 36 -25 9 5 12 22 9 47 -2 21 -4 34 -5 28z m-2 -43 c0 -23 -16 -36 -25 -21
-9 14 1 40 15 40 5 0 10 -9 10 -19z"/>
<path d="M7329 3059 c-2 -28 3 -64 11 -72 4 -5 6 10 4 33 -3 41 -13 67 -15 39z"/>
<path d="M6427 3044 c-4 -4 -7 -18 -7 -31 0 -28 26 -41 43 -23 10 10 8 12 -5
7 -10 -3 -20 -2 -23 3 -4 6 3 10 15 10 15 0 20 5 18 17 -3 19 -29 29 -41 17z
m33 -14 c0 -5 -2 -10 -4 -10 -3 0 -8 5 -11 10 -3 6 -1 10 4 10 6 0 11 -4 11
-10z"/>
<path d="M6497 3043 c-4 -3 -7 -17 -7 -30 0 -27 26 -41 43 -23 9 9 8 11 -8 8
-14 -2 -20 3 -20 17 0 14 6 19 19 17 11 -2 15 1 11 7 -7 12 -28 14 -38 4z"/>
<path d="M6585 3041 c-3 -7 0 -8 9 -5 9 3 16 1 16 -5 0 -6 -7 -11 -16 -11 -25
0 -12 -35 14 -36 20 -1 23 3 20 30 -3 31 -30 48 -43 27z m30 -41 c-3 -5 -10
-10 -16 -10 -5 0 -9 5 -9 10 0 6 7 10 16 10 8 0 12 -4 9 -10z"/>
<path d="M6651 3013 c2 -35 2 -35 6 -8 3 16 10 33 16 37 8 5 6 8 -5 8 -14 0
-18 -8 -17 -37z"/>
<path d="M6690 3041 c0 -6 7 -8 15 -5 8 4 15 1 15 -5 0 -6 -7 -11 -15 -11 -8
0 -15 -9 -15 -20 0 -15 6 -19 25 -18 22 2 26 7 23 33 -2 22 -9 31 -25 33 -13
2 -23 -1 -23 -7z m35 -41 c-3 -5 -10 -10 -16 -10 -5 0 -9 5 -9 10 0 6 7 10 16
10 8 0 12 -4 9 -10z"/>
<path d="M6793 3015 c0 -22 2 -30 4 -17 2 12 2 30 0 40 -3 9 -5 -1 -4 -23z"/>
<path d="M6821 3036 c-9 -11 -10 -20 -1 -36 17 -31 45 -22 45 15 0 34 -24 45
-44 21z m34 -19 c0 -26 -20 -25 -23 2 -3 16 1 22 10 19 7 -3 13 -12 13 -21z"/>
<path d="M6887 3044 c-11 -11 -8 -54 3 -54 6 0 10 12 10 26 0 35 23 26 32 -12
6 -27 6 -27 5 6 -2 27 -7 36 -22 38 -12 2 -24 0 -28 -4z"/>
<path d="M7075 3041 c-3 -7 0 -8 9 -5 9 3 16 1 16 -5 0 -6 -7 -11 -16 -11 -25
0 -12 -35 14 -36 20 -1 23 3 20 30 -3 31 -30 48 -43 27z m30 -41 c-3 -5 -10
-10 -16 -10 -5 0 -9 5 -9 10 0 6 7 10 16 10 8 0 12 -4 9 -10z"/>
<path d="M7160 3020 c0 -16 5 -30 10 -30 6 0 10 14 10 30 0 17 -4 30 -10 30
-5 0 -10 -13 -10 -30z"/>
<path d="M7266 3041 c-4 -5 3 -7 14 -4 11 3 20 1 20 -5 0 -5 -9 -12 -21 -15
-26 -7 -20 -31 9 -35 19 -3 22 1 22 32 0 29 -4 36 -19 36 -11 0 -22 -4 -25 -9z
m34 -35 c0 -11 -19 -15 -25 -6 -3 5 1 10 9 10 9 0 16 -2 16 -4z"/>
<path d="M7363 3015 c0 -22 2 -30 4 -17 2 12 2 30 0 40 -3 9 -5 -1 -4 -23z"/>
<path d="M7394 3036 c-17 -43 25 -75 46 -36 9 16 8 25 -1 36 -15 18 -38 18
-45 0z m39 -10 c7 -19 -18 -42 -28 -26 -8 13 1 40 14 40 5 0 11 -6 14 -14z"/>
<path d="M7461 3013 c1 -36 2 -37 8 -8 3 17 11 30 16 30 5 0 13 -13 17 -30 6
-29 6 -29 5 5 -2 28 -6 36 -24 38 -21 3 -23 -1 -22 -35z"/>
<path d="M4533 2945 c0 -27 2 -38 4 -22 2 15 2 37 0 50 -2 12 -4 0 -4 -28z"/>
<path d="M6942 2915 c0 -16 2 -22 5 -12 2 9 2 23 0 30 -3 6 -5 -1 -5 -18z"/>
<path d="M6030 2890 c0 -5 7 -10 15 -10 8 0 15 5 15 10 0 6 -7 10 -15 10 -8 0
-15 -4 -15 -10z"/>
<path d="M4533 2795 c0 -27 2 -38 4 -22 2 15 2 37 0 50 -2 12 -4 0 -4 -28z"/>
<path d="M4533 2645 c0 -27 2 -38 4 -22 2 15 2 37 0 50 -2 12 -4 0 -4 -28z"/>
<path d="M6018 2653 c5 -59 10 -63 11 -10 1 26 -3 47 -7 47 -4 0 -6 -17 -4
-37z"/>
<path d="M6291 2674 c0 -11 3 -14 6 -6 3 7 2 16 -1 19 -3 4 -6 -2 -5 -13z"/>
<path d="M2742 2660 c0 -14 2 -19 5 -12 2 6 2 18 0 25 -3 6 -5 1 -5 -13z"/>
<path d="M6291 2604 c0 -11 3 -14 6 -6 3 7 2 16 -1 19 -3 4 -6 -2 -5 -13z"/>
<path d="M2741 2584 c0 -11 3 -14 6 -6 3 7 2 16 -1 19 -3 4 -6 -2 -5 -13z"/>
<path d="M2830 2546 c0 -45 0 -46 33 -45 23 1 26 3 10 6 -19 4 -23 11 -23 38
0 19 -4 37 -10 40 -6 4 -10 -12 -10 -39z"/>
<path d="M3140 2530 c0 -33 3 -60 8 -60 4 0 7 27 7 60 0 33 -3 60 -7 60 -5 0
-8 -27 -8 -60z"/>
<path d="M3262 2545 c0 -29 3 -38 5 -22 2 15 10 27 18 27 8 0 16 -12 18 -27 4
-26 4 -25 6 5 1 23 -4 35 -16 39 -10 4 -21 11 -25 17 -4 6 -7 -11 -6 -39z"/>
<path d="M3783 2545 c0 -27 2 -38 4 -22 2 15 2 37 0 50 -2 12 -4 0 -4 -28z"/>
<path d="M3870 2581 c0 -5 -9 -11 -21 -14 -16 -4 -20 -12 -17 -34 2 -22 9 -29
31 -31 26 -3 27 -2 27 42 0 25 -4 46 -10 46 -5 0 -10 -4 -10 -9z m0 -52 c0
-24 -23 -21 -28 4 -2 10 3 17 12 17 10 0 16 -9 16 -21z"/>
<path d="M3968 2580 c-6 -18 3 -80 12 -80 4 0 6 18 5 40 -2 42 -10 60 -17 40z"/>
<path d="M4750 2582 c0 -4 -10 -12 -22 -17 -15 -7 -23 -19 -23 -35 0 -20 6
-26 28 -28 26 -3 27 -2 27 42 0 25 -2 46 -5 46 -3 0 -5 -3 -5 -8z m-4 -43 c3
-6 1 -16 -5 -22 -9 -9 -14 -8 -21 3 -9 15 -4 30 10 30 5 0 12 -5 16 -11z"/>
<path d="M4980 2581 c0 -5 -9 -11 -21 -14 -16 -4 -20 -12 -17 -34 2 -22 9 -29
31 -31 26 -3 27 -2 27 42 0 25 -4 46 -10 46 -5 0 -10 -4 -10 -9z m0 -51 c0
-11 -4 -20 -9 -20 -14 0 -23 18 -16 30 10 17 25 11 25 -10z"/>
<path d="M5338 2577 c-2 -6 -2 -25 1 -42 6 -27 10 -30 46 -30 38 0 40 2 40 30
0 23 -5 31 -22 33 -18 3 -24 -4 -32 -30 l-9 -33 -1 37 c-1 37 -15 59 -23 35z
m78 -38 c10 -17 -13 -36 -27 -22 -12 12 -4 33 11 33 5 0 12 -5 16 -11z"/>
<path d="M5718 2578 c-7 -16 2 -78 11 -78 7 0 7 78 -1 85 -3 3 -8 0 -10 -7z"/>
<path d="M2900 2549 c-21 -38 28 -69 49 -31 9 16 10 16 16 0 4 -10 18 -18 31
-18 20 0 24 5 24 30 0 37 -23 49 -49 26 -16 -15 -19 -15 -24 -1 -9 21 -34 19
-47 -6z m38 -16 c-4 -22 -22 -20 -26 1 -2 10 3 16 13 16 10 0 15 -7 13 -17z
m70 0 c-4 -22 -22 -20 -26 1 -2 10 3 16 13 16 10 0 15 -7 13 -17z"/>
<path d="M3037 2564 c-11 -11 -8 -84 3 -84 6 0 10 4 10 9 0 5 9 11 21 14 28 8
23 61 -6 65 -12 2 -24 0 -28 -4z m41 -31 c-4 -22 -22 -20 -26 1 -2 10 3 16 13
16 10 0 15 -7 13 -17z"/>
<path d="M3200 2558 c1 -7 7 -24 15 -38 l13 -25 11 28 c16 40 13 57 -4 27 -10
-18 -14 -20 -15 -8 0 9 -4 20 -10 23 -5 3 -10 0 -10 -7z"/>
<path d="M3332 2553 c-13 -24 3 -53 28 -53 11 0 20 4 20 10 0 5 -6 7 -14 4 -8
-3 -17 -1 -21 5 -3 7 3 11 15 11 15 0 20 5 18 17 -5 25 -35 28 -46 6z m35 -9
c-3 -3 -12 -4 -19 -1 -8 3 -5 6 6 6 11 1 17 -2 13 -5z"/>
<path d="M3397 2563 c-11 -10 -8 -51 3 -58 6 -3 10 4 10 17 0 13 5 29 12 36 9
9 9 12 -3 12 -9 0 -19 -3 -22 -7z"/>
<path d="M3440 2550 c-9 -16 -8 -25 1 -36 13 -16 49 -19 49 -4 0 5 -6 7 -14 4
-8 -3 -17 -1 -21 5 -3 7 3 11 15 11 15 0 20 5 18 17 -5 26 -35 28 -48 3z m37
-6 c-3 -3 -12 -4 -19 -1 -8 3 -5 6 6 6 11 1 17 -2 13 -5z"/>
<path d="M3541 2533 c2 -31 3 -33 6 -10 2 15 9 27 14 27 5 0 9 5 9 10 0 6 -7
10 -15 10 -11 0 -15 -10 -14 -37z"/>
<path d="M3584 2556 c-10 -26 1 -51 24 -54 12 -2 22 1 22 7 0 6 -6 8 -14 5 -8
-3 -17 -1 -21 5 -3 7 3 11 15 11 15 0 20 5 18 17 -4 23 -36 29 -44 9z"/>
<path d="M3652 2538 c6 -21 15 -38 18 -38 10 0 34 59 27 66 -3 3 -8 -5 -12
-17 l-7 -22 -19 24 -18 24 11 -37z"/>
<path d="M3715 2561 c-3 -7 3 -11 17 -12 l23 0 -22 -9 c-32 -13 -30 -40 3 -40
23 0 25 3 22 32 -3 33 -29 50 -43 29z m30 -41 c-3 -5 -11 -10 -16 -10 -6 0 -7
5 -4 10 3 6 11 10 16 10 6 0 7 -4 4 -10z"/>
<path d="M3807 2563 c-11 -10 -8 -63 3 -63 6 0 10 16 10 35 0 36 -2 40 -13 28z"/>
<path d="M3905 2560 c-3 -6 4 -10 17 -11 l23 0 -22 -9 c-35 -14 -29 -40 8 -40
24 0 30 3 25 16 -3 9 -6 24 -6 35 0 20 -34 27 -45 9z m30 -40 c-3 -5 -11 -10
-16 -10 -6 0 -7 5 -4 10 3 6 11 10 16 10 6 0 7 -4 4 -10z"/>
<path d="M4000 2536 c0 -20 5 -36 10 -36 6 0 10 13 10 29 0 17 -4 33 -10 36
-6 4 -10 -8 -10 -29z"/>
<path d="M4034 2556 c-10 -26 1 -51 23 -54 14 -2 23 3 28 18 12 37 -38 71 -51
36z m36 -27 c0 -24 -23 -21 -28 4 -2 10 3 17 12 17 10 0 16 -9 16 -21z"/>
<path d="M4101 2533 c2 -30 3 -32 6 -10 2 15 10 27 18 27 8 0 16 -12 18 -27 4
-21 4 -19 3 7 -1 28 -5 36 -23 38 -21 3 -23 -1 -22 -35z"/>
<path d="M4203 2535 c0 -22 2 -30 4 -17 2 12 2 30 0 40 -3 9 -5 -1 -4 -23z"/>
<path d="M4230 2550 c0 -11 7 -20 15 -20 8 0 15 -5 15 -11 0 -6 -7 -9 -15 -5
-8 3 -15 1 -15 -5 0 -14 42 -7 48 9 2 6 -7 16 -20 21 -18 8 -19 10 -5 10 21 1
13 21 -9 21 -8 0 -14 -9 -14 -20z"/>
<path d="M4320 2535 c0 -19 5 -35 10 -35 6 0 10 9 10 19 0 11 3 26 6 35 4 11
1 16 -10 16 -12 0 -16 -10 -16 -35z"/>
<path d="M4371 2556 c-27 -33 14 -76 43 -46 8 9 6 11 -11 5 -14 -4 -23 -2 -23
4 0 6 9 11 21 11 14 0 19 5 17 17 -4 23 -31 28 -47 9z"/>
<path d="M4437 2564 c-15 -16 -7 -56 13 -61 11 -3 20 -9 20 -14 0 -5 5 -9 11
-9 6 0 9 17 7 43 -2 33 -7 43 -23 45 -12 2 -24 0 -28 -4z m31 -31 c-4 -22 -22
-20 -26 1 -2 10 3 16 13 16 10 0 15 -7 13 -17z"/>
<path d="M4501 2542 c-1 -21 5 -35 14 -38 8 -4 16 -18 16 -33 1 -26 1 -26 9 4
4 17 8 46 8 65 l0 35 -13 -35 c-13 -35 -18 -32 -28 15 -3 12 -5 7 -6 -13z"/>
<path d="M4573 2535 c0 -22 2 -30 4 -17 2 12 2 30 0 40 -3 9 -5 -1 -4 -23z"/>
<path d="M4601 2533 c1 -28 3 -31 6 -13 3 14 10 31 15 38 8 9 6 12 -6 12 -12
0 -16 -9 -15 -37z"/>
<path d="M4641 2556 c-7 -8 -10 -24 -6 -36 7 -22 39 -27 51 -8 5 8 2 9 -9 5
-9 -3 -19 -2 -22 3 -4 6 3 10 15 10 15 0 20 5 18 17 -4 23 -31 28 -47 9z"/>
<path d="M4816 2561 c-4 -5 4 -12 16 -14 l23 -4 -22 -2 c-35 -2 -32 -41 3 -41
23 0 25 3 22 32 -3 33 -29 50 -42 29z m29 -41 c-3 -5 -10 -10 -16 -10 -5 0 -9
5 -9 10 0 6 7 10 16 10 8 0 12 -4 9 -10z"/>
<path d="M4877 2564 c-10 -11 -8 -52 3 -59 6 -4 10 5 10 19 0 35 27 34 33 -1
4 -21 4 -19 3 7 -1 27 -6 36 -21 38 -12 2 -24 0 -28 -4z"/>
<path d="M5053 2535 c0 -22 2 -30 4 -17 2 12 2 30 0 40 -3 9 -5 -1 -4 -23z"/>
<path d="M5070 2536 c0 -20 5 -36 10 -36 6 0 10 11 10 25 0 14 5 25 10 25 6 0
10 -9 10 -19 0 -11 5 -23 11 -26 7 -5 9 5 7 26 -2 29 -7 35 -30 37 -26 3 -28
1 -28 -32z"/>
<path d="M5146 2545 c8 -44 22 -53 34 -21 5 15 10 33 9 39 0 7 -5 -1 -11 -17
l-11 -29 -13 29 -14 29 6 -30z"/>
<path d="M5204 2556 c-10 -26 1 -51 24 -54 12 -2 22 1 22 7 0 6 -7 8 -15 5 -8
-4 -15 -1 -15 5 0 6 9 11 20 11 23 0 26 10 8 28 -16 16 -37 15 -44 -2z"/>
<path d="M5270 2534 c0 -21 4 -33 10 -29 6 3 10 15 10 26 0 10 5 19 10 19 6 0
10 -11 10 -25 0 -14 5 -25 10 -25 11 0 13 30 4 54 -3 9 -17 16 -30 16 -21 0
-24 -5 -24 -36z"/>
<path d="M5440 2534 c0 -21 4 -33 10 -29 6 3 10 15 10 25 0 32 17 31 30 -1 11
-25 11 -32 1 -39 -10 -5 -10 -9 -2 -14 12 -8 41 51 40 81 0 13 -3 11 -11 -7
l-10 -25 -9 23 c-6 15 -17 22 -34 22 -22 0 -25 -4 -25 -36z"/>
<path d="M5581 2533 c2 -30 3 -32 6 -10 2 15 10 27 18 27 8 0 16 -12 18 -27 4
-21 4 -19 3 7 -1 28 -5 36 -23 38 -21 3 -23 -1 -22 -35z"/>
<path d="M5651 2556 c-19 -23 -4 -58 22 -54 17 2 22 10 22 33 0 34 -24 45 -44
21z m37 -23 c-4 -22 -22 -20 -26 1 -2 10 3 16 13 16 10 0 15 -7 13 -17z"/>
<path d="M3171 2548 c-1 -22 9 -48 20 -48 5 0 9 9 9 21 0 11 -4 18 -9 14 -5
-3 -12 3 -14 12 -4 16 -5 16 -6 1z"/>
<path d="M6023 2500 c0 -25 2 -35 4 -22 2 12 2 32 0 45 -2 12 -4 2 -4 -23z"/>
<path d="M6291 2524 c0 -11 3 -14 6 -6 3 7 2 16 -1 19 -3 4 -6 -2 -5 -13z"/>
<path d="M2742 2510 c0 -14 2 -19 5 -12 2 6 2 18 0 25 -3 6 -5 1 -5 -13z"/>
<path d="M6291 2454 c0 -11 3 -14 6 -6 3 7 2 16 -1 19 -3 4 -6 -2 -5 -13z"/>
<path d="M2741 2434 c0 -11 3 -14 6 -6 3 7 2 16 -1 19 -3 4 -6 -2 -5 -13z"/>
<path d="M3098 2444 c-4 -4 -5 -17 -2 -29 6 -25 -18 -50 -41 -41 -23 8 -7 38
17 30 14 -4 18 -2 14 5 -12 18 -44 12 -51 -9 -11 -35 35 -70 48 -37 4 9 8 9
15 -2 8 -11 11 -8 14 15 4 37 21 37 29 -2 l7 -29 1 33 c1 26 -4 35 -18 39 -11
3 -21 12 -23 20 -2 8 -6 11 -10 7z"/>
<path d="M3305 2390 c0 -33 3 -60 8 -60 4 0 7 27 7 60 0 33 -3 60 -7 60 -5 0
-8 -27 -8 -60z"/>
<path d="M2998 2427 c-6 -18 6 -70 17 -74 7 -2 9 12 7 37 -4 41 -16 60 -24 37z"/>
<path d="M3270 2431 c0 -5 -9 -11 -21 -14 -16 -4 -20 -12 -17 -34 2 -22 8 -28
28 -28 22 0 25 5 28 43 2 25 -1 42 -7 42 -6 0 -11 -4 -11 -9z m0 -47 c0 -8 -7
-14 -15 -14 -15 0 -21 21 -9 33 10 9 24 -2 24 -19z"/>
<path d="M2831 2383 c1 -36 2 -37 8 -8 8 37 25 36 30 -2 l4 -28 6 30 c8 38 24
38 33 -1 6 -28 6 -27 5 6 -2 34 -4 35 -44 38 l-43 3 1 -38z"/>
<path d="M2935 2410 c-5 -9 -1 -10 14 -5 12 4 21 2 21 -4 0 -6 -9 -11 -21 -11
-32 0 -20 -34 14 -38 27 -3 28 -1 25 30 -2 25 -8 34 -25 36 -11 2 -24 -2 -28
-8z m32 -36 c-3 -3 -12 -4 -19 -1 -8 3 -5 6 6 6 11 1 17 -2 13 -5z"/>
<path d="M3167 2414 c-24 -24 9 -72 40 -59 16 7 15 9 -7 15 -25 8 -25 8 -2 9
17 1 22 6 20 19 -3 17 -38 29 -51 16z"/>
<path d="M4533 2345 c0 -27 2 -38 4 -22 2 15 2 37 0 50 -2 12 -4 0 -4 -28z"/>
<path d="M6023 2350 c0 -25 2 -35 4 -22 2 12 2 32 0 45 -2 12 -4 2 -4 -23z"/>
<path d="M6291 2374 c0 -11 3 -14 6 -6 3 7 2 16 -1 19 -3 4 -6 -2 -5 -13z"/>
<path d="M2742 2360 c0 -14 2 -19 5 -12 2 6 2 18 0 25 -3 6 -5 1 -5 -13z"/>
<path d="M6291 2304 c0 -11 3 -14 6 -6 3 7 2 16 -1 19 -3 4 -6 -2 -5 -13z"/>
<path d="M2741 2284 c0 -11 3 -14 6 -6 3 7 2 16 -1 19 -3 4 -6 -2 -5 -13z"/>
<path d="M6292 2230 c0 -14 2 -19 5 -12 2 6 2 18 0 25 -3 6 -5 1 -5 -13z"/>
<path d="M4533 2205 c0 -22 2 -30 4 -17 2 12 2 30 0 40 -3 9 -5 -1 -4 -23z"/>
<path d="M6023 2205 c0 -22 2 -30 4 -17 2 12 2 30 0 40 -3 9 -5 -1 -4 -23z"/>
<path d="M2395 2220 l-340 -5 -3 -502 -2 -503 650 0 650 0 -2 503 -3 502 -305
5 c-168 3 -458 3 -645 0z m935 -505 l0 -485 -635 0 -635 0 0 485 0 485 635 0
635 0 0 -485z"/>
<path d="M2151 2093 c1 -27 4 -38 6 -25 5 27 11 28 40 0 13 -12 23 -16 23 -10
0 6 -5 14 -10 17 -8 5 -7 11 1 21 18 22 3 44 -31 44 -29 0 -30 -1 -29 -47z
m54 28 c3 -5 1 -13 -5 -16 -15 -9 -43 3 -35 15 8 13 32 13 40 1z"/>
<path d="M2300 2095 c0 -25 5 -45 10 -45 6 0 10 20 10 45 0 25 -4 45 -10 45
-5 0 -10 -20 -10 -45z"/>
<path d="M2697 2133 c-11 -10 -8 -83 2 -83 5 0 12 12 14 28 l4 27 2 -27 c2
-37 21 -36 21 1 0 18 -7 32 -17 36 -17 7 -16 8 2 15 20 8 20 9 -1 9 -11 1 -24
-2 -27 -6z"/>
<path d="M3030 2095 c0 -25 5 -45 10 -45 6 0 10 11 10 25 0 14 5 25 10 25 6 0
10 -11 10 -25 0 -14 5 -25 10 -25 15 0 12 46 -3 59 -8 6 -17 8 -20 4 -4 -3 -7
1 -7 10 0 10 -4 17 -10 17 -5 0 -10 -20 -10 -45z"/>
<path d="M2343 2113 c-16 -6 -17 -45 -2 -60 12 -12 39 -7 39 8 0 4 -6 6 -14 3
-8 -3 -17 -1 -21 5 -4 7 4 11 20 11 23 0 24 2 15 20 -11 20 -16 22 -37 13z"/>
<path d="M2403 2104 c-4 -11 1 -22 12 -30 18 -14 18 -14 0 -14 -14 0 -16 -3
-7 -12 8 -8 15 -8 27 2 21 17 19 29 -7 40 -19 7 -19 9 -5 9 10 1 15 6 12 11
-9 15 -25 12 -32 -6z"/>
<path d="M2502 2108 c-7 -7 -12 -20 -12 -30 0 -22 33 -41 47 -27 7 7 17 8 29
1 28 -14 44 -4 44 28 0 32 -25 47 -47 29 -10 -9 -17 -9 -25 -1 -15 15 -21 15
-36 0z m38 -18 c13 -9 13 -11 0 -20 -22 -15 -30 -12 -30 10 0 22 8 25 30 10z
m55 -10 c0 -7 -6 -15 -12 -17 -8 -3 -13 4 -13 17 0 13 5 20 13 18 6 -3 12 -11
12 -18z"/>
<path d="M2638 2112 c-19 -4 -26 -62 -8 -62 6 0 10 12 10 26 0 32 22 27 31 -7
l7 -24 1 26 c1 30 -16 47 -41 41z"/>
<path d="M2761 2107 c-18 -18 -12 -47 12 -57 l22 -9 -23 0 c-27 -1 -20 -21 8
-21 20 0 30 19 30 60 0 30 -30 46 -49 27z m29 -27 c0 -11 -4 -20 -9 -20 -14 0
-23 18 -16 30 10 17 25 11 25 -10z"/>
<path d="M2903 2113 c-7 -3 -12 -19 -12 -36 1 -22 3 -25 6 -12 3 11 10 26 16
33 12 15 7 21 -10 15z"/>
<path d="M2943 2113 c-7 -2 -13 -17 -13 -33 0 -28 14 -41 38 -33 6 3 12 9 12
14 0 4 -6 6 -14 3 -8 -3 -17 -1 -21 5 -4 7 4 11 20 11 23 0 24 2 15 20 -11 20
-16 22 -37 13z"/>
<path d="M3113 2113 c-16 -6 -17 -45 -1 -61 7 -7 17 -8 30 -1 21 11 24 39 6
57 -13 13 -16 13 -35 5z m27 -33 c0 -11 -4 -20 -9 -20 -14 0 -23 18 -16 30 10
17 25 11 25 -10z"/>
<path d="M3192 2097 c-9 -18 -11 -19 -11 -4 -1 9 -5 17 -10 17 -6 0 -6 -12 -1
-31 12 -42 20 -48 27 -21 5 21 6 21 18 5 13 -17 14 -16 24 10 15 38 13 46 -4
23 -13 -17 -15 -17 -15 -4 0 27 -16 29 -28 5z"/>
<path d="M2230 2101 c0 -5 4 -21 9 -35 15 -37 51 -24 50 18 -1 28 -2 29 -8 7
-9 -34 -31 -39 -31 -7 0 14 -4 26 -10 26 -5 0 -10 -4 -10 -9z"/>
<path d="M2821 2084 c-1 -32 16 -48 36 -36 16 11 25 50 13 57 -6 4 -10 -4 -10
-20 0 -33 -22 -29 -31 6 -6 22 -7 21 -8 -7z"/>
<path d="M2722 1948 c2 -23 8 -43 13 -45 8 -2 11 30 6 80 -1 4 -6 7 -12 7 -6
0 -9 -17 -7 -42z"/>
<path d="M2391 1932 c1 -36 2 -36 8 -7 8 37 25 36 30 -2 l4 -28 6 30 c8 38 24
38 33 -1 6 -28 6 -27 5 6 -2 34 -3 35 -44 37 l-43 3 1 -38z"/>
<path d="M2494 1958 c-5 -8 -2 -9 9 -5 9 3 19 2 22 -3 4 -6 -3 -10 -14 -10
-14 0 -21 -6 -21 -20 0 -15 7 -20 25 -20 22 0 25 4 25 35 0 28 -4 35 -19 35
-11 0 -23 -5 -27 -12z m36 -32 c0 -11 -19 -15 -25 -6 -3 5 1 10 9 10 9 0 16
-2 16 -4z"/>
<path d="M2561 1933 c1 -37 2 -37 8 -8 3 17 11 30 16 30 5 0 13 -13 16 -30 6
-29 7 -29 8 8 1 33 -2 37 -24 37 -22 0 -25 -4 -24 -37z"/>
<path d="M2632 1940 c5 -17 7 -37 4 -46 -4 -9 -1 -14 6 -12 6 2 17 21 25 43
14 42 9 62 -6 24 l-10 -24 -7 23 c-3 12 -10 22 -15 22 -4 0 -3 -14 3 -30z"/>
<path d="M2763 1935 c0 -22 2 -30 4 -17 2 12 2 30 0 40 -3 9 -5 -1 -4 -23z"/>
<path d="M2780 1935 c0 -19 5 -35 10 -35 6 0 10 11 10 25 0 34 20 32 21 -2 1
-28 1 -28 8 -4 9 35 29 37 34 4 3 -24 4 -23 6 8 l1 36 -45 1 c-45 1 -45 1 -45
-33z"/>
<path d="M2890 1956 c-24 -30 18 -74 43 -46 10 10 8 12 -5 7 -10 -3 -20 -2
-23 3 -4 6 3 10 15 10 15 0 20 5 18 17 -4 23 -31 28 -48 9z"/>
<path d="M2954 1958 c-4 -6 0 -16 9 -23 22 -16 22 -26 0 -18 -14 5 -16 3 -6
-7 6 -7 19 -10 27 -7 20 8 21 37 1 37 -8 0 -15 4 -15 10 0 5 7 6 17 3 11 -4
14 -3 9 5 -9 15 -33 15 -42 0z"/>
<path d="M2567 1843 c-11 -10 -8 -83 3 -83 6 0 10 20 10 45 0 46 -2 50 -13 38z"/>
<path d="M2660 1835 c0 -8 -9 -15 -21 -15 -17 0 -20 -5 -17 -32 2 -26 8 -33
26 -34 20 -1 22 3 22 47 0 27 -2 49 -5 49 -3 0 -5 -7 -5 -15z m-2 -48 c2 -10
-3 -17 -12 -17 -10 0 -16 9 -16 21 0 24 23 21 28 -4z"/>
<path d="M2757 1834 c-7 -7 2 -65 12 -77 4 -4 7 11 6 33 -1 40 -7 55 -18 44z"/>
<path d="M2331 1783 c1 -28 3 -31 6 -13 3 14 10 31 15 38 8 9 6 12 -6 12 -12
0 -16 -9 -15 -37z"/>
<path d="M2366 1804 c-8 -20 10 -54 29 -54 24 0 26 18 3 23 l-23 4 23 2 c32 2
31 41 -2 41 -13 0 -27 -7 -30 -16z m41 0 c-3 -3 -12 -4 -19 -1 -8 3 -5 6 6 6
11 1 17 -2 13 -5z"/>
<path d="M2430 1819 c-1 -17 23 -68 30 -64 13 8 30 65 19 65 -5 0 -9 -7 -9
-15 0 -20 -10 -19 -26 3 -7 9 -14 14 -14 11z"/>
<path d="M2500 1810 c0 -5 8 -7 18 -4 12 4 10 0 -6 -13 -19 -16 -21 -21 -10
-30 27 -22 48 -12 48 24 0 29 -3 33 -25 33 -14 0 -25 -4 -25 -10z"/>
<path d="M2590 1784 c0 -21 4 -33 10 -29 6 3 10 19 10 36 0 16 -4 29 -10 29
-5 0 -10 -16 -10 -36z"/>
<path d="M2690 1810 c0 -5 8 -7 18 -4 15 5 15 4 -2 -10 -23 -18 -15 -45 13
-43 17 1 21 8 21 34 0 29 -3 33 -25 33 -14 0 -25 -4 -25 -10z"/>
<path d="M2790 1783 c1 -33 2 -36 13 -21 12 15 14 15 23 0 16 -25 44 -8 44 28
0 25 -4 30 -24 30 -13 0 -27 -6 -29 -12 -4 -10 -6 -10 -6 0 -1 6 -5 12 -11 12
-5 0 -10 -17 -10 -37z m70 7 c0 -11 -7 -20 -15 -20 -8 0 -15 9 -15 20 0 11 7
20 15 20 8 0 15 -9 15 -20z"/>
<path d="M2891 1783 c1 -37 2 -37 8 -8 3 17 11 30 16 30 5 0 13 -13 16 -30 6
-29 7 -29 8 8 1 33 -2 37 -24 37 -22 0 -25 -4 -24 -37z"/>
<path d="M2993 1785 c0 -22 2 -30 4 -17 2 12 2 30 0 40 -3 9 -5 -1 -4 -23z"/>
<path d="M3015 1811 c-3 -5 5 -17 17 -25 l22 -16 -24 0 c-22 -1 -23 -2 -7 -11
13 -8 22 -7 34 2 13 12 12 15 -8 33 -16 13 -18 17 -6 13 9 -4 17 -2 17 3 0 13
-37 13 -45 1z"/>
<path d="M2278 1688 c-7 -16 2 -78 11 -78 7 0 7 78 -1 85 -3 3 -8 0 -10 -7z"/>
<path d="M2730 1692 c0 -4 -10 -12 -22 -17 -15 -7 -23 -19 -23 -35 0 -20 6
-26 28 -28 26 -3 27 -2 27 42 0 25 -2 46 -5 46 -3 0 -5 -3 -5 -8z m-4 -43 c10
-17 -13 -36 -27 -22 -12 12 -4 33 11 33 5 0 12 -5 16 -11z"/>
<path d="M2970 1692 c0 -4 -10 -12 -22 -17 -15 -7 -23 -19 -23 -35 0 -20 6
-26 28 -28 26 -3 27 -2 27 42 0 25 -2 46 -5 46 -3 0 -5 -3 -5 -8z m-10 -52 c0
-11 -4 -20 -9 -20 -14 0 -23 18 -16 30 10 17 25 11 25 -10z"/>
<path d="M3028 1688 c-7 -16 2 -78 11 -78 7 0 7 78 -1 85 -3 3 -8 0 -10 -7z"/>
<path d="M3061 1655 c1 -36 3 -43 8 -26 9 35 29 37 34 4 4 -27 4 -26 6 5 1 23
-4 35 -16 39 -10 4 -21 11 -25 17 -4 6 -7 -11 -7 -39z"/>
<path d="M2310 1650 c0 -22 5 -40 10 -40 6 0 10 18 10 40 0 22 -4 40 -10 40
-5 0 -10 -18 -10 -40z"/>
<path d="M2582 1653 c2 -20 8 -38 13 -40 7 -2 9 12 7 37 -2 22 -8 40 -14 40
-5 0 -8 -17 -6 -37z"/>
<path d="M2215 1671 c-3 -6 2 -11 12 -11 15 0 14 -2 -5 -16 -27 -18 -20 -34
14 -34 22 0 25 4 22 32 -3 33 -29 50 -43 29z"/>
<path d="M2350 1665 c-17 -21 -8 -50 18 -53 12 -2 22 1 22 7 0 6 -7 8 -15 5
-8 -4 -15 -1 -15 5 0 6 9 11 20 11 23 0 26 10 8 28 -16 16 -23 15 -38 -3z"/>
<path d="M2410 1643 c0 -18 5 -33 10 -33 6 0 10 11 10 25 0 34 20 32 21 -2 1
-28 1 -28 8 -4 9 35 29 37 34 4 4 -22 5 -20 3 7 -1 34 -2 35 -43 36 -42 0 -43
0 -43 -33z"/>
<path d="M2528 1673 c-13 -3 -18 -15 -18 -43 0 -21 5 -42 10 -45 6 -3 10 0 10
8 0 8 9 17 21 20 16 4 20 12 17 33 -3 29 -12 34 -40 27z m30 -30 c-5 -25 -28
-28 -28 -4 0 12 6 21 16 21 9 0 14 -7 12 -17z"/>
<path d="M2621 1666 c-19 -23 -4 -56 25 -56 13 0 24 4 24 9 0 5 -9 7 -20 4
-11 -3 -20 0 -20 6 0 6 9 11 21 11 14 0 19 5 17 17 -4 23 -31 28 -47 9z"/>
<path d="M2795 1671 c-3 -6 2 -11 12 -11 15 0 14 -2 -5 -16 -27 -18 -20 -34
14 -34 22 0 25 4 22 32 -3 33 -29 50 -43 29z"/>
<path d="M2855 1672 c-9 -10 -5 -62 5 -62 6 0 10 12 10 26 0 32 22 27 32 -7 5
-19 6 -17 5 11 -2 29 -6 35 -24 36 -12 1 -25 -1 -28 -4z"/>
<path d="M3131 1661 c-6 -11 -8 -27 -5 -35 7 -17 54 -22 54 -6 0 5 -6 7 -14 4
-8 -3 -17 -1 -21 5 -3 7 3 11 15 11 15 0 20 5 18 17 -5 25 -35 28 -47 4z m36
-7 c-3 -3 -12 -4 -19 -1 -8 3 -5 6 6 6 11 1 17 -2 13 -5z"/>
<path d="M3152 1510 c0 -40 2 -47 7 -26 3 17 11 30 16 30 6 0 13 -13 16 -30 6
-28 7 -27 8 9 1 30 -2 37 -18 37 -11 0 -22 8 -24 18 -3 9 -5 -8 -5 -38z"/>
<path d="M2188 1538 c-7 -18 2 -78 12 -78 8 0 6 77 -2 86 -3 3 -8 -1 -10 -8z"/>
<path d="M2450 1504 c0 -44 1 -45 28 -42 21 2 28 9 30 31 3 22 -1 30 -17 34
-12 3 -21 9 -21 14 0 5 -4 9 -10 9 -5 0 -10 -21 -10 -46z m50 -3 c0 -14 -18
-23 -30 -16 -6 4 -8 11 -5 16 8 12 35 12 35 0z"/>
<path d="M2589 1538 c-3 -28 3 -64 12 -72 5 -6 9 3 10 25 l1 34 10 -30 c14
-41 16 -41 33 -19 13 17 14 17 15 2 0 -10 4 -18 9 -18 11 0 26 59 17 67 -3 4
-6 -1 -6 -10 0 -9 -4 -17 -10 -17 -5 0 -10 7 -10 15 0 24 -20 17 -21 -7 0 -23
-1 -23 -10 -3 -14 28 -49 50 -50 33z"/>
<path d="M2220 1495 c0 -22 4 -34 10 -30 6 3 10 17 10 30 0 13 -4 27 -10 30
-6 4 -10 -8 -10 -30z"/>
<path d="M2251 1492 c1 -36 2 -36 8 -7 3 17 11 30 16 30 5 0 13 -13 16 -30 7
-30 7 -30 8 -3 1 34 21 48 21 14 0 -14 5 -28 11 -31 7 -5 9 5 7 26 -3 32 -5
34 -45 36 l-43 3 1 -38z"/>
<path d="M2354 1516 c-10 -26 1 -51 24 -54 12 -2 22 2 22 8 0 7 -7 10 -15 7
-8 -4 -17 -2 -20 3 -4 6 5 10 19 10 28 0 33 9 14 28 -16 16 -37 15 -44 -2z"/>
<path d="M2524 1516 c-10 -26 1 -51 24 -54 12 -2 22 2 22 8 0 7 -7 10 -15 7
-8 -4 -17 -2 -20 3 -4 6 5 10 19 10 28 0 33 9 14 28 -16 16 -37 15 -44 -2z"/>
<path d="M2714 1516 c-10 -26 1 -51 24 -54 29 -4 29 15 0 21 -19 4 -18 5 6 6
21 1 27 5 22 17 -3 9 -6 18 -6 20 0 11 -41 2 -46 -10z"/>
<path d="M2784 1516 c-10 -26 1 -51 24 -54 12 -2 22 2 22 8 0 7 -7 10 -15 7
-8 -4 -17 -2 -20 3 -4 6 2 10 13 10 26 0 34 11 21 27 -15 17 -38 17 -45 -1z"/>
<path d="M2851 1493 c1 -37 2 -37 8 -8 3 17 11 30 16 30 5 0 13 -13 16 -30 6
-29 7 -29 8 8 1 33 -2 37 -24 37 -22 0 -25 -4 -24 -37z"/>
<path d="M2954 1516 c-10 -26 1 -51 24 -54 12 -2 22 2 22 8 0 7 -7 10 -15 7
-8 -4 -17 -2 -20 3 -4 6 5 10 19 10 28 0 33 9 14 28 -16 16 -37 15 -44 -2z"/>
<path d="M3024 1518 c-5 -8 -2 -9 9 -5 10 3 17 2 17 -3 0 -6 -7 -10 -15 -10
-8 0 -15 -9 -15 -20 0 -15 7 -20 25 -20 22 0 25 4 25 35 0 28 -4 35 -19 35
-11 0 -23 -5 -27 -12z m36 -32 c0 -11 -19 -15 -25 -6 -3 5 1 10 9 10 9 0 16
-2 16 -4z"/>
<path d="M3091 1512 c-7 -14 -7 -24 3 -37 14 -19 46 -15 46 6 0 9 -4 9 -14 0
-17 -15 -31 2 -22 26 5 13 9 13 23 2 14 -12 16 -12 11 1 -7 23 -35 24 -47 2z"/>
<path d="M2567 1393 c-8 -13 4 -83 14 -83 5 0 6 14 3 30 -4 19 -2 30 5 30 6 0
11 -11 11 -24 0 -14 4 -27 8 -30 5 -3 7 14 6 37 -2 54 -2 55 -14 37 -8 -12
-11 -13 -19 -1 -5 7 -11 9 -14 4z"/>
<path d="M2870 1361 c0 -50 16 -62 22 -17 4 39 0 56 -13 56 -5 0 -9 -18 -9
-39z"/>
<path d="M2500 1370 c0 -5 8 -7 18 -4 12 4 10 0 -6 -13 -19 -16 -21 -21 -10
-30 27 -22 48 -12 48 24 0 29 -3 33 -25 33 -14 0 -25 -4 -25 -10z"/>
<path d="M2637 1374 c-25 -25 10 -73 40 -55 16 9 15 10 -7 11 l-25 1 23 10
c13 5 22 15 20 21 -5 15 -40 23 -51 12z"/>
<path d="M2700 1350 c0 -16 5 -30 10 -30 6 0 10 11 10 25 0 37 20 30 21 -7 l1
-33 7 30 c8 38 24 38 32 -1 6 -28 7 -27 8 9 l1 37 -45 0 c-43 0 -45 -1 -45
-30z"/>
<path d="M2800 1336 c0 -25 5 -46 10 -46 6 0 10 4 10 9 0 5 9 13 21 16 32 11
22 59 -13 63 -27 3 -28 2 -28 -42z m45 14 c0 -7 -6 -15 -12 -17 -8 -3 -13 4
-13 17 0 13 5 20 13 18 6 -3 12 -11 12 -18z"/>
<path d="M3934 2139 c-5 -8 -2 -10 8 -6 21 8 30 -3 17 -20 -9 -9 -8 -13 0 -13
6 0 11 -7 11 -16 0 -11 -6 -15 -20 -11 -11 3 -18 1 -14 -4 6 -11 41 -12 48 -1
2 4 1 23 -3 42 -7 36 -33 51 -47 29z"/>
<path d="M4572 2108 c-2 -46 -1 -48 26 -47 22 1 23 2 5 6 -18 3 -23 13 -26 46
l-4 42 -1 -47z"/>
<path d="M4732 2105 c0 -35 2 -44 8 -30 7 18 8 19 15 3 4 -10 11 -18 16 -18 6
0 5 9 -1 20 -6 11 -8 26 -4 33 6 8 3 8 -8 -1 -14 -12 -17 -10 -21 15 -2 16 -4
6 -5 -22z"/>
<path d="M4963 2105 c0 -27 2 -38 4 -22 2 15 2 37 0 50 -2 12 -4 0 -4 -28z"/>
<path d="M5301 2144 c-1 -19 29 -84 38 -84 5 0 16 20 24 45 19 55 12 60 -10 8
l-16 -38 -18 40 c-9 22 -18 35 -18 29z"/>
<path d="M5450 2106 c0 -25 5 -46 10 -46 6 0 10 18 10 39 0 22 -4 43 -10 46
-6 4 -10 -12 -10 -39z"/>
<path d="M5550 2135 c0 -8 -9 -15 -19 -15 -10 0 -21 -7 -25 -15 -9 -25 4 -45
30 -45 22 0 24 4 24 45 0 25 -2 45 -5 45 -3 0 -5 -7 -5 -15z m-2 -42 c-5 -25
-28 -28 -28 -4 0 12 6 21 16 21 9 0 14 -7 12 -17z"/>
<path d="M5752 2105 c0 -42 1 -45 8 -20 l7 30 7 -27 c11 -37 23 -35 32 5 l8
32 7 -35 c6 -32 6 -31 7 15 1 46 0 48 -13 31 -8 -11 -15 -26 -15 -33 0 -7 -4
-13 -10 -13 -5 0 -10 6 -10 13 0 7 -7 22 -15 33 -13 17 -14 15 -13 -31z"/>
<path d="M6321 2103 c1 -27 4 -38 6 -25 2 12 9 22 15 22 5 0 18 -10 29 -22 10
-13 18 -18 19 -11 0 6 -5 15 -10 18 -8 5 -7 11 1 21 18 22 3 44 -31 44 -29 0
-30 -1 -29 -47z m50 22 c0 -5 -9 -11 -21 -13 -20 -3 -27 8 -13 22 10 9 34 3
34 -9z"/>
<path d="M4360 2106 c0 -19 5 -38 10 -41 6 -4 10 10 10 34 0 23 -4 41 -10 41
-5 0 -10 -15 -10 -34z"/>
<path d="M5270 2102 c0 -23 3 -42 8 -42 9 0 9 66 -1 76 -4 4 -7 -11 -7 -34z"/>
<path d="M5646 2130 c-3 -8 -2 -28 2 -45 l9 -30 5 32 c5 36 -7 68 -16 43z"/>
<path d="M6287 2133 c-6 -11 4 -73 12 -73 7 0 6 69 -2 76 -3 3 -7 2 -10 -3z"/>
<path d="M6740 2107 c0 -20 4 -38 8 -41 11 -6 9 60 -1 70 -4 4 -7 -9 -7 -29z"/>
<path d="M4072 2090 c0 -19 2 -27 5 -17 2 9 2 25 0 35 -3 9 -5 1 -5 -18z"/>
<path d="M4101 2088 c2 -31 2 -31 6 -5 5 33 24 31 35 -4 6 -22 7 -21 5 6 -2
23 -7 31 -24 33 -20 3 -23 -1 -22 -30z"/>
<path d="M4165 2098 c8 -26 22 -44 29 -37 2 2 7 18 10 34 6 29 6 29 -5 5 l-11
-25 -9 23 c-4 12 -11 22 -14 22 -4 0 -3 -10 0 -22z"/>
<path d="M4224 2106 c-10 -25 3 -46 28 -45 17 1 18 2 6 6 -25 6 -22 23 3 23
27 0 19 24 -9 28 -13 2 -25 -3 -28 -12z"/>
<path d="M4290 2090 c0 -18 4 -29 10 -25 6 3 10 15 10 26 0 28 23 19 32 -12 6
-22 7 -21 5 6 -2 25 -7 31 -29 33 -25 3 -28 0 -28 -28z"/>
<path d="M4397 2106 c-10 -26 4 -47 27 -44 15 2 21 10 21 28 0 29 -38 41 -48
16z m43 -16 c0 -11 -7 -20 -15 -20 -8 0 -15 9 -15 20 0 11 7 20 15 20 8 0 15
-9 15 -20z"/>
<path d="M4460 2090 c0 -16 4 -30 9 -30 5 0 11 14 13 30 3 20 0 30 -9 30 -8 0
-13 -12 -13 -30z"/>
<path d="M4511 2094 c5 -15 7 -35 4 -45 -4 -11 -4 -19 0 -19 8 0 35 65 34 82
0 7 -5 2 -11 -12 l-10 -25 -9 23 c-4 12 -11 22 -13 22 -3 0 -1 -12 5 -26z"/>
<path d="M4630 2090 c0 -16 5 -30 10 -30 6 0 10 14 10 30 0 17 -4 30 -10 30
-5 0 -10 -13 -10 -30z"/>
<path d="M4661 2088 c1 -30 2 -30 8 -9 9 35 29 37 34 4 4 -27 4 -27 6 5 1 28
-2 32 -24 32 -22 0 -25 -4 -24 -32z"/>
<path d="M4792 2090 c0 -19 2 -27 5 -17 2 9 2 25 0 35 -3 9 -5 1 -5 -18z"/>
<path d="M4821 2088 c2 -31 2 -31 6 -5 2 15 10 27 18 27 8 0 16 -12 18 -27 4
-26 4 -26 6 5 1 28 -2 32 -24 32 -22 0 -25 -4 -24 -32z"/>
<path d="M4884 2105 c-9 -23 3 -45 26 -45 13 0 18 -4 15 -11 -4 -6 -13 -8 -21
-5 -8 3 -14 1 -14 -4 0 -16 37 -11 44 6 3 9 6 29 6 45 0 24 -4 29 -25 29 -14
0 -28 -7 -31 -15z m42 -6 c10 -17 -13 -36 -27 -22 -12 12 -4 33 11 33 5 0 12
-5 16 -11z"/>
<path d="M4991 2088 c2 -30 2 -31 6 -5 2 15 10 27 18 27 8 0 16 -12 18 -27 l4
-28 2 28 c1 34 28 36 34 2 4 -23 4 -23 3 2 -1 25 -5 28 -43 31 -43 3 -43 3
-42 -30z"/>
<path d="M5091 2073 c1 -27 3 -40 6 -30 2 9 13 17 23 17 20 0 36 33 25 50 -3
5 -17 10 -31 10 -22 0 -24 -3 -23 -47z m45 26 c10 -17 -13 -36 -27 -22 -12 12
-4 33 11 33 5 0 12 -5 16 -11z"/>
<path d="M5164 2105 c-9 -23 3 -45 25 -45 10 0 21 7 25 15 8 23 -4 45 -25 45
-11 0 -22 -7 -25 -15z m36 -15 c0 -11 -7 -20 -15 -20 -8 0 -15 9 -15 20 0 11
7 20 15 20 8 0 15 -9 15 -20z"/>
<path d="M5231 2088 c2 -28 2 -29 6 -8 3 14 10 28 17 32 7 5 5 8 -6 8 -14 0
-18 -8 -17 -32z"/>
<path d="M5400 2112 c18 -8 26 -42 10 -42 -6 0 -8 5 -4 11 4 7 1 10 -6 7 -28
-9 -21 -28 10 -28 28 0 31 3 28 28 -2 21 -9 28 -28 29 -16 2 -20 0 -10 -5z"/>
<path d="M5482 2090 c0 -19 2 -27 5 -17 2 9 2 25 0 35 -3 9 -5 1 -5 -18z"/>
<path d="M5590 2112 c18 -8 26 -42 10 -42 -6 0 -8 5 -4 11 4 7 2 10 -5 8 -23
-8 -16 -24 12 -27 26 -3 28 -1 25 25 -2 22 -9 29 -28 30 -16 2 -20 0 -10 -5z"/>
<path d="M5680 2091 c0 -27 3 -31 28 -30 23 2 24 2 5 6 -29 6 -30 23 -2 23 27
0 19 24 -9 28 -19 3 -22 -1 -22 -27z m37 13 c-3 -3 -12 -4 -19 -1 -8 3 -5 6 6
6 11 1 17 -2 13 -5z"/>
<path d="M5850 2090 c0 -25 4 -30 25 -30 21 0 25 5 25 30 0 25 -4 30 -25 30
-21 0 -25 -5 -25 -30z m40 0 c0 -11 -7 -20 -15 -20 -8 0 -15 9 -15 20 0 11 7
20 15 20 8 0 15 -9 15 -20z"/>
<path d="M5921 2090 c14 -38 24 -38 38 0 6 18 6 28 1 25 -6 -4 -10 -13 -10
-21 0 -8 -4 -14 -10 -14 -5 0 -10 9 -10 20 0 11 -4 20 -9 20 -6 0 -6 -12 0
-30z"/>
<path d="M5978 2103 c-8 -30 2 -43 30 -42 24 2 24 2 5 6 -29 6 -30 23 -2 23
26 0 20 24 -8 28 -13 2 -22 -4 -25 -15z m39 1 c-3 -3 -12 -4 -19 -1 -8 3 -5 6
6 6 11 1 17 -2 13 -5z"/>
<path d="M6051 2087 c2 -30 2 -31 6 -4 5 34 23 36 23 2 0 -14 5 -25 10 -25 6
0 10 11 10 25 0 34 18 32 23 -2 4 -27 4 -27 6 3 1 30 -1 32 -39 32 -39 1 -40
0 -39 -31z"/>
<path d="M6150 2091 c0 -27 3 -31 28 -30 23 2 24 2 5 6 -29 6 -30 23 -2 23 27
0 19 24 -9 28 -19 3 -22 -1 -22 -27z m37 13 c-3 -3 -12 -4 -19 -1 -8 3 -5 6 6
6 11 1 17 -2 13 -5z"/>
<path d="M6221 2088 c2 -30 2 -31 6 -5 5 34 30 36 36 2 4 -23 4 -23 3 2 -1 21
-7 29 -23 31 -20 3 -23 -1 -22 -30z"/>
<path d="M6407 2106 c-11 -27 3 -46 32 -45 23 2 24 2 4 6 -29 6 -30 23 -2 23
26 0 20 24 -8 28 -11 2 -23 -4 -26 -12z m40 -2 c-3 -3 -12 -4 -19 -1 -8 3 -5
6 6 6 11 1 17 -2 13 -5z"/>
<path d="M6474 2105 c-9 -23 3 -45 25 -45 11 0 22 -8 24 -17 3 -10 5 3 6 30 1
44 -1 47 -24 47 -14 0 -28 -7 -31 -15z m42 -6 c10 -17 -13 -36 -27 -22 -12 12
-4 33 11 33 5 0 12 -5 16 -11z"/>
<path d="M6540 2106 c0 -30 13 -46 36 -46 21 0 24 5 23 33 -1 29 -2 29 -8 8
-9 -34 -31 -39 -31 -7 0 14 -4 26 -10 26 -5 0 -10 -6 -10 -14z"/>
<path d="M6614 2105 c-10 -24 4 -45 28 -44 l23 2 -22 4 c-28 5 -30 23 -3 23
11 0 20 7 20 15 0 8 -9 15 -20 15 -11 0 -23 -7 -26 -15z m33 -1 c-3 -3 -12 -4
-19 -1 -8 3 -5 6 6 6 11 1 17 -2 13 -5z"/>
<path d="M6680 2106 c0 -8 8 -17 18 -21 16 -7 15 -8 -3 -16 -18 -8 -18 -8 4
-6 32 3 38 23 9 33 -22 7 -22 7 -3 15 19 7 19 8 -2 8 -13 1 -23 -5 -23 -13z"/>
<path d="M4553 1959 c-20 -7 -23 -15 -21 -56 l1 -48 4 44 c4 39 6 43 28 39 15
-3 22 0 21 8 -3 20 -9 22 -33 13z"/>
<path d="M6291 1934 c0 -11 3 -14 6 -6 3 7 2 16 -1 19 -3 4 -6 -2 -5 -13z"/>
<path d="M6023 1900 c0 -25 2 -35 4 -22 2 12 2 32 0 45 -2 12 -4 2 -4 -23z"/>
<path d="M3822 1818 c-7 -9 -10 -23 -6 -32 3 -9 1 -16 -6 -16 -6 0 -8 5 -4 12
4 7 3 8 -4 4 -14 -9 -16 -36 -3 -36 5 0 16 -3 24 -6 18 -7 24 12 17 55 -4 29
-7 32 -18 19z"/>
<path d="M4432 1788 c-2 -46 -1 -48 26 -47 22 1 23 2 5 6 -18 3 -23 13 -26 46
l-4 42 -1 -47z"/>
<path d="M4592 1785 c0 -35 2 -44 8 -30 7 18 8 19 15 3 4 -10 12 -18 17 -18 6
0 5 6 -2 15 -7 8 -9 22 -6 31 5 14 4 15 -8 5 -12 -10 -15 -7 -19 16 -2 16 -4
6 -5 -22z"/>
<path d="M4823 1785 c0 -27 2 -38 4 -22 2 15 2 37 0 50 -2 12 -4 0 -4 -28z"/>
<path d="M5161 1824 c-1 -19 29 -84 38 -84 5 0 16 20 24 45 19 55 12 60 -10 8
l-16 -38 -18 40 c-9 22 -18 35 -18 29z"/>
<path d="M5313 1785 c0 -27 2 -38 4 -22 2 15 2 37 0 50 -2 12 -4 0 -4 -28z"/>
<path d="M5410 1815 c0 -8 -9 -15 -19 -15 -10 0 -21 -7 -25 -15 -9 -25 4 -45
30 -45 22 0 24 4 24 45 0 25 -2 45 -5 45 -3 0 -5 -7 -5 -15z m-5 -45 c0 -7 -6
-15 -12 -17 -8 -3 -13 4 -13 17 0 13 5 20 13 18 6 -3 12 -11 12 -18z"/>
<path d="M5612 1785 c0 -41 2 -45 7 -20 l7 30 7 -27 c10 -37 24 -35 33 5 l8
32 7 -35 c6 -32 6 -31 7 15 1 46 0 48 -13 31 -8 -11 -15 -26 -15 -33 0 -7 -4
-13 -10 -13 -5 0 -10 6 -10 13 0 7 -7 22 -15 33 -13 17 -14 15 -13 -31z"/>
<path d="M6181 1783 c1 -27 4 -38 6 -25 2 12 10 22 17 22 8 0 21 -10 29 -22 9
-13 16 -18 16 -11 1 6 -4 15 -9 18 -8 5 -7 11 1 21 18 22 3 44 -31 44 -29 0
-30 -1 -29 -47z m50 22 c0 -5 -9 -11 -21 -13 -20 -3 -27 8 -13 22 10 9 34 3
34 -9z"/>
<path d="M4220 1786 c0 -19 5 -38 10 -41 6 -4 10 10 10 34 0 23 -4 41 -10 41
-5 0 -10 -15 -10 -34z"/>
<path d="M5130 1812 c0 -7 -9 -12 -20 -12 -16 0 -20 -6 -19 -32 2 -31 2 -31 6
-5 5 34 33 36 33 2 0 -14 3 -25 8 -25 9 0 9 66 -1 76 -4 4 -7 2 -7 -4z"/>
<path d="M5502 1783 c4 -45 24 -55 21 -11 -2 48 -2 48 -14 48 -6 0 -9 -16 -7
-37z"/>
<path d="M6147 1813 c-6 -11 4 -73 12 -73 7 0 6 69 -2 76 -3 3 -7 2 -10 -3z"/>
<path d="M3932 1770 c0 -19 2 -27 5 -17 2 9 2 25 0 35 -3 9 -5 1 -5 -18z"/>
<path d="M3961 1768 c2 -30 2 -31 6 -5 5 34 30 36 36 2 4 -23 4 -23 3 2 -1 21
-7 29 -23 31 -20 3 -23 -1 -22 -30z"/>
<path d="M4025 1779 c8 -26 22 -45 29 -38 2 2 7 18 11 34 l6 30 -15 -25 c-11
-19 -15 -21 -16 -8 0 9 -5 20 -11 24 -8 4 -9 -1 -4 -17z"/>
<path d="M4087 1786 c-11 -27 3 -46 32 -45 23 2 24 2 4 6 -29 6 -30 23 -2 23
26 0 20 24 -8 28 -11 2 -23 -4 -26 -12z"/>
<path d="M4150 1770 c0 -16 5 -30 10 -30 6 0 10 11 10 25 0 14 5 25 10 25 6 0
10 -11 10 -25 0 -14 5 -25 10 -25 6 0 10 6 10 14 0 30 -13 46 -36 46 -20 0
-24 -5 -24 -30z"/>
<path d="M4254 1786 c-10 -26 4 -48 28 -44 17 2 23 10 23 28 0 18 -6 26 -23
28 -13 2 -25 -3 -28 -12z m46 -16 c0 -11 -7 -20 -15 -20 -8 0 -15 9 -15 20 0
11 7 20 15 20 8 0 15 -9 15 -20z"/>
<path d="M4320 1770 c0 -16 5 -30 10 -30 6 0 10 11 10 25 0 15 6 25 14 25 17
0 29 -41 19 -66 -4 -11 -3 -15 5 -11 13 9 36 76 28 84 -3 4 -6 -1 -6 -10 0
-21 -16 -22 -24 -2 -3 8 -17 15 -31 15 -21 0 -25 -5 -25 -30z"/>
<path d="M4490 1770 c0 -16 5 -30 10 -30 6 0 10 14 10 30 0 17 -4 30 -10 30
-5 0 -10 -13 -10 -30z"/>
<path d="M4521 1768 c1 -30 2 -30 8 -9 9 35 29 37 34 4 4 -27 4 -27 6 5 1 28
-2 32 -24 32 -22 0 -25 -4 -24 -32z"/>
<path d="M4652 1770 c0 -19 2 -27 5 -17 2 9 2 25 0 35 -3 9 -5 1 -5 -18z"/>
<path d="M4681 1768 c2 -31 2 -31 6 -5 2 15 10 27 18 27 8 0 16 -12 18 -27 4
-26 4 -26 6 5 1 28 -2 32 -24 32 -22 0 -25 -4 -24 -32z"/>
<path d="M4746 1785 c-8 -23 4 -45 26 -45 11 0 16 -4 13 -11 -4 -6 -13 -8 -21
-5 -8 3 -14 1 -14 -5 0 -6 10 -9 23 -7 18 2 23 10 25 46 3 39 1 42 -21 42 -14
0 -27 -7 -31 -15z m40 -6 c8 -14 -11 -33 -25 -25 -11 7 -4 36 9 36 5 0 12 -5
16 -11z"/>
<path d="M4851 1768 c2 -30 2 -31 6 -5 2 15 10 27 18 27 8 0 16 -12 18 -27 l4
-28 2 28 c1 34 22 32 33 -4 6 -22 7 -21 5 6 -2 28 -5 30 -44 33 -43 3 -43 3
-42 -30z"/>
<path d="M4951 1753 c0 -26 3 -42 6 -35 3 7 16 18 30 23 35 13 28 53 -9 57
-27 3 -28 2 -27 -45z m45 26 c10 -17 -13 -36 -27 -22 -12 12 -4 33 11 33 5 0
12 -5 16 -11z"/>
<path d="M5027 1793 c-4 -3 -7 -17 -7 -30 0 -18 5 -23 25 -23 21 0 25 5 25 30
0 22 -5 30 -18 30 -10 0 -22 -3 -25 -7z m33 -23 c0 -11 -7 -20 -15 -20 -8 0
-15 9 -15 20 0 11 7 20 15 20 8 0 15 -9 15 -20z"/>
<path d="M5265 1790 c19 -9 19 -9 -2 -16 -34 -10 -29 -34 8 -34 27 0 30 3 27
28 -2 21 -9 28 -28 29 -23 2 -23 2 -5 -7z m15 -30 c0 -5 -8 -10 -17 -10 -15 0
-16 2 -3 10 19 12 20 12 20 0z"/>
<path d="M5342 1770 c0 -19 2 -27 5 -17 2 9 2 25 0 35 -3 9 -5 1 -5 -18z"/>
<path d="M5450 1792 c18 -8 26 -42 10 -42 -6 0 -8 5 -4 11 4 7 2 10 -5 8 -23
-8 -16 -24 12 -27 26 -3 28 -1 25 25 -2 22 -9 29 -28 30 -16 2 -20 0 -10 -5z"/>
<path d="M5537 1786 c-11 -27 3 -46 32 -45 23 2 24 2 4 6 -29 6 -30 23 -2 23
26 0 20 24 -8 28 -11 2 -23 -4 -26 -12z m40 -2 c-3 -3 -12 -4 -19 -1 -8 3 -5
6 6 6 11 1 17 -2 13 -5z"/>
<path d="M5707 1786 c-10 -26 3 -46 30 -46 21 0 24 4 21 28 -3 31 -41 44 -51
18z m43 -16 c0 -11 -7 -20 -15 -20 -8 0 -15 9 -15 20 0 11 7 20 15 20 8 0 15
-9 15 -20z"/>
<path d="M5781 1770 c14 -38 24 -38 38 0 6 18 6 30 0 30 -5 0 -9 -9 -9 -20 0
-11 -4 -20 -10 -20 -5 0 -10 6 -10 14 0 8 -4 17 -10 21 -5 3 -5 -7 1 -25z"/>
<path d="M5840 1771 c0 -27 3 -31 28 -30 23 2 24 2 5 6 -29 6 -30 23 -2 23 27
0 19 24 -9 28 -19 3 -22 -1 -22 -27z m37 13 c-3 -3 -12 -4 -19 -1 -8 3 -5 6 6
6 11 1 17 -2 13 -5z"/>
<path d="M5911 1767 c2 -30 2 -31 6 -4 5 34 23 36 23 2 0 -14 5 -25 10 -25 6
0 10 11 10 25 0 34 18 32 23 -2 4 -27 4 -27 6 3 1 30 -1 32 -39 32 -39 1 -40
0 -39 -31z"/>
<path d="M6010 1771 c0 -27 3 -31 28 -30 23 2 24 2 5 6 -29 6 -30 23 -2 23 27
0 19 24 -9 28 -19 3 -22 -1 -22 -27z m37 13 c-3 -3 -12 -4 -19 -1 -8 3 -5 6 6
6 11 1 17 -2 13 -5z"/>
<path d="M6081 1768 c2 -31 2 -31 6 -5 5 33 24 31 35 -4 6 -22 7 -21 5 6 -2
23 -7 31 -24 33 -20 3 -23 -1 -22 -30z"/>
<path d="M6267 1786 c-11 -27 3 -46 32 -45 23 2 24 2 4 6 -29 6 -30 23 -2 23
26 0 20 24 -8 28 -11 2 -23 -4 -26 -12z m40 -2 c-3 -3 -12 -4 -19 -1 -8 3 -5
6 6 6 11 1 17 -2 13 -5z"/>
<path d="M6335 1791 c-3 -5 4 -16 16 -24 19 -14 20 -15 2 -20 -15 -4 -14 -5 5
-6 26 -1 31 26 5 36 -15 6 -15 7 3 14 18 7 17 8 -3 8 -12 1 -24 -3 -28 -8z"/>
<path d="M6401 1753 c1 -27 3 -40 6 -30 2 9 13 17 24 17 14 0 19 7 19 30 0 25
-4 30 -25 30 -23 0 -25 -3 -24 -47z m39 17 c0 -11 -7 -20 -15 -20 -8 0 -15 9
-15 20 0 11 7 20 15 20 8 0 15 -9 15 -20z"/>
<path d="M6464 1786 c-10 -26 4 -48 28 -44 17 2 23 10 23 28 0 18 -6 26 -23
28 -13 2 -25 -3 -28 -12z m42 -7 c10 -17 -13 -36 -27 -22 -12 12 -4 33 11 33
5 0 12 -5 16 -11z"/>
<path d="M6530 1771 c0 -17 5 -31 10 -31 6 0 10 12 10 26 0 32 22 27 32 -7 6
-22 7 -21 5 6 -2 25 -7 31 -29 33 -25 3 -28 0 -28 -27z"/>
<path d="M6600 1786 c0 -8 10 -18 23 -22 l22 -8 -25 -7 -25 -7 28 -1 c33 -1
37 24 5 35 -22 7 -22 7 -3 15 19 7 19 8 -2 8 -14 1 -23 -5 -23 -13z"/>
<path d="M6664 1786 c-10 -25 3 -46 28 -45 23 0 23 0 -2 12 l-25 11 28 4 c32
4 31 25 -1 30 -13 2 -25 -3 -28 -12z"/>
<path d="M4532 1605 c-1 -28 2 -44 6 -38 6 10 164 13 713 16 l704 2 -707 3
-707 2 -4 33 c-3 23 -4 18 -5 -18z"/>
<path d="M6291 1634 c0 -11 3 -14 6 -6 3 7 2 16 -1 19 -3 4 -6 -2 -5 -13z"/>
<path d="M6023 1600 c0 -25 2 -35 4 -22 2 12 2 32 0 45 -2 12 -4 2 -4 -23z"/>
<path d="M5948 1604 c15 -7 16 -34 0 -34 -6 0 -9 -2 -6 -5 2 -3 20 0 38 6 34
12 29 21 -20 33 -14 3 -19 3 -12 0z"/>
<path d="M6291 1554 c0 -11 3 -14 6 -6 3 7 2 16 -1 19 -3 4 -6 -2 -5 -13z"/>
<path d="M4533 1455 c0 -27 2 -38 4 -22 2 15 2 37 0 50 -2 12 -4 0 -4 -28z"/>
<path d="M6291 1484 c0 -11 3 -14 6 -6 3 7 2 16 -1 19 -3 4 -6 -2 -5 -13z"/>
<path d="M6023 1450 c0 -25 2 -35 4 -22 2 12 2 32 0 45 -2 12 -4 2 -4 -23z"/>
<path d="M6292 1410 c0 -14 2 -19 5 -12 2 6 2 18 0 25 -3 6 -5 1 -5 -13z"/>
<path d="M4533 1305 c0 -27 2 -38 4 -22 2 15 2 37 0 50 -2 12 -4 0 -4 -28z"/>
<path d="M4533 1150 c0 -30 2 -43 4 -27 2 15 2 39 0 55 -2 15 -4 2 -4 -28z"/>
<path d="M2742 1080 c0 -14 2 -19 5 -12 2 6 2 18 0 25 -3 6 -5 1 -5 -13z"/>
<path d="M6291 1054 c0 -11 3 -14 6 -6 3 7 2 16 -1 19 -3 4 -6 -2 -5 -13z"/>
<path d="M4533 1005 c0 -27 2 -38 4 -22 2 15 2 37 0 50 -2 12 -4 0 -4 -28z"/>
<path d="M6020 1016 c0 -28 -4 -35 -22 -38 -14 -2 -24 -11 -26 -24 -4 -25 20
-47 42 -38 12 5 16 20 16 70 0 35 -2 64 -5 64 -3 0 -5 -15 -5 -34z m-4 -57
c10 -17 -13 -36 -27 -22 -12 12 -4 33 11 33 5 0 12 -5 16 -11z"/>
<path d="M2742 1000 c0 -14 2 -19 5 -12 2 6 2 18 0 25 -3 6 -5 1 -5 -13z"/>
<path d="M2842 970 c-10 -25 -17 -47 -14 -50 2 -3 7 1 9 8 7 18 40 15 52 -5
18 -32 12 8 -8 52 l-19 40 -20 -45z m24 -17 c-10 -10 -19 5 -10 18 6 11 8 11
12 0 2 -7 1 -15 -2 -18z"/>
<path d="M2913 960 c0 -30 2 -43 4 -27 2 15 2 39 0 55 -2 15 -4 2 -4 -28z"/>
<path d="M3009 984 c-11 -30 10 -74 36 -74 21 0 45 29 45 54 0 50 -63 65 -81
20z m65 -9 c8 -23 -4 -45 -25 -45 -11 0 -22 7 -25 15 -9 23 3 45 25 45 10 0
21 -7 25 -15z"/>
<path d="M3240 950 c0 -33 3 -60 8 -60 4 0 7 27 7 60 0 33 -3 60 -7 60 -5 0
-8 -27 -8 -60z"/>
<path d="M3283 960 c0 -30 2 -43 4 -27 2 15 2 39 0 55 -2 15 -4 2 -4 -28z"/>
<path d="M4280 968 c0 -27 5 -48 10 -48 6 0 10 11 10 25 0 14 5 25 10 25 6 0
10 -11 10 -25 0 -14 5 -25 10 -25 18 0 11 50 -7 57 -10 4 -23 14 -30 22 -10
13 -12 8 -13 -31z"/>
<path d="M4460 995 c0 -8 -9 -15 -21 -15 -17 0 -20 -5 -17 -32 2 -26 8 -33 26
-34 20 -1 22 3 22 47 0 27 -2 49 -5 49 -3 0 -5 -7 -5 -15z m-2 -48 c2 -10 -3
-17 -12 -17 -10 0 -16 9 -16 21 0 24 23 21 28 -4z"/>
<path d="M5450 995 c0 -8 -9 -15 -19 -15 -10 0 -22 -7 -25 -16 -9 -23 11 -53
34 -51 17 1 20 8 20 49 0 26 -2 48 -5 48 -3 0 -5 -7 -5 -15z m-2 -48 c2 -10
-3 -17 -12 -17 -10 0 -16 9 -16 21 0 24 23 21 28 -4z"/>
<path d="M5550 998 c0 -9 -9 -18 -20 -21 -13 -3 -20 -14 -20 -30 0 -54 46 -44
53 11 2 20 0 41 -4 47 -6 5 -9 3 -9 -7z m0 -54 c0 -8 -7 -14 -15 -14 -15 0
-21 21 -9 33 10 9 24 -2 24 -19z"/>
<path d="M5713 960 c0 -30 2 -43 4 -27 2 15 2 39 0 55 -2 15 -4 2 -4 -28z"/>
<path d="M6115 950 c0 -33 3 -60 8 -60 4 0 7 27 7 60 0 33 -3 60 -7 60 -5 0
-8 -27 -8 -60z"/>
<path d="M2940 961 c0 -22 5 -43 10 -46 6 -4 10 10 10 34 0 22 -4 43 -10 46
-6 4 -10 -10 -10 -34z"/>
<path d="M3170 961 c0 -22 5 -43 10 -46 6 -4 10 12 10 39 0 25 -4 46 -10 46
-5 0 -10 -18 -10 -39z"/>
<path d="M3570 971 c0 -34 9 -61 20 -61 6 0 6 14 1 83 -1 4 -5 7 -11 7 -5 0
-10 -13 -10 -29z"/>
<path d="M3949 989 c-2 -28 3 -64 10 -72 4 -4 7 11 6 33 -1 37 -14 69 -16 39z"/>
<path d="M4189 989 c-2 -28 3 -64 10 -72 4 -4 7 11 6 33 -1 37 -14 69 -16 39z"/>
<path d="M4897 994 c-7 -8 2 -65 13 -77 4 -5 6 10 4 33 -3 44 -7 54 -17 44z"/>
<path d="M4965 989 c-2 -8 -3 -23 -1 -34 3 -11 5 -26 5 -32 1 -7 5 -13 10 -13
9 0 6 78 -3 87 -3 3 -8 0 -11 -8z"/>
<path d="M5910 961 c0 -22 5 -43 10 -46 6 -4 10 12 10 39 0 25 -4 46 -10 46
-5 0 -10 -18 -10 -39z"/>
<path d="M6291 974 c0 -11 3 -14 6 -6 3 7 2 16 -1 19 -3 4 -6 -2 -5 -13z"/>
<path d="M3100 935 l0 -46 31 21 c39 28 37 64 -3 68 -27 3 -28 2 -28 -43z m46
24 c10 -17 -13 -36 -27 -22 -12 12 -4 33 11 33 5 0 12 -5 16 -11z"/>
<path d="M3311 943 c1 -37 2 -37 8 -8 3 17 11 30 16 30 5 0 13 -13 16 -30 6
-29 7 -29 8 8 1 33 -2 37 -24 37 -22 0 -25 -4 -24 -37z"/>
<path d="M3370 976 c0 -16 24 -65 30 -61 12 7 30 65 21 65 -5 0 -12 -10 -15
-22 l-7 -23 -9 23 c-8 19 -20 30 -20 18z"/>
<path d="M3435 959 c-9 -28 16 -55 42 -44 16 7 15 9 -7 14 l-25 7 24 6 c28 8
24 32 -6 36 -15 2 -23 -4 -28 -19z"/>
<path d="M3500 951 c0 -16 5 -33 10 -36 6 -4 10 7 10 25 0 37 21 37 32 -1 6
-22 7 -21 5 6 -2 25 -7 31 -29 33 -25 3 -28 0 -28 -27z"/>
<path d="M3606 964 c-8 -22 12 -56 32 -52 11 2 18 15 20 36 3 28 0 32 -21 32
-14 0 -28 -7 -31 -16z m42 -17 c2 -10 -3 -17 -12 -17 -10 0 -16 9 -16 21 0 24
23 21 28 -4z"/>
<path d="M3670 950 c0 -16 5 -30 10 -30 6 0 10 11 10 25 0 35 27 32 35 -5 4
-16 4 -34 0 -40 -3 -5 -2 -10 3 -10 6 0 15 12 20 28 5 15 13 35 17 45 4 9 3
17 -3 17 -6 0 -13 -10 -15 -22 l-4 -23 -8 23 c-5 16 -15 22 -36 22 -26 0 -29
-4 -29 -30z"/>
<path d="M3810 945 c0 -22 4 -34 10 -30 6 3 10 17 10 31 0 13 5 24 10 24 6 0
10 -11 10 -25 0 -14 5 -25 11 -25 6 0 9 12 7 28 -2 21 -9 28 -30 30 -26 3 -28
1 -28 -33z"/>
<path d="M3887 973 c-13 -12 -7 -54 9 -60 23 -8 47 20 39 46 -6 20 -34 28 -48
14z m33 -23 c0 -11 -7 -20 -15 -20 -15 0 -21 21 -8 33 12 13 23 7 23 -13z"/>
<path d="M4022 943 c1 -37 1 -37 5 -5 5 38 23 44 23 7 0 -14 5 -25 10 -25 6 0
10 11 10 25 0 14 5 25 10 25 6 0 10 -11 10 -25 0 -14 5 -25 11 -25 6 0 9 12 7
28 -3 24 -7 27 -45 30 l-43 3 2 -38z"/>
<path d="M4120 970 c0 -5 8 -7 18 -4 15 5 15 4 -2 -10 -23 -18 -15 -45 13 -43
17 1 21 8 21 34 0 29 -3 33 -25 33 -14 0 -25 -4 -25 -10z"/>
<path d="M4227 973 c-23 -22 7 -74 34 -57 17 10 9 22 -12 17 -17 -5 -20 -2
-17 13 2 11 11 18 21 18 9 -1 17 2 17 7 0 10 -34 12 -43 2z"/>
<path d="M4357 973 c-4 -3 -7 -16 -7 -29 0 -24 28 -40 44 -24 7 7 2 10 -14 11
l-25 1 23 6 c13 4 23 10 23 15 -1 4 -1 12 -1 17 0 11 -33 14 -43 3z"/>
<path d="M4630 971 c0 -6 7 -7 17 -4 11 4 14 3 9 -5 -4 -7 -14 -12 -22 -12
-29 0 -10 -35 19 -36 26 -1 28 2 25 30 -2 23 -9 32 -25 34 -13 2 -23 -1 -23
-7z"/>
<path d="M4697 973 c-13 -13 -7 -52 11 -63 16 -11 16 -11 0 -6 -10 3 -18 1
-18 -5 0 -6 10 -9 23 -7 18 2 23 10 25 46 3 36 0 42 -16 42 -10 0 -22 -3 -25
-7z m33 -29 c0 -8 -7 -14 -15 -14 -15 0 -21 21 -9 33 10 9 24 -2 24 -19z"/>
<path d="M4767 973 c-4 -3 -7 -17 -7 -30 0 -27 26 -41 43 -24 8 8 5 11 -13 12
l-25 1 23 6 c13 4 23 10 23 15 -1 4 -1 12 -1 17 0 11 -33 14 -43 3z"/>
<path d="M4831 943 c1 -36 2 -36 8 -9 9 42 29 44 34 4 l4 -33 1 38 c2 33 0 37
-23 37 -22 0 -25 -4 -24 -37z"/>
<path d="M5002 948 c4 -39 31 -50 47 -19 15 28 3 51 -26 51 -21 0 -24 -4 -21
-32z m38 2 c0 -11 -7 -20 -15 -20 -15 0 -21 21 -8 33 12 13 23 7 23 -13z"/>
<path d="M5100 971 c0 -5 10 -7 23 -5 l22 5 -23 -12 c-30 -16 -24 -45 8 -41
31 3 34 6 26 37 -5 18 -13 25 -31 25 -14 0 -25 -4 -25 -9z m37 -37 c-3 -3 -12
-4 -19 -1 -8 3 -5 6 6 6 11 1 17 -2 13 -5z"/>
<path d="M5171 943 c1 -36 2 -37 8 -8 8 37 25 36 30 -2 l4 -28 6 30 c8 38 24
38 33 -1 6 -28 6 -27 5 6 -2 34 -4 35 -44 38 l-43 3 1 -38z"/>
<path d="M5277 973 c-4 -3 -7 -16 -7 -29 0 -24 28 -40 44 -24 7 7 4 10 -9 11
-18 0 -18 1 2 9 15 6 21 15 17 25 -6 15 -35 21 -47 8z"/>
<path d="M5341 943 c1 -36 2 -36 8 -9 9 42 29 44 34 4 l4 -33 1 38 c2 33 0 37
-23 37 -22 0 -25 -4 -24 -37z"/>
<path d="M5576 965 c-13 -34 31 -74 49 -45 3 6 -4 10 -17 11 l-23 0 23 10 c13
5 22 15 20 21 -7 20 -45 21 -52 3z"/>
<path d="M5645 959 c-9 -26 15 -52 38 -43 24 9 21 23 -3 17 -15 -4 -20 0 -20
17 0 17 4 20 21 15 15 -5 19 -4 15 4 -12 19 -44 12 -51 -10z"/>
<path d="M5740 970 c0 -5 8 -7 18 -4 11 4 9 0 -7 -14 -28 -23 -21 -43 14 -40
21 2 25 8 25 35 0 29 -3 33 -25 33 -14 0 -25 -4 -25 -10z"/>
<path d="M5800 950 c0 -16 5 -30 10 -30 6 0 10 11 10 24 0 13 6 27 13 29 6 3
2 6 -10 6 -19 1 -23 -4 -23 -29z"/>
<path d="M5850 971 c0 -6 8 -8 18 -4 11 4 9 -1 -7 -14 -28 -23 -21 -44 15 -41
21 2 25 7 22 33 -2 22 -9 31 -25 33 -13 2 -23 -1 -23 -7z"/>
<path d="M5953 945 c0 -22 2 -30 4 -17 2 12 2 30 0 40 -3 9 -5 -1 -4 -23z"/>
<path d="M6041 943 c1 -36 2 -36 8 -9 8 38 31 47 31 12 0 -14 5 -26 10 -26 6
0 10 6 10 14 0 30 -13 46 -36 46 -21 0 -24 -4 -23 -37z"/>
<path d="M4528 943 c12 -2 30 -2 40 0 9 3 -1 5 -23 4 -22 0 -30 -2 -17 -4z"/>
<path d="M2741 924 c0 -11 3 -14 6 -6 3 7 2 16 -1 19 -3 4 -6 -2 -5 -13z"/>
<path d="M6291 904 c0 -11 3 -14 6 -6 3 7 2 16 -1 19 -3 4 -6 -2 -5 -13z"/>
<path d="M4533 855 c0 -27 2 -38 4 -22 2 15 2 37 0 50 -2 12 -4 0 -4 -28z"/>
<path d="M6023 860 c0 -25 2 -35 4 -22 2 12 2 32 0 45 -2 12 -4 2 -4 -23z"/>
<path d="M2742 850 c0 -14 2 -19 5 -12 2 6 2 18 0 25 -3 6 -5 1 -5 -13z"/>
<path d="M6291 824 c0 -11 3 -14 6 -6 3 7 2 16 -1 19 -3 4 -6 -2 -5 -13z"/>
<path d="M2741 774 c0 -11 3 -14 6 -6 3 7 2 16 -1 19 -3 4 -6 -2 -5 -13z"/>
<path d="M6291 754 c0 -11 3 -14 6 -6 3 7 2 16 -1 19 -3 4 -6 -2 -5 -13z"/>
<path d="M4540 731 c0 -5 -3 -16 -6 -24 -4 -11 2 -16 18 -19 26 -3 22 -23 -4
-22 -22 1 -24 -12 -3 -20 14 -5 45 17 45 33 0 13 -26 32 -33 24 -4 -3 -7 -1
-7 5 0 6 8 16 18 21 15 9 15 10 -5 11 -13 0 -23 -4 -23 -9z"/>
<path d="M4941 726 c-9 -10 -9 -24 -2 -48 8 -29 9 -30 11 -8 1 14 3 35 6 48 5
26 1 28 -15 8z"/>
<path d="M5030 729 c0 -5 5 -7 10 -4 6 4 11 -11 12 -37 1 -40 1 -41 5 -8 2 19
11 41 20 48 15 10 12 12 -15 12 -18 0 -32 -5 -32 -11z"/>
<path d="M5470 690 c0 -39 4 -50 16 -50 31 0 54 20 54 48 0 34 -16 52 -47 52
-21 0 -23 -4 -23 -50z m58 -3 c-2 -14 -11 -23 -25 -25 -19 -3 -23 1 -23 26 0
36 8 44 32 31 12 -6 18 -19 16 -32z"/>
<path d="M5561 694 c1 -41 2 -44 8 -19 l7 30 7 -27 c10 -37 24 -35 33 5 l8 32
7 -35 c6 -33 6 -33 8 13 0 26 -1 47 -5 47 -3 0 -12 -17 -21 -37 l-16 -38 -11
32 c-18 51 -26 50 -25 -3z"/>
<path d="M5667 734 c-14 -15 -6 -35 18 -44 14 -5 25 -15 25 -21 0 -7 -10 -9
-25 -7 -27 6 -34 -6 -10 -16 23 -8 45 4 45 25 0 12 -9 21 -25 25 -33 8 -32 28
0 21 16 -3 24 0 22 7 -4 13 -40 20 -50 10z"/>
<path d="M5741 688 c1 -29 4 -41 6 -25 5 33 10 33 40 5 13 -12 23 -16 23 -10
0 6 -5 14 -10 17 -8 5 -7 11 1 21 18 22 3 44 -31 44 -30 0 -30 0 -29 -52z m43
36 c20 -8 11 -24 -15 -24 -19 0 -25 11 -12 23 8 8 8 8 27 1z"/>
<path d="M5836 718 c-20 -29 -20 -34 4 -58 16 -16 25 -18 40 -10 11 6 20 16
20 22 0 9 -3 9 -12 0 -23 -23 -48 -14 -48 17 0 29 24 49 35 31 4 -6 11 -10 17
-10 7 0 6 6 -2 15 -18 21 -36 19 -54 -7z"/>
<path d="M5915 719 c16 -51 25 -69 34 -69 10 0 44 80 37 88 -6 5 -26 -42 -26
-59 0 -22 -19 -6 -25 21 -4 16 -11 33 -17 36 -7 4 -8 -2 -3 -17z"/>
<path d="M4870 698 c0 -49 17 -68 22 -25 4 40 0 57 -13 57 -5 0 -9 -15 -9 -32z"/>
<path d="M5250 721 c0 -5 -9 -11 -20 -14 -22 -6 -27 -36 -9 -54 6 -6 19 -8 30
-6 15 4 19 14 19 44 0 22 -4 39 -10 39 -5 0 -10 -4 -10 -9z m0 -41 c0 -11 -7
-20 -15 -20 -15 0 -21 21 -8 33 12 13 23 7 23 -13z"/>
<path d="M5430 705 c-7 -18 -6 -35 3 -56 12 -29 12 -29 12 25 0 31 -1 56 -3
56 -1 0 -7 -11 -12 -25z"/>
<path d="M6009 684 c2 -31 6 -42 12 -33 12 20 11 42 -4 62 -10 15 -12 10 -8
-29z"/>
<path d="M2742 700 c0 -14 2 -19 5 -12 2 6 2 18 0 25 -3 6 -5 1 -5 -13z"/>
<path d="M4620 700 l25 -8 -22 -7 c-23 -7 -31 -29 -14 -39 19 -12 41 7 41 35
0 25 -4 29 -27 28 l-28 -1 25 -8z m17 -36 c-3 -3 -12 -4 -19 -1 -8 3 -5 6 6 6
11 1 17 -2 13 -5z"/>
<path d="M4741 678 c2 -31 2 -31 6 -5 5 33 24 31 35 -4 6 -22 7 -21 5 6 -2 23
-7 31 -24 33 -20 3 -23 -1 -22 -30z"/>
<path d="M4807 704 c-12 -12 -8 -41 8 -54 20 -17 47 5 43 34 -3 21 -37 34 -51
20z m41 -27 c2 -10 -3 -17 -12 -17 -18 0 -29 16 -21 31 9 14 29 6 33 -14z"/>
<path d="M4912 680 c0 -19 2 -27 5 -17 2 9 2 25 0 35 -3 9 -5 1 -5 -18z"/>
<path d="M4974 668 c0 -27 4 -48 8 -48 3 0 13 20 21 45 16 46 14 64 -2 23 l-9
-23 -10 25 c-8 21 -9 18 -8 -22z"/>
<path d="M5100 680 c0 -16 4 -30 9 -30 5 0 11 14 13 30 3 20 0 30 -9 30 -8 0
-13 -12 -13 -30z"/>
<path d="M5163 704 c23 -7 21 -20 -5 -27 -17 -5 -19 -9 -9 -20 19 -24 53 -9
49 22 -2 20 -9 26 -28 28 -14 1 -18 0 -7 -3z"/>
<path d="M5287 703 c-22 -21 10 -72 35 -57 9 6 6 10 -12 15 l-25 7 23 7 c26 9
30 35 4 35 -10 0 -22 -3 -25 -7z"/>
<path d="M5351 678 c1 -22 3 -26 6 -13 3 11 10 26 15 33 8 9 6 12 -6 12 -12 0
-16 -9 -15 -32z"/>
<path d="M6291 674 c0 -11 3 -14 6 -6 3 7 2 16 -1 19 -3 4 -6 -2 -5 -13z"/>
<path d="M2741 624 c0 -11 3 -14 6 -6 3 7 2 16 -1 19 -3 4 -6 -2 -5 -13z"/>
<path d="M6291 604 c0 -11 3 -14 6 -6 3 7 2 16 -1 19 -3 4 -6 -2 -5 -13z"/>
<path d="M4532 565 c-2 -38 0 -40 27 -41 22 -1 29 3 28 16 -1 11 -8 15 -23 12
-18 -3 -23 1 -27 24 -3 23 -4 21 -5 -11z"/>
<path d="M6023 560 c0 -25 2 -35 4 -22 2 12 2 32 0 45 -2 12 -4 2 -4 -23z"/>
<path d="M2742 550 c0 -14 2 -19 5 -12 2 6 2 18 0 25 -3 6 -5 1 -5 -13z"/>
<path d="M6292 530 c0 -14 2 -19 5 -12 2 6 2 18 0 25 -3 6 -5 1 -5 -13z"/>
<path d="M3067 493 c-14 -13 -7 -41 10 -39 10 0 19 -7 21 -18 3 -15 0 -18 -17
-13 -12 3 -21 1 -21 -5 0 -5 10 -8 23 -6 32 4 36 45 5 57 l-23 9 25 10 c22 10
23 11 4 11 -11 1 -24 -2 -27 -6z"/>
<path d="M3131 457 c-1 -45 1 -48 22 -45 16 2 23 11 25 31 3 24 -1 29 -25 26
-4 0 -10 8 -14 18 -5 11 -8 0 -8 -30z m39 -17 c0 -11 -7 -20 -15 -20 -8 0 -15
9 -15 20 0 11 7 20 15 20 8 0 15 -9 15 -20z"/>
<path d="M3466 484 c-9 -24 -7 -74 3 -74 5 0 11 20 13 45 3 45 -4 59 -16 29z"/>
<path d="M3562 493 c12 -3 18 -17 21 -46 l4 -42 1 42 c2 30 7 43 20 46 9 3 -1
5 -23 5 -22 0 -32 -2 -23 -5z"/>
<path d="M3780 485 c0 -8 -3 -14 -7 -14 -26 4 -34 -3 -31 -28 2 -20 9 -29 26
-31 20 -3 22 1 22 42 0 25 -2 46 -5 46 -3 0 -5 -7 -5 -15z m0 -46 c0 -24 -23
-21 -28 4 -2 10 3 17 12 17 10 0 16 -9 16 -21z"/>
<path d="M3960 474 c-14 -35 -13 -47 5 -70 14 -18 15 -17 6 8 -6 16 -6 39 -1
57 10 38 3 41 -10 5z"/>
<path d="M4000 455 c0 -40 2 -45 23 -45 29 0 47 18 47 45 0 27 -18 45 -47 45
-21 0 -23 -5 -23 -45z m55 16 c8 -26 -4 -51 -26 -51 -15 0 -19 7 -19 35 0 28
4 35 19 35 11 0 22 -8 26 -19z"/>
<path d="M4087 493 c-10 -9 -9 -83 2 -83 11 0 23 72 13 82 -5 5 -11 5 -15 1z"/>
<path d="M4139 463 c-10 -33 -13 -35 -20 -18 -5 13 -8 15 -8 5 0 -8 4 -22 9
-30 7 -12 12 -8 22 20 l13 35 6 -35 c6 -33 6 -33 8 13 1 56 -13 61 -30 10z"/>
<path d="M4194 485 c-8 -20 4 -35 27 -35 11 0 19 -7 19 -16 0 -12 -7 -15 -25
-12 -14 3 -25 1 -25 -4 0 -5 12 -8 27 -6 38 4 43 35 9 48 -35 13 -34 34 0 26
17 -5 23 -3 19 4 -9 15 -45 12 -51 -5z"/>
<path d="M4271 453 c1 -27 4 -38 6 -25 2 12 9 22 15 22 5 0 19 -10 29 -22 l20
-23 -11 23 c-9 17 -8 27 0 37 17 20 4 35 -31 35 -28 0 -29 -1 -28 -47z m47 25
c-7 -19 -38 -22 -38 -4 0 10 9 16 21 16 12 0 19 -5 17 -12z"/>
<path d="M4359 479 c-16 -31 3 -69 35 -69 13 0 26 7 30 15 4 12 2 13 -15 2
-17 -10 -22 -9 -34 7 -19 25 -2 60 26 53 10 -3 17 -1 13 4 -10 17 -43 9 -55
-12z"/>
<path d="M4446 480 c11 -43 23 -70 32 -70 4 0 15 20 24 45 10 25 13 45 8 45
-6 0 -10 -4 -10 -9 0 -5 -5 -22 -11 -38 l-10 -28 -20 40 c-10 22 -16 29 -13
15z"/>
<path d="M2741 474 c0 -11 3 -14 6 -6 3 7 2 16 -1 19 -3 4 -6 -2 -5 -13z"/>
<path d="M3400 452 c0 -23 4 -42 8 -42 10 0 9 66 -1 76 -4 4 -7 -11 -7 -34z"/>
<path d="M4535 440 c0 -27 3 -43 7 -37 10 16 10 75 1 80 -5 3 -8 -17 -8 -43z"/>
<path d="M3278 472 c-13 -2 -18 -13 -17 -35 1 -29 2 -30 8 -8 9 34 31 39 31 7
0 -14 5 -26 10 -26 14 0 12 46 -2 57 -7 5 -21 8 -30 5z"/>
<path d="M3340 465 c-19 -23 -8 -50 20 -50 16 0 26 6 28 18 4 18 -14 47 -28
47 -4 0 -13 -7 -20 -15z m35 -25 c0 -22 -29 -18 -33 3 -3 14 1 18 15 15 10 -2
18 -10 18 -18z"/>
<path d="M3643 473 c-7 -3 -12 -19 -12 -36 1 -22 3 -25 6 -12 3 11 10 26 16
33 12 15 7 21 -10 15z"/>
<path d="M3680 470 c-12 -8 -10 -10 10 -10 25 -1 25 -1 3 -10 -34 -14 -29 -40
6 -40 27 0 28 2 22 32 -7 35 -18 43 -41 28z m30 -40 c0 -5 -7 -10 -16 -10 -8
0 -12 5 -9 10 3 6 10 10 16 10 5 0 9 -4 9 -10z"/>
<path d="M3821 470 c-21 -12 -9 -55 17 -58 12 -2 22 1 22 6 0 6 -9 8 -20 5
-11 -3 -20 0 -20 6 0 6 9 11 20 11 11 0 20 6 20 14 0 17 -23 27 -39 16z m26
-16 c-3 -3 -12 -4 -19 -1 -8 3 -5 6 6 6 11 1 17 -2 13 -5z"/>
<path d="M3893 473 c-7 -3 -12 -19 -12 -36 2 -28 2 -29 6 -7 3 14 10 28 16 32
14 9 6 17 -10 11z"/>
<path d="M3430 446 c0 -14 5 -28 10 -31 6 -4 10 7 10 24 0 17 -4 31 -10 31 -5
0 -10 -11 -10 -24z"/>
<path d="M3500 449 c7 -11 9 -32 5 -46 -9 -37 12 -19 25 23 7 19 9 38 6 41 -3
4 -6 -1 -6 -10 0 -9 -4 -17 -10 -17 -5 0 -10 7 -10 15 0 8 -5 15 -10 15 -7 0
-7 -7 0 -21z"/>
<path d="M6291 454 c0 -11 3 -14 6 -6 3 7 2 16 -1 19 -3 4 -6 -2 -5 -13z"/>
<path d="M6023 410 c0 -25 2 -35 4 -22 2 12 2 32 0 45 -2 12 -4 2 -4 -23z"/>
<path d="M2742 400 c0 -14 2 -19 5 -12 2 6 2 18 0 25 -3 6 -5 1 -5 -13z"/>
<path d="M6292 380 c0 -14 2 -19 5 -12 2 6 2 18 0 25 -3 6 -5 1 -5 -13z"/>
<path d="M2742 330 c0 -14 2 -19 5 -12 2 6 2 18 0 25 -3 6 -5 1 -5 -13z"/>
<path d="M3038 313 c-27 -7 -21 -20 11 -25 23 -3 27 -1 23 14 -2 10 -7 17 -11
17 -3 -1 -14 -3 -23 -6z"/>
<path d="M6291 304 c0 -11 3 -14 6 -6 3 7 2 16 -1 19 -3 4 -6 -2 -5 -13z"/>
<path d="M3802 303 l727 -3 4 -43 4 -42 1 48 2 47 -732 -2 -733 -3 727 -2z"/>
<path d="M6023 260 c0 -25 2 -35 4 -22 2 12 2 32 0 45 -2 12 -4 2 -4 -23z"/>
<path d="M2742 250 c0 -14 2 -19 5 -12 2 6 2 18 0 25 -3 6 -5 1 -5 -13z"/>
<path d="M6291 234 c0 -11 3 -14 6 -6 3 7 2 16 -1 19 -3 4 -6 -2 -5 -13z"/>
<path d="M2742 180 c0 -14 2 -19 5 -12 2 6 2 18 0 25 -3 6 -5 1 -5 -13z"/>
<path d="M3154 166 c-12 -30 1 -71 22 -74 23 -3 37 18 28 43 -4 8 -15 15 -26
15 -11 0 -16 4 -13 11 4 6 13 8 21 5 8 -3 14 -1 14 4 0 16 -40 12 -46 -4z m42
-37 c10 -17 -13 -36 -27 -22 -12 12 -4 33 11 33 5 0 12 -5 16 -11z"/>
<path d="M3491 137 c-1 -45 1 -48 22 -45 16 2 23 11 25 31 3 24 -1 29 -25 26
-4 0 -10 8 -14 18 -5 11 -8 0 -8 -30z m37 -14 c-5 -25 -28 -28 -28 -4 0 12 6
21 16 21 9 0 14 -7 12 -17z"/>
<path d="M3689 170 c-8 -20 1 -80 12 -80 5 0 18 6 29 12 16 10 24 10 41 -1 20
-12 21 -11 14 6 -4 10 -12 30 -17 46 -14 38 -25 34 -39 -13 -16 -52 -27 -51
-31 3 -2 23 -6 35 -9 27z m71 -35 c0 -8 -4 -15 -10 -15 -5 0 -10 7 -10 15 0 8
5 15 10 15 6 0 10 -7 10 -15z"/>
<path d="M4080 166 c0 -8 -8 -13 -17 -12 -14 1 -18 -7 -18 -29 0 -23 5 -31 23
-33 20 -3 22 1 22 42 0 25 -2 46 -5 46 -3 0 -5 -6 -5 -14z m-2 -43 c-5 -25
-28 -28 -28 -4 0 12 6 21 16 21 9 0 14 -7 12 -17z"/>
<path d="M4348 168 c-7 -16 2 -78 11 -78 7 0 7 78 -1 85 -3 3 -8 0 -10 -7z"/>
<path d="M6291 154 c0 -11 3 -14 6 -6 3 7 2 16 -1 19 -3 4 -6 -2 -5 -13z"/>
<path d="M3230 150 c-12 -8 -10 -10 10 -10 25 -1 25 -1 3 -10 -32 -13 -30 -40
3 -40 22 0 25 4 22 32 -3 34 -15 43 -38 28z m30 -40 c0 -5 -7 -10 -16 -10 -8
0 -12 5 -9 10 3 6 10 10 16 10 5 0 9 -4 9 -10z"/>
<path d="M3361 146 c-10 -12 -8 -17 11 -27 22 -12 22 -12 3 -20 -19 -7 -19 -8
3 -8 26 -1 30 24 5 38 -17 10 -17 10 0 11 10 0 15 5 12 10 -9 14 -21 12 -34
-4z"/>
<path d="M3421 128 c-1 -34 2 -38 24 -38 22 0 25 4 24 33 -1 27 -2 29 -7 9
-10 -33 -26 -32 -33 3 -6 29 -7 29 -8 -7z"/>
<path d="M3568 152 c-19 -4 -26 -62 -8 -62 6 0 10 11 10 25 0 34 20 32 21 -2
1 -28 1 -28 8 -4 9 35 29 37 34 4 4 -23 5 -22 3 6 -1 29 -5 35 -26 35 -14 1
-33 0 -42 -2z"/>
<path d="M3813 153 c-7 -3 -12 -19 -12 -36 2 -31 2 -31 6 -4 2 15 10 27 18 27
8 0 16 -12 18 -27 l4 -28 2 28 c0 16 7 27 15 27 8 0 17 -12 19 -27 4 -21 4
-20 3 7 -1 31 -4 35 -31 36 -16 0 -36 -1 -42 -3z"/>
<path d="M3910 145 c-18 -22 -8 -50 20 -52 l25 -3 -25 12 -25 12 28 4 c29 4
33 12 15 30 -16 16 -23 15 -38 -3z"/>
<path d="M3988 153 c-13 -3 -18 -14 -17 -36 1 -29 2 -30 8 -8 9 35 29 37 34 4
4 -27 4 -27 6 4 1 35 -5 42 -31 36z"/>
<path d="M4121 152 c-6 -2 -10 -18 -10 -35 2 -31 2 -31 6 -4 2 15 10 27 18 27
8 0 16 -12 18 -27 l4 -28 2 28 c1 34 22 32 32 -4 7 -24 7 -24 8 3 1 15 -4 30
-11 34 -13 8 -50 12 -67 6z"/>
<path d="M4221 150 c-21 -12 -9 -55 17 -58 12 -2 22 1 22 6 0 6 -9 8 -20 5
-11 -3 -20 0 -20 6 0 6 9 11 20 11 11 0 20 6 20 14 0 17 -23 27 -39 16z m26
-16 c-3 -3 -12 -4 -19 -1 -8 3 -5 6 6 6 11 1 17 -2 13 -5z"/>
<path d="M4281 121 c2 -30 3 -31 6 -8 2 15 10 27 18 27 8 0 16 -12 18 -27 4
-21 4 -19 3 7 -1 29 -5 35 -23 36 -20 1 -23 -3 -22 -35z"/>
<path d="M4533 115 c0 -27 2 -38 4 -22 2 15 2 37 0 50 -2 12 -4 0 -4 -28z"/>
<path d="M3662 120 c0 -19 2 -27 5 -17 2 9 2 25 0 35 -3 9 -5 1 -5 -18z"/>
<path d="M6023 110 c0 -25 2 -35 4 -22 2 12 2 32 0 45 -2 12 -4 2 -4 -23z"/>
<path d="M2741 104 c0 -11 3 -14 6 -6 3 7 2 16 -1 19 -3 4 -6 -2 -5 -13z"/>
<path d="M6291 84 c0 -11 3 -14 6 -6 3 7 2 16 -1 19 -3 4 -6 -2 -5 -13z"/>
<path d="M4650 69 c-12 -21 -6 -69 8 -69 4 0 7 17 7 37 0 32 3 37 19 35 11 -2
15 1 11 7 -10 18 -33 13 -45 -10z"/>
<path d="M4721 48 c0 -27 3 -48 8 -48 4 0 6 11 3 25 -3 19 0 25 13 25 13 0 16
-6 13 -25 -3 -14 -1 -25 3 -25 5 0 9 12 9 26 0 17 -6 28 -19 31 -11 3 -22 12
-24 22 -3 9 -5 -5 -6 -31z"/>
<path d="M4981 48 c-1 -44 1 -48 23 -48 16 0 27 7 31 20 8 25 -1 40 -25 40
-10 0 -21 8 -23 18 -3 9 -5 -4 -6 -30z m45 -9 c10 -17 -13 -36 -27 -22 -12 12
-4 33 11 33 5 0 12 -5 16 -11z"/>
<path d="M5231 68 c-11 -29 -23 -77 -15 -60 7 16 51 16 57 0 4 -8 6 -9 6 -2 1
15 -28 84 -34 84 -3 0 -9 -10 -14 -22z m26 -35 c-11 -10 -26 8 -20 23 5 15 7
14 15 -1 6 -9 7 -19 5 -22z"/>
<path d="M5180 42 c0 -23 3 -42 8 -42 9 0 9 66 -1 76 -4 4 -7 -11 -7 -34z"/>
<path d="M5580 71 c0 -5 -10 -11 -22 -13 -17 -2 -23 -10 -23 -28 0 -20 6 -26
28 -28 26 -3 27 -1 27 37 0 23 -2 41 -5 41 -3 0 -5 -4 -5 -9z m-4 -32 c10 -17
-13 -36 -27 -22 -12 12 -4 33 11 33 5 0 12 -5 16 -11z"/>
<path d="M5840 40 c0 -22 5 -40 10 -40 6 0 10 18 10 40 0 22 -4 40 -10 40 -5
0 -10 -18 -10 -40z"/>
<path d="M4679 47 c7 -9 11 -24 7 -32 -3 -8 -1 -15 5 -15 16 0 6 53 -11 58
-13 5 -13 3 -1 -11z"/>
<path d="M4850 46 c0 -8 9 -18 20 -21 11 -4 18 -11 15 -16 -4 -5 -1 -9 4 -9
20 0 11 29 -11 36 -22 7 -22 7 -3 15 19 7 19 8 -2 8 -14 1 -23 -5 -23 -13z"/>
<path d="M4914 38 c3 -13 6 -26 6 -30 0 -5 11 -8 25 -8 22 0 25 4 24 33 -1 29
-2 29 -8 8 -9 -34 -31 -39 -31 -7 0 14 -5 26 -11 26 -7 0 -9 -9 -5 -22z"/>
<path d="M5051 28 c1 -30 2 -30 8 -9 9 35 29 37 34 4 l4 -28 2 28 c0 16 7 27
15 27 8 0 17 -12 19 -27 4 -26 4 -26 6 5 1 32 0 32 -44 32 -44 0 -45 -1 -44
-32z"/>
<path d="M5150 30 c0 -17 5 -30 10 -30 6 0 10 13 10 30 0 17 -4 30 -10 30 -5
0 -10 -13 -10 -30z"/>
<path d="M5301 27 c2 -30 2 -31 6 -4 5 34 23 36 23 2 0 -14 5 -25 10 -25 6 0
10 11 10 25 0 34 18 32 23 -2 4 -27 4 -27 6 3 1 30 -1 32 -39 32 -39 1 -40 0
-39 -31z"/>
<path d="M5400 31 c0 -17 4 -31 10 -31 5 0 7 7 4 15 -4 11 0 15 16 15 28 0 21
24 -8 28 -19 3 -22 -1 -22 -27z m37 13 c-3 -3 -12 -4 -19 -1 -8 3 -5 6 6 6 11
1 17 -2 13 -5z"/>
<path d="M5471 28 c2 -31 2 -31 6 -5 5 33 24 31 35 -4 6 -22 7 -21 5 6 -2 23
-7 31 -24 33 -20 3 -23 -1 -22 -30z"/>
<path d="M5600 30 c0 -17 5 -30 10 -30 6 0 10 11 10 25 0 34 20 32 21 -2 1
-28 1 -28 8 -4 9 35 29 37 34 4 4 -27 4 -27 6 5 1 32 0 32 -44 32 -43 0 -45
-1 -45 -30z"/>
<path d="M5704 46 c-7 -19 2 -46 15 -46 6 0 8 7 5 15 -4 11 0 15 16 15 28 0
21 24 -8 28 -13 2 -25 -3 -28 -12z"/>
<path d="M5770 31 c0 -17 5 -31 11 -31 5 0 8 4 5 9 -8 12 3 41 15 41 5 0 9
-11 9 -25 0 -14 5 -25 11 -25 6 0 9 12 7 27 -2 22 -9 29 -30 31 -25 3 -28 0
-28 -27z"/>
<path d="M2742 25 c0 -17 2 -22 5 -12 2 9 2 23 0 30 -3 6 -5 -1 -5 -18z"/>
</g>
</svg>
