<?xml version="1.0" standalone="no"?>
<!DOCTYPE svg PUBLIC "-//W3C//DTD SVG 20010904//EN"
 "http://www.w3.org/TR/2001/REC-SVG-20010904/DTD/svg10.dtd">
<svg version="1.0" xmlns="http://www.w3.org/2000/svg"
 width="810.000000pt" height="693.000000pt" viewBox="0 0 810.000000 693.000000"
 preserveAspectRatio="xMidYMid meet">
<metadata>
Created by potrace 1.15, written by Peter Selinger 2001-2017
</metadata>
<g transform="translate(0.000000,693.000000) scale(0.100000,-0.100000)"
fill="#000000" stroke="none">
<path d="M90 6840 c-11 -11 -20 -26 -20 -33 0 -19 29 -42 64 -54 17 -5 31 -14
33 -20 7 -20 -36 -26 -62 -9 -30 20 -35 20 -35 1 0 -26 46 -48 85 -41 72 14
67 85 -6 101 -33 8 -46 22 -31 37 8 8 20 7 42 -2 39 -16 52 -4 21 21 -30 25
-66 24 -91 -1z"/>
<path d="M385 6847 c-3 -7 -5 -47 -3 -88 l3 -73 40 -2 c53 -2 72 9 80 46 10
45 -18 83 -55 78 -25 -4 -29 -1 -32 21 -3 28 -25 40 -33 18z m83 -100 c3 -35
1 -38 -20 -35 -24 3 -35 34 -24 64 12 30 41 11 44 -29z"/>
<path d="M750 6845 c0 -8 7 -15 15 -15 8 0 15 7 15 15 0 8 -7 15 -15 15 -8 0
-15 -7 -15 -15z"/>
<path d="M980 6845 c0 -8 7 -15 15 -15 8 0 15 7 15 15 0 8 -7 15 -15 15 -8 0
-15 -7 -15 -15z"/>
<path d="M1630 6842 c-36 -29 -21 -67 32 -84 23 -8 43 -19 45 -25 7 -20 -37
-26 -63 -8 -30 19 -48 12 -34 -15 26 -49 130 -28 130 26 0 21 -9 29 -50 47
-27 11 -50 24 -50 28 0 14 42 21 53 10 16 -16 37 -13 37 4 0 15 -37 35 -65 35
-7 0 -23 -8 -35 -18z"/>
<path d="M2220 6770 c0 -73 3 -90 15 -90 12 0 15 17 15 90 0 73 -3 90 -15 90
-12 0 -15 -17 -15 -90z"/>
<path d="M3430 6770 l0 -92 56 4 c59 5 79 19 91 66 6 27 -1 60 -20 86 -10 14
-30 20 -71 24 l-56 4 0 -92z m94 44 c20 -19 21 -78 2 -94 -8 -6 -25 -10 -38
-8 -19 2 -23 10 -26 47 -2 24 -1 50 2 57 7 19 41 18 60 -2z"/>
<path d="M3880 6770 c0 -73 3 -90 15 -90 12 0 15 17 15 90 0 73 -3 90 -15 90
-12 0 -15 -17 -15 -90z"/>
<path d="M4390 6845 c0 -8 7 -15 15 -15 8 0 15 7 15 15 0 8 -7 15 -15 15 -8 0
-15 -7 -15 -15z"/>
<path d="M4834 6828 c-30 -58 -14 -173 25 -186 11 -4 12 0 5 14 -11 24 -12
151 -1 182 13 34 -10 27 -29 -10z"/>
<path d="M5090 6845 c0 -8 7 -15 15 -15 8 0 15 7 15 15 0 8 -7 15 -15 15 -8 0
-15 -7 -15 -15z"/>
<path d="M5240 6770 c0 -73 3 -90 15 -90 11 0 15 12 15 44 0 44 19 74 40 61 5
-3 10 -28 10 -56 0 -37 4 -49 15 -49 11 0 15 13 15 54 0 61 -15 81 -55 74 -22
-5 -25 -2 -25 23 0 19 -5 29 -15 29 -12 0 -15 -17 -15 -90z"/>
<path d="M5493 6850 c-29 -12 -43 -40 -43 -88 0 -80 103 -111 140 -42 16 30
-16 40 -36 11 -18 -25 -37 -27 -58 -5 -22 21 -20 67 2 87 23 21 36 21 52 2 16
-19 40 -20 40 -1 0 30 -58 52 -97 36z"/>
<path d="M5653 6850 c-17 -7 -23 -18 -23 -41 0 -27 5 -33 50 -52 39 -16 47
-24 38 -34 -14 -17 -43 -17 -58 2 -13 16 -40 21 -40 7 0 -42 81 -65 119 -35
37 30 23 67 -31 85 -70 24 -51 55 20 33 32 -11 29 23 -4 35 -30 12 -42 12 -71
0z"/>
<path d="M5790 6770 c0 -73 3 -90 15 -90 10 0 15 11 15 35 0 32 2 35 31 35 49
0 69 16 69 56 0 40 -24 54 -91 54 l-39 0 0 -90z m90 45 c17 -20 4 -35 -31 -35
-21 0 -29 5 -29 18 0 10 3 22 7 25 11 12 40 8 53 -8z"/>
<path d="M5956 6833 c11 -36 11 -141 1 -170 -12 -34 10 -29 28 7 19 37 19 110
1 155 -18 43 -42 49 -30 8z"/>
<path d="M823 6833 c-4 -10 -11 -22 -17 -26 -8 -6 -7 -10 2 -14 7 -3 12 -24
12 -53 0 -41 3 -50 21 -55 26 -9 50 11 26 21 -20 7 -24 79 -4 88 10 5 10 7 0
12 -7 3 -13 14 -13 25 0 24 -18 25 -27 2z"/>
<path d="M903 6833 c-4 -10 -11 -22 -17 -26 -8 -6 -7 -10 2 -14 7 -3 12 -24
12 -53 0 -41 3 -50 21 -55 26 -9 50 11 26 21 -23 9 -23 70 1 84 16 10 16 10 0
20 -10 6 -18 18 -18 25 0 21 -19 19 -27 -2z"/>
<path d="M2927 6828 c-33 -53 9 -178 45 -139 10 11 10 14 1 18 -8 3 -13 21
-13 43 0 21 6 41 13 44 10 5 10 7 0 12 -7 3 -13 14 -13 25 0 26 -16 24 -33 -3z"/>
<path d="M4311 6824 c-14 -16 -19 -29 -13 -33 6 -3 12 -26 14 -50 3 -50 28
-75 50 -52 10 11 10 14 1 18 -8 3 -13 21 -13 43 0 21 6 41 13 44 10 5 10 7 0
12 -7 3 -13 14 -13 25 0 26 -12 24 -39 -7z"/>
<path d="M5173 6843 c-7 -3 -13 -11 -13 -18 0 -7 -6 -16 -12 -19 -10 -5 -10
-7 0 -12 7 -3 12 -24 12 -49 0 -45 19 -71 45 -61 19 7 20 26 0 26 -22 0 -20
66 3 79 16 9 16 11 1 23 -9 7 -18 18 -20 24 -2 6 -10 9 -16 7z"/>
<path d="M240 6756 c0 -63 7 -70 68 -72 l42 -1 0 63 c0 50 -3 64 -15 64 -10 0
-15 -10 -15 -34 0 -47 -9 -66 -31 -66 -16 0 -19 8 -19 50 0 38 -4 50 -15 50
-11 0 -15 -13 -15 -54z"/>
<path d="M530 6744 c0 -50 3 -64 15 -64 11 0 15 11 15 43 0 39 13 67 31 67 5
0 9 -24 11 -52 2 -40 7 -54 20 -56 14 -3 17 6 20 50 2 39 7 53 18 53 11 0 16
-14 18 -52 2 -39 7 -53 18 -53 12 0 14 12 12 63 l-3 62 -87 1 -88 2 0 -64z"/>
<path d="M750 6745 c0 -51 3 -65 15 -65 12 0 15 14 15 65 0 51 -3 65 -15 65
-12 0 -15 -14 -15 -65z"/>
<path d="M980 6745 c0 -51 3 -65 15 -65 12 0 15 14 15 65 0 51 -3 65 -15 65
-12 0 -15 -14 -15 -65z"/>
<path d="M1042 6746 c2 -48 7 -61 20 -64 14 -3 17 6 20 50 2 40 7 54 20 56 14
3 17 -6 20 -50 2 -41 7 -54 21 -56 14 -3 17 4 17 43 0 71 -11 84 -70 83 l-51
-1 3 -61z"/>
<path d="M1202 6797 c-18 -23 -23 -56 -11 -79 16 -31 30 -39 57 -33 16 4 22 1
22 -11 0 -13 -7 -15 -40 -9 -24 4 -40 3 -40 -3 0 -14 25 -22 65 -22 44 0 55
20 55 103 l0 65 -49 0 c-27 1 -54 -5 -59 -11z m63 -47 c0 -28 -4 -35 -20 -35
-13 0 -21 8 -23 23 -5 34 5 54 25 50 13 -2 18 -13 18 -38z"/>
<path d="M1417 6803 c-15 -14 -5 -23 22 -21 39 4 39 -15 1 -25 -67 -17 -49
-72 24 -72 l46 -1 0 51 c0 28 -5 56 -12 63 -13 13 -70 17 -81 5z m61 -75 c-5
-15 -48 -24 -48 -10 0 14 12 22 33 22 10 0 17 -5 15 -12z"/>
<path d="M1770 6761 c0 -62 16 -80 71 -77 l42 2 0 60 c0 46 -4 60 -17 62 -13
3 -16 -6 -16 -47 0 -44 -3 -51 -20 -51 -17 0 -20 7 -20 50 0 43 -3 50 -20 50
-17 0 -20 -7 -20 -49z"/>
<path d="M1920 6724 c0 -68 3 -84 15 -84 9 0 15 10 15 26 0 22 3 25 23 20 36
-9 67 19 67 59 0 46 -21 64 -75 63 l-45 -1 0 -83z m80 52 c18 -23 8 -61 -17
-64 -17 -3 -24 3 -29 22 -4 16 -1 32 6 41 16 19 24 19 40 1z"/>
<path d="M2070 6724 c0 -68 3 -84 15 -84 9 0 15 10 15 26 0 22 3 25 23 20 36
-9 67 19 67 59 0 46 -21 64 -75 63 l-45 -1 0 -83z m80 52 c18 -23 8 -61 -17
-64 -17 -3 -24 3 -29 22 -4 16 -1 32 6 41 16 19 24 19 40 1z"/>
<path d="M2298 6798 c-20 -15 -25 -43 -15 -79 7 -29 44 -44 78 -34 31 10 22
25 -16 25 -24 0 -35 5 -35 15 0 11 11 15 40 15 32 0 40 4 40 18 0 41 -58 66
-92 40z m52 -23 c11 -13 8 -15 -14 -15 -25 0 -33 10 -19 23 10 11 19 8 33 -8z"/>
<path d="M2420 6744 c0 -49 3 -64 14 -64 11 0 16 15 18 53 2 38 7 52 18 52 11
0 16 -14 20 -50 4 -36 9 -50 20 -50 11 0 16 14 20 50 4 36 9 50 20 50 11 0 16
-14 18 -52 2 -38 7 -53 18 -53 18 0 20 103 2 117 -7 6 -48 10 -90 10 l-78 1 0
-64z"/>
<path d="M2649 6800 c-22 -13 -32 -56 -19 -80 15 -27 48 -43 76 -36 34 9 30
24 -8 28 -49 5 -48 28 1 28 33 0 41 4 41 18 0 40 -53 64 -91 42z m59 -27 c2
-8 -6 -13 -22 -13 -25 0 -33 10 -19 24 10 10 36 3 41 -11z"/>
<path d="M2770 6743 c0 -56 2 -64 17 -61 14 2 17 11 15 38 -3 38 18 77 36 66
7 -4 12 -29 12 -57 0 -37 4 -49 15 -49 23 0 29 26 19 79 l-9 46 -52 1 -53 2 0
-65z"/>
<path d="M3007 6803 c-16 -15 -5 -24 23 -18 42 9 40 -18 -2 -30 -34 -10 -48
-39 -29 -58 6 -6 31 -12 56 -12 l45 -2 0 52 c0 28 -5 56 -12 63 -13 13 -70 17
-81 5z m57 -78 c-7 -16 -30 -20 -38 -6 -7 11 4 21 25 21 12 0 16 -5 13 -15z"/>
<path d="M3130 6743 c0 -56 2 -64 18 -61 13 2 18 16 22 53 4 41 9 51 26 53 17
2 25 -7 41 -50 21 -55 20 -78 -3 -78 -8 0 -14 -4 -14 -10 0 -18 49 -11 59 9 6
10 21 49 35 85 21 60 22 66 6 66 -11 0 -21 -14 -29 -42 l-13 -42 -14 24 c-7
14 -13 33 -14 43 0 14 -9 17 -60 16 l-60 -2 0 -64z"/>
<path d="M3615 6794 c-26 -26 -16 -85 17 -103 23 -13 30 -13 55 -1 l28 14 -38
5 c-47 7 -49 25 -2 29 26 2 35 8 35 22 0 44 -62 66 -95 34z m63 -21 c2 -8 -6
-13 -22 -13 -25 0 -33 10 -19 24 10 10 36 3 41 -11z"/>
<path d="M3752 6798 c-31 -40 -18 -102 23 -112 26 -7 56 2 67 18 10 15 -14 27
-29 14 -21 -17 -43 -1 -43 31 0 35 15 48 35 31 8 -6 22 -10 31 -8 17 3 17 4 0
21 -20 20 -69 23 -84 5z"/>
<path d="M3953 6803 c-25 -10 -12 -24 19 -21 43 4 47 -18 4 -26 -35 -7 -50
-25 -40 -51 7 -17 5 -17 65 -20 l46 -2 -4 51 c-3 28 -6 57 -8 64 -4 12 -57 15
-82 5z m57 -73 c0 -12 -28 -25 -36 -17 -9 9 6 27 22 27 8 0 14 -5 14 -10z"/>
<path d="M4080 6744 c0 -50 3 -64 15 -64 11 0 15 11 15 39 0 49 8 71 25 71 8
0 16 4 20 9 3 6 -12 10 -35 9 l-40 0 0 -64z"/>
<path d="M4183 6803 c-25 -10 -12 -24 19 -21 43 4 47 -18 4 -26 -23 -4 -37
-14 -41 -27 -10 -30 8 -42 63 -45 l49 -2 -4 52 c-3 28 -6 57 -8 64 -4 12 -57
15 -82 5z m57 -73 c0 -12 -28 -25 -36 -17 -9 9 6 27 22 27 8 0 14 -5 14 -10z"/>
<path d="M4390 6745 c0 -51 3 -65 15 -65 12 0 15 14 15 65 0 51 -3 65 -15 65
-12 0 -15 -14 -15 -65z"/>
<path d="M4467 6792 c-34 -37 -15 -95 33 -107 34 -8 80 27 80 61 0 54 -78 85
-113 46z m71 -45 c3 -34 1 -37 -22 -37 -30 0 -46 41 -26 66 22 26 45 12 48
-29z"/>
<path d="M4602 6746 c2 -46 7 -61 18 -61 11 0 16 13 18 45 2 25 8 50 13 55 16
16 39 -24 39 -67 0 -27 4 -38 15 -38 19 0 21 102 3 118 -7 6 -35 10 -61 10
l-48 -1 3 -61z"/>
<path d="M4890 6805 c0 -3 7 -32 17 -65 12 -45 21 -60 34 -60 13 0 20 10 25
35 8 45 20 45 28 -1 10 -50 35 -41 57 21 22 62 23 75 5 75 -8 0 -17 -13 -21
-30 -9 -43 -22 -45 -29 -5 -5 25 -12 35 -26 35 -14 0 -21 -10 -26 -35 -7 -40
-20 -38 -29 5 -4 17 -13 30 -21 30 -8 0 -14 -2 -14 -5z"/>
<path d="M5090 6745 c0 -51 3 -65 15 -65 12 0 15 14 15 65 0 51 -3 65 -15 65
-12 0 -15 -14 -15 -65z"/>
<path d="M1610 5785 l0 -305 305 0 304 0 4 -57 3 -58 2 58 2 57 305 0 305 0 0
305 c0 168 -3 305 -7 305 -5 0 -7 -135 -5 -300 l3 -300 -606 0 -606 0 3 300
c2 165 0 300 -4 300 -5 0 -8 -137 -8 -305z"/>
<path d="M3442 5788 l-2 -307 305 -3 c168 -2 442 -2 610 0 l305 3 -2 307 -3
307 -2 -302 -3 -303 -600 0 -600 0 -3 303 -2 302 -3 -307z"/>
<path d="M5292 5788 l-2 -307 268 -3 c147 -2 422 -1 612 2 304 5 272 6 -262 8
l-608 2 -3 303 -2 302 -3 -307z"/>
<path d="M2010 5858 c-5 -13 -18 -44 -29 -70 -20 -48 -13 -78 7 -33 16 36 67
35 76 0 4 -14 11 -25 17 -25 6 0 8 9 3 23 -12 39 -53 127 -59 127 -3 0 -10
-10 -15 -22z m34 -60 c-3 -5 -12 -8 -20 -8 -15 0 -18 18 -7 45 5 15 8 14 19
-6 7 -13 10 -27 8 -31z"/>
<path d="M3883 5865 c-65 -46 -10 -160 62 -127 14 6 25 19 25 28 0 16 -1 16
-19 0 -45 -40 -99 11 -73 69 14 29 46 33 74 8 16 -15 18 -15 18 0 0 17 -28 37
-52 37 -8 0 -23 -7 -35 -15z"/>
<path d="M4016 5867 c-27 -20 -16 -50 22 -63 39 -12 57 -28 48 -43 -12 -19
-54 -12 -70 11 l-16 22 0 -21 c0 -42 57 -56 90 -23 26 26 15 50 -32 66 -39 13
-51 44 -17 44 12 0 31 -7 41 -17 16 -15 18 -15 18 0 0 17 -29 37 -52 37 -8 0
-22 -6 -32 -13z"/>
<path d="M4130 5811 c0 -39 5 -73 10 -76 6 -4 10 6 10 23 0 27 4 30 40 36 32
5 41 11 46 33 9 34 -16 53 -68 53 l-38 0 0 -69z m85 24 c0 -15 -8 -21 -32 -23
-30 -3 -33 -1 -33 23 0 24 3 26 33 23 24 -2 32 -8 32 -23z"/>
<path d="M5725 5855 c-14 -13 -25 -36 -25 -50 0 -30 41 -75 68 -75 10 0 26 8
35 18 23 26 21 39 -2 18 -45 -40 -99 11 -73 69 12 26 54 35 67 15 3 -5 11 -10
17 -10 6 0 3 9 -7 20 -24 27 -51 25 -80 -5z"/>
<path d="M5850 5805 l0 -75 34 0 c49 0 80 29 80 75 0 46 -31 75 -80 75 l-34 0
0 -75z m92 30 c18 -41 0 -79 -40 -83 l-32 -3 0 55 c0 56 0 56 30 56 23 0 33
-6 42 -25z"/>
<path d="M6006 5867 c-27 -20 -16 -50 22 -63 39 -12 57 -28 48 -43 -12 -18
-54 -12 -69 10 -9 12 -17 16 -21 10 -9 -14 29 -51 53 -51 10 0 29 9 42 19 30
25 18 49 -32 66 -40 14 -53 45 -18 45 12 0 31 -7 41 -17 16 -15 18 -15 18 0 0
17 -29 37 -52 37 -8 0 -22 -6 -32 -13z"/>
<path d="M2438 5853 c-7 -27 6 -116 17 -120 8 -2 11 50 6 125 -1 18 -18 15
-23 -5z"/>
<path d="M2115 5824 c-8 -9 -15 -26 -15 -38 0 -29 34 -61 55 -52 11 4 15 2 12
-6 -2 -7 -16 -12 -31 -11 -14 1 -26 -2 -26 -8 0 -5 15 -9 34 -9 40 0 46 11 46
83 0 50 -1 52 -30 54 -16 1 -36 -5 -45 -13z m50 -39 c0 -23 -4 -30 -20 -30
-21 0 -31 25 -21 51 11 28 41 12 41 -21z"/>
<path d="M2233 5832 c-24 -15 -26 -59 -4 -81 24 -24 44 -27 60 -7 10 12 6 14
-20 13 -18 -1 -34 4 -36 11 -3 8 8 12 36 12 45 0 48 5 25 38 -15 22 -39 28
-61 14z m50 -27 c-3 -13 -53 -20 -53 -7 0 15 13 23 35 20 11 -2 19 -7 18 -13z"/>
<path d="M2331 5780 c1 -30 3 -44 6 -30 9 60 14 70 33 70 17 0 20 -7 20 -39 0
-22 5 -43 10 -46 15 -9 12 81 -2 93 -7 6 -25 10 -40 9 -27 -2 -28 -4 -27 -57z"/>
<path d="M2223 5245 c0 -33 2 -45 4 -27 2 18 2 45 0 60 -2 15 -4 0 -4 -33z"/>
<path d="M3127 5253 c-4 -3 -7 -28 -7 -55 0 -46 1 -48 28 -48 37 0 52 17 52
57 0 22 -6 36 -19 43 -23 12 -45 13 -54 3z m61 -45 c2 -19 -3 -30 -18 -38 -28
-15 -40 -5 -40 36 0 33 2 35 28 32 21 -2 28 -9 30 -30z"/>
<path d="M2454 5235 c-17 -13 -17 -14 -2 -15 12 0 18 -11 21 -37 3 -31 4 -29
5 15 1 28 1 52 -1 52 -2 0 -12 -7 -23 -15z"/>
<path d="M2841 5204 c-1 -49 0 -51 27 -50 23 1 27 5 27 31 0 23 -5 31 -22 33
-12 2 -24 11 -26 20 -3 9 -5 -6 -6 -34z m47 -17 c2 -12 -3 -17 -17 -17 -12 0
-21 6 -21 13 0 31 32 34 38 4z"/>
<path d="M3078 5238 c-7 -18 3 -88 11 -88 8 0 7 88 -1 96 -3 3 -8 -1 -10 -8z"/>
<path d="M3383 5200 c0 -30 2 -43 4 -27 2 15 2 39 0 55 -2 15 -4 2 -4 -28z"/>
<path d="M3628 5238 c-7 -18 3 -88 11 -88 8 0 7 88 -1 96 -3 3 -8 -1 -10 -8z"/>
<path d="M2533 5223 c-22 -8 -14 -21 10 -17 l22 5 -22 -10 c-13 -6 -23 -19
-23 -31 0 -16 7 -20 30 -20 27 0 30 3 30 34 0 22 -6 36 -16 40 -9 3 -16 6 -17
5 -1 0 -8 -3 -14 -6z m22 -52 c-3 -6 -11 -8 -17 -5 -6 4 -5 9 3 15 16 10 23 4
14 -10z"/>
<path d="M2690 5220 c-17 -10 -5 -40 15 -40 9 0 14 -4 10 -10 -3 -5 -13 -6
-22 -3 -11 4 -14 3 -9 -5 9 -15 43 -15 52 0 4 6 -3 20 -17 31 -16 13 -18 18
-6 14 9 -4 17 -2 17 2 0 13 -25 20 -40 11z"/>
<path d="M2938 5223 c-14 -3 -18 -14 -17 -41 1 -35 2 -36 8 -8 8 38 31 47 31
12 0 -13 5 -28 10 -31 6 -4 10 7 10 24 0 43 27 41 33 -1 4 -32 4 -32 5 5 2 34
0 38 -20 36 -13 -2 -27 -1 -33 2 -5 3 -18 4 -27 2z"/>
<path d="M3237 5218 c-25 -13 -22 -55 4 -63 12 -4 26 -2 33 5 8 10 7 12 -6 7
-10 -3 -20 -2 -23 3 -4 6 3 10 14 10 14 0 21 6 21 19 0 23 -20 32 -43 19z m28
-18 c-3 -5 -10 -10 -16 -10 -5 0 -9 5 -9 10 0 6 7 10 16 10 8 0 12 -4 9 -10z"/>
<path d="M3315 5213 c-19 -19 -16 -42 7 -57 13 -8 21 -7 30 3 11 12 10 13 -4
8 -19 -7 -43 17 -33 33 4 7 16 10 26 7 22 -6 26 8 4 17 -8 3 -22 -2 -30 -11z"/>
<path d="M3429 5219 c-11 -7 -10 -9 6 -9 18 -1 18 -2 -3 -11 -32 -12 -25 -43
11 -47 25 -3 27 -1 27 31 0 37 -17 51 -41 36z m31 -38 c0 -13 -28 -22 -35 -11
-3 4 1 11 7 13 20 8 28 8 28 -2z"/>
<path d="M3561 5221 c-6 -4 -13 -21 -14 -37 -2 -25 1 -29 26 -29 15 0 27 3 27
8 0 4 0 18 0 31 0 26 -19 39 -39 27z m26 -17 c-3 -3 -12 -4 -19 -1 -8 3 -5 6
6 6 11 1 17 -2 13 -5z m-7 -34 c-8 -5 -17 -7 -19 -4 -3 3 1 9 9 14 8 5 17 7
19 4 3 -3 -1 -9 -9 -14z"/>
<path d="M3716 5217 c-27 -20 -18 -62 14 -62 19 0 26 6 28 26 4 34 -18 53 -42
36z m32 -30 c2 -12 -3 -17 -17 -17 -12 0 -21 6 -21 13 0 31 32 34 38 4z"/>
<path d="M3798 5222 c-14 -2 -18 -13 -17 -40 1 -36 1 -36 8 -7 3 17 13 30 21
30 8 0 18 -13 21 -30 7 -30 7 -29 8 6 1 38 -10 48 -41 41z"/>
<path d="M2764 5190 c1 -30 4 -35 26 -35 21 0 26 5 28 33 2 18 -1 32 -7 32 -6
0 -11 -11 -11 -25 0 -34 -27 -32 -33 3 -4 20 -4 18 -3 -8z"/>
<path d="M3040 5185 c0 -19 5 -35 10 -35 6 0 10 16 10 35 0 19 -4 35 -10 35
-5 0 -10 -16 -10 -35z"/>
<path d="M3501 5183 c2 -35 2 -35 6 -8 3 16 10 33 16 37 8 5 6 8 -5 8 -14 0
-18 -8 -17 -37z"/>
<path d="M3673 5185 c0 -22 2 -30 4 -17 2 12 2 30 0 40 -3 9 -5 -1 -4 -23z"/>
<path d="M2223 5065 c0 -33 2 -45 4 -27 2 18 2 45 0 60 -2 15 -4 0 -4 -33z"/>
<path d="M4920 5015 c0 -54 1 -55 28 -55 35 0 52 16 52 51 0 34 -24 59 -56 59
-22 0 -24 -3 -24 -55z m66 11 c8 -32 -2 -46 -32 -46 -21 0 -24 5 -24 35 0 31
3 35 25 35 18 0 26 -7 31 -24z"/>
<path d="M4249 5043 c-10 -11 -10 -14 -1 -9 9 5 12 -2 12 -28 0 -19 5 -38 10
-41 6 -4 10 13 10 44 0 53 -8 62 -31 34z"/>
<path d="M4321 5014 c-1 -46 1 -51 20 -50 43 2 53 66 10 66 -11 0 -22 8 -24
18 -3 9 -5 -6 -6 -34z m44 -14 c0 -8 -8 -16 -17 -18 -13 -2 -18 3 -18 18 0 15
5 20 18 18 9 -2 17 -10 17 -18z"/>
<path d="M4641 5014 c-1 -42 2 -51 17 -51 42 -1 58 48 22 67 -11 6 -20 7 -21
3 0 -4 -4 1 -9 12 -6 15 -9 7 -9 -31z m44 -14 c0 -8 -8 -16 -17 -18 -13 -2
-18 3 -18 18 0 15 5 20 18 18 9 -2 17 -10 17 -18z"/>
<path d="M4878 5048 c-7 -18 3 -88 11 -88 8 0 7 88 -1 96 -3 3 -8 -1 -10 -8z"/>
<path d="M5183 5010 c0 -30 2 -43 4 -27 2 15 2 39 0 55 -2 15 -4 2 -4 -28z"/>
<path d="M5425 5047 c-9 -22 -2 -80 10 -84 6 -2 9 16 8 43 -2 50 -9 66 -18 41z"/>
<path d="M4490 5030 c-17 -10 -5 -40 15 -40 9 0 14 -4 10 -10 -3 -5 -13 -6
-23 -3 -13 5 -14 3 -6 -7 14 -14 57 -4 51 13 -2 7 -14 18 -28 25 -23 13 -23
13 -1 9 12 -3 22 -2 22 3 0 12 -25 19 -40 10z"/>
<path d="M4738 5032 c-14 -2 -18 -13 -17 -40 1 -35 2 -36 8 -8 9 43 31 45 32
4 l1 -33 9 33 c12 39 31 37 40 -4 6 -28 7 -28 8 7 1 36 -21 60 -35 38 -3 -6
-11 -6 -17 -1 -7 5 -20 7 -29 4z"/>
<path d="M5032 5028 c-17 -17 -15 -57 3 -64 8 -4 23 -3 33 2 14 6 12 8 -13 14
l-30 8 28 1 c15 0 27 7 27 14 0 13 -19 37 -30 37 -3 0 -11 -5 -18 -12z m38
-12 c0 -11 -19 -15 -25 -6 -3 5 1 10 9 10 9 0 16 -2 16 -4z"/>
<path d="M5115 5026 c-20 -15 -17 -45 7 -60 13 -8 21 -7 30 3 11 12 10 13 -4
8 -19 -7 -43 17 -33 33 4 7 16 10 26 7 22 -6 26 8 5 16 -8 3 -22 0 -31 -7z"/>
<path d="M5223 5033 c-22 -8 -14 -21 10 -17 22 5 22 4 -1 -6 -32 -14 -25 -45
11 -46 24 -1 27 2 27 31 0 21 -6 35 -16 39 -9 3 -16 6 -17 5 -1 0 -8 -3 -14
-6z m22 -52 c-3 -6 -11 -8 -17 -5 -6 4 -5 9 3 15 16 10 23 4 14 -10z"/>
<path d="M5355 5030 c-3 -5 2 -10 12 -11 14 0 13 -2 -5 -10 -33 -13 -25 -44
11 -45 24 -1 27 2 27 31 0 21 -6 35 -16 39 -21 8 -22 8 -29 -4z m25 -40 c0 -5
-8 -10 -17 -10 -15 0 -16 2 -3 10 19 12 20 12 20 0z"/>
<path d="M5506 5024 c-20 -19 -20 -38 -1 -54 22 -18 55 -3 55 25 0 33 -33 51
-54 29z m39 -24 c0 -8 -8 -16 -17 -18 -13 -2 -18 3 -18 18 0 15 5 20 18 18 9
-2 17 -10 17 -18z"/>
<path d="M5598 5032 c-14 -2 -18 -13 -17 -40 1 -36 1 -36 8 -7 3 17 13 30 21
30 8 0 18 -13 21 -30 7 -30 7 -29 8 6 1 38 -10 48 -41 41z"/>
<path d="M4550 5006 c0 -27 17 -43 43 -43 13 0 17 8 16 36 -2 30 -3 32 -6 9
-5 -35 -33 -37 -33 -3 0 14 -4 25 -10 25 -5 0 -10 -11 -10 -24z"/>
<path d="M4843 4995 c0 -22 2 -30 4 -17 2 12 2 30 0 40 -3 9 -5 -1 -4 -23z"/>
<path d="M5291 4993 c1 -38 1 -38 9 -9 5 16 15 33 22 37 9 6 6 9 -9 9 -20 0
-23 -5 -22 -37z"/>
<path d="M5460 5001 c0 -17 5 -33 10 -36 6 -4 10 8 10 29 0 20 -4 36 -10 36
-5 0 -10 -13 -10 -29z"/>
<path d="M4030 4964 c0 -11 5 -14 16 -10 9 3 20 6 25 6 6 0 7 5 4 10 -10 16
-45 12 -45 -6z"/>
<path d="M2223 4880 c0 -30 2 -43 4 -27 2 15 2 39 0 55 -2 15 -4 2 -4 -28z"/>
<path d="M5800 4841 c0 -15 16 -22 35 -15 13 5 14 8 3 15 -18 12 -38 11 -38 0z"/>
<path d="M2223 4695 c0 -33 2 -45 4 -27 2 18 2 45 0 60 -2 15 -4 0 -4 -33z"/>
<path d="M6923 4550 c0 -36 2 -50 4 -32 2 17 2 47 0 65 -2 17 -4 3 -4 -33z"/>
<path d="M2223 4515 c0 -33 2 -45 4 -27 2 18 2 45 0 60 -2 15 -4 0 -4 -33z"/>
<path d="M6200 4405 c0 -52 2 -55 24 -55 33 0 56 25 56 60 0 31 -23 50 -59 50
-19 0 -21 -6 -21 -55z m65 16 c9 -28 -5 -51 -31 -51 -21 0 -24 5 -24 35 0 30
3 35 24 35 15 0 27 -7 31 -19z"/>
<path d="M6463 4405 c0 -33 2 -45 4 -27 2 18 2 45 0 60 -2 15 -4 0 -4 -33z"/>
<path d="M6972 4449 c31 -78 41 -99 48 -99 10 0 44 99 37 106 -3 3 -10 -12
-17 -33 -18 -56 -25 -58 -39 -14 -6 22 -17 43 -23 47 -7 5 -9 2 -6 -7z"/>
<path d="M7273 4441 c-3 -11 -11 -17 -18 -15 -8 3 -19 -4 -25 -15 -15 -29 2
-56 34 -56 25 -1 26 2 26 52 0 54 -8 69 -17 34z m-3 -51 c0 -11 -7 -20 -15
-20 -8 0 -15 9 -15 20 0 11 7 20 15 20 8 0 15 -9 15 -20z"/>
<path d="M6705 4437 c-9 -22 -2 -80 10 -84 6 -2 10 16 9 42 -1 48 -10 68 -19
42z"/>
<path d="M7160 4405 c0 -25 5 -45 10 -45 6 0 10 20 10 45 0 25 -4 45 -10 45
-5 0 -10 -20 -10 -45z"/>
<path d="M7395 4437 c-9 -22 -2 -80 10 -84 6 -2 10 16 9 42 -1 48 -10 68 -19
42z"/>
<path d="M6313 4423 c-18 -7 -16 -62 2 -69 8 -4 23 -3 33 2 14 6 12 8 -13 14
l-30 8 28 1 c28 1 35 19 15 39 -13 13 -16 13 -35 5z m24 -19 c-3 -3 -12 -4
-19 -1 -8 3 -5 6 6 6 11 1 17 -2 13 -5z"/>
<path d="M6392 4418 c-28 -28 0 -78 35 -63 16 7 15 9 -7 14 -31 9 -33 35 -2
39 12 2 20 8 17 13 -8 13 -29 11 -43 -3z"/>
<path d="M6500 4420 c-12 -8 -10 -10 10 -10 l25 -1 -23 -10 c-33 -13 -25 -44
11 -45 26 -1 28 1 25 35 -3 38 -21 49 -48 31z m30 -40 c0 -5 -7 -10 -16 -10
-8 0 -12 5 -9 10 3 6 10 10 16 10 5 0 9 -4 9 -10z"/>
<path d="M6571 4385 c1 -27 3 -32 6 -15 3 14 12 33 20 42 14 15 13 17 -6 15
-18 -1 -21 -7 -20 -42z"/>
<path d="M6630 4420 c-12 -8 -10 -10 10 -10 l25 -1 -23 -10 c-33 -13 -25 -44
11 -45 26 -1 28 1 25 35 -3 38 -21 49 -48 31z m35 -40 c-3 -5 -13 -10 -21 -10
-8 0 -12 5 -9 10 3 6 13 10 21 10 8 0 12 -4 9 -10z"/>
<path d="M6780 4415 c-26 -31 13 -82 44 -56 19 16 21 42 4 59 -16 16 -33 15
-48 -3z m45 -25 c0 -8 -8 -16 -17 -18 -13 -2 -18 3 -18 18 0 15 5 20 18 18 9
-2 17 -10 17 -18z"/>
<path d="M6862 4386 c1 -37 2 -38 5 -8 5 39 33 45 33 7 0 -14 5 -25 10 -25 11
0 14 59 3 61 -51 9 -53 7 -51 -35z"/>
<path d="M7090 4420 c-12 -8 -10 -10 10 -10 l25 -1 -23 -10 c-33 -13 -25 -44
11 -45 26 -1 28 1 25 35 -3 38 -21 49 -48 31z m30 -40 c0 -5 -7 -10 -16 -10
-8 0 -12 5 -9 10 3 6 10 10 16 10 5 0 9 -4 9 -10z"/>
<path d="M7315 4421 c-3 -7 3 -11 17 -12 23 0 23 0 2 -9 -12 -5 -25 -13 -28
-18 -9 -14 16 -31 42 -29 20 1 23 6 20 37 -2 27 -8 36 -25 38 -11 2 -24 -2
-28 -7z m35 -41 c0 -5 -7 -10 -16 -10 -8 0 -12 5 -9 10 3 6 10 10 16 10 5 0 9
-4 9 -10z"/>
<path d="M7430 4389 c0 -22 4 -38 8 -35 8 5 4 76 -4 76 -2 0 -4 -18 -4 -41z"/>
<path d="M7470 4415 c-26 -31 13 -82 44 -56 19 16 21 42 4 59 -16 16 -33 15
-48 -3z m45 -25 c0 -8 -8 -16 -17 -18 -13 -2 -18 3 -18 18 0 15 5 20 18 18 9
-2 17 -10 17 -18z"/>
<path d="M7552 4386 c1 -37 2 -38 5 -8 5 39 33 45 33 7 0 -14 5 -25 10 -25 11
0 14 59 3 61 -51 9 -53 7 -51 -35z"/>
<path d="M6740 4390 c0 -16 5 -30 10 -30 6 0 10 14 10 30 0 17 -4 30 -10 30
-5 0 -10 -13 -10 -30z"/>
<path d="M7202 4390 c0 -19 2 -27 5 -17 2 9 2 25 0 35 -3 9 -5 1 -5 -18z"/>
<path d="M2223 4335 c0 -33 2 -45 4 -27 2 18 2 45 0 60 -2 15 -4 0 -4 -33z"/>
<path d="M6923 4235 c0 -38 2 -53 4 -32 2 20 2 52 0 70 -2 17 -4 1 -4 -38z"/>
<path d="M2223 4155 c0 -33 2 -45 4 -27 2 18 2 45 0 60 -2 15 -4 0 -4 -33z"/>
<path d="M5820 4170 c0 -5 11 -10 25 -10 14 0 25 5 25 10 0 6 -11 10 -25 10
-14 0 -25 -4 -25 -10z"/>
<path d="M2220 3996 c0 -18 -7 -26 -22 -29 -23 -4 -23 -4 -1 -6 16 -1 23 -9
26 -28 2 -16 5 -2 6 30 0 31 -1 57 -4 57 -3 0 -5 -11 -5 -24z"/>
<path d="M1923 3963 c9 -2 23 -2 30 0 6 3 -1 5 -18 5 -16 0 -22 -2 -12 -5z"/>
<path d="M2013 3963 c9 -2 23 -2 30 0 6 3 -1 5 -18 5 -16 0 -22 -2 -12 -5z"/>
<path d="M2103 3963 c9 -2 23 -2 30 0 6 3 -1 5 -18 5 -16 0 -22 -2 -12 -5z"/>
<path d="M2283 3963 c9 -2 23 -2 30 0 6 3 -1 5 -18 5 -16 0 -22 -2 -12 -5z"/>
<path d="M2373 3963 c9 -2 23 -2 30 0 6 3 -1 5 -18 5 -16 0 -22 -2 -12 -5z"/>
<path d="M2463 3963 c9 -2 23 -2 30 0 6 3 -1 5 -18 5 -16 0 -22 -2 -12 -5z"/>
<path d="M2558 3963 c6 -2 18 -2 25 0 6 3 1 5 -13 5 -14 0 -19 -2 -12 -5z"/>
<path d="M2648 3963 c6 -2 18 -2 25 0 6 3 1 5 -13 5 -14 0 -19 -2 -12 -5z"/>
<path d="M4020 3960 c-25 -6 -25 -6 5 -12 33 -7 44 -2 29 11 -5 4 -20 5 -34 1z"/>
<path d="M1892 3935 c0 -16 2 -22 5 -12 2 9 2 23 0 30 -3 6 -5 -1 -5 -18z"/>
<path d="M3923 3953 c9 -2 23 -2 30 0 6 3 -1 5 -18 5 -16 0 -22 -2 -12 -5z"/>
<path d="M4103 3953 c9 -2 23 -2 30 0 6 3 -1 5 -18 5 -16 0 -22 -2 -12 -5z"/>
<path d="M4193 3953 c9 -2 23 -2 30 0 6 3 -1 5 -18 5 -16 0 -22 -2 -12 -5z"/>
<path d="M4283 3953 c9 -2 23 -2 30 0 6 3 -1 5 -18 5 -16 0 -22 -2 -12 -5z"/>
<path d="M4373 3953 c9 -2 23 -2 30 0 6 3 -1 5 -18 5 -16 0 -22 -2 -12 -5z"/>
<path d="M4468 3953 c6 -2 18 -2 25 0 6 3 1 5 -13 5 -14 0 -19 -2 -12 -5z"/>
<path d="M4558 3953 c6 -2 18 -2 25 0 6 3 1 5 -13 5 -14 0 -19 -2 -12 -5z"/>
<path d="M4648 3953 c6 -2 18 -2 25 0 6 3 1 5 -13 5 -14 0 -19 -2 -12 -5z"/>
<path d="M4738 3953 c6 -2 18 -2 25 0 6 3 1 5 -13 5 -14 0 -19 -2 -12 -5z"/>
<path d="M4833 3953 c9 -2 23 -2 30 0 6 3 -1 5 -18 5 -16 0 -22 -2 -12 -5z"/>
<path d="M4923 3953 c9 -2 23 -2 30 0 6 3 -1 5 -18 5 -16 0 -22 -2 -12 -5z"/>
<path d="M5822 3940 c0 -14 2 -19 5 -12 2 6 2 18 0 25 -3 6 -5 1 -5 -13z"/>
<path d="M6152 3895 c0 -16 2 -22 5 -12 2 9 2 23 0 30 -3 6 -5 -1 -5 -18z"/>
<path d="M1892 3840 c0 -19 2 -27 5 -17 2 9 2 25 0 35 -3 9 -5 1 -5 -18z"/>
<path d="M2217 3843 c-13 -12 -8 -133 6 -133 8 0 12 19 11 66 -2 66 -5 79 -17
67z"/>
<path d="M2007 3793 c-9 -25 -15 -48 -12 -51 2 -3 7 3 11 12 3 9 16 16 29 16
13 0 26 -7 29 -16 4 -9 9 -14 12 -11 9 9 -27 97 -40 97 -7 0 -19 -21 -29 -47z
m43 -5 c0 -5 -7 -8 -15 -8 -17 0 -18 2 -9 25 5 13 8 14 15 3 5 -7 9 -16 9 -20z"/>
<path d="M2090 3796 c0 -25 5 -48 10 -51 6 -4 10 13 10 44 0 28 -4 51 -10 51
-5 0 -10 -20 -10 -44z"/>
<path d="M2250 3791 l0 -51 34 0 c42 0 58 19 54 62 -3 31 -5 33 -45 36 l-43 3
0 -50z m74 17 c14 -23 -3 -52 -33 -56 -19 -3 -21 1 -21 38 0 37 2 41 21 38 12
-2 27 -11 33 -20z"/>
<path d="M2510 3790 c0 -27 5 -50 10 -50 6 0 10 23 10 50 0 28 -4 50 -10 50
-5 0 -10 -22 -10 -50z"/>
<path d="M3040 3790 c0 -27 5 -50 10 -50 6 0 10 9 10 20 0 28 24 25 45 -6 20
-30 32 -26 15 6 -8 15 -8 25 -1 34 21 25 2 46 -40 46 l-39 0 0 -50z m68 23 c2
-8 -6 -13 -22 -13 -17 0 -26 5 -26 16 0 19 41 16 48 -3z"/>
<path d="M3655 3770 c0 -49 4 -70 13 -70 8 0 12 21 12 70 0 49 -4 70 -12 70
-9 0 -13 -21 -13 -70z"/>
<path d="M5823 3790 c0 -30 2 -43 4 -27 2 15 2 39 0 55 -2 15 -4 2 -4 -28z"/>
<path d="M2130 3785 c0 -29 4 -45 13 -45 8 0 11 14 9 45 -2 25 -8 45 -13 45
-5 0 -9 -20 -9 -45z"/>
<path d="M2760 3796 c0 -38 8 -66 19 -66 6 0 6 25 2 93 -1 4 -5 7 -11 7 -5 0
-10 -15 -10 -34z"/>
<path d="M3419 3819 c-2 -31 3 -74 10 -82 4 -4 6 13 5 39 -3 44 -13 73 -15 43z"/>
<path d="M6152 3805 c0 -16 2 -22 5 -12 2 9 2 23 0 30 -3 6 -5 -1 -5 -18z"/>
<path d="M2373 3813 c-20 -7 -16 -61 5 -71 18 -10 42 -5 42 8 0 4 -8 6 -19 3
-10 -3 -22 0 -25 6 -5 7 2 11 18 11 32 0 40 14 20 34 -16 17 -21 18 -41 9z
m34 -29 c-3 -4 -14 -3 -24 0 -15 6 -15 8 -3 16 16 10 39 -4 27 -16z"/>
<path d="M2452 3808 c-18 -18 -15 -56 6 -66 23 -12 42 -4 42 16 0 14 -2 14 -9
3 -12 -19 -43 -6 -39 16 2 11 12 18 26 17 25 -1 29 11 6 20 -20 8 -18 8 -32
-6z"/>
<path d="M2550 3801 c0 -5 9 -7 20 -4 11 3 20 0 20 -6 0 -6 -9 -11 -19 -11
-11 0 -23 -5 -27 -11 -10 -17 19 -39 44 -33 17 5 22 14 22 40 0 31 -3 34 -30
34 -16 0 -30 -4 -30 -9z m40 -41 c0 -5 -7 -10 -15 -10 -8 0 -15 5 -15 10 0 6
7 10 15 10 8 0 15 -4 15 -10z"/>
<path d="M2631 3773 c1 -27 3 -31 6 -13 2 14 12 31 21 38 14 11 13 12 -6 12
-19 0 -22 -5 -21 -37z"/>
<path d="M2680 3801 c0 -5 9 -7 20 -4 11 3 20 0 20 -6 0 -6 -9 -11 -19 -11
-23 0 -34 -25 -17 -39 6 -6 22 -8 34 -4 17 4 22 13 22 39 0 31 -3 34 -30 34
-16 0 -30 -4 -30 -9z m45 -41 c-3 -5 -13 -10 -21 -10 -8 0 -14 5 -14 10 0 6 9
10 21 10 11 0 17 -4 14 -10z"/>
<path d="M2803 3775 c0 -22 2 -30 4 -17 2 12 2 30 0 40 -3 9 -5 -1 -4 -23z"/>
<path d="M2837 3804 c-13 -13 -7 -51 9 -65 23 -19 49 1 49 37 0 24 -5 30 -25
32 -14 2 -29 0 -33 -4z m51 -27 c4 -21 -27 -35 -38 -17 -12 19 0 42 19 38 9
-2 17 -11 19 -21z"/>
<path d="M2921 3773 c1 -36 2 -37 8 -8 3 17 13 30 21 30 8 0 18 -13 22 -30 6
-29 6 -29 5 5 -2 30 -6 35 -29 38 -26 3 -28 1 -27 -35z"/>
<path d="M3144 3786 c-4 -16 -1 -32 7 -42 14 -17 50 -15 56 2 2 7 -6 10 -22 7
-15 -3 -25 -1 -25 6 0 6 12 11 26 11 36 0 29 34 -8 38 -22 3 -29 -2 -34 -22z
m51 4 c3 -5 -3 -10 -14 -10 -12 0 -21 5 -21 10 0 6 6 10 14 10 8 0 18 -4 21
-10z"/>
<path d="M3232 3773 c-1 -23 -5 -50 -8 -60 -5 -14 -4 -15 5 -7 8 7 11 30 8 60
-3 48 -3 48 -5 7z"/>
<path d="M3267 3803 c-16 -15 -7 -62 13 -68 22 -7 40 1 40 17 0 7 -4 7 -13 -1
-8 -6 -17 -8 -20 -4 -14 13 -6 23 19 23 20 0 25 4 20 16 -3 9 -6 18 -6 20 0 7
-46 5 -53 -3z m43 -13 c0 -5 -7 -10 -15 -10 -8 0 -15 5 -15 10 0 6 7 10 15 10
8 0 15 -4 15 -10z"/>
<path d="M3347 3803 c-12 -12 -7 -50 8 -63 16 -14 45 -7 45 11 0 9 -3 9 -14 0
-10 -8 -16 -8 -25 3 -16 19 -2 49 20 43 11 -3 19 -1 19 4 0 10 -43 12 -53 2z"/>
<path d="M3463 3770 c0 -25 2 -35 4 -22 2 12 2 32 0 45 -2 12 -4 2 -4 -23z"/>
<path d="M3497 3803 c-4 -3 -7 -19 -7 -34 0 -34 34 -49 57 -26 23 23 9 67 -21
67 -12 0 -26 -3 -29 -7z m39 -18 c4 -8 4 -22 0 -30 -7 -19 -36 -8 -36 14 0 32
26 43 36 16z"/>
<path d="M3570 3769 c0 -24 4 -38 10 -34 6 3 10 19 10 36 0 19 5 29 15 29 10
0 15 -10 15 -30 0 -16 5 -30 10 -30 6 0 10 9 10 19 0 37 -12 51 -41 51 -27 0
-29 -2 -29 -41z"/>
<path d="M1892 3745 c0 -16 2 -22 5 -12 2 9 2 23 0 30 -3 6 -5 -1 -5 -18z"/>
<path d="M6152 3715 c0 -16 2 -22 5 -12 2 9 2 23 0 30 -3 6 -5 -1 -5 -18z"/>
<path d="M1892 3655 c0 -16 2 -22 5 -12 2 9 2 23 0 30 -3 6 -5 -1 -5 -18z"/>
<path d="M2223 3605 c0 -33 2 -45 4 -27 2 18 2 45 0 60 -2 15 -4 0 -4 -33z"/>
<path d="M5822 3630 c0 -19 2 -27 5 -17 2 9 2 25 0 35 -3 9 -5 1 -5 -18z"/>
<path d="M6152 3625 c0 -16 2 -22 5 -12 2 9 2 23 0 30 -3 6 -5 -1 -5 -18z"/>
<path d="M1892 3565 c0 -16 2 -22 5 -12 2 9 2 23 0 30 -3 6 -5 -1 -5 -18z"/>
<path d="M4073 3563 c-21 -7 -15 -22 6 -16 32 8 33 -14 1 -47 -16 -17 -30 -33
-30 -35 0 -3 17 -4 38 -4 23 1 28 3 15 6 -28 5 -29 15 -3 38 11 10 20 24 20
31 0 16 -30 33 -47 27z"/>
<path d="M4552 3553 c-6 -10 -6 -35 -2 -58 l8 -40 2 33 c2 17 3 38 4 45 1 6 5
15 10 18 4 4 3 9 -2 13 -6 4 -15 -1 -20 -11z"/>
<path d="M4655 3560 c-3 -4 4 -10 14 -13 15 -4 21 -16 24 -48 l4 -44 1 48 c2
34 6 47 17 47 8 0 15 4 15 9 0 11 -68 12 -75 1z"/>
<path d="M5184 3556 c-3 -8 -4 -31 -2 -52 3 -35 6 -39 33 -42 33 -4 55 18 55
54 0 40 -73 73 -86 40z m64 -18 c16 -16 15 -33 -4 -52 -28 -28 -44 -20 -44 24
0 32 4 40 18 40 10 0 23 -5 30 -12z"/>
<path d="M5432 3559 c-36 -14 -22 -35 43 -63 6 -3 3 -9 -5 -15 -11 -7 -21 -6
-37 5 -24 15 -31 6 -11 -14 17 -17 55 -15 62 4 8 21 0 33 -30 44 -32 13 -31
34 1 28 14 -3 25 -2 25 2 0 13 -24 18 -48 9z"/>
<path d="M5517 3563 c-4 -3 -7 -29 -6 -57 1 -39 3 -45 8 -26 9 29 30 28 50 0
20 -29 34 -25 16 4 -11 16 -13 26 -6 31 17 10 13 42 -5 49 -21 8 -49 8 -57 -1z
m58 -23 c8 -13 -20 -24 -41 -16 -20 8 -9 26 16 26 10 0 22 -5 25 -10z"/>
<path d="M5627 3563 c-4 -3 -7 -28 -7 -55 l0 -48 38 1 c36 1 36 2 7 8 -35 7
-41 36 -8 36 12 0 25 4 29 8 4 4 -7 7 -24 7 -22 0 -32 5 -32 15 0 10 10 15 30
15 17 0 30 5 30 10 0 11 -53 14 -63 3z"/>
<path d="M4468 3543 c-7 -37 4 -83 20 -83 12 0 13 3 4 12 -14 14 -16 45 -3 50
5 2 4 11 -4 21 -13 18 -13 18 -17 0z"/>
<path d="M4930 3545 c0 -9 -6 -15 -12 -14 -33 4 -39 -2 -36 -33 2 -28 8 -34
31 -36 26 -3 27 -2 27 47 0 28 -2 51 -5 51 -3 0 -5 -7 -5 -15z m-5 -35 c8 -13
-14 -42 -26 -34 -5 3 -9 14 -9 25 0 20 24 26 35 9z"/>
<path d="M5140 3534 c-13 -33 -12 -54 3 -81 10 -19 12 -13 12 43 0 35 -1 64
-3 64 -1 0 -7 -12 -12 -26z"/>
<path d="M5291 3508 c2 -52 2 -52 8 -13 l6 40 14 -37 c7 -21 16 -38 20 -38 4
0 12 17 18 38 l10 37 2 -38 c1 -50 21 -38 21 13 0 53 -17 59 -37 13 -16 -40
-18 -39 -37 20 -11 36 -26 16 -25 -35z"/>
<path d="M5752 3524 c-2 -47 -10 -58 -29 -43 -9 9 -13 8 -13 0 0 -16 29 -26
41 -14 6 6 9 30 6 54 l-4 44 -1 -41z"/>
<path d="M5802 3533 c9 -24 9 -41 0 -70 -10 -34 -10 -36 3 -19 19 25 19 77 0
102 -13 17 -13 16 -3 -13z"/>
<path d="M6152 3535 c0 -16 2 -22 5 -12 2 9 2 23 0 30 -3 6 -5 -1 -5 -18z"/>
<path d="M4160 3530 c-8 -5 -16 -23 -18 -39 -3 -29 -1 -31 27 -31 29 0 31 3
31 34 0 35 -17 50 -40 36z m19 -51 c-7 -4 -17 -5 -22 -2 -5 3 -3 9 4 14 7 4
17 5 22 2 5 -3 3 -9 -4 -14z"/>
<path d="M4397 3529 c-32 -18 -14 -69 24 -69 17 0 29 19 29 45 0 21 -32 35
-53 24z m38 -19 c4 -6 1 -17 -5 -26 -15 -18 -42 0 -33 22 6 16 29 19 38 4z"/>
<path d="M4813 3533 c-22 -8 -14 -21 10 -16 20 4 20 4 -3 -9 -36 -19 -32 -42
8 -46 30 -3 32 -1 32 27 0 31 -23 52 -47 44z m22 -52 c-3 -6 -11 -8 -17 -5 -6
4 -5 9 3 15 16 10 23 4 14 -10z"/>
<path d="M4300 3501 c0 -17 5 -33 10 -36 6 -4 10 7 10 24 0 43 27 41 33 -1 4
-32 4 -32 5 5 2 35 0 37 -28 37 -27 0 -30 -3 -30 -29z"/>
<path d="M4513 3495 c0 -22 2 -30 4 -17 2 12 2 30 0 40 -3 9 -5 -1 -4 -23z"/>
<path d="M4585 3513 c16 -39 17 -54 5 -68 -9 -11 -9 -15 -1 -15 14 0 56 89 46
98 -3 3 -8 -4 -12 -16 -7 -27 -23 -29 -23 -2 0 11 -5 20 -11 20 -7 0 -8 -7 -4
-17z"/>
<path d="M4751 3493 c1 -28 3 -31 6 -13 3 14 10 31 15 38 8 9 6 12 -6 12 -12
0 -16 -9 -15 -37z"/>
<path d="M4964 3516 c-15 -39 23 -74 50 -46 8 9 6 11 -11 6 -12 -4 -24 -2 -28
4 -4 6 4 10 20 10 20 0 26 4 23 18 -4 22 -46 29 -54 8z m36 -6 c0 -5 -4 -10
-10 -10 -5 0 -10 5 -10 10 0 6 5 10 10 10 6 0 10 -4 10 -10z"/>
<path d="M5041 3493 c1 -38 1 -38 9 -9 5 16 15 33 22 37 9 6 6 9 -9 9 -20 0
-23 -5 -22 -37z"/>
<path d="M1892 3475 c0 -16 2 -22 5 -12 2 9 2 23 0 30 -3 6 -5 -1 -5 -18z"/>
<path d="M2223 3425 c0 -33 2 -45 4 -27 2 18 2 45 0 60 -2 15 -4 0 -4 -33z"/>
<path d="M6152 3445 c0 -16 2 -22 5 -12 2 9 2 23 0 30 -3 6 -5 -1 -5 -18z"/>
<path d="M1892 3385 c0 -16 2 -22 5 -12 2 9 2 23 0 30 -3 6 -5 -1 -5 -18z"/>
<path d="M4045 3390 c-3 -5 -1 -10 4 -10 6 0 11 5 11 10 0 6 -2 10 -4 10 -3 0
-8 -4 -11 -10z"/>
<path d="M4180 3380 c-18 -12 -2 -12 25 0 13 6 15 9 5 9 -8 0 -22 -4 -30 -9z"/>
<path d="M6152 3355 c0 -16 2 -22 5 -12 2 9 2 23 0 30 -3 6 -5 -1 -5 -18z"/>
<path d="M4085 3346 c-30 -12 -30 -13 -8 -24 27 -15 36 -15 28 -2 -4 7 285 11
857 12 l863 3 -860 5 c-473 3 -853 8 -845 12 8 3 11 7 5 7 -5 0 -23 -6 -40
-13z"/>
<path d="M2290 3332 c0 -6 8 -8 19 -5 32 8 33 -14 1 -47 -16 -17 -30 -33 -30
-35 0 -3 17 -4 38 -4 23 1 28 3 15 6 -28 5 -29 14 -2 36 27 24 21 51 -14 55
-15 2 -27 -1 -27 -6z"/>
<path d="M2371 3293 c-1 -49 1 -53 23 -53 52 0 59 61 8 68 -11 2 -23 11 -25
20 -3 9 -5 -7 -6 -35z m46 -9 c8 -21 -13 -42 -28 -27 -13 13 -5 43 11 43 6 0
13 -7 17 -16z"/>
<path d="M2776 3323 c-3 -10 -1 -34 3 -53 l9 -35 2 35 c1 19 2 39 1 44 -1 5 4
13 11 17 10 7 9 9 -4 9 -9 0 -19 -8 -22 -17z"/>
<path d="M2893 3333 c12 -3 17 -15 17 -43 0 -21 5 -42 10 -45 6 -4 10 11 10
39 0 34 4 46 18 49 9 3 -3 5 -28 5 -25 0 -37 -2 -27 -5z"/>
<path d="M3160 3325 c0 -9 -9 -15 -24 -15 -16 0 -27 -7 -31 -20 -9 -27 11 -50
41 -50 22 0 24 4 24 50 0 28 -2 50 -5 50 -3 0 -5 -7 -5 -15z m-7 -38 c7 -19
-8 -41 -22 -33 -16 10 -14 46 3 46 8 0 16 -6 19 -13z"/>
<path d="M3372 3315 c-15 -32 -15 -54 1 -82 10 -19 12 -13 12 43 0 35 0 64 -1
64 0 0 -6 -11 -12 -25z"/>
<path d="M3410 3290 l0 -51 37 3 c31 2 39 8 47 31 14 39 -2 61 -48 65 l-36 3
0 -51z m70 20 c14 -26 -3 -60 -30 -60 -17 0 -20 7 -20 40 0 33 3 40 20 40 10
0 24 -9 30 -20z"/>
<path d="M3522 3288 c1 -49 2 -50 6 -13 l4 40 18 -40 17 -40 16 35 15 35 1
-32 c2 -54 21 -37 21 17 0 60 -15 65 -37 13 l-16 -38 -15 38 c-21 52 -32 46
-30 -15z"/>
<path d="M3647 3326 c-6 -15 11 -36 29 -36 6 0 17 -6 23 -14 15 -18 -16 -31
-36 -15 -7 7 -17 9 -20 5 -4 -4 -1 -11 7 -16 23 -15 60 -12 66 5 8 20 -13 45
-37 45 -11 0 -19 7 -19 16 0 12 7 15 25 12 14 -3 25 -1 25 3 0 15 -57 10 -63
-5z"/>
<path d="M3741 3288 c1 -29 4 -43 6 -30 6 28 38 29 53 1 7 -11 14 -18 17 -15
3 3 0 12 -7 21 -10 12 -10 18 0 30 20 24 4 45 -35 45 l-35 0 1 -52z m62 27
c-3 -13 -53 -20 -53 -7 0 15 13 23 35 20 11 -2 19 -7 18 -13z"/>
<path d="M3850 3290 l0 -50 38 2 c36 1 36 1 5 5 -39 5 -46 33 -9 33 14 0 28 5
31 10 4 6 -7 10 -24 10 -43 0 -41 27 2 33 31 4 31 4 -5 5 l-38 2 0 -50z"/>
<path d="M3980 3302 c0 -45 -8 -56 -27 -41 -9 9 -13 8 -13 0 0 -21 32 -25 46
-6 16 22 18 71 4 80 -6 4 -10 -9 -10 -33z"/>
<path d="M4031 3311 c9 -24 9 -43 1 -70 -10 -32 -10 -34 3 -17 19 25 19 77 0
102 -13 17 -14 16 -4 -15z"/>
<path d="M2698 3320 c-6 -18 3 -80 11 -80 9 0 8 76 0 85 -4 3 -9 1 -11 -5z"/>
<path d="M1892 3295 c0 -16 2 -22 5 -12 2 9 2 23 0 30 -3 6 -5 -1 -5 -18z"/>
<path d="M2530 3275 c0 -41 17 -47 22 -7 4 36 21 34 29 -4 6 -28 7 -27 8 9 1
35 -1 37 -29 37 -28 0 -30 -3 -30 -35z"/>
<path d="M2616 3292 c-11 -32 4 -53 33 -50 22 2 26 8 26 33 0 25 -4 31 -27 33
-19 2 -28 -2 -32 -16z m49 -2 c4 -6 1 -17 -5 -26 -15 -18 -42 0 -33 22 6 16
29 19 38 4z"/>
<path d="M2743 3275 c0 -22 2 -30 4 -17 2 12 2 30 0 40 -3 9 -5 -1 -4 -23z"/>
<path d="M2815 3294 c16 -39 18 -66 4 -75 -12 -7 -11 -9 1 -9 16 0 55 88 45
99 -3 3 -8 -5 -12 -17 -6 -25 -23 -30 -23 -8 0 8 -5 18 -12 22 -8 5 -9 2 -3
-12z"/>
<path d="M2981 3273 c1 -28 3 -31 6 -13 3 14 10 31 15 38 8 9 6 12 -6 12 -12
0 -16 -9 -15 -37z"/>
<path d="M3030 3302 c0 -6 10 -8 23 -5 18 3 18 2 -6 -12 -35 -20 -30 -39 12
-43 31 -3 32 -2 29 30 -2 28 -7 34 -30 36 -16 2 -28 -1 -28 -6z m35 -42 c-3
-5 -10 -10 -16 -10 -5 0 -9 5 -9 10 0 6 7 10 16 10 8 0 12 -4 9 -10z"/>
<path d="M3194 3296 c-15 -39 23 -74 50 -46 8 9 6 11 -11 6 -12 -4 -24 -2 -28
4 -4 6 4 10 20 10 20 0 26 4 23 18 -4 22 -46 29 -54 8z m36 -6 c0 -5 -7 -10
-16 -10 -8 0 -12 5 -9 10 3 6 10 10 16 10 5 0 9 -4 9 -10z"/>
<path d="M3271 3273 c1 -27 3 -31 6 -13 2 14 12 31 21 38 14 11 13 12 -6 12
-19 0 -22 -5 -21 -37z"/>
<path d="M2223 3245 c0 -33 2 -45 4 -27 2 18 2 45 0 60 -2 15 -4 0 -4 -33z"/>
<path d="M4165 3290 c27 -12 43 -12 25 0 -8 5 -22 9 -30 9 -10 0 -8 -3 5 -9z"/>
<path d="M5823 3240 c0 -30 2 -43 4 -27 2 15 2 39 0 55 -2 15 -4 2 -4 -28z"/>
<path d="M6152 3265 c0 -16 2 -22 5 -12 2 9 2 23 0 30 -3 6 -5 -1 -5 -18z"/>
<path d="M1892 3205 c0 -16 2 -22 5 -12 2 9 2 23 0 30 -3 6 -5 -1 -5 -18z"/>
<path d="M6152 3170 c0 -14 2 -19 5 -12 2 6 2 18 0 25 -3 6 -5 1 -5 -13z"/>
<path d="M2375 3165 c-39 -17 -21 -18 25 0 19 7 28 14 20 14 -8 0 -28 -6 -45
-14z"/>
<path d="M1892 3115 c0 -16 2 -22 5 -12 2 9 2 23 0 30 -3 6 -5 -1 -5 -18z"/>
<path d="M2253 3127 c-33 -11 -33 -12 -31 -72 l2 -60 3 53 c4 51 5 54 29 48
19 -5 24 -3 24 13 0 11 8 22 18 24 10 3 11 5 2 4 -8 0 -30 -5 -47 -10z"/>
<path d="M4040 3110 c0 -5 5 -10 11 -10 5 0 7 5 4 10 -3 6 -8 10 -11 10 -2 0
-4 -4 -4 -10z"/>
<path d="M5823 3060 c0 -30 2 -43 4 -27 2 15 2 39 0 55 -2 15 -4 2 -4 -28z"/>
<path d="M6152 3080 c0 -14 2 -19 5 -12 2 6 2 18 0 25 -3 6 -5 1 -5 -13z"/>
<path d="M2335 3070 c27 -12 43 -12 25 0 -8 5 -22 9 -30 9 -10 0 -8 -3 5 -9z"/>
<path d="M1892 3025 c0 -16 2 -22 5 -12 2 9 2 23 0 30 -3 6 -5 -1 -5 -18z"/>
<path d="M6152 2985 c0 -16 2 -22 5 -12 2 9 2 23 0 30 -3 6 -5 -1 -5 -18z"/>
<path d="M1998 2953 c6 -2 18 -2 25 0 6 3 1 5 -13 5 -14 0 -19 -2 -12 -5z"/>
<path d="M2088 2953 c6 -2 18 -2 25 0 6 3 1 5 -13 5 -14 0 -19 -2 -12 -5z"/>
<path d="M2183 2953 c9 -2 23 -2 30 0 6 3 -1 5 -18 5 -16 0 -22 -2 -12 -5z"/>
<path d="M2273 2953 c9 -2 23 -2 30 0 6 3 -1 5 -18 5 -16 0 -22 -2 -12 -5z"/>
<path d="M2363 2953 c9 -2 23 -2 30 0 6 3 -1 5 -18 5 -16 0 -22 -2 -12 -5z"/>
<path d="M2453 2953 c9 -2 23 -2 30 0 6 3 -1 5 -18 5 -16 0 -22 -2 -12 -5z"/>
<path d="M2543 2953 c9 -2 23 -2 30 0 6 3 -1 5 -18 5 -16 0 -22 -2 -12 -5z"/>
<path d="M2638 2953 c6 -2 18 -2 25 0 6 3 1 5 -13 5 -14 0 -19 -2 -12 -5z"/>
<path d="M2728 2953 c6 -2 18 -2 25 0 6 3 1 5 -13 5 -14 0 -19 -2 -12 -5z"/>
<path d="M2818 2953 c6 -2 18 -2 25 0 6 3 1 5 -13 5 -14 0 -19 -2 -12 -5z"/>
<path d="M2908 2953 c6 -2 18 -2 25 0 6 3 1 5 -13 5 -14 0 -19 -2 -12 -5z"/>
<path d="M2998 2953 c6 -2 18 -2 25 0 6 3 1 5 -13 5 -14 0 -19 -2 -12 -5z"/>
<path d="M3088 2953 c6 -2 18 -2 25 0 6 3 1 5 -13 5 -14 0 -19 -2 -12 -5z"/>
<path d="M3183 2953 c9 -2 23 -2 30 0 6 3 -1 5 -18 5 -16 0 -22 -2 -12 -5z"/>
<path d="M3273 2953 c9 -2 23 -2 30 0 6 3 -1 5 -18 5 -16 0 -22 -2 -12 -5z"/>
<path d="M3363 2953 c9 -2 23 -2 30 0 6 3 -1 5 -18 5 -16 0 -22 -2 -12 -5z"/>
<path d="M3458 2953 c6 -2 18 -2 25 0 6 3 1 5 -13 5 -14 0 -19 -2 -12 -5z"/>
<path d="M3548 2953 c6 -2 18 -2 25 0 6 3 1 5 -13 5 -14 0 -19 -2 -12 -5z"/>
<path d="M3638 2953 c6 -2 18 -2 25 0 6 3 1 5 -13 5 -14 0 -19 -2 -12 -5z"/>
<path d="M4178 2953 c6 -2 18 -2 25 0 6 3 1 5 -13 5 -14 0 -19 -2 -12 -5z"/>
<path d="M5908 2943 c6 -2 18 -2 25 0 6 3 1 5 -13 5 -14 0 -19 -2 -12 -5z"/>
<path d="M6003 2943 c9 -2 23 -2 30 0 6 3 -1 5 -18 5 -16 0 -22 -2 -12 -5z"/>
<path d="M6093 2943 c9 -2 23 -2 30 0 6 3 -1 5 -18 5 -16 0 -22 -2 -12 -5z"/>
<path d="M2223 2875 c0 -33 2 -45 4 -27 2 18 2 45 0 60 -2 15 -4 0 -4 -33z"/>
<path d="M4046 2775 c-4 -12 -2 -14 13 -6 23 13 35 3 20 -16 -9 -9 -8 -13 0
-13 6 0 11 -9 11 -21 0 -18 -4 -20 -27 -15 -26 6 -27 5 -10 -8 11 -8 25 -12
32 -10 17 7 27 33 18 47 -4 7 -7 21 -8 32 0 25 -40 33 -49 10z"/>
<path d="M4531 2772 c-5 -10 -6 -32 -1 -52 l8 -35 2 30 c4 46 5 49 13 63 5 6
4 12 -2 12 -6 0 -15 -8 -20 -18z"/>
<path d="M4653 2778 c9 -7 18 -31 20 -53 l4 -40 1 42 c1 28 8 45 20 52 14 8 9
10 -22 11 -34 0 -37 -2 -23 -12z"/>
<path d="M4910 2772 c0 -13 -7 -18 -22 -18 -17 1 -24 -5 -26 -22 -5 -30 14
-51 38 -45 16 4 20 14 20 54 0 27 -2 49 -5 49 -3 0 -5 -8 -5 -18z m-2 -49 c-2
-10 -10 -18 -18 -18 -8 0 -16 8 -18 18 -2 12 3 17 18 17 15 0 20 -5 18 -17z"/>
<path d="M5170 2734 l0 -56 32 6 c37 7 48 20 48 57 0 33 -17 49 -52 49 -27 0
-28 -1 -28 -56z m60 31 c20 -24 4 -65 -25 -65 -22 0 -25 4 -25 40 0 32 4 40
19 40 10 0 24 -7 31 -15z"/>
<path d="M5270 2741 c0 -52 19 -74 21 -23 l1 27 10 -27 c13 -37 23 -35 39 5
l12 32 7 -35 c7 -32 7 -31 9 18 1 60 -12 68 -29 17 -14 -43 -24 -44 -36 -3
-15 53 -34 47 -34 -11z"/>
<path d="M5407 2784 c-18 -18 -6 -45 23 -51 17 -3 29 -11 27 -17 -5 -14 -47
-21 -47 -7 0 6 -4 11 -10 11 -16 0 0 -28 19 -33 23 -6 51 10 51 29 0 8 -13 20
-30 25 -16 6 -30 15 -30 19 0 16 20 21 41 9 17 -9 20 -8 17 3 -5 14 -49 23
-61 12z"/>
<path d="M5505 2744 c-9 -25 -14 -48 -11 -51 3 -4 6 -1 6 5 0 16 43 15 58 0 7
-7 12 -8 12 -3 0 16 -34 95 -41 95 -4 0 -14 -21 -24 -46z m35 1 c0 -8 -4 -15
-10 -15 -5 0 -10 7 -10 15 0 8 5 15 10 15 6 0 10 -7 10 -15z"/>
<path d="M5601 2771 c-18 -32 -13 -59 14 -77 24 -16 27 -16 45 1 25 22 19 31
-8 14 -24 -15 -52 2 -52 32 0 27 37 44 57 27 14 -11 15 -11 11 2 -7 24 -55 25
-67 1z"/>
<path d="M5712 2778 c-20 -20 -15 -76 8 -88 21 -11 60 2 60 20 0 6 -8 5 -19
-1 -26 -17 -51 -4 -51 24 0 34 23 51 49 37 12 -6 21 -7 21 -1 0 20 -50 27 -68
9z"/>
<path d="M5816 2765 c4 -16 8 -31 9 -33 2 -2 -1 -18 -5 -37 -4 -19 -4 -32 1
-30 18 12 21 73 5 101 l-16 29 6 -30z"/>
<path d="M4452 2738 c2 -23 8 -43 13 -45 8 -2 11 30 6 80 -1 4 -6 7 -12 7 -6
0 -9 -17 -7 -42z"/>
<path d="M5127 2773 c-9 -9 -9 -85 1 -100 4 -6 7 15 7 48 0 32 0 59 -1 59 0 0
-4 -3 -7 -7z"/>
<path d="M4130 2749 c0 -6 7 -9 15 -5 8 3 15 1 15 -4 0 -6 -7 -10 -15 -10 -20
0 -32 -30 -16 -39 20 -13 63 0 57 16 -3 8 -6 23 -6 34 0 14 -7 19 -25 19 -14
0 -25 -5 -25 -11z m35 -39 c-3 -5 -10 -10 -16 -10 -5 0 -9 5 -9 10 0 6 7 10
16 10 8 0 12 -4 9 -10z"/>
<path d="M4291 2721 c2 -30 3 -32 6 -8 5 34 33 36 33 2 0 -14 5 -25 11 -25 6
0 9 14 7 33 -3 27 -7 32 -30 33 -26 1 -28 -2 -27 -35z"/>
<path d="M4377 2753 c-12 -11 -8 -50 7 -62 29 -24 64 17 44 53 -9 16 -39 22
-51 9z m43 -34 c0 -25 -33 -22 -38 4 -2 12 3 17 17 17 15 0 21 -6 21 -21z"/>
<path d="M4571 2747 c-1 -10 4 -28 10 -39 8 -14 8 -23 0 -31 -14 -14 -14 -30
-1 -22 13 8 40 72 40 94 -1 9 -7 3 -14 -14 l-13 -30 -10 30 c-7 19 -12 23 -12
12z"/>
<path d="M4731 2720 c1 -21 3 -27 6 -15 3 11 12 28 20 37 14 15 13 17 -6 15
-17 -1 -21 -7 -20 -37z"/>
<path d="M4785 2750 c-5 -9 -1 -10 14 -5 11 3 21 2 21 -3 0 -5 -9 -12 -20 -15
-20 -5 -27 -31 -12 -41 5 -3 19 -2 31 1 31 8 27 66 -6 71 -11 2 -24 -2 -28 -8z
m40 -40 c-3 -5 -13 -10 -21 -10 -8 0 -14 5 -14 10 0 6 9 10 21 10 11 0 17 -4
14 -10z"/>
<path d="M4947 2753 c-14 -13 -7 -53 11 -62 31 -17 58 17 40 52 -9 17 -39 23
-51 10z m40 -19 c-3 -3 -12 -4 -19 -1 -8 3 -5 6 6 6 11 1 17 -2 13 -5z m3 -30
c0 -2 -7 -4 -15 -4 -8 0 -15 4 -15 10 0 5 7 7 15 4 8 -4 15 -8 15 -10z"/>
<path d="M5031 2723 c2 -31 3 -33 6 -10 2 15 9 27 14 27 5 0 9 5 9 10 0 6 -7
10 -15 10 -11 0 -15 -10 -14 -37z"/>
<path d="M2223 2695 c0 -33 2 -45 4 -27 2 18 2 45 0 60 -2 15 -4 0 -4 -33z"/>
<path d="M4490 2720 c0 -16 5 -30 10 -30 6 0 10 14 10 30 0 17 -4 30 -10 30
-5 0 -10 -13 -10 -30z"/>
<path d="M2223 2515 c0 -33 2 -45 4 -27 2 18 2 45 0 60 -2 15 -4 0 -4 -33z"/>
<path d="M2280 2555 c-12 -15 -10 -15 16 -9 26 6 27 5 16 -8 -9 -11 -10 -18
-2 -23 5 -3 10 -13 10 -22 0 -12 -6 -14 -27 -8 -26 6 -27 5 -12 -10 26 -26 71
7 52 38 -4 7 -7 21 -8 32 0 25 -28 31 -45 10z"/>
<path d="M2358 2564 c-5 -4 -8 -26 -8 -50 0 -35 4 -43 22 -47 26 -7 48 8 48
33 0 21 -25 44 -39 36 -5 -4 -11 3 -13 15 -2 11 -6 17 -10 13z m42 -64 c0 -11
-7 -20 -15 -20 -8 0 -15 9 -15 20 0 11 7 20 15 20 8 0 15 -9 15 -20z"/>
<path d="M2761 2553 c-5 -10 -5 -36 -1 -58 l8 -40 2 35 c4 51 5 54 13 68 5 6
4 12 -2 12 -6 0 -14 -8 -20 -17z"/>
<path d="M2870 2560 c0 -5 7 -10 14 -10 11 0 16 -14 19 -47 l3 -48 2 48 c2 34
6 47 17 47 8 0 15 5 15 10 0 6 -16 10 -35 10 -19 0 -35 -4 -35 -10z"/>
<path d="M3140 2552 c0 -13 -7 -18 -22 -18 -19 1 -24 -5 -26 -31 -2 -18 0 -34
5 -34 53 -9 53 -9 53 47 0 30 -2 54 -5 54 -3 0 -5 -8 -5 -18z m-5 -52 c0 -8
-8 -16 -17 -18 -13 -2 -18 3 -18 18 0 15 5 20 18 18 9 -2 17 -10 17 -18z"/>
<path d="M3400 2515 c0 -52 2 -55 24 -55 32 0 56 25 56 59 0 35 -17 51 -52 51
-27 0 -28 -1 -28 -55z m65 0 c0 -25 -4 -30 -27 -33 -26 -3 -28 -1 -28 33 0 34
2 36 28 33 23 -3 27 -8 27 -33z"/>
<path d="M3506 2563 c-10 -10 -7 -93 4 -93 6 0 10 15 11 33 l1 32 9 -32 c14
-47 24 -47 40 0 l13 42 7 -45 6 -45 1 58 c1 31 0 57 -3 57 -4 0 -14 -19 -25
-42 l-19 -42 -10 27 c-6 16 -11 32 -11 37 0 12 -16 21 -24 13z"/>
<path d="M3637 2563 c-17 -16 -5 -42 23 -52 17 -5 30 -15 30 -22 0 -7 -11 -10
-30 -7 -34 5 -41 -7 -10 -17 23 -7 50 10 50 32 0 8 -13 19 -30 24 -40 14 -39
33 1 25 27 -5 30 -4 19 9 -13 16 -42 20 -53 8z"/>
<path d="M3735 2524 c-9 -25 -14 -48 -11 -51 3 -4 6 -1 6 5 0 19 48 14 59 -5
8 -14 10 -15 10 -3 1 16 -35 100 -42 100 -2 0 -12 -21 -22 -46z m35 -5 c0 -5
-4 -9 -10 -9 -5 0 -10 7 -10 16 0 8 5 12 10 9 6 -3 10 -10 10 -16z"/>
<path d="M3836 2554 c-29 -28 -11 -94 25 -94 18 0 49 20 49 32 0 9 -3 9 -12 0
-32 -32 -76 -3 -62 40 5 15 13 19 35 16 31 -5 40 6 13 16 -24 9 -31 8 -48 -10z"/>
<path d="M3942 2558 c-7 -7 -12 -27 -12 -45 0 -40 38 -65 65 -43 21 18 19 32
-4 19 -28 -18 -53 -4 -49 28 3 25 7 28 36 26 27 -1 31 1 21 13 -14 17 -41 18
-57 2z"/>
<path d="M4080 2555 c0 -8 5 -15 10 -15 6 0 10 7 10 15 0 8 -4 15 -10 15 -5 0
-10 -7 -10 -15z"/>
<path d="M2687 2553 c-9 -8 -9 -56 -1 -77 12 -31 21 -16 18 30 -3 48 -6 58
-17 47z"/>
<path d="M3350 2534 c-13 -32 -12 -44 3 -71 10 -19 12 -14 12 38 0 32 -1 59
-3 59 -1 0 -7 -12 -12 -26z"/>
<path d="M4050 2533 c5 -20 5 -46 0 -65 -9 -30 -8 -31 5 -14 8 11 15 32 15 46
0 14 -7 35 -15 46 -13 17 -14 16 -5 -13z"/>
<path d="M2522 2496 c1 -38 2 -38 5 -8 5 42 35 40 45 -3 6 -26 6 -25 5 10 -2
36 -5 40 -29 41 -26 1 -28 -1 -26 -40z"/>
<path d="M2607 2534 c-13 -13 -7 -62 8 -68 29 -11 46 5 43 38 -2 22 -9 32 -23
34 -12 2 -24 0 -28 -4z m43 -34 c0 -13 -7 -20 -20 -20 -13 0 -20 7 -20 20 0
13 7 20 20 20 13 0 20 -7 20 -20z"/>
<path d="M2801 2525 c0 -11 4 -29 8 -40 5 -11 4 -25 -2 -33 -5 -7 -7 -15 -4
-18 8 -8 35 36 42 71 6 30 6 30 -8 6 l-14 -24 -11 29 c-7 21 -10 23 -11 9z"/>
<path d="M2973 2533 c-8 -3 -12 -20 -12 -41 1 -28 3 -31 6 -12 3 14 12 33 20
43 16 17 10 20 -14 10z"/>
<path d="M3015 2531 c-3 -7 3 -11 17 -12 l23 0 -23 -10 c-33 -13 -25 -44 11
-45 26 -1 28 1 25 35 -2 28 -8 37 -25 39 -11 2 -24 -2 -28 -7z m35 -41 c0 -5
-7 -10 -16 -10 -8 0 -12 5 -9 10 3 6 10 10 16 10 5 0 9 -4 9 -10z"/>
<path d="M3182 2528 c-28 -28 0 -78 35 -63 16 7 15 9 -7 15 -22 7 -22 8 -4 9
29 1 35 10 23 32 -11 22 -30 24 -47 7z m35 -14 c-3 -3 -12 -4 -19 -1 -8 3 -5
6 6 6 11 1 17 -2 13 -5z"/>
<path d="M3273 2533 c-8 -3 -12 -20 -12 -41 2 -34 2 -35 6 -7 3 16 10 33 16
37 14 9 6 17 -10 11z"/>
<path d="M2720 2500 c0 -16 5 -30 10 -30 6 0 10 14 10 30 0 17 -4 30 -10 30
-5 0 -10 -13 -10 -30z"/>
<path d="M2223 2335 c0 -33 2 -47 4 -32 4 22 8 27 24 22 13 -4 19 -2 19 9 0 9
-8 16 -19 16 -12 0 -21 8 -24 23 -2 12 -4 -5 -4 -38z"/>
<path d="M2223 2155 c0 -33 2 -45 4 -27 2 18 2 45 0 60 -2 15 -4 0 -4 -33z"/>
<path d="M6923 2105 c0 -38 2 -53 4 -32 2 20 2 52 0 70 -2 17 -4 1 -4 -38z"/>
<path d="M2223 1970 c0 -30 2 -43 4 -27 2 15 2 39 0 55 -2 15 -4 2 -4 -28z"/>
<path d="M6777 2013 c-4 -3 -6 -29 -6 -57 1 -28 3 -42 6 -31 9 36 21 38 47 10
14 -15 26 -24 26 -18 0 5 -5 14 -11 20 -8 8 -7 17 3 32 11 19 11 24 -6 37 -21
15 -48 18 -59 7z m54 -28 c0 -5 -12 -11 -26 -13 -18 -2 -25 1 -25 13 0 12 7
15 25 13 14 -2 26 -7 26 -13z"/>
<path d="M6982 1960 c0 -30 2 -47 5 -37 2 9 8 17 13 17 5 0 14 -8 19 -17 6
-10 10 -13 11 -8 0 6 -4 17 -10 25 -5 9 -5 19 2 27 7 9 7 13 0 13 -6 0 -14 -6
-19 -12 -5 -9 -10 -3 -14 17 -5 22 -7 16 -7 -25z"/>
<path d="M6870 1951 c0 -17 5 -33 10 -36 6 -4 10 8 10 29 0 20 -4 36 -10 36
-5 0 -10 -13 -10 -29z"/>
<path d="M6907 1973 c-9 -9 12 -33 30 -33 8 0 11 -5 8 -11 -4 -6 -13 -8 -21
-5 -8 3 -14 1 -14 -5 0 -6 10 -9 22 -7 31 4 35 34 6 44 -22 7 -22 7 -3 15 20
7 20 8 -1 8 -11 1 -24 -2 -27 -6z"/>
<path d="M6923 1795 c0 -38 2 -53 4 -32 2 20 2 52 0 70 -2 17 -4 1 -4 -38z"/>
<path d="M2223 1785 c0 -33 2 -45 4 -27 2 18 2 45 0 60 -2 15 -4 0 -4 -33z"/>
<path d="M5820 1730 c0 -5 11 -10 25 -10 14 0 25 5 25 10 0 6 -11 10 -25 10
-14 0 -25 -4 -25 -10z"/>
<path d="M2223 1605 c0 -33 2 -45 4 -27 2 18 2 45 0 60 -2 15 -4 0 -4 -33z"/>
<path d="M6923 1425 c0 -38 2 -53 4 -32 2 20 2 52 0 70 -2 17 -4 1 -4 -38z"/>
<path d="M2223 1425 c0 -33 2 -45 4 -27 2 18 2 45 0 60 -2 15 -4 0 -4 -33z"/>
<path d="M6378 1305 c-17 -38 3 -75 41 -75 17 0 31 6 35 15 5 13 2 14 -15 4
-30 -16 -49 -4 -49 31 0 36 19 47 52 29 21 -11 22 -11 9 4 -21 26 -59 21 -73
-8z"/>
<path d="M6560 1280 c0 -27 5 -50 10 -50 6 0 10 23 10 50 0 28 -4 50 -10 50
-5 0 -10 -22 -10 -50z"/>
<path d="M6753 1280 c0 -30 2 -43 4 -27 2 15 2 39 0 55 -2 15 -4 2 -4 -28z"/>
<path d="M7030 1280 l0 -50 35 0 c29 0 37 5 46 27 16 43 -2 73 -46 73 l-35 0
0 -50z m65 0 c0 -31 -3 -35 -25 -35 -19 0 -26 6 -28 23 -5 36 5 54 30 50 19
-2 23 -9 23 -38z"/>
<path d="M6868 1310 c-5 -17 3 -80 11 -80 7 0 7 78 -1 86 -3 3 -8 0 -10 -6z"/>
<path d="M7218 1308 c-7 -22 6 -71 20 -76 11 -3 11 0 1 16 -10 16 -10 24 -1
35 10 11 9 17 -2 26 -10 9 -15 9 -18 -1z"/>
<path d="M2223 1245 c0 -33 2 -45 4 -27 2 18 2 45 0 60 -2 15 -4 0 -4 -33z"/>
<path d="M6485 1290 c-5 -9 -1 -10 15 -5 15 5 20 4 16 -4 -4 -6 -14 -11 -22
-11 -8 0 -14 -9 -14 -20 0 -16 7 -20 31 -20 28 0 30 2 27 33 -2 24 -8 33 -25
35 -11 2 -24 -2 -28 -8z m40 -40 c-3 -5 -13 -10 -21 -10 -8 0 -14 5 -14 10 0
6 9 10 21 10 11 0 17 -4 14 -10z"/>
<path d="M6595 1280 c-4 -12 -1 -27 5 -35 14 -16 50 -20 50 -6 0 5 -9 7 -21 4
-17 -5 -20 -2 -17 18 2 16 9 24 21 23 9 -1 17 2 17 7 0 19 -49 9 -55 -11z"/>
<path d="M6673 1270 c2 -30 6 -35 30 -38 25 -3 27 -1 26 35 -1 36 -2 37 -8 8
-3 -17 -13 -30 -21 -30 -8 0 -18 13 -22 30 -6 29 -6 29 -5 -5z"/>
<path d="M6790 1291 c0 -5 10 -7 23 -4 18 3 18 2 -6 -12 -35 -20 -30 -39 11
-43 26 -3 32 0 32 17 0 35 -12 51 -36 51 -13 0 -24 -4 -24 -9z m35 -41 c-3 -5
-10 -10 -16 -10 -5 0 -9 5 -9 10 0 6 7 10 16 10 8 0 12 -4 9 -10z"/>
<path d="M6909 1284 c-9 -11 -10 -20 -2 -32 11 -19 53 -29 53 -14 0 6 -9 8
-20 5 -11 -3 -20 0 -20 6 0 6 12 11 26 11 20 0 25 4 20 16 -3 9 -6 18 -6 20 0
11 -39 2 -51 -12z m41 -4 c0 -5 -7 -10 -16 -10 -8 0 -12 5 -9 10 3 6 10 10 16
10 5 0 9 -4 9 -10z"/>
<path d="M7141 1268 c-1 -36 1 -38 29 -38 28 0 30 2 29 38 l-1 37 -9 -33 c-12
-39 -31 -37 -40 4 -6 27 -7 27 -8 -8z"/>
<path d="M7263 1265 c0 -22 2 -30 4 -17 2 12 2 30 0 40 -3 9 -5 -1 -4 -23z"/>
<path d="M7294 1286 c-11 -29 1 -51 29 -54 15 -2 27 1 27 6 0 6 -9 8 -20 5
-11 -3 -20 0 -20 6 0 6 11 11 25 11 27 0 32 9 13 28 -16 16 -47 15 -54 -2z
m46 -6 c0 -5 -7 -10 -15 -10 -8 0 -15 5 -15 10 0 6 7 10 15 10 8 0 15 -4 15
-10z"/>
<path d="M7375 1290 c-8 -14 3 -30 21 -30 8 0 14 -5 14 -11 0 -6 -9 -8 -21 -4
-15 5 -19 4 -15 -4 9 -14 43 -14 52 0 4 7 -4 20 -17 31 -16 14 -18 18 -6 14 9
-3 17 -1 17 4 0 13 -37 13 -45 0z"/>
<path d="M6923 1105 c0 -38 2 -53 4 -32 2 20 2 52 0 70 -2 17 -4 1 -4 -38z"/>
<path d="M2223 1060 c0 -30 2 -43 4 -27 2 15 2 39 0 55 -2 15 -4 2 -4 -28z"/>
<path d="M5820 1046 c0 -6 11 -12 25 -12 16 -1 24 3 22 10 -5 14 -47 17 -47 2z"/>
<path d="M2223 875 c0 -33 2 -45 4 -27 2 18 2 45 0 60 -2 15 -4 0 -4 -33z"/>
<path d="M4073 829 c-28 -44 -28 -49 -3 -49 11 0 20 -5 20 -11 0 -8 5 -8 15 1
10 8 12 17 6 24 -5 6 -11 25 -13 41 l-3 30 -22 -36z m8 -32 c-8 -8 -11 -7 -11
4 0 20 13 34 18 19 3 -7 -1 -17 -7 -23z"/>
<path d="M4538 843 c-2 -10 -1 -34 3 -53 5 -28 7 -30 8 -9 0 14 4 29 8 33 4 3
7 15 8 26 2 25 -21 27 -27 3z"/>
<path d="M4663 853 c13 -3 17 -16 19 -51 l1 -47 6 44 c4 31 12 46 26 52 14 5
6 7 -25 7 -25 0 -37 -2 -27 -5z"/>
<path d="M4920 845 c0 -8 -9 -15 -19 -15 -26 0 -34 -15 -27 -46 5 -20 12 -25
34 -22 25 3 27 7 30 51 2 28 -1 47 -7 47 -6 0 -11 -7 -11 -15z m-3 -41 c8 -21
-13 -42 -28 -27 -13 13 -5 43 11 43 6 0 13 -7 17 -16z"/>
<path d="M5140 841 c-14 -28 -12 -74 5 -97 13 -17 13 -15 3 19 -9 28 -9 46 -1
68 13 33 9 39 -7 10z"/>
<path d="M5180 810 l0 -51 38 3 c37 3 37 3 37 48 0 45 0 45 -37 48 l-38 3 0
-51z m68 6 c4 -30 -10 -46 -40 -46 -14 0 -18 9 -18 41 0 38 1 40 28 37 21 -2
28 -9 30 -32z"/>
<path d="M5291 808 c2 -53 2 -53 9 -13 l6 40 8 -38 c10 -45 26 -44 40 4 l10
34 7 -40 c6 -40 6 -40 8 13 1 63 -12 67 -32 10 l-14 -43 -13 43 c-18 57 -30
53 -29 -10z"/>
<path d="M5417 854 c-15 -16 -5 -36 23 -45 17 -6 30 -15 30 -20 0 -17 -30 -22
-47 -8 -14 12 -16 12 -11 -1 6 -19 45 -25 63 -10 20 16 8 37 -28 49 -24 9 -28
14 -19 23 10 10 17 10 33 -1 18 -10 20 -10 17 1 -5 14 -50 23 -61 12z"/>
<path d="M5513 853 c12 -3 17 -15 17 -43 0 -21 5 -42 10 -45 6 -4 10 11 10 39
0 34 4 46 18 49 9 3 -3 5 -28 5 -25 0 -37 -2 -27 -5z"/>
<path d="M5606 813 c-18 -53 -20 -66 -5 -40 12 21 48 23 55 2 4 -8 10 -15 15
-15 4 0 -1 23 -13 50 -11 28 -24 50 -28 50 -5 0 -15 -21 -24 -47z m34 2 c0 -8
-4 -15 -10 -15 -5 0 -10 7 -10 15 0 8 5 15 10 15 6 0 10 -7 10 -15z"/>
<path d="M5700 855 c0 -6 5 -16 12 -23 10 -10 8 -19 -6 -45 l-19 -32 24 22 25
22 12 -20 c8 -12 16 -18 19 -15 4 3 -2 15 -11 25 -17 18 -17 21 -1 45 19 29
10 36 -11 9 -12 -17 -14 -17 -28 2 -8 11 -16 15 -16 10z"/>
<path d="M4466 842 c-7 -11 4 -82 13 -82 7 0 5 79 -2 86 -3 3 -8 1 -11 -4z"/>
<path d="M5805 795 c0 -29 3 -51 8 -48 4 2 7 24 7 48 0 24 -3 46 -7 48 -5 3
-8 -19 -8 -48z"/>
<path d="M4140 821 c0 -5 10 -7 23 -4 18 3 18 2 -6 -12 -35 -20 -30 -39 11
-43 34 -3 37 3 26 46 -4 15 -14 22 -30 22 -13 0 -24 -4 -24 -9z m35 -41 c-3
-5 -10 -10 -16 -10 -5 0 -9 5 -9 10 0 6 7 10 16 10 8 0 12 -4 9 -10z"/>
<path d="M4301 793 l1 -38 9 33 c12 39 31 37 41 -4 6 -27 6 -27 5 6 -2 30 -6
35 -29 38 -26 3 -28 1 -27 -35z"/>
<path d="M4384 816 c-10 -25 0 -51 20 -54 27 -6 48 25 35 49 -12 22 -47 25
-55 5z m43 -12 c8 -21 -13 -42 -28 -27 -13 13 -5 43 11 43 6 0 13 -7 17 -16z"/>
<path d="M4500 795 c0 -19 5 -35 10 -35 6 0 10 16 10 35 0 19 -4 35 -10 35 -5
0 -10 -16 -10 -35z"/>
<path d="M4581 823 c-1 -7 4 -23 10 -37 10 -20 9 -29 -2 -42 -12 -15 -12 -17
1 -12 16 5 55 98 41 98 -5 0 -12 -12 -16 -27 l-7 -28 -13 30 c-7 17 -14 25
-14 18z"/>
<path d="M4740 795 c0 -19 5 -35 10 -35 6 0 10 13 10 29 0 16 6 32 13 34 6 3
2 6 -10 6 -20 1 -23 -4 -23 -34z"/>
<path d="M4794 819 c-4 -8 1 -9 16 -4 15 5 20 4 16 -4 -4 -6 -14 -11 -22 -11
-8 0 -14 -9 -14 -20 0 -16 7 -20 30 -20 28 0 30 3 30 35 0 30 -3 35 -24 35
-14 0 -28 -5 -32 -11z m38 -41 c-9 -9 -15 -9 -24 0 -9 9 -7 12 12 12 19 0 21
-3 12 -12z"/>
<path d="M4955 811 c-9 -28 5 -51 31 -51 13 0 24 4 24 9 0 5 -9 7 -20 4 -11
-3 -20 0 -20 6 0 6 12 11 26 11 20 0 25 4 20 16 -3 9 -6 18 -6 20 0 2 -11 4
-24 4 -15 0 -27 -7 -31 -19z m45 -1 c0 -5 -7 -10 -15 -10 -8 0 -15 5 -15 10 0
6 7 10 15 10 8 0 15 -4 15 -10z"/>
<path d="M5041 793 c1 -28 3 -31 6 -13 3 14 10 31 15 38 8 9 6 12 -6 12 -12 0
-16 -9 -15 -37z"/>
<path d="M2223 695 c0 -33 2 -45 4 -27 2 18 2 45 0 60 -2 15 -4 0 -4 -33z"/>
<path d="M4075 639 c-4 -6 -5 -13 -2 -16 7 -7 27 6 27 18 0 12 -17 12 -25 -2z"/>
<path d="M2771 623 c-5 -10 -5 -36 -1 -58 l8 -40 2 35 c2 19 3 41 3 48 -1 6 3
12 8 12 5 0 9 5 9 10 0 16 -19 11 -29 -7z"/>
<path d="M2880 630 c0 -5 7 -10 14 -10 11 0 16 -14 19 -47 l3 -48 2 48 c2 40
5 47 23 47 11 0 17 5 14 10 -3 6 -22 10 -41 10 -19 0 -34 -4 -34 -10z"/>
<path d="M3417 633 c-4 -3 -7 -28 -7 -55 0 -46 1 -48 28 -48 37 0 52 17 52 57
0 22 -6 36 -19 43 -23 12 -45 13 -54 3z m61 -44 c3 -29 -20 -54 -43 -45 -9 3
-15 18 -15 41 0 34 2 36 28 33 21 -2 28 -9 30 -29z"/>
<path d="M3650 625 c-17 -20 -6 -43 22 -47 13 -2 23 -9 23 -17 0 -21 -20 -24
-39 -6 -14 15 -16 15 -16 1 0 -23 48 -32 67 -13 20 19 4 44 -30 49 -28 4 -19
23 10 23 17 -1 19 2 11 12 -14 17 -33 16 -48 -2z"/>
<path d="M3735 630 c-3 -5 1 -10 9 -10 12 0 16 -10 16 -39 0 -22 5 -43 10 -46
6 -4 10 12 10 39 0 35 4 46 16 46 8 0 12 5 9 10 -3 6 -19 10 -35 10 -16 0 -32
-4 -35 -10z"/>
<path d="M2302 603 c-27 -38 -28 -53 -2 -53 11 0 20 -5 20 -12 0 -9 3 -9 11
-1 7 7 8 25 2 54 l-9 43 -22 -31z m14 -30 c-11 -11 -17 4 -9 23 7 18 8 18 11
1 2 -10 1 -21 -2 -24z"/>
<path d="M2371 583 c-1 -46 2 -53 18 -53 43 0 56 62 14 68 -12 2 -24 11 -26
20 -3 9 -5 -7 -6 -35z m44 -3 c8 -13 -14 -42 -26 -34 -5 3 -9 14 -9 25 0 20
24 26 35 9z"/>
<path d="M2698 618 c-7 -18 3 -88 11 -88 8 0 7 88 -1 96 -3 3 -8 -1 -10 -8z"/>
<path d="M3150 615 c0 -9 -7 -15 -16 -13 -9 2 -21 -5 -28 -14 -14 -23 3 -53
33 -54 19 -1 21 4 21 47 0 27 -2 49 -5 49 -3 0 -5 -7 -5 -15z m0 -44 c0 -11
-4 -22 -9 -25 -12 -8 -34 21 -26 34 11 17 35 11 35 -9z"/>
<path d="M3370 611 c-13 -25 -13 -71 0 -91 7 -11 8 -3 4 26 -4 24 -1 50 5 63
7 11 9 21 7 21 -3 0 -10 -9 -16 -19z"/>
<path d="M3521 578 c2 -52 2 -53 8 -13 l7 40 8 -32 c11 -47 23 -49 37 -6 l14
38 6 -40 c6 -39 6 -39 8 13 1 61 -10 67 -31 15 l-14 -38 -14 38 c-20 52 -30
46 -29 -15z"/>
<path d="M3836 588 c-18 -49 -21 -72 -5 -45 12 21 48 23 55 2 4 -8 10 -15 15
-15 11 0 -25 93 -38 97 -6 2 -17 -16 -27 -39z m30 -15 c-11 -11 -19 6 -11 24
8 17 8 17 12 0 3 -10 2 -21 -1 -24z"/>
<path d="M3930 626 c0 -3 5 -15 12 -26 10 -15 9 -22 -5 -38 -9 -10 -17 -23
-17 -28 1 -5 10 2 20 15 l20 23 20 -23 c22 -28 27 -14 5 15 -13 17 -13 22 0
43 9 13 11 23 5 23 -6 0 -13 -7 -17 -15 -5 -14 -8 -14 -24 1 -11 9 -19 14 -19
10z"/>
<path d="M4035 571 c0 -33 3 -54 7 -48 10 16 10 79 0 94 -4 7 -8 -14 -7 -46z"/>
<path d="M2548 602 c-14 -2 -18 -13 -17 -40 1 -36 1 -36 8 -7 3 17 13 30 21
30 8 0 18 -13 21 -30 7 -30 7 -29 8 6 1 38 -10 48 -41 41z"/>
<path d="M2620 596 c-17 -21 -8 -60 14 -64 18 -4 46 21 46 39 0 10 -29 39 -39
39 -5 0 -14 -7 -21 -14z m40 -25 c0 -11 -4 -22 -8 -25 -14 -9 -35 12 -29 28 9
23 37 20 37 -3z"/>
<path d="M3033 598 c-5 -7 -9 -24 -9 -38 1 -20 7 -26 29 -28 25 -3 27 -1 27
31 0 23 -6 37 -16 41 -21 8 -20 8 -31 -6z m24 -14 c-3 -3 -12 -4 -19 -1 -8 3
-5 6 6 6 11 1 17 -2 13 -5z m-2 -33 c-3 -6 -11 -8 -17 -5 -6 4 -5 9 3 15 16
10 23 4 14 -10z"/>
<path d="M3195 594 c-19 -20 -16 -43 7 -58 13 -8 21 -7 30 3 11 12 10 13 -4 8
-10 -3 -20 -2 -23 3 -4 6 5 10 19 10 30 0 33 12 10 34 -19 20 -19 20 -39 0z
m35 -14 c0 -5 -7 -10 -15 -10 -8 0 -15 5 -15 10 0 6 7 10 15 10 8 0 15 -4 15
-10z"/>
<path d="M3283 603 c-8 -3 -12 -20 -12 -41 1 -28 3 -31 6 -12 3 14 10 31 15
38 13 15 8 21 -9 15z"/>
<path d="M2737 593 c-11 -10 -8 -51 3 -58 6 -4 10 8 10 29 0 37 -2 41 -13 29z"/>
<path d="M2810 593 c0 -7 5 -23 11 -37 10 -20 9 -29 -2 -42 -12 -14 -12 -16 0
-13 15 5 54 99 41 99 -4 0 -11 -10 -14 -22 l-6 -23 -15 25 c-8 14 -14 20 -15
13z"/>
<path d="M2970 565 c0 -19 5 -35 10 -35 6 0 10 13 10 29 0 16 6 32 13 34 6 3
2 6 -10 6 -20 1 -23 -4 -23 -34z"/>
<path d="M2223 515 c0 -33 2 -45 4 -27 2 18 2 45 0 60 -2 15 -4 0 -4 -33z"/>
<path d="M2242 413 c-6 -2 -10 -9 -6 -14 8 -14 31 -11 38 6 5 15 -7 18 -32 8z"/>
<path d="M2223 335 c0 -33 2 -45 4 -27 2 18 2 45 0 60 -2 15 -4 0 -4 -33z"/>
<path d="M6377 243 l552 -3 4 -63 3 -62 2 68 2 67 -557 -2 -558 -3 552 -2z"/>
<path d="M2223 150 c0 -30 2 -43 4 -28 2 16 2 40 0 56 -2 15 -4 2 -4 -28z"/>
<path d="M6122 43 c1 -41 2 -43 5 -13 6 45 16 55 43 40 18 -9 21 -18 16 -41
-3 -16 -1 -29 4 -29 14 0 12 64 -2 78 -7 7 -25 12 -40 12 -27 0 -28 -2 -26
-47z"/>
<path d="M6963 45 c0 -27 2 -38 4 -22 2 15 2 37 0 50 -2 12 -4 0 -4 -28z"/>
<path d="M7383 45 c0 -27 2 -38 4 -22 2 15 2 37 0 50 -2 12 -4 0 -4 -28z"/>
<path d="M6720 41 c0 -48 16 -55 22 -11 3 18 -1 35 -9 41 -10 9 -13 3 -13 -30z"/>
<path d="M7211 44 c-14 -49 -7 -56 9 -9 7 20 10 39 7 42 -3 3 -10 -12 -16 -33z"/>
<path d="M6227 54 c-4 -4 -7 -17 -7 -29 0 -18 5 -21 31 -17 24 4 29 9 27 26
-3 21 -37 34 -51 20z m36 -21 c-7 -2 -19 -2 -25 0 -7 3 -2 5 12 5 14 0 19 -2
13 -5z"/>
<path d="M6304 46 c-3 -8 -4 -23 -1 -33 4 -14 5 -13 6 5 1 17 7 22 27 22 14 0
23 4 19 10 -9 15 -45 12 -51 -4z"/>
<path d="M6382 30 c0 -19 2 -27 5 -17 2 9 2 25 0 35 -3 9 -5 1 -5 -18z"/>
<path d="M6417 53 c-14 -13 -6 -30 18 -41 16 -7 25 -8 25 -1 0 5 -10 14 -22
19 l-23 9 23 0 c13 1 20 5 17 11 -7 11 -28 13 -38 3z"/>
<path d="M6480 31 c0 -17 2 -31 4 -31 8 0 13 51 5 56 -5 3 -9 -9 -9 -25z"/>
<path d="M6522 48 c-15 -15 -16 -48 -2 -48 6 0 10 9 10 20 0 27 28 25 40 -2 8
-22 9 -22 9 -3 1 23 -16 45 -34 45 -6 0 -16 -5 -23 -12z"/>
<path d="M6601 26 c1 -24 3 -26 6 -8 5 27 33 29 33 2 0 -11 5 -20 11 -20 6 0
9 12 7 27 -2 23 -8 28 -30 29 -25 1 -28 -2 -27 -30z"/>
<path d="M6764 46 c-3 -8 -4 -23 -1 -33 4 -14 5 -13 6 5 1 29 41 32 41 2 0
-11 5 -20 10 -20 13 0 13 16 0 41 -12 22 -48 25 -56 5z"/>
<path d="M6892 48 c-7 -7 -12 -21 -11 -33 0 -19 1 -19 9 2 6 14 18 23 30 23
12 0 18 4 15 10 -8 14 -28 13 -43 -2z"/>
<path d="M6997 54 c-4 -4 -7 -17 -7 -29 0 -18 5 -21 31 -17 24 4 29 9 27 26
-3 21 -37 34 -51 20z m38 -14 c3 -5 -1 -10 -10 -10 -9 0 -13 5 -10 10 3 6 8
10 10 10 2 0 7 -4 10 -10z"/>
<path d="M7080 50 c0 -7 7 -10 15 -6 8 3 15 2 15 -3 0 -5 -9 -11 -20 -14 -11
-3 -20 -10 -20 -16 0 -8 6 -7 20 1 17 11 22 10 31 -2 7 -11 9 -8 7 15 -2 22
-9 31 -25 33 -13 2 -23 -2 -23 -8z"/>
<path d="M7161 28 c1 -22 3 -26 6 -13 3 11 10 26 15 33 8 9 6 12 -6 12 -12 0
-16 -9 -15 -32z"/>
<path d="M7251 28 c1 -24 3 -27 6 -10 2 12 9 22 14 22 5 0 9 5 9 10 0 6 -7 10
-15 10 -11 0 -15 -10 -14 -32z"/>
<path d="M7302 48 c-7 -7 -12 -20 -12 -30 0 -15 5 -17 28 -12 38 9 47 20 32
39 -15 18 -32 19 -48 3z m33 -8 c3 -5 -1 -10 -10 -10 -9 0 -13 5 -10 10 3 6 8
10 10 10 2 0 7 -4 10 -10z"/>
<path d="M7417 53 c-4 -3 -7 -16 -7 -28 0 -18 5 -21 30 -17 31 4 38 20 18 40
-13 13 -31 16 -41 5z m30 -19 c-3 -3 -12 -4 -19 -1 -8 3 -5 6 6 6 11 1 17 -2
13 -5z"/>
<path d="M7494 49 c-5 -9 -1 -11 14 -7 12 4 22 3 22 -2 0 -4 -9 -10 -20 -13
-11 -3 -20 -11 -19 -19 0 -10 2 -10 6 0 6 16 40 16 47 0 3 -7 4 0 3 17 -1 22
-8 31 -24 33 -11 2 -24 -2 -29 -9z"/>
<path d="M7577 53 c-13 -12 -7 -23 23 -38 20 -10 30 -12 30 -4 0 6 -9 13 -20
16 -11 3 -20 9 -20 14 0 5 7 6 15 3 8 -4 15 -1 15 5 0 12 -32 15 -43 4z"/>
<path d="M7652 48 c-7 -7 -12 -20 -12 -30 0 -15 5 -17 28 -12 38 9 47 20 32
39 -15 18 -32 19 -48 3z m35 -14 c-3 -3 -12 -4 -19 -1 -8 3 -5 6 6 6 11 1 17
-2 13 -5z"/>
</g>
</svg>
